<?xml version="1.0" encoding="UTF-8"?><svg id="Layer_2" xmlns="http://www.w3.org/2000/svg" viewBox="0 0 108.31 47.51"><g id="Layer_1-2"><path d="M9.5,19.57c-1.36,0-2.55-.25-3.59-.75-1.04-.5-1.92-1.18-2.64-2.06-.72-.88-1.27-1.91-1.64-3.1-.37-1.19-.56-2.47-.56-3.85,0-1.59.22-3,.66-4.23.44-1.23,1.03-2.25,1.78-3.08.74-.82,1.6-1.44,2.59-1.87s2.01-.64,3.08-.64c.58,0,1.09.06,1.53.17.44.12.83.26,1.15.44s.6.38.81.6c.22.22.38.44.49.66h.16V.33h3.14v6.02h-3.14v-1.23c0-.93-.3-1.67-.91-2.24s-1.49-.85-2.64-.85-2.16.38-2.85,1.14c-.69.76-1.03,1.96-1.03,3.58v5.51c0,.85.11,1.57.33,2.17.22.6.52,1.09.91,1.49.39.4.85.69,1.38.87s1.12.27,1.75.27c1.16,0,2.14-.3,2.94-.91.8-.61,1.41-1.42,1.83-2.45l1.54.9c-.23.69-.57,1.33-1,1.94s-.95,1.13-1.56,1.58c-.61.45-1.29.8-2.05,1.06-.76.25-1.58.38-2.47.38Z"/><path d="M17.66,17.45h1.36L24.89.33h3.74l5.88,17.13h1.36v1.79h-7.94v-1.79h2.17l-1.3-3.98h-6.18l-1.3,3.98h2.17v1.79h-5.83v-1.79ZM23.16,11.6h5.15l-2.55-7.97h-.11l-2.49,7.97Z"/><path d="M37.33,17.45h1.9V2.11h-1.9V.33h10.65c.83,0,1.6.09,2.3.27s1.31.47,1.83.85.92.89,1.21,1.49.43,1.33.43,2.18c0,.65-.11,1.25-.33,1.79-.22.54-.51,1.02-.89,1.42-.38.41-.82.75-1.33,1.03-.51.28-1.06.48-1.65.61l3.5,5.88c.36.61.74,1.03,1.12,1.26.39.23.87.34,1.45.34h.14v1.79h-2.57c-.63,0-1.18-.05-1.65-.15s-.89-.26-1.25-.47c-.36-.22-.68-.49-.95-.81-.27-.32-.52-.72-.76-1.19l-2.93-5.75h-2.03v6.59h1.9v1.79h-8.18v-1.79ZM43.62,9.02h2.71c1.93,0,2.9-.86,2.9-2.57v-1.6c0-1.72-.97-2.57-2.9-2.57h-2.71v6.75Z"/><path d="M57.25,17.45h1.9V2.11h-1.9V.33h8.83c1.3,0,2.51.21,3.62.64,1.11.43,2.07,1.04,2.89,1.84.81.8,1.45,1.79,1.91,2.97s.69,2.51.69,4.01-.23,2.84-.69,4.01-1.1,2.16-1.91,2.97c-.81.8-1.78,1.42-2.89,1.84-1.11.43-2.32.64-3.62.64h-8.83v-1.79ZM63.54,17.29h1.76c.9,0,1.67-.09,2.32-.27.64-.18,1.17-.47,1.57-.85.41-.39.7-.9.89-1.54s.28-1.42.28-2.34v-4.99c0-.92-.09-1.7-.28-2.34-.19-.64-.49-1.16-.89-1.54-.41-.39-.93-.67-1.57-.85-.64-.18-1.41-.27-2.32-.27h-1.76v15.01Z"/><path d="M84.24,19.57c-.54,0-1.03-.06-1.48-.18-.44-.12-.83-.27-1.16-.47-.34-.19-.62-.4-.84-.63-.23-.23-.39-.44-.5-.65h-.11v1.6h-3.14v-5.53h3.14v1.16c0,.97.34,1.66,1.03,2.06.69.4,1.63.61,2.82.61s2.17-.25,2.78-.75c.6-.5.91-1.16.91-1.97,0-.39-.05-.74-.15-1.02-.1-.29-.27-.53-.5-.74-.23-.21-.55-.38-.95-.54-.4-.15-.89-.29-1.49-.42l-1.22-.27c-.92-.18-1.77-.43-2.53-.75-.77-.32-1.42-.73-1.96-1.23-.54-.51-.96-1.11-1.26-1.82s-.45-1.54-.45-2.5c0-.81.14-1.56.43-2.24.29-.68.7-1.26,1.25-1.75.54-.49,1.22-.87,2.02-1.14s1.72-.41,2.75-.41c.56,0,1.06.06,1.5.18.44.12.83.27,1.17.45s.61.39.83.62c.22.23.38.44.49.65h.11V.33h3.14v5.53h-3.14v-1.18c0-.95-.33-1.63-1-2.03-.67-.4-1.54-.61-2.6-.61-1.23,0-2.13.26-2.7.77-.57.51-.85,1.13-.85,1.84,0,.41.06.76.19,1.05.13.29.33.54.61.75s.65.4,1.1.55c.45.15,1,.3,1.65.44l1.14.22c.94.2,1.78.46,2.53.77s1.38.72,1.9,1.21.91,1.06,1.18,1.72c.27.66.41,1.42.41,2.29s-.16,1.64-.49,2.36c-.33.72-.79,1.35-1.4,1.87s-1.34.94-2.21,1.23-1.84.45-2.93.45Z"/><path d="M22.88,43.52h2.57v-15.18h-3.52v3.09h-3.14v-5.04h17.72v5.04h-3.14v-3.09h-3.52v15.18h2.57v1.79h-9.54v-1.79Z"/><path d="M45.94,45.63c-1.26,0-2.44-.22-3.52-.65s-2.02-1.06-2.82-1.88c-.8-.82-1.42-1.84-1.87-3.06-.45-1.22-.68-2.62-.68-4.19s.23-2.97.68-4.19c.45-1.22,1.08-2.24,1.87-3.06.8-.82,1.73-1.45,2.82-1.88s2.26-.65,3.52-.65,2.44.22,3.52.65,2.02,1.06,2.82,1.88c.79.82,1.42,1.84,1.87,3.06.45,1.22.68,2.62.68,4.19s-.23,2.97-.68,4.19c-.45,1.22-1.08,2.24-1.87,3.06-.8.82-1.73,1.45-2.82,1.88s-2.26.65-3.52.65ZM45.94,43.6c.56,0,1.08-.09,1.57-.27.49-.18.92-.46,1.29-.84.37-.38.66-.86.88-1.46.22-.59.33-1.3.33-2.13v-6.1c0-.83-.11-1.54-.33-2.13-.22-.59-.51-1.08-.88-1.46-.37-.38-.8-.66-1.29-.84-.49-.18-1.01-.27-1.57-.27s-1.08.09-1.57.27c-.49.18-.92.46-1.29.84-.37.38-.66.86-.88,1.46-.22.59-.33,1.3-.33,2.13v6.1c0,.83.11,1.54.33,2.13.22.59.51,1.08.88,1.46.37.38.8.66,1.29.84.49.18,1.01.27,1.57.27Z"/><path d="M55.35,43.52h1.9v-15.34h-1.9v-1.79h8.83c1.3,0,2.51.21,3.62.64,1.11.43,2.07,1.04,2.89,1.84.81.8,1.45,1.79,1.91,2.97s.69,2.51.69,4.01-.23,2.84-.69,4.01-1.1,2.16-1.91,2.97c-.81.8-1.78,1.42-2.89,1.84-1.11.43-2.32.64-3.62.64h-8.83v-1.79ZM61.64,43.35h1.76c.9,0,1.67-.09,2.32-.27.64-.18,1.17-.47,1.57-.85.41-.39.7-.9.89-1.54s.28-1.42.28-2.34v-4.99c0-.92-.09-1.7-.28-2.34-.19-.64-.49-1.16-.89-1.54-.41-.39-.93-.67-1.57-.85-.64-.18-1.41-.27-2.32-.27h-1.76v15.01Z"/><path d="M91.48,28.18h-1.36s-5.88,17.13-5.88,17.13h-3.74s-5.88-17.13-5.88-17.13h-1.36s0-1.79,0-1.79h7.94s0,1.79,0,1.79h-2.17s1.3,3.98,1.3,3.98h6.18s1.3-3.98,1.3-3.98h-2.17s0-1.79,0-1.79h5.83s0,1.79,0,1.79ZM85.98,34.03h-5.15s2.55,7.97,2.55,7.97h.11s2.49-7.97,2.49-7.97Z"/><path d="M95.33,43.52h2.14v-5.77l-5.09-9.57h-1.36v-1.79h7.97v1.79h-1.9l3.63,7.1h.11l3.77-7.1h-1.9v-1.79h5.61v1.79h-1.38l-5.07,8.97v6.37h2.14v1.79h-8.67v-1.79Z"/><path d="M5.28,41.59h11.24c.08,0,.15.07.15.15h0c0,.69-.56,1.25-1.25,1.25H4.17c-.08,0-.15-.07-.15-.15h0c0-.69.56-1.25,1.25-1.25Z" transform="translate(-14.64 6.63) rotate(-21.27)"/><path d="M7.71,28.5h8.6c.08,0,.15.07.15.15h0c0,.69-.56,1.25-1.25,1.25H6.61c-.08,0-.15-.07-.15-.15h0c0-.69.56-1.25,1.25-1.25Z" transform="translate(-9.81 6.14) rotate(-21.27)"/><path d="M5.48,35.29s.03-.12,0-.21c-.04-.1-.1-.14-.15-.16-.06-.03-.14-.03-.22,0l-1.41.55-.03-.99c-.03-1.16,0-1.96.12-2.38.1-.4.33-.66.69-.8.21-.08.33-.09.39-.07.07.01.12.05.15.12,0,.01.01.05,0,.13-.07.21-.09.35-.05.45.05.13.15.23.31.29.15.05.29.05.44,0,.4-.16.53-.47.37-.89-.12-.3-.34-.5-.66-.58-.31-.08-.66-.04-1.04.11-.9.35-1.5,1.05-1.78,2.07-.16.6-.26,1.64-.31,3.1l-1.1.43c-.35.19-.36.39-.31.52.03.07.09.12.16.14.06,0,.12,0,.2-.03.1-.04.18-.09.25-.16l.8-.31.22,6.46c.04,1.36,0,2.27-.11,2.72-.15.55-.43.9-.87,1.07-.29.11-.34,0-.36-.07,0-.01-.01-.05.02-.13.05-.19.06-.32.02-.42-.05-.14-.13-.23-.24-.28-.13-.06-.28-.05-.46.02-.23.09-.38.21-.46.37-.08.16-.08.36,0,.57.12.3.32.48.6.54.08.02.16.03.24.02.22,0,.47-.06.77-.17.4-.15.71-.37.95-.64.23-.27.43-.66.62-1.17.45-1.24.65-3.22.59-5.88l-.07-3.6,1.51-.59c.1-.04.17-.1.21-.17Z"/><path d="M9.63,33.9c-.53-.28-1.09-.31-1.68-.08-.75.29-1.41.91-1.96,1.84-.35.6-.58,1.24-.66,1.92-.09.69-.02,1.31.19,1.85.25.64.65,1.1,1.19,1.36.29.14.59.21.9.21.27,0,.53-.06.81-.16.85-.33,1.54-1,2.05-1.99.65-1.25.77-2.44.34-3.53-.26-.67-.66-1.15-1.18-1.42ZM9.51,38.25c-.12,1.12-.54,1.82-1.25,2.1-.27.1-.49.11-.68.02-.19-.1-.34-.3-.46-.61-.34-.88-.46-1.94-.33-3.15.13-1.23.55-2,1.24-2.27.14-.06.27-.08.39-.08.11,0,.21.02.3.07.19.1.35.3.47.62.35.9.46,2.01.32,3.31Z"/><path d="M15.95,31.53c-.18-.46-.55-.61-1.06-.41-.54.21-.98.8-1.33,1.8v-.51c.02-.49,0-.57-.02-.62-.03-.07-.08-.11-.11-.12-.04-.01-.09-.03-.16,0-.02,0-.04.02-.11.07l-.04.03c-.09.08-.31.23-.87.47-.68.3-.78.4-.73.54.03.08.1.13.19.13.06,0,.13-.01.22-.04l.14-.05c.09-.03.15-.07.17-.08l.05-.02v-.03s0,.03,0,.03c.02,0,.03-.01.04-.02l-.26,6.04v.14c-.03.05-.04.1-.03.15.01.03.05.11.17.11.04,0,.08,0,.14-.03l.08-.03.03-.02c.07-.05.18-.11.32-.17.09-.04.23-.08.44-.12.12-.05.18-.2.19-.51l.14-2.52c.06-1.06.22-1.93.49-2.61.32-.81.57-1.05.73-1.12.08-.03.14-.04.18-.02.04.02.08.07.11.14.01.03.02.07.02.13l.03.17c.03.08.14.25.44.14.19-.07.32-.22.4-.43.08-.21.08-.42,0-.63Z"/></g></svg>