<?xml version="1.0" encoding="UTF-8"?><svg id="Layer_2" xmlns="http://www.w3.org/2000/svg" viewBox="0 0 94.24 93.33"><g id="Layer_1-2"><path d="M41.62,45.99h13.69c.08,0,.15.07.15.15v.27c0,.69-.56,1.25-1.25,1.25h-13.69c-.08,0-.15-.07-.15-.15v-.27c0-.69.56-1.25,1.25-1.25Z" transform="translate(-14.17 21.65) rotate(-22.27)"/><path d="M44.25,30.33h10.54c.08,0,.15.07.15.15v.27c0,.69-.56,1.25-1.25,1.25h-10.54c-.08,0-.15-.07-.15-.15v-.27c0-.69.56-1.25,1.25-1.25Z" transform="translate(-8.16 20.88) rotate(-22.27)"/><path d="M41.95,38.56c.02-.05.04-.14,0-.24-.05-.12-.12-.17-.18-.19-.08-.03-.17-.03-.26.01l-1.67.68-.05-1.18c-.06-1.39-.03-2.35.09-2.85.12-.47.38-.79.81-.97.25-.1.39-.11.47-.1.09.01.14.06.18.14,0,.01.02.05.01.15-.08.25-.1.42-.05.54.06.16.19.27.37.34.18.06.35.06.52-.01.47-.19.62-.57.42-1.06-.15-.36-.42-.58-.8-.68-.37-.09-.79-.04-1.24.15-1.07.44-1.77,1.28-2.09,2.51-.18.72-.28,1.96-.3,3.7l-1.31.54c-.41.23-.42.47-.35.63.04.09.11.15.2.16.07.01.15,0,.24-.04.12-.05.22-.11.29-.19l.95-.39.4,7.71c.08,1.62.06,2.71-.07,3.25-.17.66-.5,1.08-1.01,1.29-.34.14-.4,0-.43-.08,0-.01-.02-.06.02-.16.06-.22.06-.38.01-.5-.07-.16-.17-.27-.3-.33-.15-.06-.33-.05-.55.04-.27.11-.45.26-.54.46-.09.2-.08.43.02.69.14.35.39.57.73.64.09.02.19.03.29.02.26,0,.56-.08.91-.22.47-.19.85-.46,1.12-.79.26-.32.5-.79.72-1.41.51-1.49.71-3.86.59-7.03l-.16-4.29,1.78-.73c.12-.05.2-.12.24-.21Z"/><path d="M46.89,36.82c-.64-.32-1.31-.34-2.01-.06-.89.36-1.66,1.11-2.3,2.23-.41.72-.66,1.49-.75,2.31-.09.82,0,1.56.26,2.2.31.76.8,1.3,1.45,1.6.35.16.71.24,1.08.23.32,0,.64-.08.96-.21,1.01-.41,1.81-1.22,2.4-2.41.75-1.51.86-2.93.34-4.22-.32-.79-.81-1.35-1.44-1.68ZM46.84,42.01c-.12,1.34-.61,2.19-1.45,2.53-.32.13-.58.14-.81.03-.23-.11-.42-.35-.57-.72-.43-1.04-.58-2.31-.47-3.75.13-1.48.61-2.4,1.44-2.73.17-.07.32-.11.47-.11.13,0,.25.02.36.07.23.11.42.36.57.73.44,1.07.59,2.39.45,3.95Z"/><path d="M54.38,33.85c-.22-.54-.67-.71-1.27-.47-.64.26-1.15.98-1.55,2.18v-.61c0-.58-.02-.68-.04-.74-.04-.09-.09-.13-.13-.14-.04-.02-.11-.03-.19,0-.03.01-.05.03-.13.08l-.05.04c-.1.1-.37.28-1.02.58-.81.37-.93.49-.86.66.04.09.12.15.23.15.07,0,.16-.02.26-.06l.16-.07c.1-.04.18-.08.2-.1l.06-.03v-.04s0,.04,0,.04c.02,0,.04-.01.05-.02l-.18,7.21v.17c-.04.07-.05.12-.02.18.01.04.07.13.2.12.04,0,.1-.01.16-.04l.1-.04.04-.02c.08-.07.21-.13.38-.2.11-.05.28-.1.52-.16.14-.06.21-.24.21-.61l.12-3.01c.05-1.26.23-2.31.53-3.12.37-.98.66-1.27.85-1.35.09-.04.16-.05.21-.02.05.02.1.08.13.17.01.04.03.08.03.16l.04.2c.04.09.17.3.52.15.22-.09.38-.26.47-.52.09-.25.08-.5-.02-.75Z"/><path d="M7.11,30.93c-1.19.69-2.17.93-3.01.65-.83-.29-1.52-1.01-2.09-2.19-.57-1.18-1-2.78-1.3-4.77-.3-2-.47-4.27-.47-6.77,0-2.89.2-5.52.63-7.8.43-2.28,1.03-4.17,1.8-5.67.77-1.49,1.67-2.58,2.71-3.31,1.03-.73,2.11-1.07,3.21-1.07.6,0,1.12.09,1.56.27.44.18.82.4,1.14.67.31.27.57.56.77.89.2.33.34.65.42.96.07,0,.1,0,.17,0,.07-.92.11-1.38.18-2.3,1.29,0,2.44-.02,2.44-.02v8.5s-1.9.27-3.15.46c.06-.73.09-1.09.15-1.82.11-1.38-.11-2.45-.66-3.26-.55-.81-1.42-1.2-2.59-1.14-1.23.06-2.22.72-2.96,2.04-.74,1.31-1.15,3.37-1.24,6.1-.13,3.7-.2,5.55-.33,9.25-.05,1.43,0,2.6.16,3.51.15.91.38,1.61.7,2.09.31.49.69.75,1.15.8.46.05.97-.07,1.54-.34,1.04-.51,1.99-1.38,2.81-2.59.83-1.21,1.52-2.62,2.05-4.24.56.32.83.48,1.39.79-.32,1.04-.73,2.07-1.23,3.1-.5,1.03-1.06,2-1.69,2.92-.63.92-1.3,1.75-2.02,2.5-.72.74-1.47,1.35-2.24,1.8Z"/><path d="M14.73,24.32s1.05-.4,1.59-.59c3.3-10.15,5.06-14.76,8.44-23.34,1.54,0,2.31,0,3.86,0,1.54,8.17,2.35,11.93,4.33,19.23.62-.09.93-.14,1.55-.22v1.99c-3.68.53-5.64.89-9.1,1.77v-2.08c.94-.22,1.65-.39,2.61-.59-.38-1.75-.56-2.64-.91-4.44-2.66.46-3.97.73-6.53,1.33-.76,2.18-1.15,3.29-1.9,5.56.89-.29,1.99-.69,1.99-.69v2.28c-2.44.78-5.91,2.17-5.91,2.17v-2.38ZM21.37,14.85c2.14-.42,3.22-.61,5.42-.95-.67-3.65-.99-5.53-1.6-9.41-.05,0-.07,0-.11,0-1.47,4.01-2.22,6.07-3.71,10.36Z"/><path d="M36.17,19.2c.88-.1,1.32-.14,2.21-.23.42-6.67.63-10.01,1.05-16.68-.79,0-1.19.02-1.99.03.06-.79.09-1.18.15-1.97,4.4-.01,6.6-.01,11.01-.01.86,0,1.65.1,2.39.29.74.19,1.38.5,1.94.92.56.42,1.01.96,1.35,1.62.34.66.55,1.45.6,2.37.04.71-.03,1.35-.24,1.93-.2.58-.5,1.08-.89,1.5-.4.42-.87.77-1.42,1.06-.55.28-1.16.48-1.83.6,1.64,2.55,2.5,3.83,4.27,6.49.46.69.92,1.19,1.39,1.47.47.29,1.04.46,1.71.54.06,0,.09.01.16.02.06.79.09,1.18.15,1.96-1.21-.15-1.82-.21-3.04-.31-.75-.06-1.42-.17-1.98-.31-.57-.14-1.08-.34-1.52-.59-.44-.25-.83-.56-1.17-.91-.33-.36-.65-.79-.94-1.3-1.44-2.48-2.14-3.7-3.45-6.14-.93,0-1.39.02-2.31.04-.08,2.81-.12,4.22-.2,7.03.91-.03,1.36-.05,2.28-.06,0,.76-.01,1.14-.02,1.9-4.01.06-5.98.2-9.81.68.06-.79.09-1.18.15-1.97ZM43.83,9.64c1.21-.02,1.82-.03,3.04-.03,2.17,0,3.23-.89,3.19-2.72-.02-.68-.02-1.02-.04-1.71-.04-1.83-1.08-2.75-3.12-2.75-1.14,0-1.71,0-2.85,0-.08,2.88-.12,4.32-.2,7.21Z"/><path d="M59.75,19.37c.87.11,1.3.17,2.17.3-.64-6.92-.96-10.38-1.59-17.29-.79-.02-1.19-.02-1.98-.04-.07-.79-.1-1.19-.16-1.98,3.65,0,5.47.02,9.12.03,1.34,0,2.62.27,3.82.83,1.21.56,2.29,1.38,3.23,2.49.95,1.11,1.74,2.5,2.37,4.15.63,1.66,1.05,3.54,1.25,5.61.21,2.07.16,3.86-.14,5.33-.3,1.47-.8,2.61-1.52,3.41-.71.8-1.61,1.28-2.72,1.46-1.1.18-2.35.06-3.76-.31-3.83-1.01-5.82-1.42-9.92-2-.07-.79-.1-1.19-.16-1.98ZM66.8,20.37c.77.16,1.16.24,1.92.42.98.22,1.8.32,2.45.27.66-.05,1.17-.26,1.54-.64.37-.38.61-.95.72-1.73.11-.77.09-1.75-.04-2.94-.28-2.56-.42-3.84-.7-6.4-.13-1.18-.34-2.2-.63-3.03-.29-.84-.67-1.51-1.14-2.03-.47-.51-1.06-.89-1.75-1.14-.69-.25-1.5-.39-2.44-.42-.73-.02-1.1-.03-1.83-.06.76,7.07,1.13,10.61,1.89,17.69Z"/><path d="M88.59,31.66c-.46-.28-.9-.63-1.3-1.04-.4-.41-.76-.84-1.08-1.3-.32-.46-.6-.91-.83-1.36-.23-.45-.41-.85-.53-1.21-.04-.02-.06-.03-.1-.05.07.97.11,1.45.18,2.42-1.15-.59-1.73-.88-2.93-1.43-.28-3.18-.42-4.77-.71-7.95,1.23.39,1.83.59,3.02,1.02.05.7.08,1.05.13,1.75.11,1.47.51,2.63,1.18,3.55.67.91,1.54,1.65,2.58,2.21,1.09.58,1.86.62,2.34.06.49-.56.71-1.55.67-2.93-.02-.68-.08-1.28-.18-1.81-.1-.53-.26-1.01-.48-1.45-.22-.44-.51-.85-.88-1.24-.37-.39-.83-.79-1.39-1.19-.46-.33-.69-.5-1.15-.82-.87-.58-1.7-1.21-2.47-1.91-.77-.7-1.45-1.48-2.04-2.36-.59-.88-1.08-1.85-1.47-2.93-.38-1.08-.64-2.3-.76-3.68-.1-1.17-.05-2.23.16-3.2.21-.96.56-1.79,1.06-2.5.5-.7,1.14-1.26,1.94-1.67.8-.41,1.73-.62,2.79-.62.58,0,1.1.1,1.56.29.46.2.87.45,1.23.76.35.31.65.67.88,1.06.23.4.41.77.53,1.12.04,0,.07,0,.11,0-.03-1.08-.04-1.61-.07-2.69,1.29.01,1.94.02,3.23.03.01,3.99.02,5.99.03,9.99-1.19-.22-1.79-.33-3.01-.54-.02-.81-.03-1.22-.05-2.03-.04-1.63-.4-2.83-1.1-3.56-.69-.73-1.58-1.11-2.66-1.17-1.24-.07-2.13.29-2.66,1.04-.52.75-.74,1.65-.66,2.75.05.63.15,1.17.3,1.63.16.46.38.87.68,1.25.3.38.68.73,1.13,1.05.46.32,1.01.66,1.65,1.02.45.23.67.35,1.11.59.91.52,1.73,1.15,2.44,1.87.71.72,1.31,1.59,1.78,2.6.48,1.01.83,2.17,1.07,3.45.24,1.29.35,2.73.35,4.31s-.13,2.91-.39,4.06c-.26,1.15-.62,2.03-1.09,2.63-.47.6-1.05.92-1.74.95-.69.04-1.49-.25-2.42-.82Z"/><path d="M2.78,90.79c1.05-.06,1.58-.09,2.63-.15.23-7.7.35-11.56.61-19.26-1.24.64-1.85.98-3.05,1.66-.1,1.45-.15,2.17-.24,3.62-1.11.5-1.66.76-2.73,1.29.23-2.18.35-3.27.58-5.45,5.6-4.05,8.81-5.81,15.68-8.58.05,3.08.07,4.62.13,7.7-1.24.36-1.85.55-3.07.95-.02-1.81-.02-2.71-.04-4.52-1.34.54-2,.82-3.3,1.41-.05,8.38-.07,12.57-.07,20.94,1.06-.05,1.59-.08,2.65-.13.01,1.03.02,1.55.03,2.58-3.98.03-5.97.04-9.94.08.05-.86.07-1.29.11-2.15Z"/><path d="M27.8,93.33c-1.32,0-2.56-.37-3.72-1.08-1.16-.71-2.18-1.71-3.04-2.99-.87-1.28-1.56-2.86-2.08-4.73-.52-1.87-.81-4-.87-6.45-.06-2.45.12-4.67.52-6.71.41-2.03.99-3.84,1.76-5.4.77-1.56,1.69-2.88,2.78-3.92,1.09-1.04,2.29-1.76,3.61-2.1,1.32-.34,2.57-.25,3.75.28,1.17.53,2.21,1.47,3.11,2.8.89,1.34,1.61,3.08,2.15,5.22.54,2.14.84,4.63.9,7.46.06,2.83-.12,5.36-.54,7.57-.42,2.21-1.03,4.06-1.82,5.54-.79,1.48-1.74,2.6-2.85,3.37-1.11.77-2.32,1.14-3.64,1.14ZM27.67,89.86c.58-.02,1.13-.18,1.63-.51.5-.33.93-.82,1.3-1.49.37-.67.65-1.53.84-2.59.19-1.05.27-2.31.23-3.76-.13-4.29-.19-6.43-.31-10.72-.04-1.45-.19-2.69-.45-3.69-.26-1-.59-1.8-1-2.39-.41-.59-.88-.98-1.4-1.19-.52-.2-1.08-.24-1.66-.1-.59.13-1.13.42-1.62.85-.5.43-.93,1.01-1.29,1.73-.36.72-.64,1.6-.84,2.64-.19,1.03-.27,2.23-.23,3.59.12,4.02.18,6.02.31,10.04.04,1.36.2,2.52.45,3.49.26.96.59,1.75,1,2.36.41.61.87,1.06,1.39,1.35.52.29,1.07.43,1.66.41Z"/><path d="M39.64,89.49c.8,0,1.2-.01,2-.02-.15-9.34-.28-18.67-.39-28.01-.85.06-1.27.09-2.11.16-.02-1.3-.03-1.95-.05-3.25,3.94-.38,6-.46,10.04-.37,1.49.03,2.85.49,4.09,1.35,1.24.86,2.29,2.08,3.16,3.62.87,1.54,1.53,3.4,1.98,5.56.45,2.16.64,4.58.58,7.26-.07,2.69-.37,5.07-.92,7.16-.54,2.09-1.26,3.85-2.15,5.3-.89,1.44-1.93,2.55-3.11,3.32-1.18.77-2.44,1.16-3.81,1.16-3.7,0-5.55,0-9.25,0-.03-1.3-.04-1.95-.07-3.25ZM46.28,89.15c.75,0,1.12,0,1.87,0,.96,0,1.78-.16,2.46-.49.68-.33,1.24-.84,1.69-1.55.44-.71.77-1.64.99-2.81.22-1.17.35-2.59.37-4.27.06-3.64.09-5.45.14-9.09.02-1.68-.06-3.11-.25-4.29-.19-1.18-.51-2.14-.96-2.88-.45-.73-1.03-1.28-1.75-1.64-.72-.36-1.59-.55-2.62-.56-.8,0-1.21,0-2.01,0,.03,11.03.04,16.54.07,27.57Z"/><path d="M59.6,89.56c.57.01.85.02,1.42.03,2.26-9.72,4.65-19.41,7.06-28.98,1.56.4,2.33.62,3.85,1.09,1.65,9.47,3.36,18.94,5.26,28.39.56.02.84.03,1.4.06-.03,1.08-.04,1.62-.07,2.7-3.31-.02-4.97-.03-8.29-.05.04-1.18.07-1.78.11-2.96.9.03,1.36.04,2.26.08-.45-2.6-.68-3.92-1.13-6.59-2.56-.25-3.85-.36-6.44-.54-.64,2.72-.96,4.09-1.6,6.86.91.02,1.36.03,2.27.06-.04,1.23-.07,1.85-.11,3.08-2.44,0-3.65-.01-6.09-.02.04-1.28.06-1.91.09-3.19ZM65.71,79.59c2.16.21,3.24.33,5.37.59-.88-5.39-1.33-8.15-2.24-13.76-.05-.01-.07-.02-.11-.03-1.19,5.16-1.8,7.8-3.02,13.2Z"/><path d="M82.58,90.31c.88.04,1.32.06,2.21.11,0-3.17,0-4.76-.02-7.94-2.02-5.65-2.97-8.71-4.86-15.18-.52-.2-.78-.3-1.31-.49.02-1.09.02-1.63.04-2.72,3.07,1.26,4.56,1.96,7.4,3.5.02.96.02,1.43.04,2.39-.69-.33-1.03-.49-1.73-.81,1.37,4.54,2.06,6.7,3.53,10.77.04.01.06.02.1.03,1.33-3.26,1.95-4.75,3.03-7.39-.65-.37-.97-.55-1.63-.91-.04-.89-.06-1.33-.1-2.22,1.92,1.16,2.85,1.78,4.62,3.06.08.77.12,1.16.21,1.94-.45-.29-.68-.43-1.14-.71-1.33,3-2.14,4.8-3.94,8.88.11,3.22.16,4.83.26,8.05.88.05,1.32.07,2.19.12.04.86.07,1.29.11,2.16-3.61-.03-5.42-.05-9.04-.07.01-1.02.02-1.53.03-2.55Z"/></g></svg>