<?xml version="1.0" encoding="UTF-8"?><svg id="Layer_2" xmlns="http://www.w3.org/2000/svg" viewBox="0 0 142.48 40.07"><g id="Layer_1-2"><path d="M9,18.14C3.83,18.14,0,14.16,0,9.12v-.05C0,4.08,3.76,0,9.15,0c3.31,0,5.29,1.1,6.92,2.71l-2.46,2.83c-1.35-1.23-2.73-1.98-4.49-1.98-2.96,0-5.09,2.46-5.09,5.46v.05c0,3.01,2.08,5.51,5.09,5.51,2,0,3.23-.8,4.61-2.06l2.46,2.48c-1.8,1.93-3.81,3.13-7.19,3.13Z"/><path d="M32.18,17.84l-1.6-3.93h-7.42l-1.6,3.93h-3.93L25.14.18h3.56l7.52,17.67h-4.03ZM26.87,4.81l-2.33,5.69h4.66l-2.33-5.69ZM34.62,10.5l2.33-5.69h-4.66l2.33,5.69ZM19.2,10.5l2.33-5.69h-4.66l2.33,5.69Z"/><path d="M49.57,17.84l-3.76-5.61h-3.03v5.61h-3.86V.3h8.02c4.13,0,6.62,2.18,6.62,5.79v.05c0,2.83-1.53,4.61-3.76,5.44l4.29,6.27h-4.51ZM49.65,6.29c0-1.65-1.15-2.51-3.03-2.51h-3.83v5.04h3.91c1.88,0,2.96-1,2.96-2.48v-.05Z"/><path d="M62.32,17.84h-6.84V.3h6.84c5.51,0,9.32,3.78,9.32,8.72v.05c0,4.94-3.81,8.77-9.32,8.77ZM67.61,9.07c0-3.11-2.13-5.29-5.29-5.29h-2.98v10.58h2.98c3.16,0,5.29-2.13,5.29-5.24v-.05Z"/><path d="M79.5,18.09c-2.66,0-5.34-.93-7.44-2.81l2.28-2.73c1.58,1.3,3.23,2.13,5.24,2.13,1.58,0,2.53-.63,2.53-1.65v-.05c0-.98-.6-1.48-3.53-2.23-3.53-.9-5.81-1.88-5.81-5.36v-.05c0-3.18,2.56-5.29,6.14-5.29,2.56,0,4.74.8,6.52,2.23l-2.01,2.91c-1.55-1.08-3.08-1.73-4.56-1.73s-2.26.68-2.26,1.53v.05c0,1.15.75,1.53,3.78,2.31,3.56.93,5.56,2.21,5.56,5.26v.05c0,3.48-2.66,5.44-6.44,5.44Z"/><path d="M4.64,25.74v3.73h8.37v3.51H4.64v6.79H.78v-17.54h13.36v3.51H4.64Z"/><path d="M24.95,40.07c-5.41,0-9.3-4.03-9.3-9.02v-.05c0-4.99,3.93-9.07,9.35-9.07s9.3,4.03,9.3,9.02v.05c0,4.99-3.93,9.07-9.35,9.07ZM30.27,31c0-3.01-2.21-5.51-5.31-5.51s-5.26,2.46-5.26,5.46v.05c0,3.01,2.21,5.51,5.31,5.51s5.26-2.46,5.26-5.46v-.05Z"/><path d="M46.82,39.77l-3.76-5.61h-3.03v5.61h-3.86v-17.54h8.02c4.13,0,6.62,2.18,6.62,5.79v.05c0,2.83-1.53,4.61-3.76,5.44l4.29,6.27h-4.51ZM46.9,28.22c0-1.65-1.15-2.51-3.03-2.51h-3.83v5.04h3.91c1.88,0,2.96-1,2.96-2.48v-.05Z"/><path d="M68.19,25.54v13.98h-3.86v-13.98h-5.34v-3.56h14.53v3.56h-5.34Z"/><path d="M83.47,39.82c-5.41,0-9.3-4.03-9.3-9.02v-.05c0-4.99,3.93-9.07,9.35-9.07s9.3,4.03,9.3,9.02v.05c0,4.99-3.93,9.07-9.35,9.07ZM88.79,30.75c0-3.01-2.21-5.51-5.31-5.51s-5.26,2.46-5.26,5.46v.05c0,3.01,2.21,5.51,5.31,5.51s5.26-2.46,5.26-5.46v-.05Z"/><path d="M101.53,39.52h-6.84v-17.54h6.84c5.51,0,9.32,3.78,9.32,8.72v.05c0,4.94-3.81,8.77-9.32,8.77ZM106.82,30.75c0-3.11-2.13-5.29-5.29-5.29h-2.98v10.58h2.98c3.16,0,5.29-2.13,5.29-5.24v-.05Z"/><path d="M124.52,39.52l-1.6-3.93h-7.42l-1.6,3.93h-3.93l7.52-17.67h3.56l7.52,17.67h-4.03ZM119.21,26.49l-2.33,5.69h4.66l-2.33-5.69Z"/><path d="M135.74,32.53v6.99h-3.86v-6.92l-6.74-10.63h4.51l4.19,7.04,4.26-7.04h4.39l-6.74,10.55Z"/></g></svg>