<?xml version="1.0" encoding="UTF-8"?><svg id="Layer_2" xmlns="http://www.w3.org/2000/svg" viewBox="0 0 476.15 477.44"><defs><style>.cls-1,.cls-2{fill:#900;}.cls-3{stroke-width:1.81px;}.cls-3,.cls-4,.cls-5{fill:#fff;}.cls-3,.cls-5{stroke:#fff;}.cls-5{stroke-width:.86px;}.cls-5,.cls-2{fill-rule:evenodd;}</style></defs><g id="Layer_2-2"><path class="cls-4" d="M99.16,224.44c-11.67.26-21.02-7.26-24.25-18.2-3.4-11.13-1.98-25.75,5.8-34.35,4.44-4.99,10.85-7.73,17.44-7.72,4.84-.01,9.93,1.57,12.27,5.77h.5v-4.77h9.68v18.53h-9.68v-3.78c0-2.86-.93-5.15-2.8-6.89-3.78-3.71-13.45-3.51-16.9.91-2.11,2.34-3.17,6.02-3.17,11.04v16.98c.01,4.54.96,8.28,3.8,11.29,4.64,4.73,13.74,4.49,18.7.72,2.48-1.86,4.35-4.38,5.63-7.56l4.76,2.76c-3.03,9.16-12.01,15.49-21.78,15.27Z"/><path class="cls-4" d="M122.46,217.93h4.17l18.11-52.75h11.52l18.11,52.75h4.17v5.51h-24.46v-5.51h6.68l-4-12.27h-19.03l-4,12.27h6.68v5.51h-17.95v-5.51ZM139.41,199.9h15.86l-7.85-24.54h-.33l-7.68,24.54Z"/><path class="cls-4" d="M183.07,217.93h5.84v-47.24h-5.84v-5.51h32.8c4.61.03,9.19.81,12.73,3.46,4.96,3.59,6.22,11.16,4.05,16.82-1.99,5.05-6.7,8.33-11.94,9.43l10.77,18.11c2.16,3.68,4.28,4.99,8.35,4.92v5.51c-5.06-.18-12.53.81-16.86-1.92-2.45-1.49-3.9-3.5-5.26-6.18,0,0-9.02-17.7-9.02-17.7h-6.26v20.28h5.85v5.51h-25.21v-5.51ZM202.43,191.97h8.35c5.95,0,8.93-2.64,8.93-7.93v-4.92c0-5.28-2.98-7.93-8.93-7.93h-8.35v20.79Z"/><path class="cls-4" d="M244.42,217.93h5.84v-47.24h-5.84v-5.51h27.21c4.01,0,7.72.66,11.14,1.96,11.22,4.16,17.1,15.2,16.9,27.17.19,11.96-5.68,23.02-16.9,27.17-3.42,1.31-7.14,1.96-11.14,1.96h-27.21v-5.51ZM263.78,217.43c7.69.06,17.73.73,20.16-8.22,1.49-4.23.69-17.81.88-22.58,0-2.84-.29-5.24-.88-7.22-2.42-8.95-12.48-8.29-20.16-8.22v46.25Z"/><path class="cls-4" d="M325.74,224.44c-4.79.04-9.87-1.86-12.27-5.92h-.33v4.92h-9.68v-17.03h9.68c-.03,3.84-.41,7.9,3.17,9.91,3.74,2.44,13.88,2.68,17.24-.46,3.34-2.57,3.91-8.58.79-11.48-2.74-2.33-7.59-2.86-11.27-3.77-7.39-1.44-14.79-4.45-17.74-11.7-3.65-9.25-.26-20.34,10.02-23.48,6.45-2.13,16.87-2.15,20.74,4.59h.33v-4.84h9.68v17.03h-9.68c.03-3.78.43-7.89-3.09-9.9-3.73-2.52-13.21-2.61-16.32.5-2.64,2.18-3.26,6.01-2.05,8.91,1.92,3.79,6.22,4.31,10.35,5.39l3.51.67c7.23,1.54,14.44,4.34,17.28,11.41,5.12,14.5-5.58,25.56-20.37,25.27Z"/><path class="cls-4" d="M147.66,298.21h7.93v-46.75h-10.85v9.52h-9.68v-15.53h54.59v15.53h-9.68v-9.52h-10.85v46.75h7.93v5.51h-29.38v-5.51Z"/><path class="cls-4" d="M218.7,304.72c-23.49-.03-31.83-23.27-25.29-43.03,7.9-23.04,42.69-23.05,50.58,0,6.55,19.75-1.81,43-25.29,43.03ZM218.7,298.46c8.19.18,12.78-6.53,12.52-14.48,0,0,0-18.8,0-18.8.26-7.94-4.33-14.66-12.52-14.47-8.19-.18-12.78,6.53-12.52,14.47,0,0,0,18.8,0,18.8-.26,7.94,4.33,14.66,12.52,14.48Z"/><path class="cls-4" d="M247.68,298.21h5.84v-47.24h-5.84v-5.51h27.21c4.01,0,7.72.66,11.14,1.96,11.22,4.16,17.1,15.2,16.9,27.17.19,11.96-5.68,23.02-16.9,27.17-3.42,1.31-7.14,1.96-11.14,1.96h-27.21v-5.51ZM267.04,297.71c7.69.06,17.73.73,20.16-8.22,1.49-4.23.69-17.81.88-22.58,0-2.84-.29-5.24-.88-7.22-2.42-8.95-12.48-8.29-20.16-8.22v46.25Z"/><path class="cls-4" d="M356.4,250.97h-4.17s-18.11,52.75-18.11,52.75h-11.52s-18.11-52.75-18.11-52.75h-4.17s0-5.51,0-5.51h24.46s0,5.51,0,5.51h-6.68s4,12.27,4,12.27h19.03s4-12.27,4-12.27h-6.68s0-5.51,0-5.51h17.95s0,5.51,0,5.51ZM339.46,268.99h-15.86s7.85,24.54,7.85,24.54h.33s7.68-24.54,7.68-24.54Z"/><path class="cls-4" d="M368.25,298.21h6.59v-17.78l-15.69-29.46h-4.17v-5.51h24.54v5.51h-5.85l11.19,21.87h.33l11.6-21.87h-5.84v-5.51h17.28v5.51h-4.26l-15.61,27.63v19.61h6.59v5.51h-26.71v-5.51Z"/><path class="cls-4" d="M85.78,299.66l34.83-13.56c.25-.1.53.03.63.28.83,2.14-.23,4.55-2.37,5.38l-34.83,13.56c-.25.1-.53-.03-.63-.28-.83-2.14.23-4.55,2.37-5.38Z"/><path class="cls-4" d="M93.58,254.5l26.65-10.37c.25-.1.53.03.63.28.83,2.14-.23,4.55-2.37,5.38l-26.65,10.37c-.25.1-.53-.03-.63-.28-.83-2.14.23-4.55,2.37-5.38Z"/><path class="cls-4" d="M86.13,272.42c.31-.7-.47-1.59-1.22-1.2,0,0-4.68,1.82-4.68,1.82l-.09-3.3c.06-5.32-.79-10.48,3.99-10.82.42.11.54.3.51.82-1.42,3.89,5.09,3.05,3.53-.5-.9-2.26-3.48-2.45-5.67-1.56-6.91,3.1-6.46,8.85-6.95,17.19l-3.66,1.43c-1.38.69-1.4,1.89-.48,2.2.49.09,1.16-.27,1.5-.62l2.66-1.03c0,5.5,1.45,26.16.37,30.54-.49,1.83-1.44,2.99-2.88,3.55-.96.37-1.12-.02-1.2-.24-.02-.04-.04-.16.05-.44.9-3.07-2.75-2.98-3.8-1-.66,1.36.52,3.5,2.03,3.72,1.14.22,2.05,0,3.37-.49,2.98-1.2,4.01-2.87,5.21-6.02,1.49-4.14,2.16-10.71,1.98-19.55l-.25-11.97,5.01-1.95c.35-.13.58-.33.68-.58Z"/><path class="cls-4" d="M99.96,267.8c-7.04-3.38-13.53,5.61-14.3,12.24-1.34,12.86,11.49,15.4,17.08,4.23,3.18-5.83,2.64-13.2-2.78-16.47ZM99.56,282.27c-.4,3.72-1.8,6.07-4.15,6.98-.9.35-1.64.37-2.25.05-.63-.32-1.15-1-1.54-2.02-1.14-2.93-1.52-6.45-1.11-10.47.42-4.1,1.81-6.64,4.14-7.55,1.81-.76,3.15.05,3.86,1.99,1.16,2.99,1.52,6.69,1.07,11.01Z"/><path class="cls-4" d="M120.99,259.91c-.6-1.53-1.84-2.01-3.52-1.36-1.79.7-3.25,2.67-4.43,6,.03-.72.07-3.84-.06-3.75-.09-.24-.25-.36-.37-.41-.12-.05-.3-.09-.54,0-.08.03-.14.07-.37.23l-.15.11c-.29.27-1.03.76-2.88,1.56-2.27.99-2.61,1.33-2.43,1.81.23.54.81.51,1.34.29.24-.09.93-.35,1.02-.45l.17-.07-.04-.1.04.1c.06-.02.11-.04.15-.05l-.86,20.08-.04.47c-.16.38-.08.8.52.85.18.01.52-.12.73-.2l.11-.06c.69-.49,1.41-.7,2.51-.96.4-.16.58-.65.63-1.7l.48-8.39c.19-3.51.74-6.43,1.63-8.67,1.07-2.7,1.91-3.51,2.43-3.71.25-.1.46-.12.6-.05.27.13.43.53.45.93l.11.56c.1.27.45.84,1.45.45,1.3-.47,1.86-2.24,1.32-3.5Z"/><path id="rect3667" class="cls-3" d="M238.02,476.54c-6.09,0-4.94-7.09-1.72-9.25-3.35,1.87-8.4-.48-7.28-4.61,1.14-4.2,6.36-3.3,8.09-.71-.87-4.99-2.35-5.68-3.16-6.82h8.03c-.76,1.07-2.02,1.83-2.74,6.75,1.72-2.59,6.71-3.53,7.86.73,1.18,4.37-3.82,6.31-7.22,4.69,3.25,2,4.28,9.23-1.87,9.23Z"/><path id="path2076" class="cls-5" d="M238.22.69c.34.47,1.95,3.77,6.09,7.39,6.33,6.59.32,12.3-5.38,9.03.82,3.74,1.64,4.02,2.41,5.02h-6.03c.64-.99,1.22-1.29,2.27-5.04-5.58,3.44-12.51-1.79-5.44-9,3.82-3.55,5.76-7,6.09-7.39Z"/><path id="path30" class="cls-1" d="M454.72,238.89s.28.12.55.2c1.73.57,3.59,1.62,5.63,3.17.85.65,1.62,1.28,3.14,2.57,1.32,1.12,2.37,1.94,3.08,2.39,3.05,1.94,5.53,2.13,7.36.55.7-.6,1.14-1.28,1.43-2.18.19-.6.25-1.01.25-1.71,0-1.58-.62-2.89-1.89-3.99-.5-.43-.89-.69-1.48-.95l-.4-.18.5-.24c2.24-1.07,3.45-3.09,3.25-5.48-.17-2.08-1.65-3.82-3.61-4.25-.48-.11-1.41-.1-1.97,0-.57.11-1.46.43-2.04.75-.99.53-1.71,1.06-3.95,2.9-1.93,1.59-2.67,2.18-3.5,2.81-2.2,1.66-4,2.66-5.78,3.19-.28.08-.54.17-.57.19-.08.05-.08.2,0,.26Z"/><path id="path2139" class="cls-2" d="M10.75,231.45c3.34,2.8,6.95,5.16,10.75,7.32-3.73,2.08-7.31,4.64-10.75,7.32-3.44-2.56-7.03-5.08-10.75-7.32,3.65-2.12,7.31-4.6,10.75-7.32Z"/><path id="rect3667-2" class="cls-3" d="M85.96,419.89c-4.67-3.91.78-8.61,4.63-8.19-3.77-.72-6.12-5.77-2.61-8.21,3.57-2.49,6.99,1.56,6.66,4.66,2.54-4.38,1.85-5.86,1.96-7.25l6.15,5.16c-1.27.33-2.73.11-6.44,3.41,2.99-.88,7.41,1.61,5.55,5.61-1.9,4.11-6.98,2.38-8.55-1.05,1.21,3.62-2.65,9.82-7.36,5.87Z"/><path id="path2076-2" class="cls-5" d="M389.89,57.7c-.04.58-.93,4.14-.09,9.57.61,9.11-7.66,9.63-9.93,3.45-1.77,3.39-1.33,4.13-1.38,5.4l-4.62-3.88c1.13-.35,1.76-.2,4.98-2.4-6.49-.95-8.43-9.41,1.62-10.4,5.21-.27,8.91-1.66,9.41-1.75Z"/><path id="path30-2" class="cls-1" d="M406.14,380.96s.14.27.29.51c.96,1.55,1.71,3.54,2.27,6.04.24,1.04.42,2.02.75,3.99.29,1.71.57,3.01.82,3.81,1.09,3.44,2.87,5.18,5.28,5.15.92-.01,1.7-.25,2.5-.75.53-.34.84-.61,1.29-1.15,1.01-1.21,1.38-2.61,1.12-4.27-.1-.65-.24-1.1-.52-1.68l-.19-.39.54.14c2.4.63,4.63-.15,6.01-2.1,1.21-1.7,1.19-3.99-.03-5.57-.3-.39-1.01-.98-1.51-1.26-.5-.28-1.39-.6-2.04-.74-1.1-.23-1.99-.28-4.89-.31-2.5-.02-3.45-.05-4.48-.1-2.76-.14-4.78-.54-6.48-1.27-.27-.12-.52-.22-.56-.22-.1-.02-.19.1-.16.2Z"/><path id="path2139-2" class="cls-2" d="M68.56,87.01c.75,4.29,2.01,8.42,3.53,12.52-4.19-.8-8.58-1.15-12.94-1.3-.99-4.17-2.12-8.41-3.53-12.52,4.16.73,8.55,1.18,12.94,1.3Z"/><path id="rect3667-3" class="cls-3" d="M4.14,279.55c-1.06-6,6.13-6.09,8.81-3.3-2.42-2.98-.98-8.35,3.28-7.97,4.33.39,4.36,5.69,2.11,7.85,4.76-1.72,5.18-3.3,6.17-4.3l1.4,7.91c-1.18-.56-2.16-1.67-7.13-1.52,2.85,1.25,4.64,5.99.64,7.87-4.1,1.93-6.88-2.67-5.87-6.3-1.4,3.55-8.34,5.82-9.41-.24Z"/><path id="path2076-3" class="cls-5" d="M472.17,197.88c-.4.42-3.38,2.57-6.22,7.28-5.39,7.37-12.06,2.45-9.82-3.73-3.54,1.46-3.68,2.31-4.53,3.25l-1.05-5.94c1.09.46,1.48.98,5.36,1.36-4.36-4.9-.41-12.63,7.92-6.93,4.16,3.14,7.89,4.45,8.34,4.71Z"/><path id="path30-3" class="cls-1" d="M276.53,452.52s-.07.3-.11.57c-.26,1.81-.97,3.81-2.14,6.09-.49.95-.98,1.82-1.99,3.54-.88,1.49-1.5,2.67-1.82,3.45-1.38,3.34-1.13,5.82.73,7.34.72.58,1.46.9,2.4,1.03.63.08,1.04.07,1.73-.05,1.55-.28,2.74-1.11,3.6-2.55.34-.56.52-1,.68-1.63l.11-.42.32.45c1.44,2.03,3.64,2.86,5.96,2.25,2.02-.53,3.48-2.29,3.56-4.29.02-.49-.14-1.4-.35-1.94-.2-.54-.68-1.36-1.09-1.88-.7-.88-1.34-1.5-3.54-3.38-1.9-1.63-2.61-2.25-3.37-2.96-2.02-1.88-3.31-3.48-4.15-5.14-.13-.26-.26-.5-.29-.53-.06-.08-.21-.05-.25.05Z"/><path id="path2139-3" class="cls-2" d="M205.68,13.52c-2.18,3.77-3.88,7.75-5.34,11.86-2.69-3.31-5.84-6.39-9.08-9.32,1.92-3.83,3.78-7.8,5.34-11.86,2.72,3.23,5.8,6.4,9.08,9.32Z"/><path id="rect3667-4" class="cls-3" d="M32.94,120.55c3.05-5.27,8.61-.73,8.87,3.14.06-3.84,4.62-7.03,7.64-4,3.07,3.09-.32,7.16-3.43,7.37,4.75,1.74,6.09.81,7.49.67l-4.02,6.96c-.55-1.19-.58-2.67-4.48-5.75,1.39,2.79-.3,7.57-4.56,6.44-4.38-1.16-3.56-6.46-.45-8.6-3.36,1.82-10.13-.91-7.05-6.23Z"/><path id="path2076-4" class="cls-5" d="M443.1,356.64c-.58.06-4.24-.2-9.44,1.58-8.87,2.18-10.81-5.88-5.12-9.18-3.65-1.16-4.3-.59-5.55-.42l3.01-5.22c.54,1.05.5,1.7,3.23,4.49-.19-6.56,7.8-9.94,10.52-.21,1.17,5.08,3.18,8.49,3.36,8.97Z"/><path id="path30-4" class="cls-1" d="M126.56,427.78s-.24.19-.45.37c-1.36,1.22-3.19,2.3-5.55,3.29-.99.41-1.92.77-3.8,1.43-1.63.58-2.86,1.08-3.61,1.47-3.2,1.67-4.61,3.73-4.16,6.1.17.91.54,1.63,1.18,2.33.43.47.75.72,1.36,1.07,1.37.79,2.81.91,4.4.36.62-.21,1.04-.43,1.57-.81l.35-.25-.04.55c-.2,2.48.95,4.53,3.12,5.55,1.89.89,4.13.48,5.48-1,.33-.36.79-1.17.98-1.71.19-.54.35-1.48.37-2.14.03-1.12-.07-2.01-.54-4.87-.41-2.47-.55-3.4-.68-4.43-.34-2.74-.3-4.8.12-6.6.07-.28.12-.55.12-.59,0-.1-.13-.17-.22-.13Z"/><path id="path2139-4" class="cls-2" d="M357.97,45.36c-4.09,1.49-7.95,3.44-11.71,5.65.06-4.27-.36-8.65-.96-12.97,3.94-1.7,7.91-3.54,11.71-5.65,0,4.22.33,8.63.96,12.97Z"/><path id="rect3667-5" class="cls-3" d="M157.46,15.68c5.72-2.08,7.06,4.98,4.78,8.11,2.51-2.9,8.06-2.42,8.42,1.85.37,4.34-4.84,5.28-7.36,3.44,2.52,4.39,4.15,4.53,5.3,5.33l-7.55,2.75c.35-1.26,1.27-2.41.26-7.28-.73,3.03-5.1,5.61-7.64,2-2.61-3.7,1.43-7.24,5.18-6.87-3.74-.76-7.18-7.21-1.4-9.31Z"/><path id="path2076-5" class="cls-5" d="M318.52,461.77c-.48-.32-3.12-2.88-8.25-4.86-8.2-4.03-4.51-11.45,1.97-10.32-2.05-3.23-2.91-3.22-3.98-3.9l5.67-2.06c-.26,1.15-.71,1.63-.41,5.52,4.07-5.15,12.36-2.6,8.2,6.6-2.37,4.64-3.02,8.55-3.19,9.03Z"/><path id="path30-5" class="cls-1" d="M33.38,314.59s-.31-.01-.58,0c-1.83.05-3.92-.29-6.37-1.05-1.02-.32-1.96-.65-3.83-1.34-1.62-.6-2.89-1.01-3.71-1.19-3.53-.78-5.93-.11-7.1,2-.45.81-.64,1.6-.6,2.54.03.63.11,1.03.35,1.7.54,1.48,1.57,2.5,3.14,3.1.61.24,1.08.34,1.72.39l.43.03-.39.39c-1.75,1.77-2.18,4.09-1.18,6.26.87,1.9,2.86,3.03,4.84,2.76.49-.07,1.36-.38,1.85-.68.5-.29,1.22-.91,1.66-1.4.75-.84,1.24-1.58,2.72-4.08,1.27-2.16,1.76-2.96,2.33-3.83,1.5-2.32,2.85-3.87,4.34-4.98.23-.18.45-.34.48-.37.06-.07.01-.21-.09-.24Z"/><path id="path2139-5" class="cls-2" d="M454.15,167.65c-4.09-1.49-8.3-2.47-12.61-3.2,2.79-3.23,5.28-6.86,7.6-10.56,4.11,1.23,8.34,2.37,12.61,3.2-2.71,3.24-5.3,6.82-7.6,10.56Z"/><path id="rect3667-6" class="cls-3" d="M318.79,15.78c5.72,2.08,2.21,8.35-1.55,9.28,3.79-.61,7.73,3.33,5.26,6.83-2.51,3.56-7.1.93-7.85-2.1-.89,4.98.26,6.14.64,7.49l-7.55-2.75c1.08-.74,2.52-1.03,4.88-5.41-2.51,1.85-7.51,1.02-7.14-3.38.38-4.51,5.75-4.62,8.39-1.93-2.37-2.99-.87-10.13,4.91-8.03Z"/><path id="path2076-6" class="cls-5" d="M157.35,461.53c-.16-.56-.54-4.21-3.19-9.03-3.69-8.36,3.91-11.67,8.15-6.64.5-3.79-.16-4.34-.55-5.54l5.67,2.06c-.94.71-1.59.79-3.86,3.96,6.43-1.33,11.14,5.96,2.04,10.32-4.8,2.03-7.8,4.61-8.25,4.86Z"/><path id="path30-6" class="cls-1" d="M33.53,162.23s-.23-.21-.45-.38c-1.43-1.13-2.82-2.75-4.2-4.9-.58-.9-1.09-1.76-2.07-3.49-.85-1.51-1.56-2.63-2.08-3.3-2.2-2.86-4.47-3.89-6.73-3.03-.86.33-1.51.81-2.09,1.56-.39.5-.58.86-.82,1.53-.54,1.48-.4,2.93.41,4.39.32.58.61.95,1.07,1.4l.31.3-.55.05c-2.47.23-4.3,1.73-4.93,4.03-.55,2.01.24,4.15,1.94,5.23.42.26,1.29.58,1.85.67.57.09,1.52.09,2.17,0,1.11-.16,1.97-.41,4.7-1.38,2.36-.83,3.25-1.14,4.24-1.44,2.64-.81,4.67-1.13,6.52-1.02.29.02.56.02.6.02.1-.02.15-.16.09-.24Z"/><path id="path2139-6" class="cls-2" d="M449.23,323.15c-2.18-3.77-4.77-7.23-7.6-10.56,4.21-.68,8.45-1.86,12.61-3.2,2.36,3.58,4.86,7.18,7.6,10.56-4.16.74-8.44,1.82-12.61,3.2Z"/><path id="rect3667-7" class="cls-3" d="M443.35,120.66c3.05,5.27-3.67,7.82-7.15,6.12,3.3,1.97,3.78,7.51-.36,8.61-4.21,1.12-6.04-3.85-4.66-6.65-3.88,3.24-3.74,4.87-4.33,6.15l-4.02-6.96c1.3.12,2.6.83,7.22-1-3.11-.2-6.41-4.04-3.3-7.17,3.2-3.21,7.38.15,7.67,3.91.1-3.82,5.85-8.32,8.93-2.99Z"/><path id="path2076-7" class="cls-5" d="M32.69,356.36c.23-.53,2.29-3.57,3.36-8.97,2.54-8.77,10.49-6.43,10.51.15,2.82-2.58,2.67-3.43,3.14-4.6l3.01,5.22c-1.18-.06-1.72-.41-5.51.55,5.78,3.11,4.7,11.73-5.08,9.22-4.98-1.53-8.94-1.49-9.44-1.58Z"/><path id="path30-7" class="cls-1" d="M127.01,49.26s-.04-.3-.1-.58c-.37-1.79-.39-3.91-.07-6.45.13-1.06.3-2.04.66-4,.31-1.7.49-3.02.53-3.86.16-3.61-.93-5.85-3.2-6.65-.87-.3-1.68-.35-2.61-.15-.62.14-1,.29-1.61.64-1.37.79-2.19,1.98-2.51,3.63-.13.65-.15,1.12-.09,1.76l.04.43-.46-.32c-2.04-1.41-4.4-1.44-6.37-.08-1.72,1.19-2.48,3.34-1.87,5.25.15.47.61,1.27.99,1.71.38.44,1.1,1.04,1.67,1.39.96.59,1.77.95,4.49,1.97,2.35.88,3.22,1.22,4.18,1.63,2.54,1.08,4.3,2.14,5.66,3.41.21.2.42.38.45.4.08.05.21-.03.22-.13Z"/><path id="path2139-7" class="cls-2" d="M345.51,439.1c.76-4.29.99-8.6.96-12.97,3.66,2.19,7.67,4.01,11.71,5.65-.5,4.26-.89,8.62-.96,12.97-3.66-2.11-7.64-4.03-11.71-5.65Z"/><path id="rect3667-8" class="cls-3" d="M471.96,279.66c-1.06,6-7.84,3.63-9.41.09,1.26,3.63-1.93,8.19-5.81,6.37-3.94-1.85-2.15-6.83.7-8.09-5.06-.01-6,1.32-7.26,1.93l1.4-7.91c.92.93,1.46,2.31,6.17,3.87-2.26-2.15-2.31-7.22,2.09-7.61,4.51-.41,5.55,4.86,3.36,7.93,2.53-2.86,9.83-2.61,8.76,3.44Z"/><path id="path2076-8" class="cls-5" d="M4.11,197.59c.52-.26,4.05-1.26,8.34-4.71,7.59-5.09,12.17,1.82,7.95,6.87,3.82-.16,4.25-.91,5.36-1.5l-1.05,5.94c-.86-.8-1.05-1.42-4.57-3.12,2.42,6.1-3.93,12.01-9.81,3.8-2.83-4.38-5.89-6.89-6.22-7.28Z"/><path id="path30-8" class="cls-1" d="M277.01,24.84s.16-.26.3-.5c.87-1.61,2.21-3.25,4.09-4.99.78-.73,1.54-1.38,3.08-2.65,1.33-1.1,2.32-2,2.89-2.62,2.44-2.66,3.05-5.08,1.82-7.15-.47-.79-1.06-1.35-1.9-1.79-.56-.29-.95-.42-1.65-.54-1.55-.27-2.95.11-4.26,1.16-.51.41-.83.76-1.2,1.29l-.25.36-.15-.53c-.66-2.4-2.45-3.93-4.83-4.15-2.08-.19-4.05.96-4.81,2.82-.19.46-.35,1.37-.34,1.94,0,.58.17,1.51.38,2.14.35,1.07.75,1.87,2.17,4.39,1.23,2.18,1.68,3.01,2.16,3.93,1.26,2.46,1.92,4.4,2.14,6.25.03.29.07.56.09.6.03.09.18.12.25.04Z"/><path id="path2139-8" class="cls-2" d="M191.52,461.26c3.34-2.8,6.29-5.95,9.08-9.32,1.4,4.03,3.3,8,5.34,11.86-3.12,2.95-6.22,6.04-9.08,9.32-1.45-3.97-3.26-8-5.34-11.86Z"/><path id="rect3667-9" class="cls-3" d="M389.99,420.06c-4.67,3.91-8.34-2.26-7.26-5.98-1.37,3.59-6.74,5.03-8.54,1.14-1.83-3.95,2.75-6.62,5.74-5.75-3.87-3.26-5.45-2.84-6.8-3.19l6.15-5.16c.11,1.3-.37,2.7,2.24,6.93-.35-3.1,2.87-7.01,6.49-4.49,3.72,2.59,1.13,7.29-2.52,8.23,3.78-.56,9.21,4.32,4.5,8.27Z"/><path id="path2076-9" class="cls-5" d="M86.72,57.24c.56.14,3.92,1.64,9.41,1.75,9.08.98,8.15,9.22,1.68,10.37,3.03,2.33,3.84,2.03,5.07,2.3l-4.62,3.88c-.15-1.17.11-1.77-1.5-5.33-2.06,6.23-10.73,6.67-9.96-3.4.64-5.18-.09-9.06-.09-9.57Z"/><path id="path30-9" class="cls-1" d="M406.45,96.7s.29-.09.55-.2c1.7-.68,3.79-1.07,6.34-1.19,1.07-.05,2.06-.06,4.06-.05,1.73.01,3.06-.04,3.9-.15,3.58-.47,5.6-1.93,5.99-4.31.15-.91.05-1.72-.31-2.59-.24-.58-.46-.93-.91-1.47-1.02-1.21-2.33-1.81-4.01-1.84-.66-.01-1.13.05-1.75.22l-.42.12.23-.5c1.04-2.26.65-4.59-1.03-6.28-1.47-1.48-3.72-1.87-5.49-.94-.44.23-1.14.82-1.51,1.27-.36.45-.84,1.27-1.08,1.88-.42,1.04-.63,1.91-1.16,4.76-.46,2.46-.64,3.38-.88,4.4-.62,2.69-1.36,4.61-2.38,6.16-.16.24-.3.48-.32.51-.03.09.06.21.17.19Z"/><path id="path2139-9" class="cls-2" d="M59.31,379.26c4.36,0,8.65-.52,12.94-1.3-1.52,3.99-2.62,8.25-3.53,12.52-4.28.25-8.65.62-12.94,1.3,1.44-3.97,2.64-8.22,3.53-12.52Z"/></g></svg>