<svg width="600" height="72" viewBox="0 0 600 72" fill="none" xmlns="http://www.w3.org/2000/svg">
<g clip-path="url(#clip0_870_3250)">
<path d="M15.8057 48.9634C19.9327 57.4797 30.7349 59.5236 39.2775 59.5236C42.6151 59.5236 56.5588 59.1351 56.5588 50.5922C56.5588 45.0246 49.8837 44.0665 41.3411 42.8157C28.4754 40.8995 21.7022 39.9361 16.0997 37.344C12.9581 35.9069 5.21039 31.489 5.21039 21.2162C5.21039 6.1477 20.4554 0 37.6169 0C57.9472 0 68.4554 6.62674 73.9545 16.2235L57.5498 20.2582C53.8147 13.3387 44.1941 12.0985 37.1215 12.0985C33.8547 12.0985 22.0017 12.2901 22.0017 19.9707C22.0017 23.4252 24.4572 24.8676 27.5008 25.8257C32.401 27.2681 44.7821 29.0885 49.7912 29.9561C58.8238 31.489 73.1596 34.177 73.1596 49.2509C73.1596 67.8803 55.4863 72 37.9055 72C17.6786 72 6.77845 65.3786 0.00531006 52.8969L15.8057 48.9634Z" fill="black"/>
<path d="M82.5954 69.8869V2.11308H116.178V12.3859H95.3522V28.322H114.991V38.5948H95.3522V59.4278H117.131V69.8869H82.5954Z" fill="black"/>
<path d="M184.612 50.9647C182.358 56.7292 174.599 71.6061 154.666 71.6061C138.267 71.6061 122.265 60.6627 122.265 35.3213C122.265 20.2475 130.976 0.372559 155.162 0.372559C173.031 0.372559 180.397 11.6088 183.343 21.3014L170.477 24.5642C169.693 17.1763 163.312 11.992 155.652 11.992C144.359 11.992 136.307 20.4391 136.307 35.513C136.307 44.7265 140.118 59.6088 155.554 59.6088C164.488 59.6088 170.254 52.8862 172.345 45.9774L184.612 50.9647Z" fill="black"/>
<path d="M190.508 17.3786C190.508 7.29742 195.12 0.675995 209.951 0.675995C221.537 0.675995 228.904 5.66333 228.904 16.2235V55.489C228.904 67.3959 221.047 71.3293 209.848 71.3293C197.962 71.3293 190.503 66.9115 190.503 55.6806L190.508 17.3786ZM216.038 18.6241C216.038 15.0738 216.038 10.177 209.853 10.177C203.27 10.177 203.27 15.3613 203.27 19.1031V53.2801C203.27 57.1231 203.466 61.5356 209.755 61.5356C216.044 61.5356 216.038 56.8357 216.038 53.5516V18.6241Z" fill="black"/>
<path d="M300.098 69.8869L257.281 22.3713V69.8869H240.784V2.11308H258.163L300.686 49.4424V2.11308H317.183V69.8869H300.098Z" fill="black"/>
<path d="M352.829 2.11308C362.554 2.11308 368.347 7.87228 368.347 18.5283V52.5136C368.347 66.4325 361.47 69.8869 350.766 69.8869H330.245V2.11308H352.829ZM343.013 60.0133H348.294C354.087 60.0133 355.655 58.1876 355.655 52.7159V18.9222C355.655 13.6421 353.989 12.0027 348.784 12.0027H343.013V60.0133Z" fill="black"/>
<path d="M402.517 69.8869V2.11308H419.902V57.4105H458.396V69.8869H402.517Z" fill="black"/>
<path d="M465.267 69.8869V2.11308H477.936V69.8869H465.267Z" fill="black"/>
<path d="M504.746 12.5775V29.5675H524.581V39.6487H504.746V69.8869H491.88V2.11308H525.855V12.5775H504.746Z" fill="black"/>
<path d="M533.412 69.8869V2.11308H598.029V14.3074H550.797V29.5675H596.455V41.666H550.797V57.7937H599.994V69.8869H533.412Z" fill="black"/>
</g>
<defs>
<clipPath id="clip0_870_3250">
<rect width="600" height="72" fill="white"/>
</clipPath>
</defs>
</svg>
