<?xml version="1.0" encoding="utf-8"?>
<!-- Generator: Adobe Illustrator 24.1.2, SVG Export Plug-In . SVG Version: 6.00 Build 0)  -->
<svg version="1.1" id="Layer_1" xmlns="http://www.w3.org/2000/svg" xmlns:xlink="http://www.w3.org/1999/xlink" x="0px" y="0px"
	 viewBox="0 0 32 32" style="enable-background:new 0 0 32 32;" xml:space="preserve">
<style type="text/css">
	.st0{fill:#EFB79C;}
	.st1{fill:#25170C;}
	.st2{fill:none;stroke:#2C1006;stroke-width:0.7165;stroke-miterlimit:10;}
</style>
<g>
	<path id="face" class="st0" d="M21.2,30.9l5.4-5.4c0.7-0.7,1.1-1.6,1.1-2.6V6.1c0-1-0.4-1.9-1.1-2.6l-0.1-0.1
		c-0.7-0.7-1.6-1.1-2.6-1.1H8.1c-1,0-1.9,0.4-2.6,1.1L5.5,3.5C4.8,4.2,4.4,5.1,4.4,6.1V23c0,1,0.4,1.9,1.1,2.6l5.4,5.4
		c0.7,0.7,1.6,1.1,2.6,1.1h5.2C19.6,32,20.5,31.6,21.2,30.9L21.2,30.9z"/>
	<g id="ears">
		<path id="rightEar" class="st0" d="M1.9,13.5v3.2c0,0.4,0.2,0.8,0.5,1.2L3,18.5c0.1,0.1,0.3,0.2,0.4,0.2h0.3
			c0.3,0,0.6-0.3,0.6-0.6v-4.5c0-0.2-0.1-0.3-0.2-0.4l-0.4-0.4c-0.1-0.1-0.3-0.2-0.4-0.2H2.7c-0.2,0-0.3,0.1-0.4,0.2L2,13
			C1.9,13.1,1.9,13.3,1.9,13.5z"/>
		<path id="leftEar" class="st0" d="M30.1,13.4v3.8c0,0.1,0,0.2-0.1,0.3l-1,1c-0.1,0.1-0.3,0.2-0.4,0.2H28c-0.2,0-0.4-0.2-0.4-0.4
			v-4.7c0-0.2,0.1-0.3,0.2-0.4l0.4-0.4c0.1-0.1,0.3-0.2,0.4-0.2h0.7c0.2,0,0.3,0.1,0.4,0.2l0.3,0.3C30.1,13.2,30.1,13.3,30.1,13.4
			L30.1,13.4z"/>
	</g>
	<g id="hair">
		<path id="hairMain" class="st1" d="M27.6,6.1v3.7c0-1-0.4-1.9-1.1-2.6l-0.1-0.1c-0.7-0.7-1.6-1.1-2.6-1.1H8.1
			c-1,0-1.9,0.4-2.6,1.1L5.5,7.3C4.8,7.9,4.4,8.9,4.4,9.9V6.1c0-1,0.4-1.9,1.1-2.6l0.1-0.1c0.7-0.7,1.6-1.1,2.6-1.1h15.7
			c1,0,1.9,0.4,2.6,1.1l0.1,0.1C27.2,4.2,27.6,5.1,27.6,6.1z"/>
		<g id="sideburns">
			<path id="rightSideburn" class="st1" d="M4.9,6.4H4.4v15.8h0.6V11.5l1.7-1.7c0.4-0.4,0.6-0.9,0.6-1.4V6.4H4.9z"/>
			<path id="leftSideburn" class="st1" d="M27.1,6.4h0.6v15.8h-0.6V11.5l-1.7-1.7c-0.4-0.4-0.6-0.9-0.6-1.4V6.4H27.1z"/>
		</g>
		<path id="beard" class="st1" d="M27.6,19.6V23c0,1-0.4,1.9-1.1,2.6l-5.4,5.4c-0.7,0.7-1.6,1.1-2.6,1.1h-5.2c-1,0-1.9-0.4-2.6-1.1
			l-5.4-5.4c-0.7-0.7-1.1-1.6-1.1-2.6v-3.4c0.5,0,1,0.2,1.4,0.6l4.2,4.2c1.3,1.3,2,3.1,2,4.9c0,0.2,0.1,0.4,0.2,0.6l0.1,0.1
			c0.2,0.2,0.4,0.2,0.6,0.2h1.7c0.2,0,0.3-0.1,0.4-0.2l0.4-0.4c0.1-0.1,0.4-0.2,0.6-0.2c0.2,0,0.4,0.1,0.6,0.2l0.4,0.4
			c0.1,0.1,0.3,0.2,0.4,0.2h1.7c0.2,0,0.4-0.1,0.6-0.2l0.1-0.1c0.2-0.2,0.2-0.4,0.2-0.6c0-1.8,0.7-3.6,2-4.9l4.2-4.2
			C26.6,19.8,27.1,19.6,27.6,19.6L27.6,19.6z"/>
		<g id="hairMains">
			<path id="leftHair" class="st1" d="M13,0h10.9c2,0,3.7,1.6,3.7,3.7v3.4H10.6c-0.7,0-1.2-0.5-1.2-1.2V3.7C9.3,1.7,11,0,13,0z"/>
			<path id="rightHair" class="st1" d="M5.9,1.9h1.9c0.8,0,1.5,0.7,1.5,1.5v2.5c0,0.7-0.5,1.2-1.2,1.2H4.4V3.4
				C4.4,2.6,5.1,1.9,5.9,1.9L5.9,1.9z"/>
		</g>
		<path id="moustache" class="st1" d="M20.5,23.2c0.1-0.1,0.1-0.1,0.1-0.2c0-0.1,0-0.2-0.1-0.2c-0.2-0.2-0.5-0.3-0.8-0.3h-1.8
			c-0.2,0-0.3-0.1-0.5-0.2c-0.2-0.2-0.4-0.2-0.6-0.2h-1.7c-0.2,0-0.4,0.1-0.6,0.2c-0.1,0.1-0.3,0.2-0.5,0.2h-1.8
			c-0.3,0-0.6,0.1-0.8,0.3c-0.1,0.1-0.1,0.1-0.1,0.2c0,0.1,0,0.2,0.1,0.2c0.1,0.1,0.1,0.1,0.2,0.1h8.6
			C20.4,23.2,20.5,23.2,20.5,23.2z"/>
	</g>
	<g id="glasses">
		<g id="lenses">
			<path id="rightLens" class="st2" d="M12.1,17.9H9.4c-1.1,0-2-0.9-2-2v-1.7c0-0.7,0.5-1.2,1.2-1.2h5.1c0.7,0,1.2,0.5,1.2,1.2V15
				C14.9,16.6,13.7,17.9,12.1,17.9z"/>
			<path id="leftLens" class="st2" d="M19.9,17.9h2.6c1.1,0,2-0.9,2-2v-1.7c0-0.7-0.5-1.2-1.2-1.2h-5.1c-0.7,0-1.2,0.5-1.2,1.2V15
				C17.1,16.6,18.3,17.9,19.9,17.9z"/>
		</g>
		<g id="arms">
			<path id="rightArm" class="st2" d="M4.4,13.4h3.3"/>
			<path id="leftArm" class="st2" d="M27.6,13.4h-3.3"/>
		</g>
		<g id="bendyPartsArms">
			<path id="rightBendy" class="st2" d="M7.4,15.2v-0.6c0-0.7-0.5-1.2-1.2-1.2h0"/>
			<path id="leftBendy" class="st2" d="M24.6,15.2v-0.6c0-0.7,0.5-1.2,1.2-1.2h0"/>
		</g>
		<path id="bridge" class="st2" d="M17.6,13.2h-3.2"/>
	</g>
</g>
</svg>
