<?xml version="1.0" encoding="UTF-8"?>
<svg width="174px" height="26px" viewBox="0 0 174 26" version="1.1" xmlns="http://www.w3.org/2000/svg" xmlns:xlink="http://www.w3.org/1999/xlink">
    <title>wydradesigns</title>
    <g id="Symbols" stroke="none" stroke-width="1" fill="none" fill-rule="evenodd">
        <g id="logo-/-wydradesigns-/-purple" transform="translate(0.000000, -12.000000)" fill="#6613CE" fill-rule="nonzero">
            <path d="M3.456,31 L0.048,17.536 L4.728,17.536 L6.24,26.464 L8.232,17.536 L13.272,17.536 L15.336,26.488 L16.824,17.536 L21.24,17.536 L17.808,31 L12.528,31 L10.656,22.84 L8.712,31 L3.456,31 Z M30.384,25.168 L33.12,17.536 L38.28,17.536 L29.736,37.408 L24.624,37.408 L27.84,30.424 L22.32,17.536 L27.552,17.536 L30.384,25.168 Z M37.936,24.256 C37.936,19.96 40.48,17.368 43.696,17.368 C45.472,17.368 46.864,18.16 47.608,19.384 L47.608,13.24 L52.336,13.24 L52.336,31 L47.608,31 L47.608,29.128 C46.912,30.328 45.568,31.168 43.672,31.168 C40.48,31.168 37.936,28.552 37.936,24.256 Z M47.632,24.256 C47.632,22.456 46.504,21.472 45.184,21.472 C43.84,21.472 42.736,22.432 42.736,24.256 C42.736,26.056 43.84,27.064 45.184,27.064 C46.504,27.064 47.632,26.08 47.632,24.256 Z M59.728,25.12 L59.728,31 L55.024,31 L55.024,17.536 L59.728,17.536 L59.728,19.912 C60.736,18.448 62.272,17.416 64.072,17.416 L64.072,22.432 L62.752,22.432 C60.808,22.432 59.728,23.056 59.728,25.12 Z M65.384,24.256 C65.384,19.96 67.928,17.368 71.12,17.368 C73.04,17.368 74.384,18.208 75.08,19.408 L75.08,17.536 L79.784,17.536 L79.784,31 L75.08,31 L75.08,29.128 C74.384,30.328 73.016,31.168 71.12,31.168 C67.928,31.168 65.384,28.552 65.384,24.256 Z M75.08,24.256 C75.08,22.456 73.952,21.472 72.632,21.472 C71.288,21.472 70.184,22.432 70.184,24.256 C70.184,26.056 71.288,27.064 72.632,27.064 C73.952,27.064 75.08,26.08 75.08,24.256 Z M82.216,24.328 C82.216,20.248 84.976,17.56 88.48,17.56 C90.208,17.56 92.032,18.376 93.04,19.624 L93.04,13.24 L95.8,13.24 L95.8,31 L93.04,31 L93.04,29.008 C92.2,30.208 90.616,31.216 88.456,31.216 C84.976,31.216 82.216,28.408 82.216,24.328 Z M93.04,24.376 C93.04,21.544 91.096,19.936 89.032,19.936 C86.992,19.936 85.024,21.472 85.024,24.328 C85.024,27.184 86.992,28.84 89.032,28.84 C91.096,28.84 93.04,27.232 93.04,24.376 Z M104.468,19.864 C102.62,19.864 101.132,21.112 100.844,23.2 L108.164,23.2 C108.116,21.16 106.508,19.864 104.468,19.864 Z M110.66,27.064 C109.916,29.368 107.828,31.216 104.588,31.216 C100.796,31.216 97.988,28.528 97.988,24.376 C97.988,20.224 100.676,17.56 104.588,17.56 C108.356,17.56 111.02,20.176 111.02,24.064 C111.02,24.52 110.996,24.952 110.924,25.408 L100.82,25.408 C101.012,27.592 102.572,28.912 104.588,28.912 C106.268,28.912 107.204,28.096 107.708,27.064 L110.66,27.064 Z M123.672,27.304 C123.672,29.536 121.728,31.216 118.608,31.216 C115.44,31.216 113.208,29.344 113.088,26.944 L115.92,26.944 C116.016,28.024 117.048,28.912 118.56,28.912 C120.144,28.912 120.984,28.24 120.984,27.328 C120.984,24.736 113.304,26.224 113.304,21.376 C113.304,19.264 115.272,17.56 118.392,17.56 C121.392,17.56 123.36,19.168 123.504,21.808 L120.768,21.808 C120.672,20.656 119.784,19.864 118.296,19.864 C116.832,19.864 116.064,20.464 116.064,21.352 C116.064,24.016 123.528,22.528 123.672,27.304 Z M126.324,31 L126.324,17.776 L129.06,17.776 L129.06,31 L126.324,31 Z M127.716,16.024 C126.732,16.024 125.964,15.256 125.964,14.272 C125.964,13.288 126.732,12.52 127.716,12.52 C128.676,12.52 129.444,13.288 129.444,14.272 C129.444,15.256 128.676,16.024 127.716,16.024 Z M132.148,24.328 C132.148,20.248 134.908,17.56 138.388,17.56 C140.548,17.56 142.156,18.568 142.972,19.696 L142.972,17.776 L145.732,17.776 L145.732,31.216 C145.732,34.816 143.404,37.528 139.276,37.528 C135.748,37.528 133.132,35.776 132.796,32.848 L135.508,32.848 C135.916,34.216 137.38,35.152 139.276,35.152 C141.388,35.152 142.972,33.856 142.972,31.216 L142.972,29.008 C142.132,30.136 140.548,31.216 138.388,31.216 C134.908,31.216 132.148,28.408 132.148,24.328 Z M142.972,24.376 C142.972,21.544 141.028,19.936 138.964,19.936 C136.924,19.936 134.956,21.472 134.956,24.328 C134.956,27.184 136.924,28.84 138.964,28.84 C141.028,28.84 142.972,27.232 142.972,24.376 Z M158.016,31 L158.016,23.608 C158.016,21.184 156.696,19.936 154.704,19.936 C152.688,19.936 151.368,21.184 151.368,23.608 L151.368,31 L148.632,31 L148.632,17.776 L151.368,17.776 L151.368,19.288 C152.256,18.208 153.72,17.56 155.304,17.56 C158.4,17.56 160.728,19.504 160.728,23.2 L160.728,31 L158.016,31 Z M173.372,27.304 C173.372,29.536 171.428,31.216 168.308,31.216 C165.14,31.216 162.908,29.344 162.788,26.944 L165.62,26.944 C165.716,28.024 166.748,28.912 168.26,28.912 C169.844,28.912 170.684,28.24 170.684,27.328 C170.684,24.736 163.004,26.224 163.004,21.376 C163.004,19.264 164.972,17.56 168.092,17.56 C171.092,17.56 173.06,19.168 173.204,21.808 L170.468,21.808 C170.372,20.656 169.484,19.864 167.996,19.864 C166.532,19.864 165.764,20.464 165.764,21.352 C165.764,24.016 173.228,22.528 173.372,27.304 Z" id="wydradesigns"></path>
        </g>
    </g>
</svg>