<svg xmlns="http://www.w3.org/2000/svg" viewBox="0 0 424.09 423.75"><defs><style>.cls-1{fill:#e32022;}</style></defs><g id="Layer_2" data-name="Layer 2"><g id="Layer_1-2" data-name="Layer 1"><path class="cls-1" d="M72.09,189c-3.39,0-6.1-2-6.1-4.57V4.79C66,2.25,68.7.22,72.09.22H155.5c16.29,0,29.87,10.15,29.87,22.32v63c0,12.17-13.58,22.32-29.87,22.32H95.8v76.57c0,2.54-2.71,4.57-6.1,4.57ZM155.51,29.58c0-3.3-3.39-5.84-7.8-5.84L95.8,23.55v58l51.91.18c4.41,0,7.8-2.53,7.8-5.83Z"/><path class="cls-1" d="M230.09,4.8V184.21c0,2.54-2.37,4.81-5.77,4.81H206.46c-3.4,0-6.08-2-6.08-4.52l0-21.81H140.51l0,21.67c0,2.54-2.37,4.56-5.77,4.56L117,189c-3.4,0-6.11-2-6.11-4.57l-.07-58.3c0-2.54,2.71-4.56,6.11-4.56l17.83-.1c3.39,0,5.76,2,5.76,4.57l.14,11.27h59.72l0-132.77C200.31,2,203,0,206.42,0l17.9.23C227.71.23,230.09,2.26,230.09,4.8Z"/><path class="cls-1" d="M245,5c0-2.54,2.71-4.57,6.1-4.57h18.71c3.39,0,5.76,2,5.76,4.57V184.7c0,2.54-2.71,4.57-5.76,4.57H251.14c-3.39,0-6.1-2-6.1-4.57Z"/><path class="cls-1" d="M289.8,4.79c0-2.54,2.71-4.57,6.11-4.57h19.26c3.39,0,4.45,2,4.45,4.57V162.05h53.63c3.39,0,6.08,1.72,6.08,4.26v18.05c0,2.53-2.71,4.56-6.11,4.56l-77.31.1c-3.4,0-6.11-2-6.11-4.57Z"/><path class="cls-1" d="M43.41,201.59h-37c-3.42,0-6.2,2.46-6.2,5.49V325.67a6,6,0,0,0,6.2,5.66h37c11.53,0,20.14-10.18,20.14-19.28V219C63.55,209.37,54.52,201.59,43.41,201.59Zm-19,20.67H37.43c1.09,0,2,.54,2,1.2v84.08c0,.66-.88,1.2-2,1.2H24.37Z"/><path class="cls-1" d="M121.92,222.26a5.77,5.77,0,0,0,6-5.65v-9.53a5.7,5.7,0,0,0-6-5.49H82.79c-3.41,0-6.19,2.46-6.19,5.49l-.09,84.78a6,6,0,0,0,6.2,5.66h39.86c1.18,0,5-.4,5-5.66l.08-13.55c0-4.05-2.6-5.49-5-5.49H102.21V258l19.71.09a5.77,5.77,0,0,0,6-5.66v-9.53a5.7,5.7,0,0,0-6-5.48l-19.72-.09v-15Z"/><path class="cls-1" d="M198.49,308.74h-32.1V207.24a6,6,0,0,0-6.19-5.65H146.9a6,6,0,0,0-6.2,5.65V325.67a6,6,0,0,0,6.2,5.66h51.59a6,6,0,0,0,6.19-5.66V314.4C204.68,311.22,202,308.74,198.49,308.74Z"/><path class="cls-1" d="M327.36,201.59h-13.7a6,6,0,0,0-6.19,5.65V325.67a6,6,0,0,0,6.19,5.66h13.7a5.84,5.84,0,0,0,6-5.66V207.24A5.77,5.77,0,0,0,327.36,201.59Z"/><path class="cls-1" d="M424.09,23.33c0-12.19-13.17-22.86-29.48-22.86h-34c-16.31,0-25.79,10.2-25.79,22.39v121c0,2.53,2.71,4.56,6.11,4.56l17.69,0c3.05,0,5.77-1.79,5.77-4.32V107.61l30.12-.09V184c0,2.54,2.75,5,6.15,5l17.6,0c3.06,0,5.77-2,5.77-4.56V96.93h0ZM364.45,80.54V30c0-3.3,3.39-5.84,7.81-5.84h14.52c4.42,0,7.75,2.2,7.75,5.5v51Z"/><path class="cls-1" d="M424.09,224.05c0-11.76-11.32-22.05-25.34-22.05h-29.2c-14,0-22.17,9-22.17,20.77V326.59c0,2.45,2.33,4.41,5.25,4.41l15.21,0c2.62,0,5-1.73,5-4.18V297.6l25.89-.1v28.64A5.25,5.25,0,0,0,404,331l15.13,0c2.63,0,5-2,5-4.41V294.24h0Zm-51.26,54.37V230.49c0-3.19,2.92-5.64,6.71-5.64H392c3.79,0,6.65,2.13,6.65,5.31l0,48.34Z"/><path class="cls-1" d="M236,201.59H185.39c-3.46,0-6.17,2.47-6.17,5.64v84.28c0,3.16,2.71,5.64,6.17,5.64h13.3c3.46,0,6.18-2.48,6.18-5.64V266.64H236c11.06,0,20.05-5.71,20.05-15.23V218.86C256.05,209.34,247.06,201.59,236,201.59Zm-5.27,20.31v25c0,.65-.87,1.18-1.94,1.18H204.87V220.73h23.92C229.86,220.73,230.73,221.25,230.73,221.9Z"/><path class="cls-1" d="M288.67,201.59h-13.5c-3.46,0-6.18,2.47-6.18,5.64V290H241.73v-4.85a5.75,5.75,0,0,0-6-5.64H223.87c-3.46,0-6.18,2.48-6.18,5.64V326c0,3.16,2.72,5.64,6.18,5.64h11.89a5.75,5.75,0,0,0,6-5.64V308.49H269V326c0,3.16,2.68,5.57,6.15,5.57h13.49a5.73,5.73,0,0,0,6-5.57V207.23A5.74,5.74,0,0,0,288.67,201.59Z"/><path class="cls-1" d="M51.78,172.74H9.41v-3.56a2.64,2.64,0,0,0-2.61-2.67h-4a2.61,2.61,0,0,0-2.55,2.67V186a2.61,2.61,0,0,0,2.55,2.67h4a2.61,2.61,0,0,0,2.61-2.6v-3.64H51.78a2.64,2.64,0,0,0,2.61-2.67v-4.32A2.65,2.65,0,0,0,51.78,172.74Z"/><path class="cls-1" d="M51.78,96.81h-4a2.58,2.58,0,0,0-2.55,2.6v7.67H31.94v-6.94a2.58,2.58,0,0,0-2.62-2.59h-4a2.57,2.57,0,0,0-2.54,2.59v6.94H9.41V99.41a2.58,2.58,0,0,0-2.61-2.6h-4a2.58,2.58,0,0,0-2.55,2.6v14.67a2.61,2.61,0,0,0,2.55,2.67h49a2.64,2.64,0,0,0,2.61-2.67V99.41A2.57,2.57,0,0,0,51.78,96.81Z"/><path class="cls-1" d="M3,148.83c-.8,0-2.43.89-2.43,2.17v5.59c0,1.28,1.63,2.3,2.43,2.3l48.4.08c.8,0,2.43-1,2.43-2.3v-5.59c0-1.28-1.63-2.18-2.43-2.18H39.66V137.51l12-.08c.8,0,2.43-1,2.43-2.3v-5.59c0-1.28-1.63-2.18-2.43-2.18H3c-.8,0-2.43.9-2.43,2.18v5.59c0,1.28,1.63,2.3,2.43,2.3l23.32.08V148.9Z"/><rect class="cls-1" x="76.63" y="308.74" width="51" height="22.94" rx="5.11"/><path class="cls-1" d="M197,344.05H185.38c-3,0-5.54,2.72-5.54,4.42l-.15,32H157.41l.27-31.86c0-1.74-2.26-4.43-5.27-4.43H140.76c-3,0-5.54,2.72-5.54,4.43l-.28,70.63c0,1.71,2.54,4.43,5.54,4.43h11.66c3,0,5.26-2.69,5.26-4.43V402.15h22.29l.15,17.05c0,1.71,2.54,4.43,5.54,4.43H197c3.1,0,5.27-2.87,5.27-4.43V348.47C202.3,346.92,200.13,344.05,197,344.05Z"/><path class="cls-1" d="M265.36,344.17H227c-9.53,0-14.36,3.3-14.36,9.81v59.6c0,6.66,4.74,10,14.09,10h38.37c12.09,0,14.63-5.46,14.63-10V354C279.72,347.47,274.89,344.17,265.36,344.17Zm-6.71,24.08v31.33c0,2.81-3,3.11-4.36,3.11H238.06c-3,0-4.19-.88-4.36-3.14v-31.3c0-2.24,1.22-3.12,4.36-3.12h16.23a5,5,0,0,1,3.65,1.07A2.78,2.78,0,0,1,258.65,368.25Z"/><path class="cls-1" d="M417,402.65l-26.44.05.24-52.05c0-3.7-3.14-6.6-7.15-6.6h-9.2a6.9,6.9,0,0,0-7.15,6.59L367,417.07c0,3.71,3.14,6.6,7.15,6.6l42.8-.05c4,0,7.14-2.9,7.14-6.6v-7.77C424.09,405.55,421,402.65,417,402.65Z"/><path class="cls-1" d="M42.45,344.05H16.19c-9.3,0-16,4.45-16,10.59v25.27c0,6,6.39,12.48,15.89,12.48H36.56c3.42.31,3.79,2.33,3.78,4.43v1.65c0,1.06.64,5.39-3.57,5.39H26.27c-1.3,0-2.36-.05-3.23-.05a3.42,3.42,0,0,1-3.48-3.45c0-3.38-2.57-2.87-4.1-2.94H4.24a4.12,4.12,0,0,0-4.1,4.34L0,413.23c0,7,9.78,10.52,17.78,10.52H44.05c10,0,15.46-5.89,15.46-11.43l.14-24.49c0-8.89-6.18-14-15.88-14H23.17c-2,0-3.61-.87-3.61-1.93v-7c0-1.06,1.62-1.92,3.61-1.92H36.63c3,0,3.6.68,3.6,1.69,0,3,1.3,4.34,4.14,4.34H55.52a4.1,4.1,0,0,0,4.13-4.34v-7.06C59.65,351.52,51.72,344.05,42.45,344.05Z"/><path class="cls-1" d="M122.28,395.14H110.83c-3.92,0-4.29,2.28-4.29,3.8v1.32c0,1.12,0,3.53-3.8,3.53H93.38c-4,0-3.81-2.41-3.81-3.53l-.17-34.88c0-1.12,1.7-2,3.8-2h9.36c2.88,0,3.8.92,3.81,2a5.13,5.13,0,0,0,1.17,3.48,4.14,4.14,0,0,0,3.11,1.25H122.1c2.18,0,4.09-2.76,4.09-4.43l.17-10.08c0-6.29-8.12-11.41-18.1-11.41H83c-10.5,0-15.2,5.73-15.2,11.41v56c0,6.66,7.59,12.07,16.92,12.07h23.76c9.51,0,17.86-8.63,17.86-15.06v-9.05C126.37,397.9,126.69,395.14,122.28,395.14Z"/><path class="cls-1" d="M343.29,344.17H304.91c-9.52,0-14.36,3.3-14.36,9.81v59.6c0,6.66,4.74,10,14.09,10H343c12.09,0,14.63-5.46,14.63-10V354C357.65,347.47,352.81,344.17,343.29,344.17Zm-6.72,24.08v31.33c0,2.81-3,3.11-4.35,3.11H316c-3,0-4.18-.88-4.35-3.14v-31.3c0-2.24,1.22-3.12,4.35-3.12h16.24a5,5,0,0,1,3.64,1.07A2.7,2.7,0,0,1,336.57,368.25Z"/></g></g></svg>