<svg xmlns="http://www.w3.org/2000/svg" viewBox="0 0 203.93 235.49"><g id="Layer_2" data-name="Layer 2"><g id="Layer_1-2" data-name="Layer 1"><path d="M0,148.94v27.68l24,13.84h0C41,172.39,24.17,143.21,0,148.94Z"/><path d="M24,45,0,58.88V86.56H0C24.17,92.29,41,63.1,24,45Z"/><path d="M78,221.65l24,13.84,24-13.84v0c-7.12-23.8-40.82-23.79-47.94,0Z"/><path d="M126,13.84,102,0,78,13.84h0c7.12,23.8,40.82,23.8,47.94,0Z"/><path d="M180,45h0c-17.05,18.07-.2,47.25,24,41.52h0V58.88Z"/><path d="M180,190.46l24-13.84V148.94c-24.17-5.73-41,23.45-24,41.52Z"/></g></g></svg>