<?xml version="1.0" encoding="utf-8"?>
<!-- Generator: Adobe Illustrator 24.1.2, SVG Export Plug-In . SVG Version: 6.00 Build 0)  -->
<svg version="1.1" id="Layer_1" xmlns="http://www.w3.org/2000/svg" xmlns:xlink="http://www.w3.org/1999/xlink" x="0px" y="0px"
	 viewBox="0 0 275 132.4" style="enable-background:new 0 0 275 132.4;" xml:space="preserve">
<style type="text/css">
	.st0{fill:#FCFCFC;}
</style>
<g id="Layer_2_1_">
	<g id="Layer_1-2">
		<path class="st0" d="M0,131.2v-5.1h4.3c5.8,0,10.6-4.7,10.6-10.6c0,0,0,0,0,0V66.2c0-5.8-4.7-10.6-10.6-10.6H0v-5.1
			c8.5,0.3,17.1,0,25.9-0.4c5.8-0.2,10.8,4.3,11,10.2c0,0.1,0,0.3,0,0.4v54.8c0,5.8,4.7,10.6,10.6,10.6c0,0,0,0,0,0H52v5.1H0z
			 M24.2,42.4c-6.7,0-11.6-6.7-11.6-12.9c0-5.8,5.8-11.6,11.6-11.6c6.2,0,12.6,5.1,12.6,11.6C36.9,36.8,31.5,42.4,24.2,42.4"/>
		<path class="st0" d="M79.2,109.1c9.5,16.9,16.6,20.3,28.3,13.8c12.8-7.2,16.3-20.9,12.5-35.1c1.8-1,4.1-0.4,5.1,1.4
			c0.2,0.3,0.3,0.6,0.4,1c3.5,15.1-3.4,29.2-17.1,36.8c-21.7,12.2-45.9,3.2-57-18.6c-4.5-8.9-6.4-23.5-3-33.2
			C52.2,64.7,58.7,57.5,68.4,52c10.7-6,30.2-10.3,37.3,3.2c3.2,6,2.1,13.1-3.1,16c-5.5,3.1-13.7,3.9-17.5-2.9c-3-5.3-3-11,1.9-14.6
			c-2.8-5-14.9-0.3-17.7,1.3c-17.2,9.7-5.2,27.2,1.9,39.8L79.2,109.1z"/>
		<path class="st0" d="M158.8,69.3L158.8,69.3c5.1-12.2,14.9-20,28.7-20c11.2,0,19.8,6.1,23.4,16.9c5.9-10,14.7-16.9,26.5-16.9
			c26.7,0,24.4,16.5,24.4,37.5v28.8c0,5.8,4.7,10.6,10.6,10.6c0,0,0,0,0,0h2.5v5.1h-45.5v-5.1h0.2c5.9,0,10.6-4.7,10.6-10.6l0,0
			V71.7c0-5.7,1-15.1-8.6-15.1c-15.3,0-21.4,17.7-21.4,30.2v28.7c0,5.8,4.7,10.6,10.6,10.6c0,0,0,0,0,0h0.6v5.1h-43.4v-5.1
			c5.8,0,10.6-4.7,10.6-10.6c0,0,0,0,0,0V77.4c0-9.4,2.4-20.8-9.8-20.8c-10,0-20.2,15.5-20.2,30.6v28.3c0,5.8,4.7,10.6,10.6,10.6
			c0,0,0,0,0,0h0.6v5.1h-46v-5.1h2.7c5.8,0,10.6-4.7,10.6-10.6c0,0,0,0,0,0V66.2c0-5.8-4.7-10.6-10.6-10.6h-3.5v-5.1
			c7.4,0.3,15.8,0,24.6-0.4c5.9-0.2,10.8,4.4,11,10.2c0,0.1,0,0.2,0,0.4L158.8,69.3z"/>
		<path class="st0" d="M135.4,4.7C134,2.1,139.6,0,136.8,0c-1.7,0-3.2,0.9-4.1,2.3c-0.4,0.7-0.8,1.5-1,2.3c-0.3,1.2-1.1,2.2-2.1,2.8
			c-8.7,5.2-6,3.6-9.4,6.1c-7.7,5.5-13.9,12.7-18.1,21.1c-0.7,1.3-1.3,2.7-1.9,4.1l0,0c-0.1,0.2-0.1,0.3-0.2,0.5
			c-0.3,0.7-0.6,1.5-0.9,2.2c-0.3,0.6-0.5,1.1-0.7,1.6c2.3,0.6,4.4,2,5.7,4.1l0.1-0.4c1-5.7,3.1-11.2,6.2-16.1
			c1-1.6,2.1-3.1,3.3-4.6c2.7-3.4,5.8-6.4,9.2-9.1c3.3-2.5,6.8-6.4,11.2-6c1,0.1,2,0.1,3-0.2c0.9-0.3,1.8-0.6,2.6-1
			C145.6,6.1,136.2,6.4,135.4,4.7"/>
	</g>
</g>
</svg>
