<svg xmlns="http://www.w3.org/2000/svg" viewBox="0 0 274.96 132.42"><g id="Layer_2" data-name="Layer 2"><g id="Layer_1-2" data-name="Layer 1"><path d="M0,131.19V126.1H4.28a10.59,10.59,0,0,0,10.59-10.6V66.2A10.59,10.59,0,0,0,4.28,55.61H0V50.52c8.46.28,17.13,0,25.85-.39a10.59,10.59,0,0,1,11,10.58V115.5a10.59,10.59,0,0,0,10.6,10.6H52v5.09ZM24.22,42.36c-6.66,0-11.59-6.65-11.59-12.88,0-5.79,5.79-11.58,11.59-11.58,6.22,0,12.65,5.15,12.65,11.58,0,7.3-5.36,12.88-12.65,12.88"/><path d="M79.25,109.05c9.5,16.86,16.6,20.34,28.32,13.75,12.78-7.2,16.3-20.87,12.51-35.09a3.74,3.74,0,0,1,5.48,2.39c3.47,15.11-3.38,29.15-17.06,36.85-21.66,12.19-45.91,3.16-57-18.64-4.54-8.9-6.44-23.49-3-33.15C52.18,64.67,58.67,57.51,68.43,52c10.65-6,30.19-10.29,37.33,3.22,3.15,6,2.07,13.08-3.08,16-5.5,3.1-13.68,3.89-17.48-2.86-3-5.33-3-11,1.92-14.62-2.8-5-14.89-.26-17.73,1.34-17.22,9.7-5.22,27.16,1.87,39.76Z"/><path d="M158.84,69.26h0c5.09-12.22,14.87-20,28.72-20,11.21,0,19.76,6.12,23.43,16.91,5.91-10,14.67-16.91,26.48-16.91,26.69,0,24.45,16.51,24.45,37.49V115.5a10.59,10.59,0,0,0,10.59,10.6H275v5.09H229.53V126.1h.2a10.6,10.6,0,0,0,10.6-10.6V71.7c0-5.7,1-15.07-8.56-15.07-15.28,0-21.39,17.72-21.39,30.15V115.5A10.59,10.59,0,0,0,221,126.1h.61v5.09H178.19V126.1a10.59,10.59,0,0,0,10.59-10.6V77.41c0-9.37,2.45-20.78-9.77-20.78-10,0-20.17,15.48-20.17,30.56V115.5a10.59,10.59,0,0,0,10.59,10.6H170v5.09H124V126.1h2.65a10.59,10.59,0,0,0,10.59-10.6V66.2a10.59,10.59,0,0,0-10.59-10.59h-3.46V50.52c7.37.29,15.77,0,24.62-.4a10.61,10.61,0,0,1,11,10.58Z"/><path d="M135.37,4.67C134,2.09,139.63,0,136.84,0a4.9,4.9,0,0,0-4.1,2.26,9.17,9.17,0,0,0-1,2.31,4.91,4.91,0,0,1-2.12,2.81c-8.65,5.23-6,3.63-9.41,6.11A58.4,58.4,0,0,0,102.09,34.6c-.69,1.35-1.32,2.72-1.92,4.1v0c-.06.17-.12.32-.19.48-.31.74-.63,1.47-.92,2.21-.26.57-.5,1.08-.74,1.56A9.51,9.51,0,0,1,104,47l.07-.36a45.86,45.86,0,0,1,6.16-16.15,49.44,49.44,0,0,1,3.26-4.59,56.9,56.9,0,0,1,9.23-9.12c3.32-2.48,6.83-6.4,11.25-6a8.05,8.05,0,0,0,3-.18,16.2,16.2,0,0,0,2.6-1c6-3.54-3.34-3.17-4.21-4.85"/></g></g></svg>