<svg xmlns="http://www.w3.org/2000/svg" viewBox="0 0 211.46 207.77"><g id="Layer_2" data-name="Layer 2"><g id="Layer_1-2" data-name="Layer 1"><path d="M154.94,145.75h0s0,0,0,0l0,0"/><path d="M111.55,179.79c-13-2.22-23.43-6-29-10.61a11.92,11.92,0,0,1-4.41-6.2v0l-.21-1.67v0L65.76,63.72c2.48,9.82,18,18.17,39.84,22.43l3.62,57,.93,14.68Z"/><path d="M211.46,63.31l-7.84,63A47.38,47.38,0,0,0,193.36,110c-7.79-7.79-14.92-13-21.34-16l.65-8c1.16-.24,3.45-.76,3.47-.77l.55-.13,1-.24c18.83-4.6,31.85-12.43,33.79-21.48"/><path d="M104.85,73.59S46.54,29.82,4.8,25.53C-4.85,24.54,2,12.22,8.65,12.2c1.11,0,2.25,0,3.47.1.91.06,1.86.15,2.88.29a42,42,0,0,1,4.34.84h0c8.11,1.61,23.73,9,39.42,18.43l0,0c3.85,2.31,7.7,4.74,11.45,7.23l1.4.94c1.42,1,2.81,1.91,4.19,2.89l1.28.91c5,3.54,9.58,7.14,13.58,10.64l.91.82,0,0c.36.31.7.62,1,.93l1,.94c.28.26.56.52.82.78l.22.2.87.87.88.9c.59.61,1.15,1.21,1.69,1.81h0l.21.24A30.22,30.22,0,0,1,104,71.15v0c.09.21.18.42.26.64a2,2,0,0,0,.08.22c.08.21.15.41.22.63a.3.3,0,0,1,0,.1l.08.25c.08.23.13.39.16.48s0,0,0,0,0,0,0,0Z"/><path d="M138.62,189.74h0c-30.93,0-57.75-8.9-59.91-19.23l3,17.29h0a11.31,11.31,0,0,0,3,6.49c7.6,7.84,29.2,13.47,53.83,13.47s46.2-5.63,53.81-13.45a11.32,11.32,0,0,0,3.07-6.52h0l3-17.37c-2,10.37-28.88,19.31-59.87,19.32"/><path d="M165.18,91.43a24.77,24.77,0,0,0-10.66-.58,20.08,20.08,0,0,0-5.12,1.62,21.46,21.46,0,0,0-4.53,2.88l-7.11-6.1c1.9-1.07,20.69-2.39,27.42,2.18"/><path d="M209.62,154.69a16.22,16.22,0,0,1-10.38,6.82l-.21,1.75v0a12.3,12.3,0,0,1-4.35,5.91c-5.62,4.61-16,8.38-29.05,10.59l1.3-20.52a46.64,46.64,0,0,1-12.38-6l-.14,2.75-1.14,22-.17,3.33c-4.65.39-9.5.6-14.5.6s-9.87-.22-14.52-.6l-.17-3.34-1.13-22L122,141.33,119.29,88.2l18.9,16.17-.09.23c-3.5,9.28-.43,21.86,13.22,37.27l.82.9.73.8c.24.27.5.54.74.8l.64.67c.22.22.43.45.65.68,0,0,0,0,0,0l1.31,1.33a36.24,36.24,0,0,0,2.85,2.53,41.48,41.48,0,0,0,8.13,4.91,65,65,0,0,0,26.25,5.61c.73,0,1.45,0,2.14,0a25.48,25.48,0,0,0,7.82-1.52,15.12,15.12,0,0,0,6.15-3.85s0,0,0,0"/><path d="M154.84,69.05l0,0a24.6,24.6,0,0,1-2.26-4.85l-.24-.75a24.15,24.15,0,0,1-.95-6.32,28.17,28.17,0,0,1,2.88-12.87,30.54,30.54,0,0,1,8.68-10.53l.68-.55.73-.48,1.47-.94c.69-.42,1.42-.8,2.14-1.17s1.31-.64,2-.91,1.48-.57,2.22-.84c1.12-.36,2.25-.67,3.39-.92.57-.11,1.15-.21,1.72-.29L179,27.4l.67-.06a21.93,21.93,0,0,1,2.43-.09H183c.73,0,1.45.07,2.18.16l.77.09c.57.08,1.15.14,1.73.24s1.13.27,1.69.41a30.15,30.15,0,0,1,12.16,6.19A28.1,28.1,0,0,1,209.39,45c.23.63.45,1.27.66,1.9a22.76,22.76,0,0,1,.68,2.58v0a21.93,21.93,0,0,1,.39,2.8v.06a25.59,25.59,0,0,1,0,3.61c0,.46-.08.92-.15,1.38a28.57,28.57,0,0,0-4.06-10.8,28.87,28.87,0,0,0-18.62-12.81,29.82,29.82,0,0,0-11.53,0,28.78,28.78,0,0,0-21.92,35.31"/><path d="M118.71,22.84a6.56,6.56,0,0,1,0-.76,20,20,0,0,1,.2-3.27c0-.18,0-.37.08-.56l0-.14a24.68,24.68,0,0,1,1.24-3.94c.06-.14.11-.27.16-.41A22.94,22.94,0,0,1,126.21,6,24.79,24.79,0,0,1,135,1.15c.81-.25,1.65-.42,2.48-.63s1.68-.27,2.53-.4,1.7-.08,2.56-.12,1.71.06,2.56.11a28.74,28.74,0,0,1,5,1,26.35,26.35,0,0,1,4.72,2,24.67,24.67,0,0,1,7.7,6.4,22.83,22.83,0,0,1,4.31,8.68c.1.51.2,1,.29,1.53a17,17,0,0,1,.22,1.87l0,.53a13.71,13.71,0,0,1,0,1.57h0a17.06,17.06,0,0,1-.34,2.76c-.06.32-.13.64-.22,1a24.62,24.62,0,0,0-48.1-4.5"/><path d="M88.35,45.58c1.84-6.74,7.22-12.65,14.09-15.79a27.58,27.58,0,0,1,5.37-1.89c.32-.09.65-.16,1-.23a30,30,0,0,1,3.27-.49c.48-.05,1-.1,1.44-.13a32.45,32.45,0,0,1,11.44,1.52,36.65,36.65,0,0,1,5.33,2.34,21.53,21.53,0,0,1,2.47,1.52l1.2.81c.39.29.75.61,1.12.92a30.37,30.37,0,0,1,7.3,8.73,28.1,28.1,0,0,1,3.31,10.56l0,.37a20.08,20.08,0,0,1,.1,2.33h0a16,16,0,0,1-.18,2.68c-.15.89-.22,1.76-.45,2.61s-.49,1.7-.8,2.51A30.74,30.74,0,0,0,123.2,33.91l-2.37-.67c-.8-.19-1.61-.31-2.42-.47a32.07,32.07,0,0,0-4.9-.4A30.6,30.6,0,0,0,103.84,34a31,31,0,0,0-15.49,11.6"/></g></g></svg>