<?xml version="1.0" encoding="utf-8"?>
<!-- Generator: Adobe Illustrator 24.1.2, SVG Export Plug-In . SVG Version: 6.00 Build 0)  -->
<svg version="1.1" id="Layer_1" xmlns="http://www.w3.org/2000/svg" xmlns:xlink="http://www.w3.org/1999/xlink" x="0px" y="0px"
	 viewBox="0 0 211.5 207.8" style="enable-background:new 0 0 211.5 207.8;" xml:space="preserve">
<style type="text/css">
	.st0{fill:#FCFCFC;}
</style>
<g id="Layer_2_1_">
	<g id="Layer_1-2">
		<path class="st0" d="M154.9,145.8L154.9,145.8L154.9,145.8L154.9,145.8"/>
		<path class="st0" d="M111.6,179.8c-13-2.2-23.4-6-29-10.6c-2.1-1.5-3.7-3.7-4.4-6.2l0,0l-0.2-1.7l0,0L65.8,63.7
			c2.5,9.8,18,18.2,39.8,22.4l3.6,57l0.9,14.7L111.6,179.8z"/>
		<path class="st0" d="M211.5,63.3l-7.8,63c-2.3-6.1-5.8-11.6-10.3-16.3c-7.8-7.8-14.9-13-21.3-16l0.6-8c1.2-0.2,3.4-0.8,3.5-0.8
			l0.6-0.1l1-0.2C196.5,80.3,209.5,72.4,211.5,63.3"/>
		<path class="st0" d="M104.8,73.6c0,0-58.3-43.8-100-48.1c-9.6-1-2.8-13.3,3.8-13.3c1.1,0,2.2,0,3.5,0.1c0.9,0.1,1.9,0.1,2.9,0.3
			c1.5,0.2,2.9,0.5,4.3,0.8l0,0c8.1,1.6,23.7,9,39.4,18.4l0,0c3.8,2.3,7.7,4.7,11.5,7.2l1.4,0.9c1.4,1,2.8,1.9,4.2,2.9l1.3,0.9
			c5,3.5,9.6,7.1,13.6,10.6l0.9,0.8l0,0c0.4,0.3,0.7,0.6,1,0.9l1,0.9c0.3,0.3,0.6,0.5,0.8,0.8l0.2,0.2l0.9,0.9l0.9,0.9
			c0.6,0.6,1.2,1.2,1.7,1.8l0,0l0.2,0.2c2.5,2.7,4.4,5.8,5.7,9.2l0,0c0.1,0.2,0.2,0.4,0.3,0.6c0,0.1,0,0.1,0.1,0.2
			c0.1,0.2,0.2,0.4,0.2,0.6c0,0,0,0.1,0,0.1l0.1,0.2c0.1,0.2,0.1,0.4,0.2,0.5s0,0,0,0l0,0L104.8,73.6z"/>
		<path class="st0" d="M138.6,189.7L138.6,189.7c-30.9,0-57.8-8.9-59.9-19.2l3,17.3l0,0c0.3,2.4,1.3,4.7,3,6.5
			c7.6,7.8,29.2,13.5,53.8,13.5s46.2-5.6,53.8-13.4c1.7-1.8,2.8-4.1,3.1-6.5l0,0l3-17.4C196.4,180.8,169.5,189.7,138.6,189.7"/>
		<path class="st0" d="M165.2,91.4c-3.5-1-7.1-1.2-10.7-0.6c-1.8,0.3-3.5,0.9-5.1,1.6c-1.6,0.8-3.1,1.7-4.5,2.9l-7.1-6.1
			C139.7,88.2,158.4,86.9,165.2,91.4"/>
		<path class="st0" d="M209.6,154.7c-2.4,3.6-6.2,6-10.4,6.8l-0.2,1.8l0,0c-0.8,2.4-2.3,4.4-4.4,5.9c-5.6,4.6-16,8.4-29.1,10.6
			l1.3-20.5c-4.4-1.4-8.6-3.4-12.4-6l-0.1,2.8l-1.1,22l-0.2,3.3c-4.6,0.4-9.5,0.6-14.5,0.6s-9.9-0.2-14.5-0.6l-0.2-3.3l-1.1-22
			l-0.8-14.7l-2.7-53.1l18.9,16.2l-0.1,0.2c-3.5,9.3-0.4,21.9,13.2,37.3l0.8,0.9l0.7,0.8c0.2,0.3,0.5,0.5,0.7,0.8l0.6,0.7
			c0.2,0.2,0.4,0.4,0.6,0.7l0,0l1.3,1.3c0.9,0.9,1.9,1.7,2.9,2.5c2.5,1.9,5.2,3.6,8.1,4.9c8.3,3.7,17.2,5.6,26.2,5.6
			c0.7,0,1.4,0,2.1,0c2.7-0.1,5.3-0.6,7.8-1.5C205.7,157.8,207.8,156.5,209.6,154.7L209.6,154.7"/>
		<path class="st0" d="M154.8,69.1L154.8,69.1c-0.9-1.5-1.7-3.2-2.3-4.8l-0.2-0.8c-0.6-2.1-0.9-4.2-0.9-6.3
			c-0.1-4.5,0.9-8.9,2.9-12.9c2.1-4.1,5-7.7,8.7-10.5l0.7-0.5l0.7-0.5l1.5-0.9c0.7-0.4,1.4-0.8,2.1-1.2s1.3-0.6,2-0.9
			s1.5-0.6,2.2-0.8c1.1-0.4,2.2-0.7,3.4-0.9c0.6-0.1,1.1-0.2,1.7-0.3l1.7-0.2l0.7-0.1c0.8-0.1,1.6-0.1,2.4-0.1h0.9
			c0.7,0,1.4,0.1,2.2,0.2l0.8,0.1c0.6,0.1,1.1,0.1,1.7,0.2s1.1,0.3,1.7,0.4c4.5,1.1,8.6,3.2,12.2,6.2c3.4,2.9,6.1,6.5,7.9,10.7
			c0.2,0.6,0.4,1.3,0.7,1.9c0.3,0.8,0.5,1.7,0.7,2.6l0,0c0.2,0.9,0.3,1.9,0.4,2.8v0.1c0.1,1.2,0.1,2.4,0,3.6c0,0.5-0.1,0.9-0.1,1.4
			c-0.6-3.8-2-7.5-4.1-10.8c-4.2-6.6-10.9-11.2-18.6-12.8c-3.8-0.8-7.7-0.8-11.5,0c-15.6,3.3-25.5,18.6-22.2,34.1
			C154.6,68.2,154.7,68.6,154.8,69.1"/>
		<path class="st0" d="M118.7,22.8c0-0.3,0-0.5,0-0.8c0-1.1,0-2.2,0.2-3.3c0-0.2,0-0.4,0.1-0.6v-0.1c0.3-1.3,0.7-2.7,1.2-3.9
			c0.1-0.1,0.1-0.3,0.2-0.4c1.4-3,3.3-5.6,5.8-7.8c2.6-2.2,5.6-3.8,8.8-4.8c0.8-0.2,1.6-0.4,2.5-0.6s1.7-0.3,2.5-0.4
			s1.7-0.1,2.6-0.1s1.7,0.1,2.6,0.1c1.7,0.2,3.4,0.5,5,1c1.6,0.5,3.2,1.2,4.7,2c3,1.6,5.6,3.8,7.7,6.4c2,2.6,3.5,5.5,4.3,8.7
			c0.1,0.5,0.2,1,0.3,1.5c0.1,0.6,0.2,1.2,0.2,1.9v0.5c0,0.5,0,1,0,1.6l0,0c0,0.9-0.2,1.9-0.3,2.8c-0.1,0.3-0.1,0.6-0.2,1
			c-1.4-13.5-13.5-23.4-27-22c-9.9,1-18.3,7.9-21.1,17.5"/>
		<path class="st0" d="M88.3,45.6c1.8-6.7,7.2-12.7,14.1-15.8c1.7-0.8,3.5-1.4,5.4-1.9c0.3-0.1,0.7-0.2,1-0.2
			c1.1-0.2,2.2-0.4,3.3-0.5c0.5,0,1-0.1,1.4-0.1c3.9-0.2,7.7,0.3,11.4,1.5c1.8,0.6,3.6,1.4,5.3,2.3c0.9,0.5,1.7,1,2.5,1.5l1.2,0.8
			c0.4,0.3,0.8,0.6,1.1,0.9c3,2.4,5.4,5.4,7.3,8.7c1.8,3.3,2.9,6.9,3.3,10.6v0.4c0.1,0.8,0.1,1.6,0.1,2.3l0,0c0,0.9,0,1.8-0.2,2.7
			c-0.1,0.9-0.2,1.8-0.4,2.6s-0.5,1.7-0.8,2.5c0.4-13.6-8.2-25.8-21.2-30l-2.4-0.7c-0.8-0.2-1.6-0.3-2.4-0.5
			c-1.6-0.3-3.3-0.4-4.9-0.4c-3.3,0-6.6,0.6-9.7,1.6C97.6,36.1,92.1,40.2,88.3,45.6"/>
	</g>
</g>
</svg>
