<svg width="57" height="57" viewBox="0 0 57 57" fill="none" xmlns="http://www.w3.org/2000/svg">
<path d="M2.38672 54.2852C1.66016 53.5586 1.17969 52.7031 0.945312 51.7188C0.710938 50.7344 0.710938 49.7617 0.945312 48.8008C1.17969 47.8398 1.63672 47.0195 2.31641 46.3398L20.5977 28.0234L2.31641 9.74219C1.63672 9.08594 1.17969 8.27734 0.945312 7.31641C0.710938 6.33203 0.710938 5.35937 0.945312 4.39844C1.17969 3.41406 1.66016 2.54687 2.38672 1.79688C3.11328 1.07031 3.96875 0.601562 4.95312 0.390625C5.9375 0.15625 6.91016 0.15625 7.87109 0.390625C8.83203 0.601562 9.65234 1.04688 10.332 1.72656L28.6484 20.0078L46.8945 1.76172C47.9492 0.683594 49.2617 0.15625 50.832 0.179688C52.4258 0.203125 53.7617 0.753906 54.8398 1.83203C55.9414 2.91016 56.4922 4.24609 56.4922 5.83984C56.4922 7.41016 55.9648 8.72266 54.9102 9.77734L36.6641 28.0234L54.9102 46.3047C55.9648 47.3828 56.4805 48.707 56.457 50.2773C56.457 51.8477 55.918 53.1719 54.8398 54.25C53.7617 55.3516 52.4258 55.9023 50.832 55.9023C49.2617 55.9258 47.9492 55.4102 46.8945 54.3555L28.6484 36.0391L10.332 54.3555C9.65234 55.0352 8.83203 55.4922 7.87109 55.7266C6.91016 55.9609 5.9375 55.9609 4.95312 55.7266C3.96875 55.4922 3.11328 55.0117 2.38672 54.2852Z" fill="#08082B"/>
</svg>
