<svg width="71" height="70" viewBox="0 0 71 70" fill="none" xmlns="http://www.w3.org/2000/svg">
<path d="M35.8867 69.9336C31.1055 69.9336 26.6055 69.0195 22.3867 67.1914C18.168 65.3867 14.4531 62.8789 11.2422 59.668C8.03125 56.457 5.51172 52.7422 3.68359 48.5234C1.85547 44.3047 0.941406 39.793 0.941406 34.9883C0.941406 30.207 1.84375 25.707 3.64844 21.4883C5.47656 17.2695 7.99609 13.5547 11.207 10.3438C14.4414 7.13281 18.168 4.61328 22.3867 2.78516C26.6055 0.957031 31.0938 0.0429688 35.8516 0.0429688C40.6562 0.0429688 45.168 0.957031 49.3867 2.78516C53.6055 4.61328 57.3203 7.13281 60.5312 10.3438C63.7656 13.5547 66.2852 17.2695 68.0898 21.4883C69.918 25.707 70.832 30.207 70.832 34.9883C70.832 39.793 69.918 44.3047 68.0898 48.5234C66.2852 52.7422 63.7773 56.457 60.5664 59.668C57.3555 62.8789 53.6406 65.3867 49.4219 67.1914C45.2031 69.0195 40.6914 69.9336 35.8867 69.9336ZM35.8867 54.1836C36.3086 54.1836 36.6602 54.043 36.9414 53.7617C37.2461 53.4805 37.3984 53.1055 37.3984 52.6367V50.4219C40.3984 50.1875 42.8594 49.2617 44.7812 47.6445C46.7031 46.0273 47.6641 43.8828 47.6641 41.2109C47.6641 38.8203 46.8906 36.9219 45.3438 35.5156C43.8203 34.1094 41.5469 33.1133 38.5234 32.5273L37.3984 32.3164V24.8984C38.3359 25.0625 39.1211 25.4141 39.7539 25.9531C40.4102 26.4922 40.9023 27.1836 41.2305 28.0273C41.8867 29.3398 42.8711 29.9961 44.1836 29.9961C45.0273 29.9961 45.707 29.7617 46.2227 29.293C46.7383 28.8242 46.9961 28.2148 46.9961 27.4648C46.9961 27.2305 46.9727 27.0078 46.9258 26.7969C46.8789 26.5625 46.8203 26.3281 46.75 26.0938C46.2812 24.4062 45.2148 22.9766 43.5508 21.8047C41.9102 20.6094 39.8594 19.8828 37.3984 19.625V17.375C37.3984 16.9297 37.2461 16.5664 36.9414 16.2852C36.6602 15.9805 36.3086 15.8281 35.8867 15.8281C35.4414 15.8281 35.0664 15.9805 34.7617 16.2852C34.4805 16.5664 34.3398 16.9297 34.3398 17.375V19.625C31.457 19.8828 29.0898 20.8086 27.2383 22.4023C25.3867 23.9961 24.4609 26.0586 24.4609 28.5898C24.4609 30.9336 25.2109 32.7969 26.7109 34.1797C28.2344 35.5391 30.4492 36.5586 33.3555 37.2383L34.3398 37.4492V45.2539C33.1445 45.0898 32.1836 44.7148 31.457 44.1289C30.7539 43.5195 30.2734 42.793 30.0156 41.9492C29.7109 41.293 29.3242 40.7891 28.8555 40.4375C28.3867 40.0859 27.8008 39.9102 27.0977 39.9102C26.207 39.9102 25.5039 40.168 24.9883 40.6836C24.4727 41.1992 24.2148 41.8555 24.2148 42.6523C24.2148 42.8633 24.2383 43.0859 24.2852 43.3203C24.332 43.5547 24.3906 43.7891 24.4609 44.0234C25 45.7109 26.1133 47.1523 27.8008 48.3477C29.4883 49.543 31.668 50.2344 34.3398 50.4219V52.6367C34.3398 53.1289 34.4805 53.5156 34.7617 53.7969C35.0664 54.0547 35.4414 54.1836 35.8867 54.1836ZM34.3398 31.543L34.1289 31.5078C32.9336 31.1562 32.043 30.7109 31.457 30.1719C30.8711 29.6328 30.5781 28.9531 30.5781 28.1328C30.5781 27.3125 30.918 26.5977 31.5977 25.9883C32.2773 25.3789 33.1914 24.9922 34.3398 24.8281V31.543ZM37.3984 38.1523L37.9258 38.293C39.2617 38.6445 40.1992 39.1016 40.7383 39.6641C41.2773 40.2031 41.5469 40.8945 41.5469 41.7383C41.5469 42.6758 41.1953 43.4609 40.4922 44.0938C39.7891 44.7031 38.7578 45.0898 37.3984 45.2539V38.1523Z" fill="#08082B"/>
</svg>
