<svg width="65" height="71" viewBox="0 0 65 71" fill="none" xmlns="http://www.w3.org/2000/svg">
<path d="M5.14844 61.668V40.75H29.7578V70.2812H14.0781C11.2656 70.2812 9.07422 69.543 7.50391 68.0664C5.93359 66.6133 5.14844 64.4805 5.14844 61.668ZM35.6289 70.2812V40.75H60.2383V61.668C60.2383 64.4805 59.4414 66.6133 57.8477 68.0664C56.2773 69.543 54.0977 70.2812 51.3086 70.2812H35.6289ZM0.472656 31.7852V24.0508C0.472656 22.1289 1.01172 20.7344 2.08984 19.8672C3.16797 19 4.63281 18.5664 6.48438 18.5664H13.6211C12.6602 17.6523 11.8984 16.5742 11.3359 15.332C10.7969 14.0898 10.5273 12.7305 10.5273 11.2539C10.5273 9.09766 11.043 7.17578 12.0742 5.48828C13.1289 3.80078 14.5469 2.48828 16.3281 1.55078C18.1094 0.589844 20.0781 0.109375 22.2344 0.109375C24.625 0.109375 26.7578 0.742188 28.6328 2.00781C30.5078 3.27344 31.8672 5.07812 32.7109 7.42188C33.5312 5.07812 34.8672 3.27344 36.7188 2.00781C38.5938 0.742188 40.7383 0.109375 43.1523 0.109375C45.332 0.109375 47.3008 0.589844 49.0586 1.55078C50.8398 2.48828 52.2461 3.80078 53.2773 5.48828C54.332 7.17578 54.8594 9.09766 54.8594 11.2539C54.8594 12.7305 54.5781 14.0898 54.0156 15.332C53.4766 16.5742 52.7266 17.6523 51.7656 18.5664H58.9023C60.8242 18.5664 62.3008 19 63.332 19.8672C64.3867 20.7344 64.9141 22.1289 64.9141 24.0508V31.7852C64.9141 33.6133 64.4219 34.9375 63.4375 35.7578C62.4531 36.5547 61.0469 36.9531 59.2188 36.9531H35.6289V18.5664H40.7266C43.3047 18.5664 45.3086 17.8867 46.7383 16.5273C48.168 15.168 48.8828 13.5742 48.8828 11.7461C48.8828 9.94141 48.3086 8.53516 47.1602 7.52734C46.0117 6.49609 44.5234 5.98047 42.6953 5.98047C40.75 5.98047 39.0859 6.69531 37.7031 8.125C36.3203 9.53125 35.6289 11.4297 35.6289 13.8203V18.5664H29.7578V13.8203C29.7578 11.4297 29.0664 9.53125 27.6836 8.125C26.3008 6.69531 24.6367 5.98047 22.6914 5.98047C20.8633 5.98047 19.375 6.49609 18.2266 7.52734C17.0781 8.53516 16.5039 9.94141 16.5039 11.7461C16.5039 13.5742 17.2188 15.168 18.6484 16.5273C20.0781 17.8867 22.082 18.5664 24.6602 18.5664H29.7578V36.9531H6.16797C4.36328 36.9531 2.95703 36.5547 1.94922 35.7578C0.964844 34.9375 0.472656 33.6133 0.472656 31.7852Z" fill="#08082B"/>
</svg>
