<svg width="71" height="70" viewBox="0 0 71 70" fill="none" xmlns="http://www.w3.org/2000/svg">
<path d="M35.8867 69.9336C31.1055 69.9336 26.6055 69.0195 22.3867 67.1914C18.168 65.3867 14.4531 62.8789 11.2422 59.668C8.03125 56.457 5.51172 52.7422 3.68359 48.5234C1.85547 44.3047 0.941406 39.793 0.941406 34.9883C0.941406 30.207 1.84375 25.707 3.64844 21.4883C5.47656 17.2695 7.99609 13.5547 11.207 10.3438C14.4414 7.13281 18.168 4.61328 22.3867 2.78516C26.6055 0.957031 31.0938 0.0429688 35.8516 0.0429688C40.6562 0.0429688 45.168 0.957031 49.3867 2.78516C53.6055 4.61328 57.3203 7.13281 60.5312 10.3438C63.7656 13.5547 66.2852 17.2695 68.0898 21.4883C69.918 25.707 70.832 30.207 70.832 34.9883C70.832 39.793 69.918 44.3047 68.0898 48.5234C66.2852 52.7422 63.7773 56.457 60.5664 59.668C57.3555 62.8789 53.6406 65.3867 49.4219 67.1914C45.2031 69.0195 40.6914 69.9336 35.8867 69.9336ZM35.8867 61.6367C39.5898 61.6367 43.0586 60.9453 46.293 59.5625C49.5273 58.2031 52.3516 56.3047 54.7656 53.8672C57.2031 51.4297 59.1133 48.6055 60.4961 45.3945C61.8789 42.1602 62.5586 38.6914 62.5352 34.9883C62.5352 31.3086 61.8438 27.8633 60.4609 24.6523C59.1016 21.418 57.1914 18.582 54.7305 16.1445C52.293 13.707 49.4688 11.8086 46.2578 10.4492C43.0469 9.06641 39.5781 8.375 35.8516 8.375C32.1719 8.375 28.7266 9.06641 25.5156 10.4492C22.3047 11.8086 19.4805 13.707 17.043 16.1445C14.6055 18.582 12.6953 21.418 11.3125 24.6523C9.95312 27.8633 9.27344 31.3086 9.27344 34.9883C9.27344 38.6914 9.95312 42.1602 11.3125 45.3945C12.6953 48.6055 14.6055 51.4297 17.043 53.8672C19.4805 56.3047 22.3047 58.2031 25.5156 59.5625C28.75 60.9453 32.207 61.6367 35.8867 61.6367ZM35.1133 41.2812C32.5586 41.2812 31.2812 40.2266 31.2812 38.1172C31.2812 38.0703 31.2812 38.0234 31.2812 37.9766C31.2812 37.9297 31.2812 37.8828 31.2812 37.8359C31.2812 36.5 31.6445 35.375 32.3711 34.4609C33.1211 33.5469 34.082 32.6914 35.2539 31.8945C36.6133 30.957 37.6328 30.1836 38.3125 29.5742C39.0156 28.9414 39.3672 28.1445 39.3672 27.1836C39.3672 26.2227 39.0039 25.4375 38.2773 24.8281C37.5508 24.2188 36.6367 23.9141 35.5352 23.9141C34.6914 23.9141 33.918 24.1133 33.2148 24.5117C32.5352 24.8867 31.9258 25.4844 31.3867 26.3047L30.9648 26.8672C30.6133 27.3359 30.1914 27.6992 29.6992 27.957C29.207 28.1914 28.6328 28.3086 27.9766 28.3086C27.1328 28.3086 26.4062 28.0273 25.7969 27.4648C25.2109 26.9023 24.918 26.1875 24.918 25.3203C24.918 24.9922 24.9531 24.6758 25.0234 24.3711C25.0938 24.0664 25.1875 23.75 25.3047 23.4219C25.8906 21.8516 27.1328 20.5273 29.0312 19.4492C30.9531 18.3477 33.332 17.7969 36.168 17.7969C38.2539 17.7969 40.1523 18.1602 41.8633 18.8867C43.5742 19.6133 44.9336 20.6445 45.9414 21.9805C46.9492 23.3164 47.4531 24.9102 47.4531 26.7617C47.4531 28.6133 47.0078 30.1016 46.1172 31.2266C45.2266 32.3281 43.9375 33.418 42.25 34.4961C41.2656 35.1289 40.457 35.75 39.8242 36.3594C39.2148 36.9453 38.8633 37.625 38.7695 38.3984C38.7461 38.4688 38.7344 38.5391 38.7344 38.6094C38.7344 38.6797 38.7227 38.7383 38.6992 38.7852C38.6055 39.4883 38.2305 40.0859 37.5742 40.5781C36.9414 41.0469 36.1211 41.2812 35.1133 41.2812ZM35.0781 51.8281C33.8828 51.8281 32.8633 51.4648 32.0195 50.7383C31.1758 50.0117 30.7539 49.0742 30.7539 47.9258C30.7539 46.7773 31.1641 45.8398 31.9844 45.1133C32.8281 44.3867 33.8594 44.0234 35.0781 44.0234C36.2734 44.0234 37.2812 44.3867 38.1016 45.1133C38.9453 45.8164 39.3672 46.7539 39.3672 47.9258C39.3672 49.0977 38.9453 50.0469 38.1016 50.7734C37.2812 51.4766 36.2734 51.8281 35.0781 51.8281Z" fill="#08082B"/>
</svg>
