<svg width="71" height="71" viewBox="0 0 71 71" fill="none" xmlns="http://www.w3.org/2000/svg">
<path d="M41.8984 70.6562C40.3281 70.6562 39.1797 70.1055 38.4531 69.0039C37.75 67.9023 37.1406 66.4961 36.625 64.7852L31.4219 47.5938C31.0938 46.4453 30.9766 45.5078 31.0703 44.7812C31.1641 44.0312 31.5508 43.2812 32.2305 42.5312L66.3672 5.6875C66.5547 5.47656 66.6484 5.25391 66.6484 5.01953C66.6484 4.76172 66.5547 4.55078 66.3672 4.38672C66.2031 4.22266 65.9922 4.14062 65.7344 4.14062C65.5 4.11719 65.2656 4.21094 65.0312 4.42188L28.293 38.6289C27.5195 39.332 26.7578 39.7305 26.0078 39.8242C25.2812 39.8945 24.3672 39.7539 23.2656 39.4023L5.6875 34.0234C4.07031 33.5547 2.73438 32.9688 1.67969 32.2656C0.625 31.5391 0.0976562 30.4023 0.0976562 28.8555C0.0976562 27.5898 0.566406 26.5234 1.50391 25.6562C2.46484 24.7656 3.66016 24.0508 5.08984 23.5117L62.5 1.50391C63.2734 1.22266 63.9883 1 64.6445 0.835938C65.3008 0.671875 65.9102 0.589844 66.4727 0.589844C67.5977 0.589844 68.4883 0.917969 69.1445 1.57422C69.8242 2.23047 70.1641 3.13281 70.1641 4.28125C70.1641 4.82031 70.082 5.42969 69.918 6.10938C69.7539 6.78906 69.5312 7.50391 69.25 8.25391L47.3477 65.3828C46.7383 67 45.9883 68.2773 45.0977 69.2148C44.207 70.1758 43.1406 70.6562 41.8984 70.6562Z" fill="#08082B"/>
</svg>
