<svg width="73" height="62" viewBox="0 0 73 62" fill="none" xmlns="http://www.w3.org/2000/svg">
<path d="M39.9688 61.75C38.75 61.75 37.7422 61.3516 36.9453 60.5547C36.1484 59.7578 35.75 58.75 35.75 57.5312V45.1914H34.8711C30.6992 45.1914 27.0195 45.625 23.832 46.4922C20.6445 47.3359 17.8438 48.7656 15.4297 50.7812C13.0156 52.7734 10.8945 55.4922 9.06641 58.9375C8.43359 60.0859 7.74219 60.8242 6.99219 61.1523C6.24219 61.5039 5.45703 61.6797 4.63672 61.6797C3.62891 61.6797 2.75 61.2109 2 60.2734C1.25 59.3594 0.875 58.0234 0.875 56.2656C0.875 50.1719 1.55469 44.6992 2.91406 39.8477C4.27344 34.9727 6.33594 30.8242 9.10156 27.4023C11.8672 23.9805 15.3828 21.3672 19.6484 19.5625C23.9375 17.7578 29.0117 16.8555 34.8711 16.8555H35.75V4.62109C35.75 3.42578 36.1484 2.40625 36.9453 1.5625C37.7422 0.695312 38.7734 0.261719 40.0391 0.261719C40.8828 0.261719 41.6445 0.449219 42.3242 0.824219C43.0039 1.19922 43.8125 1.83203 44.75 2.72266L71.0469 27.2617C71.7031 27.8711 72.1602 28.5039 72.418 29.1602C72.6758 29.793 72.8047 30.4023 72.8047 30.9883C72.8047 31.5508 72.6758 32.1602 72.418 32.8164C72.1602 33.4727 71.7031 34.1055 71.0469 34.7148L44.75 59.4648C43.9062 60.2383 43.1094 60.8125 42.3594 61.1875C41.6328 61.5625 40.8359 61.75 39.9688 61.75Z" fill="#08082B"/>
</svg>
