<svg width="71" height="70" viewBox="0 0 71 70" fill="none" xmlns="http://www.w3.org/2000/svg">
<path d="M35.5 69.5469C30.7656 69.5469 26.3125 68.6445 22.1406 66.8398C17.9688 65.0352 14.2891 62.5391 11.1016 59.3516C7.9375 56.1875 5.45312 52.5195 3.64844 48.3477C1.84375 44.1758 0.941406 39.7227 0.941406 34.9883C0.941406 30.2539 1.84375 25.8125 3.64844 21.6641C5.45312 17.4922 7.9375 13.8125 11.1016 10.625C14.2891 7.4375 17.9688 4.95313 22.1406 3.17188C26.3125 1.36719 30.7539 0.464844 35.4648 0.464844C40.1992 0.464844 44.6523 1.36719 48.8242 3.17188C52.9961 4.95313 56.6641 7.4375 59.8281 10.625C63.0156 13.8125 65.5117 17.4922 67.3164 21.6641C69.1445 25.8125 70.0586 30.2539 70.0586 34.9883C70.0586 39.7227 69.1562 44.1758 67.3516 48.3477C65.5469 52.5195 63.0508 56.1875 59.8633 59.3516C56.6758 62.5391 52.9961 65.0352 48.8242 66.8398C44.6758 68.6445 40.2344 69.5469 35.5 69.5469ZM25.9375 52.5312L35.5 45.5352L45.0273 52.5312C45.7305 53.0469 46.3984 53.2461 47.0312 53.1289C47.6641 53.0117 48.1328 52.6836 48.4375 52.1445C48.7656 51.582 48.8008 50.8672 48.543 50L44.7812 38.7852L54.3789 31.8945C55.0117 31.4492 55.375 30.8984 55.4688 30.2422C55.5859 29.5625 55.4453 28.9766 55.0469 28.4844C54.6484 27.9688 53.9805 27.7227 53.043 27.7461L41.2305 27.8516L37.6094 16.5312C37.3516 15.7344 36.9297 15.1953 36.3438 14.9141C35.7812 14.6328 35.207 14.6328 34.6211 14.9141C34.0586 15.1953 33.6484 15.7344 33.3906 16.5312L29.7695 27.8516L17.957 27.7461C17.0664 27.7227 16.4102 27.9688 15.9883 28.4844C15.5664 28.9766 15.4023 29.5508 15.4961 30.207C15.6133 30.8633 15.9883 31.4258 16.6211 31.8945L26.2539 38.7852L22.457 50C22.1992 50.8438 22.2227 51.5469 22.5273 52.1094C22.8555 52.6719 23.3359 53.0117 23.9688 53.1289C24.6016 53.2461 25.2578 53.0469 25.9375 52.5312Z" fill="#08082B"/>
</svg>
