<svg xmlns="http://www.w3.org/2000/svg" viewBox="0 0 551.39 82.61"><defs><style>.cls-1{fill:#cb1d32;}.cls-2{fill:#fff;}</style></defs><title>Asset 5</title><g id="Layer_2" data-name="Layer 2"><g id="pageTwo"><rect class="cls-1" x="288.38" width="6" height="63.98"/><path class="cls-2" d="M34.6,76.44h-2v-7.1h7.1v2.07h-5v2.77a2.69,2.69,0,0,1,2-.76c2.18,0,3.45,1.69,3.45,4.73,0,2.87-1.37,4.46-4,4.46a3.76,3.76,0,0,1-4-3.42h2.16a1.75,1.75,0,0,0,1.79,1.5c1.12,0,1.82-.74,1.82-2.46s-.53-2.76-1.82-2.76A1.79,1.79,0,0,0,34.6,76.44Z"/><path class="cls-2" d="M126.65,73.41V69.34h7.71V71l-3.93,11.41h-2.3l4-11.18h-3.53v2.15Z"/><path class="cls-2" d="M225.33,76.88a2.61,2.61,0,0,1-1.25.26,3.61,3.61,0,0,1-3.54-3.89,4.13,4.13,0,0,1,8.26,0,9.2,9.2,0,0,1-1.06,3.44l-2.66,5.79h-2.39Zm-.67-5.79a2.11,2.11,0,1,0,1.94,2.11A1.88,1.88,0,0,0,224.66,71.09Z"/><path class="cls-2" d="M315.44,82.44h-2.2V71.72L311.36,73V70.79l2-1.45h2.07Z"/><path class="cls-2" d="M325.35,82.44h-2.2V71.72L321.27,73V70.79l2-1.45h2.07Z"/><path class="cls-2" d="M409.67,82.44h-2.2V71.72L405.59,73V70.79l2-1.45h2.07Z"/><path class="cls-2" d="M420.27,69.34l-4.2,9.21h3.07V75h2.21v3.57h1.19v1.92h-1.19v2h-2.21v-2h-5.75V78.91l4.54-9.57Z"/><path class="cls-2" d="M503.91,82.44H501.7V71.72L499.82,73V70.79l2-1.45h2.07Z"/><path class="cls-2" d="M511.65,74.9a2.82,2.82,0,0,1,1.25-.24,3.6,3.6,0,0,1,3.53,3.87,4.13,4.13,0,0,1-8.25,0,9.2,9.2,0,0,1,1.06-3.44l2.68-5.79h2.39Zm.66,5.79a2.11,2.11,0,1,0-1.93-2.1A1.87,1.87,0,0,0,512.31,80.69Z"/><path class="cls-2" d="M544.39,20a1,1,0,0,1,1,1V43a1,1,0,0,1-1,1H7a1,1,0,0,1-1-1V21a1,1,0,0,1,1-1H544.39m0-6H7a7,7,0,0,0-7,7V43a7,7,0,0,0,7,7H544.39a7,7,0,0,0,7-7V21a7,7,0,0,0-7-7Z"/></g></g></svg>