<svg xmlns="http://www.w3.org/2000/svg" viewBox="0 0 364.42 330.62"><defs><style>.cls-1{fill:none;stroke:#fff;stroke-miterlimit:10;stroke-width:6px;}.cls-2{fill:#fff;}.cls-3{fill:#cb1d32;}</style></defs><title>Triumph_Speedometer</title><g id="Layer_2" data-name="Layer 2"><g id="pageTwo"><g id="Speedometer"><g id="speedometerMeasure"><line class="cls-1" x1="152.13" y1="13.96" x2="152.13" y2="71.7"/><line class="cls-1" x1="113.53" y1="19.05" x2="122.83" y2="53.73"/><line class="cls-1" x1="77.56" y1="33.94" x2="106.43" y2="83.94"/><line class="cls-1" x1="46.68" y1="57.64" x2="72.07" y2="83.04"/><line class="cls-1" x1="22.98" y1="88.53" x2="72.98" y2="117.4"/><line class="cls-1" x1="8.03" y1="124.36" x2="42.72" y2="133.66"/><line class="cls-1" x1="2.95" y1="162.96" x2="60.68" y2="162.96"/><line class="cls-1" x1="8.08" y1="201.69" x2="42.77" y2="192.4"/><line class="cls-1" x1="22.98" y1="237.66" x2="72.98" y2="208.79"/><line class="cls-1" x1="46.68" y1="268.55" x2="72.07" y2="243.15"/><line class="cls-1" x1="243.53" y1="163.09" x2="301.26" y2="163.09"/><line class="cls-1" x1="296.18" y1="124.5" x2="261.49" y2="133.79"/><line class="cls-1" x1="281.28" y1="88.53" x2="231.28" y2="117.4"/><line class="cls-1" x1="257.58" y1="57.64" x2="232.19" y2="83.04"/><path class="cls-1" d="M106.43,242.24l-28.88,50h0A149.14,149.14,0,0,1,226.69,33.94h0l-28.86,50"/><line class="cls-1" x1="190.73" y1="19.05" x2="181.43" y2="53.73"/></g><path class="cls-2" d="M66.73,330.62c-3.45,0-6.51-2-6.51-6.33v-8.55c0-4.41,3.06-6.36,6.51-6.36s6.51,1.95,6.51,6.33v8.58C73.24,328.58,70.18,330.62,66.73,330.62Zm0-18.21c-1.89,0-3.06,1.29-3.06,3.51v8.16c0,2.22,1.17,3.51,3.06,3.51s3-1.29,3-3.51v-8.16C69.76,313.7,68.59,312.41,66.73,312.41Z"/><path class="cls-2" d="M329,175.17h-3.48V158.22l-3,2v-3.51l3.18-2.28H329Z"/><path class="cls-2" d="M344.62,175.17h-3.48V158.22l-3,2v-3.51l3.18-2.28h3.27Z"/><path class="cls-2" d="M357.91,175.44c-3.45,0-6.51-2-6.51-6.33v-8.55c0-4.41,3.06-6.36,6.51-6.36s6.51,2,6.51,6.33v8.58C364.42,173.4,361.36,175.44,357.91,175.44Zm0-18.21c-1.89,0-3.06,1.29-3.06,3.51v8.16c0,2.22,1.17,3.51,3.06,3.51s3-1.29,3-3.51v-8.16C360.94,158.52,359.77,157.23,357.91,157.23Z"/><path class="cls-2" d="M135.72,199.85h2v.85a2.52,2.52,0,0,1,2.22-1,3.06,3.06,0,0,1,2.72,1.36,3.33,3.33,0,0,1,2.77-1.36c2.05,0,3.28,1.25,3.28,3.72v5.94h-2v-5.72c0-1.55-.64-2.14-1.69-2.14s-1.73.76-1.76,2v5.83h-2v-5.72c0-1.61-.7-2.14-1.67-2.14s-1.78.8-1.78,2.13v5.73h-2Z"/><path class="cls-2" d="M158.93,205.22c0,2.47-1.21,4.29-3.74,4.29a2.93,2.93,0,0,1-2.29-.78v4.21h-2V199.85h2v.76a2.79,2.79,0,0,1,2.31-.93c2.28,0,3.72,1.53,3.72,4.25Zm-2-.1V204c0-1.65-.66-2.58-2-2.58s-2,.91-2,2.47v1.21c0,1.48.47,2.64,2,2.64S156.92,206.6,156.92,205.12Z"/><path class="cls-2" d="M160.72,196.24h2v4.42a2.58,2.58,0,0,1,2.32-1c2,0,3.45,1,3.45,3.72v5.94h-2v-5.72c0-1.67-.76-2.14-1.8-2.14a1.89,1.89,0,0,0-2,2.13v5.73h-2Z"/><path class="cls-2" d="M43.39,11.22H40.25V0H51.46V3.27H43.63V7.65a4.24,4.24,0,0,1,3.18-1.2c3.45,0,5.46,2.67,5.46,7.47,0,4.53-2.16,7-6.3,7-3.35,0-6-2.1-6.3-5.4h3.42a2.77,2.77,0,0,0,2.83,2.37c1.76,0,2.87-1.17,2.87-3.9S48,9.69,45.92,9.69A2.8,2.8,0,0,0,43.39,11.22Z"/><path class="cls-2" d="M59.05,11.22H55.9V0H67.12V3.27H59.29V7.65a4.24,4.24,0,0,1,3.18-1.2c3.45,0,5.46,2.67,5.46,7.47,0,4.53-2.16,7-6.3,7-3.36,0-6-2.1-6.3-5.4h3.42a2.76,2.76,0,0,0,2.82,2.37c1.77,0,2.88-1.17,2.88-3.9s-.84-4.35-2.88-4.35A2.8,2.8,0,0,0,59.05,11.22Z"/><path class="cls-3" d="M98.83,255.41a4,4,0,0,0,5.33-1.31l55.13-86.87A8.27,8.27,0,1,0,145,159L97.3,250.14a4,4,0,0,0,1.53,5.27Z"/></g></g></g></svg>