<svg xmlns="http://www.w3.org/2000/svg" xmlns:xlink="http://www.w3.org/1999/xlink" viewBox="0 0 396.95 375.6"><defs><style>.cls-1{fill:#fff;}.cls-1,.cls-3{fill-rule:evenodd;}.cls-2{mask:url(#mask);}.cls-3{fill:#fefefe;}</style><mask id="mask" x="-0.02" y="0" width="396.97" height="375.6" maskUnits="userSpaceOnUse"><g id="mask-4"><path id="path-3" class="cls-1" d="M0,0H396.92V375.6H0Z"/></g></mask></defs><title>Asset 2</title><g id="Layer_2" data-name="Layer 2"><g id="logoScreen"><g id="Logo-Modified"><g id="Group-16"><g class="cls-2"><path id="Fill-14" class="cls-3" d="M378.74,52.68l-159,292.68c-6,11.09-12.37,15.79-21.33,15.79s-15.35-4.7-21.33-15.77L18.18,52.68C13.62,44,12.41,34.62,15,27.74c2-5.53,6.15-9.45,12.28-11.64a34.83,34.83,0,0,1,11.88-1.67H357.75a34.75,34.75,0,0,1,11.88,1.67c6.13,2.21,10.29,6.11,12.3,11.64,2.52,6.88,1.32,16.21-3.21,24.94M396.78,32a37.27,37.27,0,0,0-2.1-9.45,32.72,32.72,0,0,0-8.21-12.6A35.21,35.21,0,0,0,374,2.42H374A39.07,39.07,0,0,0,366.1.53,59.55,59.55,0,0,0,357.77,0H39.13a62.19,62.19,0,0,0-8.35.53,39.32,39.32,0,0,0-7.86,1.89h-.06A35.43,35.43,0,0,0,10.47,9.93a32.55,32.55,0,0,0-8.25,12.6A36.78,36.78,0,0,0,.16,32a43.7,43.7,0,0,0,.21,9.47,55.35,55.35,0,0,0,2.1,9.26,59.27,59.27,0,0,0,3.72,8.92l.13.21,159,292.72a65.08,65.08,0,0,0,6,9.2,38.46,38.46,0,0,0,3.57,4,33.38,33.38,0,0,0,43.29,3.48,42.32,42.32,0,0,0,7.6-7.47,65.37,65.37,0,0,0,6-9.2L390.6,59.86l.15-.23a56.58,56.58,0,0,0,3.74-8.92,53.56,53.56,0,0,0,2.08-9.24A45,45,0,0,0,396.8,32"/></g></g><path id="Fill-17" class="cls-3" d="M254.89,144.66l37.31,20.73,7.6-13.55-44.91-23.7h58.2l11.65-20.83h-90.2v161L254.91,232Z"/><path id="Fill-19" class="cls-3" d="M142,144.66l-37.33,20.73L97.1,151.84,142,128.14H83.81L72.14,107.31h90.22v161L142,232Z"/></g></g></g></svg>