<svg xmlns="http://www.w3.org/2000/svg" viewBox="0 0 16 16"><defs><style>.cls-1{fill:#efb79c;}.cls-2{fill:#3d261f;}.cls-3{fill:none;stroke:#0a0000;stroke-miterlimit:10;stroke-width:0.5px;}</style></defs><title>Favicon</title><g id="Favicon"><g id="shawn"><path id="face" class="cls-1" d="M10.61,15.46l2.7-2.7a1.85,1.85,0,0,0,.54-1.31V3a1.83,1.83,0,0,0-.54-1.31l-.05,0A1.85,1.85,0,0,0,12,1.08H4.05a1.85,1.85,0,0,0-1.31.54l-.05,0A1.83,1.83,0,0,0,2.15,3v8.47a1.85,1.85,0,0,0,.54,1.31l2.7,2.7A1.89,1.89,0,0,0,6.7,16H9.3A1.89,1.89,0,0,0,10.61,15.46Z"/><g id="ears"><path id="rightEar" class="cls-1" d="M.88,6.67V8.3a.79.79,0,0,0,.25.58l.33.34a.31.31,0,0,0,.22.09h.16A.31.31,0,0,0,2.15,9V6.72a.31.31,0,0,0-.09-.22l-.19-.18a.27.27,0,0,0-.21-.09H1.32a.31.31,0,0,0-.22.09L1,6.45A.34.34,0,0,0,.88,6.67Z"/><path id="leftEar" class="cls-1" d="M15.12,6.62V8.56a.25.25,0,0,1-.06.14l-.52.52a.31.31,0,0,1-.22.09h-.26a.2.2,0,0,1-.21-.2V6.72a.31.31,0,0,1,.09-.22l.19-.18a.27.27,0,0,1,.21-.09h.34a.31.31,0,0,1,.22.09l.16.16A.25.25,0,0,1,15.12,6.62Z"/></g><g id="hair"><path id="hairMain" class="cls-2" d="M13.85,3V4.86a1.87,1.87,0,0,0-.54-1.31l-.05,0A1.85,1.85,0,0,0,12,3H4.05a1.85,1.85,0,0,0-1.31.54l-.05,0a1.87,1.87,0,0,0-.54,1.31V3a1.87,1.87,0,0,1,.54-1.31l.05,0a1.85,1.85,0,0,1,1.31-.54H12a1.85,1.85,0,0,1,1.31.54l.05,0A1.87,1.87,0,0,1,13.85,3Z"/><path id="rightSideburn" class="cls-2" d="M2.43,2.1H2.15v9h.28V5.67L3.3,4.8a1,1,0,0,0,.31-.73v-2Z"/><path id="leftSideburn" class="cls-2" d="M13.57,2.1h.28v9h-.28V5.67L12.7,4.8a1,1,0,0,1-.31-.73v-2Z"/><path id="beard" class="cls-2" d="M13.85,9.75v1.7a1.85,1.85,0,0,1-.54,1.31l-2.7,2.7A1.89,1.89,0,0,1,9.3,16H6.7a1.89,1.89,0,0,1-1.31-.54l-2.7-2.7a1.85,1.85,0,0,1-.54-1.31V9.75h0a1,1,0,0,1,.69.29l2.1,2.1a3.5,3.5,0,0,1,1,2.47H6a.4.4,0,0,0,.12.29l.07.07a.42.42,0,0,0,.29.12h.88A.31.31,0,0,0,7.54,15l.18-.18A.4.4,0,0,1,8,14.7H8a.4.4,0,0,1,.28.12l.18.18a.31.31,0,0,0,.22.09h.88A.42.42,0,0,0,9.85,15l.07-.07a.4.4,0,0,0,.12-.29h0a3.5,3.5,0,0,1,1-2.47l2.1-2.1a1,1,0,0,1,.69-.29Z"/><path id="leftHair" class="cls-2" d="M6.5,0H12a1.85,1.85,0,0,1,1.85,1.85V3.58a0,0,0,0,1,0,0H5.26A.62.62,0,0,1,4.65,3V1.85A1.85,1.85,0,0,1,6.5,0Z"/><path id="rightHair" class="cls-2" d="M2.92.94h1a.77.77,0,0,1,.77.77V3A.62.62,0,0,1,4,3.58H2.15a0,0,0,0,1,0,0V1.71A.77.77,0,0,1,2.92.94Z"/><path id="moustache" class="cls-2" d="M10.28,11.55h0a.15.15,0,0,0,0-.1h0a.21.21,0,0,0,0-.11h0a.59.59,0,0,0-.39-.16H9a.29.29,0,0,1-.23-.1h0a.42.42,0,0,0-.3-.12H7.56a.42.42,0,0,0-.3.12h0a.29.29,0,0,1-.23.1H6.11a.59.59,0,0,0-.39.16h0a.21.21,0,0,0,0,.11h0a.15.15,0,0,0,0,.1h0a.16.16,0,0,0,.11,0h4.34A.16.16,0,0,0,10.28,11.55Z"/></g><g id="glasses"><g id="lenses"><path id="rightLens" class="cls-3" d="M4.28,6.4H6.84A.62.62,0,0,1,7.46,7v.44A1.44,1.44,0,0,1,6,8.9H4.69a1,1,0,0,1-1-1V7A.62.62,0,0,1,4.28,6.4Z"/><path id="leftLens" class="cls-3" d="M9.57,6.4H10.9a1.44,1.44,0,0,1,1.44,1.44v.44a.62.62,0,0,1-.62.62H9.16a.62.62,0,0,1-.62-.62V7.43A1,1,0,0,1,9.57,6.4Z" transform="translate(20.88 15.3) rotate(-180)"/></g><g id="arms"><line id="rightArm" class="cls-3" x1="2.15" y1="6.62" x2="3.81" y2="6.62"/><line id="leftArm" class="cls-3" x1="13.85" y1="6.62" x2="12.19" y2="6.62"/></g><g id="bendyPartsArms"><path id="rightBendy" class="cls-3" d="M3.66,7.54v-.3A.62.62,0,0,0,3,6.62H3"/><path id="leftBendy" class="cls-3" d="M12.34,7.54v-.3A.62.62,0,0,1,13,6.62h0"/></g><line id="bridge" class="cls-3" x1="8.8" y1="6.51" x2="7.2" y2="6.51"/></g></g></g></svg>