<svg xmlns="http://www.w3.org/2000/svg" viewBox="0 0 1043.63 592.7"><defs><style>.cls-1{fill:#131618;}</style></defs><g id="Layer_2" data-name="Layer 2"><g id="Symbol"><path class="cls-1" d="M588.66,296.35C588.66,460,456.89,592.7,294.33,592.7S0,460,0,296.35,131.78,0,294.33,0,588.66,132.68,588.66,296.35"/><path class="cls-1" d="M911.55,296.35c0,154.07-65.89,279-147.16,279s-147.17-124.89-147.17-279,65.89-279,147.17-279,147.16,124.89,147.16,279"/><path class="cls-1" d="M1043.63,296.35c0,138-23.17,249.94-51.76,249.94s-51.76-111.9-51.76-249.94S963.28,46.41,991.87,46.41s51.76,111.9,51.76,249.94"/></g></g></svg>