<svg width="360" height="72" viewBox="0 0 360 72" fill="none" xmlns="http://www.w3.org/2000/svg">
<rect width="360" height="72" fill="#F7F7F7"/>
<path d="M26.2266 47H21.9883V30.5391H16.5605V27.0117H31.6543V30.5391H26.2266V47ZM48.293 39.3301C48.293 40.6061 48.1198 41.7363 47.7734 42.7207C47.4362 43.7051 46.9395 44.5391 46.2832 45.2227C45.6361 45.8971 44.8522 46.4076 43.9316 46.7539C43.0202 47.1003 41.9902 47.2734 40.8418 47.2734C39.7663 47.2734 38.7773 47.1003 37.875 46.7539C36.9818 46.4076 36.2025 45.8971 35.5371 45.2227C34.8809 44.5391 34.3704 43.7051 34.0059 42.7207C33.6504 41.7363 33.4727 40.6061 33.4727 39.3301C33.4727 37.6348 33.7734 36.1992 34.375 35.0234C34.9766 33.8477 35.8333 32.9544 36.9453 32.3438C38.0573 31.7331 39.3835 31.4277 40.9238 31.4277C42.3548 31.4277 43.6217 31.7331 44.7246 32.3438C45.8366 32.9544 46.707 33.8477 47.3359 35.0234C47.974 36.1992 48.293 37.6348 48.293 39.3301ZM37.7246 39.3301C37.7246 40.3327 37.834 41.1758 38.0527 41.8594C38.2715 42.543 38.6133 43.0579 39.0781 43.4043C39.543 43.7507 40.1491 43.9238 40.8965 43.9238C41.6348 43.9238 42.2318 43.7507 42.6875 43.4043C43.1523 43.0579 43.4896 42.543 43.6992 41.8594C43.918 41.1758 44.0273 40.3327 44.0273 39.3301C44.0273 38.3184 43.918 37.4798 43.6992 36.8145C43.4896 36.14 43.1523 35.6341 42.6875 35.2969C42.2227 34.9596 41.6165 34.791 40.8691 34.791C39.7663 34.791 38.9642 35.1693 38.4629 35.9258C37.9707 36.6823 37.7246 37.8171 37.7246 39.3301ZM60.2422 31.4277C61.9648 31.4277 63.3548 32.0977 64.4121 33.4375C65.4785 34.7773 66.0117 36.7415 66.0117 39.3301C66.0117 41.0618 65.7611 42.5202 65.2598 43.7051C64.7585 44.8809 64.0658 45.7695 63.1816 46.3711C62.2975 46.9727 61.2812 47.2734 60.1328 47.2734C59.3945 47.2734 58.7611 47.1823 58.2324 47C57.7038 46.8086 57.2526 46.5671 56.8789 46.2754C56.5052 45.9746 56.1816 45.6556 55.9082 45.3184H55.6895C55.7624 45.6829 55.8171 46.0566 55.8535 46.4395C55.89 46.8223 55.9082 47.196 55.9082 47.5605V53.7266H51.7383V31.7148H55.1289L55.7168 33.6973H55.9082C56.1816 33.2871 56.5143 32.9089 56.9062 32.5625C57.2982 32.2161 57.7676 31.9427 58.3145 31.7422C58.8704 31.5326 59.513 31.4277 60.2422 31.4277ZM58.9023 34.7637C58.1732 34.7637 57.5944 34.9141 57.166 35.2148C56.7376 35.5156 56.4232 35.9668 56.2227 36.5684C56.0312 37.1699 55.9264 37.931 55.9082 38.8516V39.3027C55.9082 40.2871 55.9993 41.1211 56.1816 41.8047C56.373 42.4883 56.6875 43.0078 57.125 43.3633C57.5716 43.7188 58.1823 43.8965 58.957 43.8965C59.5951 43.8965 60.1191 43.7188 60.5293 43.3633C60.9395 43.0078 61.2448 42.4883 61.4453 41.8047C61.6549 41.112 61.7598 40.2689 61.7598 39.2754C61.7598 37.7806 61.5273 36.6549 61.0625 35.8984C60.5977 35.1419 59.8776 34.7637 58.9023 34.7637ZM73.627 31.7148V47H69.457V31.7148H73.627ZM71.5488 25.7266C72.1686 25.7266 72.7018 25.8724 73.1484 26.1641C73.5951 26.4466 73.8184 26.9798 73.8184 27.7637C73.8184 28.5384 73.5951 29.0762 73.1484 29.377C72.7018 29.6686 72.1686 29.8145 71.5488 29.8145C70.9199 29.8145 70.3822 29.6686 69.9355 29.377C69.498 29.0762 69.2793 28.5384 69.2793 27.7637C69.2793 26.9798 69.498 26.4466 69.9355 26.1641C70.3822 25.8724 70.9199 25.7266 71.5488 25.7266ZM84.2227 47.2734C82.7096 47.2734 81.4199 47 80.3535 46.4531C79.2871 45.8971 78.4759 45.0404 77.9199 43.8828C77.3639 42.7253 77.0859 41.2441 77.0859 39.4395C77.0859 37.571 77.4004 36.0488 78.0293 34.873C78.6673 33.6882 79.5469 32.8177 80.668 32.2617C81.7982 31.7057 83.1061 31.4277 84.5918 31.4277C85.6491 31.4277 86.5605 31.5326 87.3262 31.7422C88.1009 31.9427 88.7754 32.1842 89.3496 32.4668L88.1191 35.6934C87.4629 35.429 86.8522 35.2148 86.2871 35.0508C85.722 34.8776 85.1569 34.791 84.5918 34.791C83.8626 34.791 83.2565 34.9642 82.7734 35.3105C82.2904 35.6478 81.9303 36.1582 81.6934 36.8418C81.4564 37.5254 81.3379 38.3822 81.3379 39.4121C81.3379 40.4238 81.4655 41.2624 81.7207 41.9277C81.9759 42.5931 82.3451 43.0898 82.8281 43.418C83.3112 43.737 83.8991 43.8965 84.5918 43.8965C85.4577 43.8965 86.2279 43.7826 86.9023 43.5547C87.5768 43.3177 88.2331 42.9896 88.8711 42.5703V46.1387C88.2331 46.5397 87.5632 46.8268 86.8613 47C86.1686 47.1823 85.2891 47.2734 84.2227 47.2734ZM109.078 47H104.854V35.4336C104.854 35.1146 104.858 34.7227 104.867 34.2578C104.876 33.7839 104.89 33.3008 104.908 32.8086C104.926 32.3073 104.945 31.8561 104.963 31.4551C104.863 31.5736 104.658 31.7786 104.348 32.0703C104.047 32.3529 103.764 32.6081 103.5 32.8359L101.203 34.6816L99.166 32.1387L105.605 27.0117H109.078V47Z" fill="#333333"/>
<path d="M325.94 28.1799L333.82 36.0599L325.94 43.9399L328.06 46.0599L338.06 36.0599L328.06 26.0599L325.94 28.1799Z" fill="#333333"/>
<rect y="70.9412" width="360" height="1.05884" fill="#212121" fill-opacity="0.08"/>
</svg>
