<svg width="356" height="77" viewBox="0 0 356 77" fill="none" xmlns="http://www.w3.org/2000/svg">
<g filter="url(#filter0_ddd_2983_14968)">
<rect x="14" y="11" width="328" height="48" rx="24" fill="#CC0000"/>
</g>
<path d="M136.281 35.2734C136.281 36.1536 136.172 36.9557 135.953 37.6797C135.734 38.3984 135.401 39.0182 134.953 39.5391C134.51 40.0599 133.948 40.4609 133.266 40.7422C132.583 41.0182 131.776 41.1562 130.844 41.1562C129.911 41.1562 129.104 41.0182 128.422 40.7422C127.74 40.4609 127.174 40.0599 126.727 39.5391C126.284 39.0182 125.953 38.3958 125.734 37.6719C125.516 36.9479 125.406 36.1432 125.406 35.2578C125.406 34.0755 125.599 33.0469 125.984 32.1719C126.375 31.2917 126.974 30.6094 127.781 30.125C128.589 29.6406 129.615 29.3984 130.859 29.3984C132.099 29.3984 133.117 29.6406 133.914 30.125C134.716 30.6094 135.31 31.2917 135.695 32.1719C136.086 33.0521 136.281 34.0859 136.281 35.2734ZM127.945 35.2734C127.945 36.0703 128.044 36.7578 128.242 37.3359C128.445 37.9089 128.76 38.3516 129.188 38.6641C129.615 38.9714 130.167 39.125 130.844 39.125C131.531 39.125 132.089 38.9714 132.516 38.6641C132.943 38.3516 133.253 37.9089 133.445 37.3359C133.643 36.7578 133.742 36.0703 133.742 35.2734C133.742 34.0755 133.518 33.1328 133.07 32.4453C132.622 31.7578 131.885 31.4141 130.859 31.4141C130.177 31.4141 129.62 31.5703 129.188 31.8828C128.76 32.1901 128.445 32.6328 128.242 33.2109C128.044 33.7839 127.945 34.4714 127.945 35.2734ZM142.977 29.5781C144.013 29.5781 144.867 29.7031 145.539 29.9531C146.216 30.2031 146.719 30.5807 147.047 31.0859C147.375 31.5911 147.539 32.2292 147.539 33C147.539 33.5208 147.44 33.9766 147.242 34.3672C147.044 34.7578 146.784 35.0885 146.461 35.3594C146.138 35.6302 145.789 35.8516 145.414 36.0234L148.773 41H146.086L143.359 36.6172H142.07V41H139.648V29.5781H142.977ZM142.805 31.5625H142.07V34.6484H142.852C143.654 34.6484 144.227 34.5156 144.57 34.25C144.919 33.9792 145.094 33.5833 145.094 33.0625C145.094 32.5208 144.906 32.1354 144.531 31.9062C144.161 31.6771 143.586 31.5625 142.805 31.5625ZM160.688 35.1797C160.688 36.4661 160.44 37.5417 159.945 38.4062C159.456 39.2656 158.745 39.9141 157.812 40.3516C156.88 40.7839 155.758 41 154.445 41H151.211V29.5781H154.797C155.995 29.5781 157.034 29.7917 157.914 30.2188C158.794 30.6406 159.477 31.2682 159.961 32.1016C160.445 32.9297 160.688 33.9557 160.688 35.1797ZM158.172 35.2422C158.172 34.3984 158.047 33.7057 157.797 33.1641C157.552 32.6172 157.188 32.2135 156.703 31.9531C156.224 31.6927 155.63 31.5625 154.922 31.5625H153.633V39H154.672C155.854 39 156.732 38.6849 157.305 38.0547C157.883 37.4245 158.172 36.487 158.172 35.2422ZM170.633 41H164.055V29.5781H170.633V31.5625H166.477V34.0703H170.344V36.0547H166.477V39H170.633V41ZM177.352 29.5781C178.388 29.5781 179.242 29.7031 179.914 29.9531C180.591 30.2031 181.094 30.5807 181.422 31.0859C181.75 31.5911 181.914 32.2292 181.914 33C181.914 33.5208 181.815 33.9766 181.617 34.3672C181.419 34.7578 181.159 35.0885 180.836 35.3594C180.513 35.6302 180.164 35.8516 179.789 36.0234L183.148 41H180.461L177.734 36.6172H176.445V41H174.023V29.5781H177.352ZM177.18 31.5625H176.445V34.6484H177.227C178.029 34.6484 178.602 34.5156 178.945 34.25C179.294 33.9792 179.469 33.5833 179.469 33.0625C179.469 32.5208 179.281 32.1354 178.906 31.9062C178.536 31.6771 177.961 31.5625 177.18 31.5625ZM200.875 41H197.797L192.828 32.3594H192.758C192.779 32.7188 192.797 33.0807 192.812 33.4453C192.828 33.8099 192.844 34.1745 192.859 34.5391C192.875 34.8984 192.891 35.2604 192.906 35.625V41H190.742V29.5781H193.797L198.758 38.1328H198.812C198.802 37.7786 198.789 37.4271 198.773 37.0781C198.758 36.7292 198.742 36.3802 198.727 36.0312C198.716 35.6823 198.706 35.3333 198.695 34.9844V29.5781H200.875V41ZM215.125 35.2734C215.125 36.1536 215.016 36.9557 214.797 37.6797C214.578 38.3984 214.245 39.0182 213.797 39.5391C213.354 40.0599 212.792 40.4609 212.109 40.7422C211.427 41.0182 210.62 41.1562 209.688 41.1562C208.755 41.1562 207.948 41.0182 207.266 40.7422C206.583 40.4609 206.018 40.0599 205.57 39.5391C205.128 39.0182 204.797 38.3958 204.578 37.6719C204.359 36.9479 204.25 36.1432 204.25 35.2578C204.25 34.0755 204.443 33.0469 204.828 32.1719C205.219 31.2917 205.818 30.6094 206.625 30.125C207.432 29.6406 208.458 29.3984 209.703 29.3984C210.943 29.3984 211.961 29.6406 212.758 30.125C213.56 30.6094 214.154 31.2917 214.539 32.1719C214.93 33.0521 215.125 34.0859 215.125 35.2734ZM206.789 35.2734C206.789 36.0703 206.888 36.7578 207.086 37.3359C207.289 37.9089 207.604 38.3516 208.031 38.6641C208.458 38.9714 209.01 39.125 209.688 39.125C210.375 39.125 210.932 38.9714 211.359 38.6641C211.786 38.3516 212.096 37.9089 212.289 37.3359C212.487 36.7578 212.586 36.0703 212.586 35.2734C212.586 34.0755 212.362 33.1328 211.914 32.4453C211.466 31.7578 210.729 31.4141 209.703 31.4141C209.021 31.4141 208.464 31.5703 208.031 31.8828C207.604 32.1901 207.289 32.6328 207.086 33.2109C206.888 33.7839 206.789 34.4714 206.789 35.2734ZM232.523 29.5781L229.617 41H226.859L225.312 35C225.281 34.8854 225.24 34.7109 225.188 34.4766C225.135 34.2422 225.081 33.987 225.023 33.7109C224.966 33.4297 224.914 33.1667 224.867 32.9219C224.826 32.6719 224.797 32.474 224.781 32.3281C224.766 32.474 224.734 32.6693 224.688 32.9141C224.646 33.1589 224.596 33.4193 224.539 33.6953C224.487 33.9714 224.435 34.2292 224.383 34.4688C224.331 34.7083 224.289 34.8906 224.258 35.0156L222.719 41H219.969L217.055 29.5781H219.438L220.898 35.8125C220.94 36 220.987 36.224 221.039 36.4844C221.096 36.7448 221.151 37.0182 221.203 37.3047C221.26 37.5859 221.31 37.8594 221.352 38.125C221.398 38.3854 221.432 38.612 221.453 38.8047C221.479 38.6068 221.513 38.3776 221.555 38.1172C221.596 37.8516 221.641 37.5833 221.688 37.3125C221.74 37.0365 221.792 36.7812 221.844 36.5469C221.896 36.3125 221.943 36.1224 221.984 35.9766L223.648 29.5781H225.938L227.602 35.9766C227.638 36.1172 227.68 36.3073 227.727 36.5469C227.779 36.7812 227.831 37.0365 227.883 37.3125C227.935 37.5885 227.982 37.8594 228.023 38.125C228.07 38.3854 228.104 38.612 228.125 38.8047C228.161 38.5443 228.211 38.2292 228.273 37.8594C228.341 37.4844 228.411 37.112 228.484 36.7422C228.562 36.3724 228.63 36.0625 228.688 35.8125L230.141 29.5781H232.523Z" fill="white"/>
<defs>
<filter id="filter0_ddd_2983_14968" x="0" y="0" width="356" height="77" filterUnits="userSpaceOnUse" color-interpolation-filters="sRGB">
<feFlood flood-opacity="0" result="BackgroundImageFix"/>
<feColorMatrix in="SourceAlpha" type="matrix" values="0 0 0 0 0 0 0 0 0 0 0 0 0 0 0 0 0 0 127 0" result="hardAlpha"/>
<feOffset dy="5"/>
<feGaussianBlur stdDeviation="2.5"/>
<feColorMatrix type="matrix" values="0 0 0 0 0.8 0 0 0 0 0 0 0 0 0 0 0 0 0 0.12 0"/>
<feBlend mode="normal" in2="BackgroundImageFix" result="effect1_dropShadow_2983_14968"/>
<feColorMatrix in="SourceAlpha" type="matrix" values="0 0 0 0 0 0 0 0 0 0 0 0 0 0 0 0 0 0 127 0" result="hardAlpha"/>
<feOffset dy="3"/>
<feGaussianBlur stdDeviation="7"/>
<feColorMatrix type="matrix" values="0 0 0 0 0.8 0 0 0 0 0 0 0 0 0 0 0 0 0 0.04 0"/>
<feBlend mode="normal" in2="effect1_dropShadow_2983_14968" result="effect2_dropShadow_2983_14968"/>
<feColorMatrix in="SourceAlpha" type="matrix" values="0 0 0 0 0 0 0 0 0 0 0 0 0 0 0 0 0 0 127 0" result="hardAlpha"/>
<feOffset dy="8"/>
<feGaussianBlur stdDeviation="5"/>
<feColorMatrix type="matrix" values="0 0 0 0 0.8 0 0 0 0 0 0 0 0 0 0 0 0 0 0.04 0"/>
<feBlend mode="normal" in2="effect2_dropShadow_2983_14968" result="effect3_dropShadow_2983_14968"/>
<feBlend mode="normal" in="SourceGraphic" in2="effect3_dropShadow_2983_14968" result="shape"/>
</filter>
</defs>
</svg>
