<svg width="360" height="80" viewBox="0 0 360 80" fill="none" xmlns="http://www.w3.org/2000/svg">
<rect width="360" height="80" fill="#F7F7F7"/>
<rect y="79" width="360" height="1" fill="#212121" fill-opacity="0.08"/>
<path d="M63.3047 28H60.2773V16.2422H56.4004V13.7227H67.1816V16.2422H63.3047V28ZM73.7672 16.8574C75.232 16.8574 76.3551 17.1764 77.1363 17.8145C77.9176 18.4525 78.3082 19.4225 78.3082 20.7246V28H76.2281L75.652 26.5156H75.5738C75.2613 26.9062 74.9423 27.2253 74.6168 27.4727C74.2913 27.7201 73.9169 27.9023 73.4937 28.0195C73.0706 28.1367 72.5562 28.1953 71.9508 28.1953C71.3062 28.1953 70.7268 28.0716 70.2125 27.8242C69.7047 27.5768 69.3043 27.1992 69.0113 26.6914C68.7184 26.1771 68.5719 25.526 68.5719 24.7383C68.5719 23.5794 68.9788 22.7266 69.7926 22.1797C70.6064 21.6263 71.8271 21.3203 73.4547 21.2617L75.3492 21.2031V20.7246C75.3492 20.1517 75.1995 19.7318 74.9 19.4648C74.6005 19.1979 74.1839 19.0645 73.65 19.0645C73.1227 19.0645 72.6051 19.1393 72.0973 19.2891C71.5895 19.4388 71.0816 19.6276 70.5738 19.8555L69.5875 17.8438C70.1669 17.5378 70.8147 17.2969 71.5309 17.1211C72.2535 16.9453 72.999 16.8574 73.7672 16.8574ZM75.3492 22.9414L74.1969 22.9805C73.2333 23.0065 72.5628 23.179 72.1852 23.498C71.8141 23.8171 71.6285 24.237 71.6285 24.7578C71.6285 25.2135 71.762 25.5391 72.0289 25.7344C72.2958 25.9232 72.6441 26.0176 73.0738 26.0176C73.7118 26.0176 74.249 25.8288 74.6852 25.4512C75.1279 25.0736 75.3492 24.5365 75.3492 23.8398V22.9414ZM87.6281 16.877C87.7779 16.877 87.9504 16.8867 88.1457 16.9062C88.3475 16.9193 88.5103 16.9388 88.634 16.9648L88.4094 19.7578C88.3117 19.7253 88.1717 19.7025 87.9895 19.6895C87.8137 19.6699 87.6607 19.6602 87.5305 19.6602C87.1464 19.6602 86.772 19.709 86.4074 19.8066C86.0493 19.9043 85.7271 20.0638 85.4406 20.2852C85.1542 20.5 84.9263 20.7865 84.757 21.1445C84.5943 21.4961 84.5129 21.929 84.5129 22.4434V28H81.5344V17.082H83.7902L84.2297 18.918H84.3762C84.591 18.5469 84.8579 18.2083 85.177 17.9023C85.5025 17.5898 85.8703 17.3424 86.2805 17.1602C86.6971 16.9714 87.1464 16.877 87.6281 16.877ZM93.9598 32.8047C92.4363 32.8047 91.271 32.5378 90.4637 32.0039C89.6629 31.4766 89.2625 30.7344 89.2625 29.7773C89.2625 29.1198 89.4676 28.5697 89.8777 28.127C90.2879 27.6842 90.8901 27.3685 91.6844 27.1797C91.3784 27.0495 91.1115 26.8379 90.8836 26.5449C90.6557 26.2454 90.5418 25.9297 90.5418 25.5977C90.5418 25.181 90.6622 24.8359 90.9031 24.5625C91.144 24.2826 91.4923 24.0091 91.948 23.7422C91.3751 23.4948 90.9194 23.0977 90.5809 22.5508C90.2488 22.0039 90.0828 21.3594 90.0828 20.6172C90.0828 19.8229 90.2553 19.1491 90.6004 18.5957C90.952 18.0358 91.4598 17.6094 92.1238 17.3164C92.7944 17.0234 93.6082 16.877 94.5652 16.877C94.7671 16.877 95.0014 16.89 95.2684 16.916C95.5353 16.9421 95.7794 16.9714 96.0008 17.0039C96.2286 17.0365 96.3816 17.0625 96.4598 17.082H100.268V18.5957L98.5594 19.0352C98.7156 19.276 98.8328 19.5332 98.9109 19.8066C98.9891 20.0801 99.0281 20.3698 99.0281 20.6758C99.0281 21.8477 98.618 22.7624 97.7977 23.4199C96.9839 24.071 95.851 24.3965 94.3992 24.3965C94.0542 24.377 93.7286 24.3509 93.4227 24.3184C93.2729 24.4355 93.159 24.5592 93.0809 24.6895C93.0027 24.8197 92.9637 24.9564 92.9637 25.0996C92.9637 25.2428 93.0223 25.3633 93.1395 25.4609C93.2632 25.5521 93.4454 25.6237 93.6863 25.6758C93.9337 25.7214 94.2397 25.7441 94.6043 25.7441H96.4598C97.6577 25.7441 98.5691 26.0013 99.1941 26.5156C99.8257 27.0299 100.141 27.7852 100.141 28.7812C100.141 30.0573 99.6076 31.0469 98.5398 31.75C97.4786 32.4531 95.952 32.8047 93.9598 32.8047ZM94.0867 30.8613C94.7964 30.8613 95.4051 30.793 95.9129 30.6562C96.4272 30.526 96.8211 30.3372 97.0945 30.0898C97.368 29.849 97.5047 29.5592 97.5047 29.2207C97.5047 28.9473 97.4233 28.7292 97.2605 28.5664C97.1043 28.4102 96.8634 28.2995 96.5379 28.2344C96.2189 28.1693 95.8087 28.1367 95.3074 28.1367H93.7645C93.3999 28.1367 93.0711 28.1953 92.7781 28.3125C92.4917 28.4297 92.2638 28.5924 92.0945 28.8008C91.9253 29.0156 91.8406 29.263 91.8406 29.543C91.8406 29.9531 92.0359 30.2754 92.4266 30.5098C92.8237 30.7441 93.3771 30.8613 94.0867 30.8613ZM94.5652 22.5801C95.1251 22.5801 95.5353 22.4076 95.7957 22.0625C96.0561 21.7174 96.1863 21.2487 96.1863 20.6562C96.1863 19.9987 96.0496 19.5072 95.7762 19.1816C95.5092 18.8496 95.1056 18.6836 94.5652 18.6836C94.0184 18.6836 93.6082 18.8496 93.3348 19.1816C93.0613 19.5072 92.9246 19.9987 92.9246 20.6562C92.9246 21.2487 93.0581 21.7174 93.325 22.0625C93.5984 22.4076 94.0118 22.5801 94.5652 22.5801ZM106.727 16.877C107.736 16.877 108.605 17.0723 109.334 17.4629C110.064 17.847 110.627 18.4069 111.024 19.1426C111.421 19.8783 111.62 20.7767 111.62 21.8379V23.2832H104.579C104.611 24.123 104.862 24.7839 105.33 25.2656C105.806 25.7409 106.463 25.9785 107.303 25.9785C108 25.9785 108.638 25.9069 109.217 25.7637C109.797 25.6204 110.392 25.4056 111.004 25.1191V27.4238C110.464 27.6908 109.898 27.8861 109.305 28.0098C108.719 28.1335 108.006 28.1953 107.166 28.1953C106.073 28.1953 105.103 27.9935 104.256 27.5898C103.416 27.1862 102.756 26.571 102.274 25.7441C101.799 24.9173 101.561 23.8757 101.561 22.6191C101.561 21.3431 101.776 20.2819 102.205 19.4355C102.642 18.5827 103.247 17.9447 104.022 17.5215C104.797 17.0918 105.698 16.877 106.727 16.877ZM106.746 18.9961C106.167 18.9961 105.685 19.1816 105.301 19.5527C104.924 19.9238 104.705 20.5065 104.647 21.3008H108.827C108.82 20.8581 108.739 20.4642 108.582 20.1191C108.433 19.7741 108.205 19.5007 107.899 19.2988C107.599 19.097 107.215 18.9961 106.746 18.9961ZM118.791 25.8223C119.117 25.8223 119.432 25.7897 119.738 25.7246C120.051 25.6595 120.36 25.5781 120.666 25.4805V27.6973C120.347 27.8405 119.95 27.9577 119.475 28.0488C119.006 28.1465 118.492 28.1953 117.932 28.1953C117.281 28.1953 116.695 28.0911 116.174 27.8828C115.66 27.668 115.253 27.3001 114.953 26.7793C114.66 26.252 114.514 25.5195 114.514 24.582V19.3184H113.088V18.0586L114.729 17.0625L115.588 14.7578H117.492V17.082H120.549V19.3184H117.492V24.582C117.492 24.9987 117.609 25.3112 117.844 25.5195C118.085 25.7214 118.4 25.8223 118.791 25.8223ZM134.12 28H131.093V16.2422H127.216V13.7227H137.997V16.2422H134.12V28ZM143.089 17.082V28H140.11V17.082H143.089ZM141.604 12.8047C142.047 12.8047 142.428 12.9089 142.747 13.1172C143.066 13.319 143.225 13.6999 143.225 14.2598C143.225 14.8132 143.066 15.1973 142.747 15.4121C142.428 15.6204 142.047 15.7246 141.604 15.7246C141.155 15.7246 140.771 15.6204 140.452 15.4121C140.139 15.1973 139.983 14.8132 139.983 14.2598C139.983 13.6999 140.139 13.319 140.452 13.1172C140.771 12.9089 141.155 12.8047 141.604 12.8047ZM152.575 16.877C153.74 16.877 154.677 17.196 155.387 17.834C156.097 18.4655 156.452 19.4811 156.452 20.8809V28H153.473V21.623C153.473 20.8418 153.33 20.2526 153.043 19.8555C152.763 19.4583 152.321 19.2598 151.715 19.2598C150.804 19.2598 150.182 19.569 149.85 20.1875C149.518 20.806 149.352 21.6979 149.352 22.8633V28H146.373V17.082H148.649L149.049 18.4785H149.215C149.45 18.1009 149.739 17.7949 150.084 17.5605C150.436 17.3262 150.823 17.1536 151.246 17.043C151.676 16.9323 152.119 16.877 152.575 16.877ZM164.141 16.8574C165.605 16.8574 166.729 17.1764 167.51 17.8145C168.291 18.4525 168.682 19.4225 168.682 20.7246V28H166.602L166.025 26.5156H165.947C165.635 26.9062 165.316 27.2253 164.99 27.4727C164.665 27.7201 164.29 27.9023 163.867 28.0195C163.444 28.1367 162.93 28.1953 162.324 28.1953C161.68 28.1953 161.1 28.0716 160.586 27.8242C160.078 27.5768 159.678 27.1992 159.385 26.6914C159.092 26.1771 158.945 25.526 158.945 24.7383C158.945 23.5794 159.352 22.7266 160.166 22.1797C160.98 21.6263 162.201 21.3203 163.828 21.2617L165.723 21.2031V20.7246C165.723 20.1517 165.573 19.7318 165.273 19.4648C164.974 19.1979 164.557 19.0645 164.023 19.0645C163.496 19.0645 162.979 19.1393 162.471 19.2891C161.963 19.4388 161.455 19.6276 160.947 19.8555L159.961 17.8438C160.54 17.5378 161.188 17.2969 161.904 17.1211C162.627 16.9453 163.372 16.8574 164.141 16.8574ZM165.723 22.9414L164.57 22.9805C163.607 23.0065 162.936 23.179 162.559 23.498C162.188 23.8171 162.002 24.237 162.002 24.7578C162.002 25.2135 162.135 25.5391 162.402 25.7344C162.669 25.9232 163.018 26.0176 163.447 26.0176C164.085 26.0176 164.622 25.8288 165.059 25.4512C165.501 25.0736 165.723 24.5365 165.723 23.8398V22.9414Z" fill="#333333"/>
<path d="M190.469 20.2734C190.469 21.1536 190.357 21.9557 190.133 22.6797C189.909 23.3984 189.576 24.0182 189.133 24.5391C188.695 25.0547 188.151 25.4531 187.5 25.7344C186.849 26.0156 186.094 26.1562 185.234 26.1562C184.349 26.1562 183.576 26.0156 182.914 25.7344C182.258 25.4531 181.711 25.0521 181.273 24.5312C180.841 24.0104 180.516 23.388 180.297 22.6641C180.083 21.9401 179.977 21.138 179.977 20.2578C179.977 19.0911 180.169 18.0677 180.555 17.1875C180.94 16.3073 181.523 15.6224 182.305 15.1328C183.091 14.6432 184.076 14.3984 185.258 14.3984C186.388 14.3984 187.339 14.6406 188.109 15.125C188.885 15.6094 189.471 16.2917 189.867 17.1719C190.268 18.0469 190.469 19.0807 190.469 20.2734ZM181.375 20.2734C181.375 21.2422 181.513 22.0807 181.789 22.7891C182.065 23.4974 182.487 24.0443 183.055 24.4297C183.628 24.8151 184.354 25.0078 185.234 25.0078C186.12 25.0078 186.844 24.8151 187.406 24.4297C187.974 24.0443 188.393 23.4974 188.664 22.7891C188.935 22.0807 189.07 21.2422 189.07 20.2734C189.07 18.7995 188.76 17.6484 188.141 16.8203C187.526 15.987 186.565 15.5703 185.258 15.5703C184.372 15.5703 183.643 15.7604 183.07 16.1406C182.497 16.5208 182.07 17.0625 181.789 17.7656C181.513 18.4635 181.375 19.2995 181.375 20.2734ZM196.252 14.5781C197.189 14.5781 197.962 14.6953 198.572 14.9297C199.186 15.1589 199.645 15.5104 199.947 15.9844C200.249 16.4583 200.4 17.0625 200.4 17.7969C200.4 18.401 200.291 18.9062 200.072 19.3125C199.853 19.7135 199.567 20.0391 199.212 20.2891C198.858 20.5391 198.481 20.7318 198.08 20.8672L201.212 26H199.666L196.869 21.2344H194.494V26H193.166V14.5781H196.252ZM196.173 15.7266H194.494V20.1094H196.306C197.239 20.1094 197.923 19.9193 198.361 19.5391C198.804 19.1589 199.025 18.599 199.025 17.8594C199.025 17.0833 198.791 16.5339 198.322 16.2109C197.858 15.888 197.142 15.7266 196.173 15.7266ZM212.261 20.1797C212.261 21.4661 212.027 22.5417 211.558 23.4062C211.089 24.2656 210.409 24.9141 209.519 25.3516C208.633 25.7839 207.558 26 206.292 26H203.191V14.5781H206.636C207.797 14.5781 208.797 14.7917 209.636 15.2188C210.474 15.6406 211.12 16.2682 211.573 17.1016C212.032 17.9297 212.261 18.9557 212.261 20.1797ZM210.862 20.2266C210.862 19.2005 210.691 18.3542 210.347 17.6875C210.008 17.0208 209.508 16.526 208.847 16.2031C208.191 15.875 207.386 15.7109 206.433 15.7109H204.519V24.8594H206.136C207.709 24.8594 208.889 24.4714 209.675 23.6953C210.467 22.9193 210.862 21.763 210.862 20.2266ZM221.309 26H214.95V14.5781H221.309V15.75H216.278V19.4453H221.02V20.6016H216.278V24.8281H221.309V26ZM227.077 14.5781C228.014 14.5781 228.787 14.6953 229.397 14.9297C230.011 15.1589 230.47 15.5104 230.772 15.9844C231.074 16.4583 231.225 17.0625 231.225 17.7969C231.225 18.401 231.116 18.9062 230.897 19.3125C230.678 19.7135 230.392 20.0391 230.037 20.2891C229.683 20.5391 229.306 20.7318 228.905 20.8672L232.037 26H230.491L227.694 21.2344H225.319V26H223.991V14.5781H227.077ZM226.998 15.7266H225.319V20.1094H227.131C228.064 20.1094 228.748 19.9193 229.186 19.5391C229.629 19.1589 229.85 18.599 229.85 17.8594C229.85 17.0833 229.616 16.5339 229.147 16.2109C228.683 15.888 227.967 15.7266 226.998 15.7266ZM242.377 26H241.111V17.9062C241.111 17.599 241.111 17.3359 241.111 17.1172C241.116 16.8932 241.121 16.6901 241.127 16.5078C241.137 16.3203 241.15 16.1302 241.166 15.9375C241.004 16.1042 240.853 16.2474 240.713 16.3672C240.572 16.4818 240.397 16.625 240.189 16.7969L238.884 17.8438L238.205 16.9609L241.298 14.5781H242.377V26ZM254.355 19.4453C254.355 20.138 254.305 20.8125 254.206 21.4688C254.113 22.125 253.948 22.737 253.714 23.3047C253.485 23.8724 253.172 24.3698 252.777 24.7969C252.381 25.224 251.883 25.5599 251.284 25.8047C250.691 26.0443 249.98 26.1641 249.152 26.1641C248.928 26.1641 248.672 26.1484 248.386 26.1172C248.099 26.0911 247.865 26.0521 247.683 26V24.875C247.876 24.9427 248.102 24.9974 248.363 25.0391C248.623 25.0755 248.878 25.0938 249.128 25.0938C250.102 25.0938 250.868 24.8854 251.425 24.4688C251.982 24.0469 252.383 23.4766 252.628 22.7578C252.873 22.0339 253.011 21.2214 253.042 20.3203H252.948C252.792 20.5703 252.586 20.8021 252.331 21.0156C252.081 21.224 251.777 21.3932 251.417 21.5234C251.058 21.6484 250.639 21.7109 250.159 21.7109C249.498 21.7109 248.92 21.5755 248.425 21.3047C247.935 21.0339 247.553 20.6406 247.277 20.125C247.006 19.6094 246.87 18.987 246.87 18.2578C246.87 17.4714 247.019 16.7917 247.316 16.2188C247.618 15.6406 248.04 15.1953 248.581 14.8828C249.123 14.5703 249.761 14.4141 250.495 14.4141C251.058 14.4141 251.573 14.5208 252.042 14.7344C252.511 14.9479 252.917 15.2682 253.261 15.6953C253.61 16.1172 253.878 16.6406 254.066 17.2656C254.258 17.8906 254.355 18.6172 254.355 19.4453ZM250.495 15.5156C249.803 15.5156 249.24 15.7422 248.808 16.1953C248.381 16.6484 248.167 17.3307 248.167 18.2422C248.167 18.9974 248.352 19.5938 248.722 20.0312C249.092 20.4688 249.662 20.6875 250.433 20.6875C250.964 20.6875 251.422 20.5807 251.808 20.3672C252.198 20.1536 252.498 19.8828 252.706 19.5547C252.92 19.2266 253.027 18.8906 253.027 18.5469C253.027 18.2031 252.974 17.8542 252.87 17.5C252.771 17.1458 252.618 16.8203 252.409 16.5234C252.201 16.2214 251.938 15.9792 251.62 15.7969C251.303 15.6094 250.928 15.5156 250.495 15.5156ZM256.278 21.1172C256.278 20.4297 256.325 19.7578 256.419 19.1016C256.518 18.4453 256.682 17.8359 256.911 17.2734C257.14 16.7057 257.453 16.2083 257.848 15.7812C258.244 15.3542 258.736 15.0208 259.325 14.7812C259.919 14.5365 260.63 14.4141 261.458 14.4141C261.692 14.4141 261.945 14.4271 262.216 14.4531C262.486 14.474 262.71 14.5104 262.887 14.5625V15.6797C262.695 15.612 262.473 15.5625 262.223 15.5312C261.979 15.5 261.731 15.4844 261.481 15.4844C260.512 15.4844 259.749 15.6953 259.192 16.1172C258.64 16.5391 258.242 17.112 257.997 17.8359C257.752 18.5547 257.611 19.3646 257.575 20.2656H257.661C257.822 20.0052 258.028 19.7708 258.278 19.5625C258.528 19.349 258.83 19.1797 259.184 19.0547C259.544 18.9297 259.96 18.8672 260.434 18.8672C261.101 18.8672 261.682 19.0026 262.177 19.2734C262.677 19.5443 263.062 19.9375 263.333 20.4531C263.609 20.9688 263.747 21.5938 263.747 22.3281C263.747 23.1146 263.601 23.7943 263.309 24.3672C263.018 24.9401 262.601 25.3828 262.059 25.6953C261.523 26.0026 260.882 26.1562 260.137 26.1562C259.58 26.1562 259.067 26.0495 258.598 25.8359C258.13 25.6224 257.721 25.3047 257.372 24.8828C257.028 24.4609 256.76 23.9375 256.567 23.3125C256.374 22.6823 256.278 21.9505 256.278 21.1172ZM260.122 25.0625C260.83 25.0625 261.398 24.8359 261.825 24.3828C262.252 23.9297 262.466 23.2448 262.466 22.3281C262.466 21.5781 262.276 20.9844 261.895 20.5469C261.515 20.1094 260.942 19.8906 260.177 19.8906C259.656 19.8906 259.203 20 258.817 20.2188C258.432 20.4323 258.132 20.7031 257.919 21.0312C257.705 21.3594 257.598 21.6927 257.598 22.0312C257.598 22.375 257.648 22.724 257.747 23.0781C257.851 23.4323 258.007 23.7604 258.216 24.0625C258.424 24.3646 258.687 24.6068 259.005 24.7891C259.322 24.9714 259.695 25.0625 260.122 25.0625Z" fill="#666666"/>
<g filter="url(#filter0_ddd_2983_15171)">
<rect x="56" y="42" width="165" height="20" rx="10" fill="#F7F7F7"/>
<path d="M78.2891 48.4297C77.8255 48.4297 77.4141 48.5208 77.0547 48.7031C76.7005 48.8802 76.401 49.138 76.1562 49.4766C75.9167 49.8151 75.7344 50.224 75.6094 50.7031C75.4844 51.1823 75.4219 51.7214 75.4219 52.3203C75.4219 53.1276 75.5208 53.8177 75.7188 54.3906C75.9219 54.9583 76.2344 55.3932 76.6562 55.6953C77.0781 55.9922 77.6224 56.1406 78.2891 56.1406C78.7526 56.1406 79.2161 56.0885 79.6797 55.9844C80.1484 55.8802 80.6562 55.7318 81.2031 55.5391V57.5703C80.6979 57.7786 80.2005 57.9271 79.7109 58.0156C79.2214 58.1094 78.6719 58.1562 78.0625 58.1562C76.8854 58.1562 75.9167 57.9141 75.1562 57.4297C74.401 56.9401 73.8411 56.2578 73.4766 55.3828C73.112 54.5026 72.9297 53.4766 72.9297 52.3047C72.9297 51.4401 73.0469 50.6484 73.2812 49.9297C73.5156 49.2109 73.8594 48.5885 74.3125 48.0625C74.7656 47.5365 75.3255 47.1302 75.9922 46.8438C76.6589 46.5573 77.4245 46.4141 78.2891 46.4141C78.8568 46.4141 79.4245 46.487 79.9922 46.6328C80.5651 46.7734 81.112 46.9688 81.6328 47.2188L80.8516 49.1875C80.4245 48.9844 79.9948 48.8073 79.5625 48.6562C79.1302 48.5052 78.7057 48.4297 78.2891 48.4297ZM93.9375 46.5781V53.9688C93.9375 54.7552 93.763 55.4661 93.4141 56.1016C93.0703 56.7318 92.5469 57.2318 91.8438 57.6016C91.1458 57.9714 90.2656 58.1562 89.2031 58.1562C87.6927 58.1562 86.5417 57.7708 85.75 57C84.9583 56.2292 84.5625 55.2083 84.5625 53.9375V46.5781H86.9766V53.5703C86.9766 54.513 87.1693 55.1745 87.5547 55.5547C87.9401 55.9349 88.5104 56.125 89.2656 56.125C89.7969 56.125 90.2266 56.0339 90.5547 55.8516C90.888 55.6693 91.1328 55.388 91.2891 55.0078C91.4453 54.6276 91.5234 54.1432 91.5234 53.5547V46.5781H93.9375ZM97.7344 46.5781H101.289C102.81 46.5781 103.961 46.7917 104.742 47.2188C105.523 47.6458 105.914 48.3958 105.914 49.4688C105.914 49.901 105.844 50.2917 105.703 50.6406C105.568 50.9896 105.37 51.276 105.109 51.5C104.849 51.724 104.531 51.8698 104.156 51.9375V52.0156C104.536 52.0938 104.88 52.2292 105.188 52.4219C105.495 52.6094 105.74 52.8854 105.922 53.25C106.109 53.6094 106.203 54.0885 106.203 54.6875C106.203 55.3802 106.034 55.974 105.695 56.4688C105.357 56.9635 104.872 57.3438 104.242 57.6094C103.617 57.8698 102.872 58 102.008 58H97.7344V46.5781ZM100.156 51.1016H101.562C102.266 51.1016 102.753 50.9922 103.023 50.7734C103.294 50.5495 103.43 50.2214 103.43 49.7891C103.43 49.3516 103.268 49.0391 102.945 48.8516C102.628 48.6589 102.122 48.5625 101.43 48.5625H100.156V51.1016ZM100.156 53.0234V56H101.734C102.464 56 102.971 55.8594 103.258 55.5781C103.544 55.2969 103.688 54.9193 103.688 54.4453C103.688 54.1641 103.625 53.9167 103.5 53.7031C103.375 53.4896 103.164 53.3229 102.867 53.2031C102.576 53.0833 102.172 53.0234 101.656 53.0234H100.156ZM109.484 46.5781H113.039C114.56 46.5781 115.711 46.7917 116.492 47.2188C117.273 47.6458 117.664 48.3958 117.664 49.4688C117.664 49.901 117.594 50.2917 117.453 50.6406C117.318 50.9896 117.12 51.276 116.859 51.5C116.599 51.724 116.281 51.8698 115.906 51.9375V52.0156C116.286 52.0938 116.63 52.2292 116.938 52.4219C117.245 52.6094 117.49 52.8854 117.672 53.25C117.859 53.6094 117.953 54.0885 117.953 54.6875C117.953 55.3802 117.784 55.974 117.445 56.4688C117.107 56.9635 116.622 57.3438 115.992 57.6094C115.367 57.8698 114.622 58 113.758 58H109.484V46.5781ZM111.906 51.1016H113.312C114.016 51.1016 114.503 50.9922 114.773 50.7734C115.044 50.5495 115.18 50.2214 115.18 49.7891C115.18 49.3516 115.018 49.0391 114.695 48.8516C114.378 48.6589 113.872 48.5625 113.18 48.5625H111.906V51.1016ZM111.906 53.0234V56H113.484C114.214 56 114.721 55.8594 115.008 55.5781C115.294 55.2969 115.438 54.9193 115.438 54.4453C115.438 54.1641 115.375 53.9167 115.25 53.7031C115.125 53.4896 114.914 53.3229 114.617 53.2031C114.326 53.0833 113.922 53.0234 113.406 53.0234H111.906ZM124.789 51.2812L127.172 46.5781H129.781L125.992 53.5547V58H123.586V53.6328L119.797 46.5781H122.422L124.789 51.2812ZM147.508 58H144.43L139.461 49.3594H139.391C139.411 49.7188 139.43 50.0807 139.445 50.4453C139.461 50.8099 139.477 51.1745 139.492 51.5391C139.508 51.8984 139.523 52.2604 139.539 52.625V58H137.375V46.5781H140.43L145.391 55.1328H145.445C145.435 54.7786 145.422 54.4271 145.406 54.0781C145.391 53.7292 145.375 53.3802 145.359 53.0312C145.349 52.6823 145.339 52.3333 145.328 51.9844V46.5781H147.508V58ZM157.969 58H151.391V46.5781H157.969V48.5625H153.812V51.0703H157.68V53.0547H153.812V56H157.969V58ZM167.938 58H161.359V46.5781H167.938V48.5625H163.781V51.0703H167.648V53.0547H163.781V56H167.938V58ZM180.805 52.1797C180.805 53.4661 180.557 54.5417 180.062 55.4062C179.573 56.2656 178.862 56.9141 177.93 57.3516C176.997 57.7839 175.875 58 174.562 58H171.328V46.5781H174.914C176.112 46.5781 177.151 46.7917 178.031 47.2188C178.911 47.6406 179.594 48.2682 180.078 49.1016C180.562 49.9297 180.805 50.9557 180.805 52.1797ZM178.289 52.2422C178.289 51.3984 178.164 50.7057 177.914 50.1641C177.669 49.6172 177.305 49.2135 176.82 48.9531C176.341 48.6927 175.747 48.5625 175.039 48.5625H173.75V56H174.789C175.971 56 176.849 55.6849 177.422 55.0547C178 54.4245 178.289 53.487 178.289 52.2422ZM190.75 58H184.172V46.5781H190.75V48.5625H186.594V51.0703H190.461V53.0547H186.594V56H190.75V58ZM203.617 52.1797C203.617 53.4661 203.37 54.5417 202.875 55.4062C202.385 56.2656 201.674 56.9141 200.742 57.3516C199.81 57.7839 198.688 58 197.375 58H194.141V46.5781H197.727C198.924 46.5781 199.964 46.7917 200.844 47.2188C201.724 47.6406 202.406 48.2682 202.891 49.1016C203.375 49.9297 203.617 50.9557 203.617 52.1797ZM201.102 52.2422C201.102 51.3984 200.977 50.7057 200.727 50.1641C200.482 49.6172 200.117 49.2135 199.633 48.9531C199.154 48.6927 198.56 48.5625 197.852 48.5625H196.562V56H197.602C198.784 56 199.661 55.6849 200.234 55.0547C200.812 54.4245 201.102 53.487 201.102 52.2422Z" fill="black"/>
</g>
<g clip-path="url(#clip0_2983_15171)">
<path d="M325.88 32.12L333.76 40L325.88 47.88L328 50L338 40L328 30L325.88 32.12Z" fill="#333333"/>
</g>
<mask id="mask0_2983_15171" style="mask-type:alpha" maskUnits="userSpaceOnUse" x="16" y="24" width="32" height="32">
<rect x="16" y="24" width="32" height="32" rx="8" fill="#C4C4C4"/>
</mask>
<g mask="url(#mask0_2983_15171)">
</g>
<path fill-rule="evenodd" clip-rule="evenodd" d="M23.4502 46.3601C23.9002 46.7901 24.5602 46.9801 25.6202 46.9801H27.5502V49.3401C27.5102 49.8401 26.6102 50.2501 25.5002 50.2501C24.4002 50.2501 23.5002 49.8501 23.4602 49.3501L23.4502 49.3401V46.3601ZM40.5602 46.3601V49.3401H40.5502C40.5102 49.8501 39.6102 50.2501 38.5102 50.2501C37.4002 50.2501 36.5102 49.8501 36.4702 49.3501L36.4602 49.3401V46.9801H38.3902C39.4502 46.9801 40.1102 46.7801 40.5602 46.3601V46.3601Z" fill="#333333"/>
<path fill-rule="evenodd" clip-rule="evenodd" d="M39.3 33.76C36.1 31.98 27.9 31.98 24.7 33.76L23.7 37.1H21V37.86C21 38.62 21.62 39.24 22.39 39.24H22.72C21.57 41.98 22.08 46.36 23.45 47.28H40.55C41.79 46.36 42.44 41.99 41.29 39.24H41.62C42.38 39.24 43 38.62 43 37.86V37.1H40.3L39.3 33.76ZM39.65 31.56C36.23 29.66 27.78 29.66 24.35 31.56L24.53 31.87C24.6679 32.1207 24.8907 32.3138 25.1584 32.4147C25.4261 32.5155 25.721 32.5174 25.99 32.42C29.15 31.32 34.82 31.32 38.01 32.42C38.57 32.62 39.19 32.39 39.47 31.86L39.65 31.56ZM25.8296 45.2901C25.0496 42.4301 25.2596 37.7301 26.4996 34.9901H26.4896C28.5496 33.9601 35.3696 33.9901 37.5096 34.9901C38.6796 37.7301 39.0996 42.3201 38.1796 45.2901H25.8296Z" fill="#CC0000"/>
<path fill-rule="evenodd" clip-rule="evenodd" d="M24.0401 40.7801C24.2901 40.6301 24.6101 40.8201 24.5901 41.1101C24.5301 41.8001 24.4901 43.0101 24.6901 44.3101C24.6988 44.3855 24.6891 44.4619 24.6619 44.5327C24.6346 44.6036 24.5906 44.6667 24.5336 44.7169C24.4766 44.767 24.4083 44.8026 24.3346 44.8205C24.2608 44.8385 24.1838 44.8384 24.1101 44.8201C22.5901 44.4101 23.1701 41.3201 24.0401 40.7801V40.7801ZM39.4201 41.1101C39.4168 41.0454 39.431 40.981 39.4612 40.9236C39.4915 40.8663 39.5366 40.8182 39.5919 40.7844C39.6472 40.7506 39.7106 40.7324 39.7754 40.7316C39.8403 40.7309 39.9041 40.7476 39.9601 40.7801C40.8301 41.3201 41.4101 44.4101 39.8901 44.8201C39.8153 44.8415 39.7363 44.8436 39.6604 44.8262C39.5846 44.8087 39.5144 44.7723 39.4564 44.7204C39.3985 44.6684 39.3547 44.6026 39.3291 44.5291C39.3035 44.4556 39.297 44.3768 39.3101 44.3001C39.5101 43.0201 39.4701 41.8001 39.4101 41.1101H39.4201Z" fill="#7F0000"/>
<path fill-rule="evenodd" clip-rule="evenodd" d="M37.1799 36.5701C37.7999 39.0201 37.9299 41.8601 37.4999 44.4201H26.5099C26.0837 41.8087 26.1926 39.138 26.8299 36.5701L27.6599 36.4601C27.6599 36.4601 28.0799 35.2601 29.4399 35.1601C30.9199 35.0401 31.3999 36.2001 31.3999 36.2001H32.5999C32.7984 35.8578 33.0896 35.5786 33.4399 35.3946C33.7902 35.2106 34.1854 35.1293 34.5799 35.1601C35.9599 35.2601 36.3399 36.4701 36.3399 36.4701C36.4946 36.4815 36.6526 36.5028 36.8139 36.5246C36.9341 36.5408 37.0561 36.5573 37.1799 36.5701ZM33.72 37.5701C33.2055 37.2441 32.6091 37.0707 32 37.0701C31.3911 37.0718 30.795 37.2451 30.28 37.5701L30.14 37.6501C29.5729 38.0459 29.1468 38.6123 28.9237 39.2669C28.7006 39.9216 28.6922 40.6303 28.8997 41.2901C29.1071 41.9499 29.5196 42.5262 30.0772 42.9354C30.6348 43.3446 31.3084 43.5652 32 43.5652C32.6916 43.5652 33.3652 43.3446 33.9228 42.9354C34.4804 42.5262 34.8929 41.9499 35.1003 41.2901C35.3078 40.6303 35.2994 39.9216 35.0763 39.2669C34.8532 38.6123 34.4271 38.0459 33.86 37.6501L33.72 37.5701ZM31.98 38.1601H32.02C32.5911 38.1654 33.1369 38.3966 33.5379 38.8033C33.939 39.2099 34.1626 39.7588 34.16 40.33C34.1573 40.9011 33.9286 41.4479 33.5238 41.8509C33.119 42.2538 32.5711 42.48 32 42.48C31.4289 42.48 30.881 42.2538 30.4762 41.8509C30.0714 41.4479 29.8427 40.9011 29.84 40.33C29.8374 39.7588 30.061 39.2099 30.4621 38.8033C30.8631 38.3966 31.4089 38.1654 31.98 38.1601ZM32.792 39.5081C32.5819 39.2981 32.297 39.1801 32 39.1801C31.703 39.1801 31.4181 39.2981 31.208 39.5081C30.998 39.7182 30.88 40.003 30.88 40.3001C30.88 40.5971 30.998 40.882 31.208 41.092C31.4181 41.3021 31.703 41.4201 32 41.4201C32.297 41.4201 32.5819 41.3021 32.792 41.092C33.002 40.882 33.12 40.5971 33.12 40.3001C33.12 40.003 33.002 39.7182 32.792 39.5081Z" fill="#333333"/>
<defs>
<filter id="filter0_ddd_2983_15171" x="46" y="33" width="185" height="40" filterUnits="userSpaceOnUse" color-interpolation-filters="sRGB">
<feFlood flood-opacity="0" result="BackgroundImageFix"/>
<feColorMatrix in="SourceAlpha" type="matrix" values="0 0 0 0 0 0 0 0 0 0 0 0 0 0 0 0 0 0 127 0" result="hardAlpha"/>
<feOffset dy="2"/>
<feGaussianBlur stdDeviation="2"/>
<feColorMatrix type="matrix" values="0 0 0 0 0 0 0 0 0 0 0 0 0 0 0 0 0 0 0.12 0"/>
<feBlend mode="normal" in2="BackgroundImageFix" result="effect1_dropShadow_2983_15171"/>
<feColorMatrix in="SourceAlpha" type="matrix" values="0 0 0 0 0 0 0 0 0 0 0 0 0 0 0 0 0 0 127 0" result="hardAlpha"/>
<feOffset dy="1"/>
<feGaussianBlur stdDeviation="5"/>
<feColorMatrix type="matrix" values="0 0 0 0 0 0 0 0 0 0 0 0 0 0 0 0 0 0 0.04 0"/>
<feBlend mode="normal" in2="effect1_dropShadow_2983_15171" result="effect2_dropShadow_2983_15171"/>
<feColorMatrix in="SourceAlpha" type="matrix" values="0 0 0 0 0 0 0 0 0 0 0 0 0 0 0 0 0 0 127 0" result="hardAlpha"/>
<feOffset dy="4"/>
<feGaussianBlur stdDeviation="2.5"/>
<feColorMatrix type="matrix" values="0 0 0 0 0 0 0 0 0 0 0 0 0 0 0 0 0 0 0.06 0"/>
<feBlend mode="normal" in2="effect2_dropShadow_2983_15171" result="effect3_dropShadow_2983_15171"/>
<feBlend mode="normal" in="SourceGraphic" in2="effect3_dropShadow_2983_15171" result="shape"/>
</filter>
<clipPath id="clip0_2983_15171">
<rect width="24" height="24" fill="white" transform="translate(320 28)"/>
</clipPath>
</defs>
</svg>
