<svg width="312" height="48" viewBox="0 0 312 48" fill="none" xmlns="http://www.w3.org/2000/svg">
<line x1="30" y1="20" x2="85" y2="20" stroke="#006600" stroke-width="2"/>
<line x1="99" y1="20" x2="154" y2="20" stroke="#006600" stroke-width="2"/>
<line x1="168" y1="20" x2="223" y2="20" stroke="#CECECE" stroke-width="2"/>
<line x1="237" y1="20" x2="292" y2="20" stroke="#CECECE" stroke-width="2"/>
<line x1="169" y1="20" x2="195" y2="20" stroke="#006600" stroke-width="2" stroke-linecap="round" stroke-linejoin="round"/>
<path d="M5.02539 36.5752C5.6084 36.5752 6.08887 36.6455 6.4668 36.7861C6.84766 36.9268 7.13037 37.1392 7.31494 37.4233C7.49951 37.7075 7.5918 38.0664 7.5918 38.5C7.5918 38.793 7.53613 39.0493 7.4248 39.269C7.31348 39.4888 7.16699 39.6748 6.98535 39.8271C6.80371 39.9795 6.60742 40.104 6.39648 40.2007L8.28613 43H6.77441L5.24072 40.5347H4.51562V43H3.15332V36.5752H5.02539ZM4.92871 37.6914H4.51562V39.4272H4.95508C5.40625 39.4272 5.72852 39.3525 5.92188 39.2031C6.11816 39.0508 6.21631 38.8281 6.21631 38.5352C6.21631 38.2305 6.11084 38.0137 5.8999 37.8848C5.69189 37.7559 5.36816 37.6914 4.92871 37.6914ZM12.7949 43H9.09473V36.5752H12.7949V37.6914H10.457V39.1021H12.6323V40.2183H10.457V41.875H12.7949V43ZM16.8687 37.6167C16.6079 37.6167 16.3765 37.668 16.1743 37.7705C15.9751 37.8701 15.8066 38.0151 15.6689 38.2056C15.5342 38.396 15.4316 38.626 15.3613 38.8955C15.291 39.165 15.2559 39.4683 15.2559 39.8052C15.2559 40.2593 15.3115 40.6475 15.4229 40.9697C15.5371 41.2891 15.7129 41.5337 15.9502 41.7036C16.1875 41.8706 16.4937 41.9541 16.8687 41.9541C17.1294 41.9541 17.3901 41.9248 17.6509 41.8662C17.9146 41.8076 18.2002 41.7241 18.5078 41.6157V42.7583C18.2236 42.8755 17.9438 42.959 17.6685 43.0088C17.3931 43.0615 17.084 43.0879 16.7412 43.0879C16.0791 43.0879 15.5342 42.9517 15.1064 42.6792C14.6816 42.4038 14.3667 42.02 14.1616 41.5278C13.9565 41.0327 13.854 40.4556 13.854 39.7964C13.854 39.3101 13.9199 38.8647 14.0518 38.4604C14.1836 38.0562 14.377 37.7061 14.6318 37.4102C14.8867 37.1143 15.2017 36.8857 15.5767 36.7246C15.9517 36.5635 16.3823 36.4829 16.8687 36.4829C17.188 36.4829 17.5073 36.5239 17.8267 36.606C18.1489 36.6851 18.4565 36.7949 18.7495 36.9355L18.3101 38.043C18.0698 37.9287 17.8281 37.8291 17.585 37.7441C17.3418 37.6592 17.103 37.6167 16.8687 37.6167ZM23.5791 43H19.8789V36.5752H23.5791V37.6914H21.2412V39.1021H23.4165V40.2183H21.2412V41.875H23.5791V43ZM24.9238 43V36.5752H26.2861V43H24.9238ZM32.9438 36.5752L30.7598 43H29.2744L27.0947 36.5752H28.4702L29.6787 40.3984C29.6992 40.4629 29.7329 40.5845 29.7798 40.7632C29.8267 40.939 29.8735 41.1265 29.9204 41.3257C29.9702 41.522 30.0039 41.6846 30.0215 41.8135C30.0391 41.6846 30.0698 41.522 30.1138 41.3257C30.1606 41.1294 30.2061 40.9434 30.25 40.7676C30.2969 40.5889 30.3306 40.4658 30.3511 40.3984L31.5684 36.5752H32.9438ZM37.457 43H33.7568V36.5752H37.457V37.6914H35.1191V39.1021H37.2944V40.2183H35.1191V41.875H37.457V43ZM44.1323 39.7261C44.1323 40.4497 43.9932 41.0547 43.7148 41.541C43.4395 42.0244 43.0396 42.3892 42.5151 42.6353C41.9907 42.8784 41.3594 43 40.6211 43H38.8018V36.5752H40.8188C41.4927 36.5752 42.0771 36.6953 42.5723 36.9355C43.0674 37.1729 43.4512 37.5259 43.7236 37.9946C43.9961 38.4604 44.1323 39.0376 44.1323 39.7261ZM42.7173 39.7612C42.7173 39.2866 42.647 38.897 42.5063 38.5923C42.3687 38.2847 42.1636 38.0576 41.8911 37.9111C41.6216 37.7646 41.2876 37.6914 40.8892 37.6914H40.1641V41.875H40.7485C41.4136 41.875 41.9072 41.6978 42.2295 41.3433C42.5547 40.9888 42.7173 40.4614 42.7173 39.7612Z" fill="#333333"/>
<path d="M75.2866 43H73.9463V36.5752H77.6289V37.6914H75.2866V39.3481H77.4663V40.46H75.2866V43ZM78.8857 43V36.5752H80.248V43H78.8857ZM87.5649 43H85.8335L83.0386 38.1396H82.999C83.0107 38.3418 83.021 38.5454 83.0298 38.7505C83.0386 38.9556 83.0474 39.1606 83.0562 39.3657C83.0649 39.5679 83.0737 39.7715 83.0825 39.9766V43H81.8652V36.5752H83.5835L86.374 41.3872H86.4048C86.3989 41.188 86.3916 40.9902 86.3828 40.7939C86.374 40.5977 86.3652 40.4014 86.3564 40.2051C86.3506 40.0088 86.3447 39.8125 86.3389 39.6162V36.5752H87.5649V43ZM94.5171 39.7261C94.5171 40.4497 94.3779 41.0547 94.0996 41.541C93.8242 42.0244 93.4243 42.3892 92.8999 42.6353C92.3755 42.8784 91.7441 43 91.0059 43H89.1865V36.5752H91.2036C91.8774 36.5752 92.4619 36.6953 92.957 36.9355C93.4521 37.1729 93.8359 37.5259 94.1084 37.9946C94.3809 38.4604 94.5171 39.0376 94.5171 39.7261ZM93.1021 39.7612C93.1021 39.2866 93.0317 38.897 92.8911 38.5923C92.7534 38.2847 92.5483 38.0576 92.2759 37.9111C92.0063 37.7646 91.6724 37.6914 91.2739 37.6914H90.5488V41.875H91.1333C91.7983 41.875 92.292 41.6978 92.6143 41.3433C92.9395 40.9888 93.1021 40.4614 93.1021 39.7612ZM95.8486 43V36.5752H97.2109V43H95.8486ZM104.528 43H102.796L100.001 38.1396H99.9619C99.9736 38.3418 99.9839 38.5454 99.9927 38.7505C100.001 38.9556 100.01 39.1606 100.019 39.3657C100.028 39.5679 100.037 39.7715 100.045 39.9766V43H98.8281V36.5752H100.546L103.337 41.3872H103.368C103.362 41.188 103.354 40.9902 103.346 40.7939C103.337 40.5977 103.328 40.4014 103.319 40.2051C103.313 40.0088 103.308 39.8125 103.302 39.6162V36.5752H104.528V43ZM108.588 39.3921H111.137V42.7231C110.8 42.8345 110.45 42.9238 110.087 42.9912C109.724 43.0557 109.312 43.0879 108.852 43.0879C108.213 43.0879 107.671 42.9619 107.226 42.71C106.781 42.458 106.442 42.0859 106.211 41.5938C105.979 41.1016 105.864 40.4966 105.864 39.7788C105.864 39.105 105.993 38.522 106.25 38.0298C106.511 37.5376 106.891 37.1567 107.389 36.8872C107.89 36.6177 108.5 36.4829 109.221 36.4829C109.561 36.4829 109.896 36.5195 110.228 36.5928C110.559 36.666 110.859 36.7612 111.128 36.8784L110.676 37.9683C110.479 37.8687 110.255 37.7852 110.003 37.7178C109.751 37.6504 109.488 37.6167 109.212 37.6167C108.817 37.6167 108.473 37.7075 108.18 37.8892C107.89 38.0708 107.664 38.3257 107.503 38.6538C107.345 38.979 107.266 39.3628 107.266 39.8052C107.266 40.2241 107.323 40.5962 107.437 40.9214C107.551 41.2437 107.731 41.4971 107.978 41.6816C108.224 41.8633 108.544 41.9541 108.94 41.9541C109.133 41.9541 109.296 41.9453 109.428 41.9277C109.562 41.9072 109.688 41.8867 109.806 41.8662V40.5259H108.588V39.3921Z" fill="#333333"/>
<path d="M144.159 36.5752C144.988 36.5752 145.593 36.7539 145.974 37.1113C146.355 37.4658 146.545 37.9551 146.545 38.5791C146.545 38.8604 146.503 39.1299 146.418 39.3877C146.333 39.6426 146.194 39.8696 146 40.0688C145.81 40.2681 145.555 40.4263 145.236 40.5435C144.917 40.6577 144.522 40.7148 144.054 40.7148H143.469V43H142.107V36.5752H144.159ZM144.089 37.6914H143.469V39.5986H143.917C144.172 39.5986 144.394 39.5649 144.581 39.4976C144.769 39.4302 144.914 39.3247 145.016 39.1812C145.119 39.0376 145.17 38.853 145.17 38.6274C145.17 38.311 145.082 38.0767 144.906 37.9243C144.73 37.769 144.458 37.6914 144.089 37.6914ZM151.691 43L151.226 41.4707H148.883L148.417 43H146.95L149.217 36.5488H150.883L153.159 43H151.691ZM150.9 40.3281L150.435 38.834C150.405 38.7344 150.366 38.6069 150.316 38.4517C150.269 38.2935 150.221 38.1338 150.171 37.9727C150.124 37.8086 150.086 37.6665 150.057 37.5464C150.027 37.6665 149.986 37.8159 149.934 37.9946C149.884 38.1704 149.835 38.3374 149.789 38.4956C149.742 38.6538 149.708 38.7666 149.688 38.834L149.226 40.3281H150.9ZM156.701 37.6167C156.44 37.6167 156.209 37.668 156.007 37.7705C155.808 37.8701 155.639 38.0151 155.501 38.2056C155.367 38.396 155.264 38.626 155.194 38.8955C155.124 39.165 155.088 39.4683 155.088 39.8052C155.088 40.2593 155.144 40.6475 155.255 40.9697C155.37 41.2891 155.545 41.5337 155.783 41.7036C156.02 41.8706 156.326 41.9541 156.701 41.9541C156.962 41.9541 157.223 41.9248 157.483 41.8662C157.747 41.8076 158.033 41.7241 158.34 41.6157V42.7583C158.056 42.8755 157.776 42.959 157.501 43.0088C157.226 43.0615 156.917 43.0879 156.574 43.0879C155.912 43.0879 155.367 42.9517 154.939 42.6792C154.514 42.4038 154.199 42.02 153.994 41.5278C153.789 41.0327 153.687 40.4556 153.687 39.7964C153.687 39.3101 153.752 38.8647 153.884 38.4604C154.016 38.0562 154.209 37.7061 154.464 37.4102C154.719 37.1143 155.034 36.8857 155.409 36.7246C155.784 36.5635 156.215 36.4829 156.701 36.4829C157.021 36.4829 157.34 36.5239 157.659 36.606C157.981 36.6851 158.289 36.7949 158.582 36.9355L158.143 38.043C157.902 37.9287 157.661 37.8291 157.417 37.7441C157.174 37.6592 156.936 37.6167 156.701 37.6167ZM164.879 43H163.333L161.649 40.293L161.074 40.7061V43H159.711V36.5752H161.074V39.5151C161.165 39.3892 161.254 39.2632 161.342 39.1372C161.43 39.0112 161.519 38.8853 161.61 38.7593L163.35 36.5752H164.862L162.621 39.4185L164.879 43ZM165.688 43V36.5752H167.05V43H165.688ZM174.367 43H172.636L169.841 38.1396H169.801C169.813 38.3418 169.823 38.5454 169.832 38.7505C169.841 38.9556 169.85 39.1606 169.858 39.3657C169.867 39.5679 169.876 39.7715 169.885 39.9766V43H168.667V36.5752H170.386L173.176 41.3872H173.207C173.201 41.188 173.194 40.9902 173.185 40.7939C173.176 40.5977 173.167 40.4014 173.159 40.2051C173.153 40.0088 173.147 39.8125 173.141 39.6162V36.5752H174.367V43ZM178.428 39.3921H180.977V42.7231C180.64 42.8345 180.29 42.9238 179.926 42.9912C179.563 43.0557 179.151 43.0879 178.691 43.0879C178.053 43.0879 177.511 42.9619 177.065 42.71C176.62 42.458 176.282 42.0859 176.05 41.5938C175.819 41.1016 175.703 40.4966 175.703 39.7788C175.703 39.105 175.832 38.522 176.09 38.0298C176.351 37.5376 176.73 37.1567 177.228 36.8872C177.729 36.6177 178.34 36.4829 179.061 36.4829C179.4 36.4829 179.736 36.5195 180.067 36.5928C180.398 36.666 180.698 36.7612 180.968 36.8784L180.515 37.9683C180.319 37.8687 180.095 37.7852 179.843 37.7178C179.591 37.6504 179.327 37.6167 179.052 37.6167C178.656 37.6167 178.312 37.7075 178.019 37.8892C177.729 38.0708 177.503 38.3257 177.342 38.6538C177.184 38.979 177.105 39.3628 177.105 39.8052C177.105 40.2241 177.162 40.5962 177.276 40.9214C177.391 41.2437 177.571 41.4971 177.817 41.6816C178.063 41.8633 178.384 41.9541 178.779 41.9541C178.973 41.9541 179.135 41.9453 179.267 41.9277C179.402 41.9072 179.528 41.8867 179.645 41.8662V40.5259H178.428V39.3921Z" fill="#333333"/>
<path d="M217.941 36.5752C218.524 36.5752 219.005 36.6455 219.383 36.7861C219.764 36.9268 220.046 37.1392 220.231 37.4233C220.416 37.7075 220.508 38.0664 220.508 38.5C220.508 38.793 220.452 39.0493 220.341 39.269C220.229 39.4888 220.083 39.6748 219.901 39.8271C219.72 39.9795 219.523 40.104 219.312 40.2007L221.202 43H219.69L218.157 40.5347H217.432V43H216.069V36.5752H217.941ZM217.845 37.6914H217.432V39.4272H217.871C218.322 39.4272 218.645 39.3525 218.838 39.2031C219.034 39.0508 219.132 38.8281 219.132 38.5352C219.132 38.2305 219.027 38.0137 218.816 37.8848C218.608 37.7559 218.284 37.6914 217.845 37.6914ZM225.711 43H222.011V36.5752H225.711V37.6914H223.373V39.1021H225.548V40.2183H223.373V41.875H225.711V43ZM230.989 43L230.523 41.4707H228.181L227.715 43H226.247L228.515 36.5488H230.18L232.457 43H230.989ZM230.198 40.3281L229.732 38.834C229.703 38.7344 229.663 38.6069 229.613 38.4517C229.566 38.2935 229.518 38.1338 229.468 37.9727C229.421 37.8086 229.383 37.6665 229.354 37.5464C229.325 37.6665 229.284 37.8159 229.231 37.9946C229.181 38.1704 229.133 38.3374 229.086 38.4956C229.039 38.6538 229.005 38.7666 228.985 38.834L228.523 40.3281H230.198ZM238.6 39.7261C238.6 40.4497 238.461 41.0547 238.183 41.541C237.907 42.0244 237.507 42.3892 236.983 42.6353C236.458 42.8784 235.827 43 235.089 43H233.27V36.5752H235.287C235.96 36.5752 236.545 36.6953 237.04 36.9355C237.535 37.1729 237.919 37.5259 238.191 37.9946C238.464 38.4604 238.6 39.0376 238.6 39.7261ZM237.185 39.7612C237.185 39.2866 237.115 38.897 236.974 38.5923C236.836 38.2847 236.631 38.0576 236.359 37.9111C236.089 37.7646 235.755 37.6914 235.357 37.6914H234.632V41.875H235.216C235.881 41.875 236.375 41.6978 236.697 41.3433C237.022 40.9888 237.185 40.4614 237.185 39.7612ZM241.931 39.2207L243.271 36.5752H244.739L242.608 40.4995V43H241.254V40.5435L239.123 36.5752H240.6L241.931 39.2207Z" fill="#838383"/>
<path d="M291.543 39.7261C291.543 40.4497 291.404 41.0547 291.126 41.541C290.851 42.0244 290.451 42.3892 289.926 42.6353C289.402 42.8784 288.771 43 288.032 43H286.213V36.5752H288.23C288.904 36.5752 289.488 36.6953 289.983 36.9355C290.479 37.1729 290.862 37.5259 291.135 37.9946C291.407 38.4604 291.543 39.0376 291.543 39.7261ZM290.128 39.7612C290.128 39.2866 290.058 38.897 289.917 38.5923C289.78 38.2847 289.575 38.0576 289.302 37.9111C289.033 37.7646 288.699 37.6914 288.3 37.6914H287.575V41.875H288.16C288.825 41.875 289.318 41.6978 289.641 41.3433C289.966 40.9888 290.128 40.4614 290.128 39.7612ZM298.707 39.7788C298.707 40.2739 298.645 40.7251 298.522 41.1323C298.399 41.5366 298.211 41.8853 297.959 42.1782C297.71 42.4712 297.394 42.6968 297.01 42.855C296.626 43.0103 296.172 43.0879 295.648 43.0879C295.124 43.0879 294.669 43.0103 294.286 42.855C293.902 42.6968 293.584 42.4712 293.332 42.1782C293.083 41.8853 292.897 41.5352 292.774 41.1279C292.651 40.7207 292.589 40.2681 292.589 39.77C292.589 39.105 292.698 38.5264 292.915 38.0342C293.134 37.5391 293.471 37.1553 293.925 36.8828C294.379 36.6104 294.957 36.4741 295.657 36.4741C296.354 36.4741 296.927 36.6104 297.375 36.8828C297.826 37.1553 298.16 37.5391 298.377 38.0342C298.597 38.5293 298.707 39.1108 298.707 39.7788ZM294.018 39.7788C294.018 40.2271 294.073 40.6138 294.185 40.939C294.299 41.2612 294.476 41.5103 294.716 41.686C294.957 41.8589 295.267 41.9453 295.648 41.9453C296.035 41.9453 296.348 41.8589 296.588 41.686C296.829 41.5103 297.003 41.2612 297.111 40.939C297.223 40.6138 297.278 40.2271 297.278 39.7788C297.278 39.105 297.152 38.5747 296.9 38.188C296.648 37.8013 296.234 37.6079 295.657 37.6079C295.273 37.6079 294.959 37.6958 294.716 37.8716C294.476 38.0444 294.299 38.2935 294.185 38.6187C294.073 38.9409 294.018 39.3276 294.018 39.7788ZM305.738 43H304.006L301.211 38.1396H301.172C301.184 38.3418 301.194 38.5454 301.203 38.7505C301.211 38.9556 301.22 39.1606 301.229 39.3657C301.238 39.5679 301.247 39.7715 301.255 39.9766V43H300.038V36.5752H301.756L304.547 41.3872H304.578C304.572 41.188 304.564 40.9902 304.556 40.7939C304.547 40.5977 304.538 40.4014 304.529 40.2051C304.523 40.0088 304.518 39.8125 304.512 39.6162V36.5752H305.738V43ZM311.06 43H307.359V36.5752H311.06V37.6914H308.722V39.1021H310.897V40.2183H308.722V41.875H311.06V43Z" fill="#838383"/>
<g clip-path="url(#clip0_2983_15270)">
<path d="M299 11.6667C294.4 11.6667 290.667 15.4001 290.667 20.0001C290.667 24.6001 294.4 28.3334 299 28.3334C303.6 28.3334 307.333 24.6001 307.333 20.0001C307.333 15.4001 303.6 11.6667 299 11.6667ZM299 26.6667C295.317 26.6667 292.333 23.6834 292.333 20.0001C292.333 16.3167 295.317 13.3334 299 13.3334C302.683 13.3334 305.667 16.3167 305.667 20.0001C305.667 23.6834 302.683 26.6667 299 26.6667Z" fill="#838383"/>
</g>
<g clip-path="url(#clip1_2983_15270)">
<path d="M230 11.6667C225.4 11.6667 221.667 15.4001 221.667 20.0001C221.667 24.6001 225.4 28.3334 230 28.3334C234.6 28.3334 238.333 24.6001 238.333 20.0001C238.333 15.4001 234.6 11.6667 230 11.6667ZM230 26.6667C226.317 26.6667 223.333 23.6834 223.333 20.0001C223.333 16.3167 226.317 13.3334 230 13.3334C233.683 13.3334 236.667 16.3167 236.667 20.0001C236.667 23.6834 233.683 26.6667 230 26.6667Z" fill="#838383"/>
</g>
<g clip-path="url(#clip2_2983_15270)" filter="url(#filter0_ddd_2983_15270)">
<circle cx="23" cy="20" r="8" fill="#F7F7F7"/>
<path d="M26.8248 16.3167L21.3332 21.8084L18.3415 18.8251L17.1665 20.0001L21.3332 24.1667L27.9998 17.5001L26.8248 16.3167ZM22.9998 11.6667C18.3998 11.6667 14.6665 15.4001 14.6665 20.0001C14.6665 24.6001 18.3998 28.3334 22.9998 28.3334C27.5998 28.3334 31.3332 24.6001 31.3332 20.0001C31.3332 15.4001 27.5998 11.6667 22.9998 11.6667ZM22.9998 26.6667C19.3165 26.6667 16.3332 23.6834 16.3332 20.0001C16.3332 16.3167 19.3165 13.3334 22.9998 13.3334C26.6832 13.3334 29.6665 16.3167 29.6665 20.0001C29.6665 23.6834 26.6832 26.6667 22.9998 26.6667Z" fill="#006600"/>
</g>
<g clip-path="url(#clip3_2983_15270)" filter="url(#filter1_ddd_2983_15270)">
<circle cx="92" cy="20" r="8" fill="#F7F7F7"/>
<path d="M95.8248 16.3167L90.3332 21.8084L87.3415 18.8251L86.1665 20.0001L90.3332 24.1667L96.9998 17.5001L95.8248 16.3167ZM91.9998 11.6667C87.3998 11.6667 83.6665 15.4001 83.6665 20.0001C83.6665 24.6001 87.3998 28.3334 91.9998 28.3334C96.5998 28.3334 100.333 24.6001 100.333 20.0001C100.333 15.4001 96.5998 11.6667 91.9998 11.6667ZM91.9998 26.6667C88.3165 26.6667 85.3332 23.6834 85.3332 20.0001C85.3332 16.3167 88.3165 13.3334 91.9998 13.3334C95.6832 13.3334 98.6665 16.3167 98.6665 20.0001C98.6665 23.6834 95.6832 26.6667 91.9998 26.6667Z" fill="#006600"/>
</g>
<g clip-path="url(#clip4_2983_15270)" filter="url(#filter2_ddd_2983_15270)">
<circle cx="161" cy="20" r="8" fill="#F7F7F7"/>
<path d="M164.825 16.3167L159.333 21.8084L156.342 18.8251L155.167 20.0001L159.333 24.1667L166 17.5001L164.825 16.3167ZM161 11.6667C156.4 11.6667 152.667 15.4001 152.667 20.0001C152.667 24.6001 156.4 28.3334 161 28.3334C165.6 28.3334 169.333 24.6001 169.333 20.0001C169.333 15.4001 165.6 11.6667 161 11.6667ZM161 26.6667C157.317 26.6667 154.333 23.6834 154.333 20.0001C154.333 16.3167 157.317 13.3334 161 13.3334C164.683 13.3334 167.667 16.3167 167.667 20.0001C167.667 23.6834 164.683 26.6667 161 26.6667Z" fill="#006600"/>
</g>
<defs>
<filter id="filter0_ddd_2983_15270" x="-1" y="-1" width="48" height="49" filterUnits="userSpaceOnUse" color-interpolation-filters="sRGB">
<feFlood flood-opacity="0" result="BackgroundImageFix"/>
<feColorMatrix in="SourceAlpha" type="matrix" values="0 0 0 0 0 0 0 0 0 0 0 0 0 0 0 0 0 0 127 0" result="hardAlpha"/>
<feOffset dy="5"/>
<feGaussianBlur stdDeviation="2.5"/>
<feColorMatrix type="matrix" values="0 0 0 0 0 0 0 0 0 0.4 0 0 0 0 0 0 0 0 0.12 0"/>
<feBlend mode="normal" in2="BackgroundImageFix" result="effect1_dropShadow_2983_15270"/>
<feColorMatrix in="SourceAlpha" type="matrix" values="0 0 0 0 0 0 0 0 0 0 0 0 0 0 0 0 0 0 127 0" result="hardAlpha"/>
<feOffset dy="3"/>
<feGaussianBlur stdDeviation="7"/>
<feColorMatrix type="matrix" values="0 0 0 0 0 0 0 0 0 0.4 0 0 0 0 0 0 0 0 0.04 0"/>
<feBlend mode="normal" in2="effect1_dropShadow_2983_15270" result="effect2_dropShadow_2983_15270"/>
<feColorMatrix in="SourceAlpha" type="matrix" values="0 0 0 0 0 0 0 0 0 0 0 0 0 0 0 0 0 0 127 0" result="hardAlpha"/>
<feOffset dy="8"/>
<feGaussianBlur stdDeviation="5"/>
<feColorMatrix type="matrix" values="0 0 0 0 0 0 0 0 0 0.4 0 0 0 0 0 0 0 0 0.04 0"/>
<feBlend mode="normal" in2="effect2_dropShadow_2983_15270" result="effect3_dropShadow_2983_15270"/>
<feBlend mode="normal" in="SourceGraphic" in2="effect3_dropShadow_2983_15270" result="shape"/>
</filter>
<filter id="filter1_ddd_2983_15270" x="68" y="-1" width="48" height="49" filterUnits="userSpaceOnUse" color-interpolation-filters="sRGB">
<feFlood flood-opacity="0" result="BackgroundImageFix"/>
<feColorMatrix in="SourceAlpha" type="matrix" values="0 0 0 0 0 0 0 0 0 0 0 0 0 0 0 0 0 0 127 0" result="hardAlpha"/>
<feOffset dy="5"/>
<feGaussianBlur stdDeviation="2.5"/>
<feColorMatrix type="matrix" values="0 0 0 0 0 0 0 0 0 0.4 0 0 0 0 0 0 0 0 0.12 0"/>
<feBlend mode="normal" in2="BackgroundImageFix" result="effect1_dropShadow_2983_15270"/>
<feColorMatrix in="SourceAlpha" type="matrix" values="0 0 0 0 0 0 0 0 0 0 0 0 0 0 0 0 0 0 127 0" result="hardAlpha"/>
<feOffset dy="3"/>
<feGaussianBlur stdDeviation="7"/>
<feColorMatrix type="matrix" values="0 0 0 0 0 0 0 0 0 0.4 0 0 0 0 0 0 0 0 0.04 0"/>
<feBlend mode="normal" in2="effect1_dropShadow_2983_15270" result="effect2_dropShadow_2983_15270"/>
<feColorMatrix in="SourceAlpha" type="matrix" values="0 0 0 0 0 0 0 0 0 0 0 0 0 0 0 0 0 0 127 0" result="hardAlpha"/>
<feOffset dy="8"/>
<feGaussianBlur stdDeviation="5"/>
<feColorMatrix type="matrix" values="0 0 0 0 0 0 0 0 0 0.4 0 0 0 0 0 0 0 0 0.04 0"/>
<feBlend mode="normal" in2="effect2_dropShadow_2983_15270" result="effect3_dropShadow_2983_15270"/>
<feBlend mode="normal" in="SourceGraphic" in2="effect3_dropShadow_2983_15270" result="shape"/>
</filter>
<filter id="filter2_ddd_2983_15270" x="137" y="-1" width="48" height="49" filterUnits="userSpaceOnUse" color-interpolation-filters="sRGB">
<feFlood flood-opacity="0" result="BackgroundImageFix"/>
<feColorMatrix in="SourceAlpha" type="matrix" values="0 0 0 0 0 0 0 0 0 0 0 0 0 0 0 0 0 0 127 0" result="hardAlpha"/>
<feOffset dy="5"/>
<feGaussianBlur stdDeviation="2.5"/>
<feColorMatrix type="matrix" values="0 0 0 0 0 0 0 0 0 0.4 0 0 0 0 0 0 0 0 0.12 0"/>
<feBlend mode="normal" in2="BackgroundImageFix" result="effect1_dropShadow_2983_15270"/>
<feColorMatrix in="SourceAlpha" type="matrix" values="0 0 0 0 0 0 0 0 0 0 0 0 0 0 0 0 0 0 127 0" result="hardAlpha"/>
<feOffset dy="3"/>
<feGaussianBlur stdDeviation="7"/>
<feColorMatrix type="matrix" values="0 0 0 0 0 0 0 0 0 0.4 0 0 0 0 0 0 0 0 0.04 0"/>
<feBlend mode="normal" in2="effect1_dropShadow_2983_15270" result="effect2_dropShadow_2983_15270"/>
<feColorMatrix in="SourceAlpha" type="matrix" values="0 0 0 0 0 0 0 0 0 0 0 0 0 0 0 0 0 0 127 0" result="hardAlpha"/>
<feOffset dy="8"/>
<feGaussianBlur stdDeviation="5"/>
<feColorMatrix type="matrix" values="0 0 0 0 0 0 0 0 0 0.4 0 0 0 0 0 0 0 0 0.04 0"/>
<feBlend mode="normal" in2="effect2_dropShadow_2983_15270" result="effect3_dropShadow_2983_15270"/>
<feBlend mode="normal" in="SourceGraphic" in2="effect3_dropShadow_2983_15270" result="shape"/>
</filter>
<clipPath id="clip0_2983_15270">
<rect width="20" height="20" fill="white" transform="translate(289 10)"/>
</clipPath>
<clipPath id="clip1_2983_15270">
<rect width="20" height="20" fill="white" transform="translate(220 10)"/>
</clipPath>
<clipPath id="clip2_2983_15270">
<rect width="20" height="20" fill="white" transform="translate(13 10)"/>
</clipPath>
<clipPath id="clip3_2983_15270">
<rect width="20" height="20" fill="white" transform="translate(82 10)"/>
</clipPath>
<clipPath id="clip4_2983_15270">
<rect width="20" height="20" fill="white" transform="translate(151 10)"/>
</clipPath>
</defs>
</svg>
