<?xml version="1.0" encoding="utf-8"?>
<!-- Generator: Adobe Illustrator 24.1.2, SVG Export Plug-In . SVG Version: 6.00 Build 0)  -->
<svg version="1.1" id="Layer_1" xmlns="http://www.w3.org/2000/svg" xmlns:xlink="http://www.w3.org/1999/xlink" x="0px" y="0px"
	 viewBox="0 0 203.9 235.5" style="enable-background:new 0 0 203.9 235.5;" xml:space="preserve">
<style type="text/css">
	.st0{fill:#FCFCFC;}
</style>
<g id="Layer_2_1_">
	<g id="Layer_1-2">
		<path class="st0" d="M0,148.9v27.7l24,13.8l0,0C41,172.4,24.2,143.2,0,148.9z"/>
		<path class="st0" d="M24,45L0,58.9v27.7l0,0C24.2,92.3,41,63.1,24,45z"/>
		<path class="st0" d="M78,221.6l24,13.8l24-13.8l0,0C118.9,197.8,85.2,197.9,78,221.6L78,221.6z"/>
		<path class="st0" d="M126,13.8L102,0L78,13.8l0,0C85.1,37.6,118.8,37.6,126,13.8L126,13.8z"/>
		<path class="st0" d="M180,45L180,45c-17.1,18.1-0.2,47.2,24,41.5l0,0V58.9L180,45z"/>
		<path class="st0" d="M180,190.5l24-13.8v-27.7C179.8,143.2,163,172.4,180,190.5z"/>
	</g>
</g>
</svg>
