<?xml version="1.0" encoding="utf-8"?>
<!-- Generator: Adobe Illustrator 24.1.2, SVG Export Plug-In . SVG Version: 6.00 Build 0)  -->
<svg version="1.1" id="Layer_1" xmlns="http://www.w3.org/2000/svg" xmlns:xlink="http://www.w3.org/1999/xlink" x="0px" y="0px"
	 viewBox="0 0 238.6 196.4" style="enable-background:new 0 0 238.6 196.4;" xml:space="preserve">
<style type="text/css">
	.st0{fill:#FCFCFC;}
</style>
<g id="Layer_2_1_">
	<g id="Layer_1-2">
		<path class="st0" d="M36.7,133.7l-1.7-0.4c-0.8-0.2-1.7,0.2-2,1c-0.7,2-2,3.7-3.7,5c-1.8,1.4-4.5,2-7.9,2c-1.4,0-2.7-0.3-4-0.8
			c-1.3-0.6-2.4-1.5-3.2-2.6c-1-1.3-1.8-2.9-2.2-4.5c-0.6-2.2-0.8-4.4-0.8-6.6c0-4.9,0.8-8.7,2.6-11.4s4.6-4,8.7-4
			c2.5-0.1,4.9,0.7,6.7,2.3c1.5,1.4,2.5,3.2,3,5.2c0.2,0.8,1,1.3,1.8,1.2l2.4-0.2c0.9-0.1,1.5-0.8,1.6-1.7v-9.9
			c0-0.9-0.8-1.7-1.7-1.7h-1.6c-1,0-2,0.5-2.7,1.3c-0.5,0.6-1.3,0.7-2,0.3c-1-0.6-2.2-1.1-3.3-1.5c-2.3-0.7-4.7-1-7.1-1
			c-2.5,0-5.1,0.4-7.5,1.3c-2.3,0.8-4.5,2.2-6.2,3.9c-1.9,1.9-3.4,4.1-4.3,6.6c-1.1,3-1.7,6.3-1.6,9.5c-0.1,3.1,0.5,6.2,1.6,9.1
			c1,2.4,2.5,4.6,4.4,6.4c1.9,1.7,4.1,3,6.6,3.8c2.6,0.8,5.3,1.3,8,1.2c2.5,0.1,4.9-0.3,7.3-1.1c3.7-1.2,6.8-3.8,8.6-7.3
			c0.6-1.1,1.1-2.2,1.5-3.4c0.3-0.9-0.2-1.9-1.1-2.2C36.8,133.7,36.8,133.7,36.7,133.7"/>
		<path class="st0" d="M86.4,137.4c-0.9,0-1.7,0.8-1.7,1.7v0.9c0,0.6-0.1,1.3-0.5,1.8c-0.3,0.4-0.8,0.6-1.3,0.5
			c-0.5,0-0.9-0.2-1.3-0.5c-0.3-0.5-0.5-1.1-0.5-1.8v-4.3c0-1.3-0.1-2.6-0.4-3.9c-0.2-1-0.6-2-1.2-2.8c-0.5-0.7-1.2-1.4-1.9-1.9
			c-0.8-0.5-1.7-0.9-2.6-1.1c1-0.2,2-0.5,2.8-1c0.9-0.5,1.7-1.1,2.4-1.8c0.7-0.8,1.3-1.7,1.7-2.7c0.5-1.2,0.7-2.4,0.7-3.7
			c0.1-1.8-0.3-3.6-1.2-5.2c-0.8-1.3-1.8-2.4-3.2-3.1c-1.4-0.7-3-1.2-4.6-1.4c-1.7-0.2-3.5-0.3-5.2-0.3H44.7c-0.9,0-1.7,0.8-1.7,1.7
			c0,0,0,0,0,0v1.1c0,0.9,0.7,1.6,1.6,1.7c2.2,0.2,3.2,1,3.2,2.4v26.4c0,1.4-1.1,2.2-3.2,2.4c-0.9,0.1-1.5,0.8-1.6,1.6v1.1
			c0,0.9,0.8,1.7,1.7,1.7c0,0,0,0,0,0h18.4c0.9,0,1.7-0.8,1.7-1.7V144c0-0.9-0.7-1.6-1.6-1.7c-1,0-2-0.2-2.9-0.6
			c-0.8-0.2-1.5-1-1.5-1.9v-10.2c0-0.9,0.8-1.7,1.7-1.7c0,0,0,0,0,0h4.6c0.8,0,1.7,0.1,2.5,0.4c0.6,0.2,1.2,0.7,1.6,1.2
			c0.4,0.7,0.7,1.5,0.8,2.3c0.2,1.2,0.3,2.3,0.2,3.5v3.5c0,1.1,0.2,2.2,0.5,3.2c0.4,1,0.9,1.9,1.7,2.6c0.8,0.8,1.8,1.4,2.9,1.8
			c1.4,0.5,2.9,0.7,4.4,0.6c1.3,0,2.6-0.2,3.8-0.6c1-0.3,1.8-0.9,2.6-1.6c0.7-0.7,1.2-1.5,1.5-2.4c0.3-0.9,0.5-1.9,0.5-2.9v-0.6
			C88.1,138.2,87.4,137.4,86.4,137.4 M70.1,122.1c-1.2,1-2.8,1.5-4.4,1.3h-5.2c-0.9,0-1.7-0.8-1.7-1.7v-7.6c0-0.9,0.8-1.7,1.7-1.7
			c0,0,0,0,0,0h5.2c2.1,0,3.5,0.4,4.4,1.3c1,1,1.4,2.4,1.3,3.7C71.5,119.7,71,121.2,70.1,122.1"/>
		<path class="st0" d="M129,131.3l-2.2-0.1c-0.9-0.1-1.7,0.6-1.8,1.5c-0.8,5.8-3.8,8.7-9,8.7h-6.5c-0.9,0-1.7-0.8-1.7-1.7l0,0v-9.9
			c0-0.9,0.8-1.7,1.7-1.7c0,0,0,0,0,0h2c1.2,0,2.1,1.6,2.5,4.8c0.1,0.8,0.8,1.5,1.7,1.5h1.5c0.9,0,1.7-0.7,1.7-1.6l0.6-13.4
			c0-0.9-0.7-1.7-1.6-1.8c0,0-0.1,0-0.1,0h-1.4c-0.9,0-1.6,0.6-1.7,1.5c-0.1,1.1-0.4,2.1-0.8,3.1c-0.3,0.9-1.1,1.5-2,1.5h-2.4
			c-0.9,0-1.7-0.8-1.7-1.7v-7.9c0-0.9,0.8-1.7,1.7-1.7h8.4c3.4,0,5.3,1.8,5.9,5.4c0.1,0.9,0.9,1.5,1.8,1.5l2.2-0.1
			c0.9,0,1.6-0.8,1.6-1.7v-8.8c0-0.9-0.8-1.7-1.7-1.7h-34c-0.9,0-1.7,0.8-1.7,1.7v1.1c0,0.9,0.7,1.6,1.6,1.7c2.2,0.2,3.2,1,3.2,2.4
			v26.3c0,1.4-1.1,2.1-3.2,2.4c-0.9,0.1-1.6,0.8-1.6,1.7v1.1c0,0.9,0.8,1.7,1.7,1.7h34.1c0.9,0,1.6-0.7,1.7-1.6l1-12.1
			C130.7,132.2,130,131.4,129,131.3C129,131.3,129,131.3,129,131.3"/>
		<path class="st0" d="M176.7,142.3c-1.6-0.2-2.6-0.7-2.8-1.5l-11.1-32.9c-0.2-0.7-0.9-1.2-1.6-1.2h-8.5c-0.7,0-1.4,0.5-1.6,1.1
			l-11.7,33c-0.3,0.6-0.7,1-1.3,1.2c-0.6,0.2-1.2,0.3-1.8,0.3c-0.9,0.1-1.6,0.8-1.6,1.7v1.1c0,0.9,0.8,1.7,1.7,1.7h11.9
			c0.9,0,1.7-0.8,1.7-1.7c0,0,0,0,0,0v-1c0-0.9-0.8-1.7-1.7-1.7h0H147c-1.6,0-2.4-0.4-2.4-1.3c0-0.2,0.1-0.5,0.1-0.7l0.9-2.7
			c0.2-0.7,0.9-1.1,1.6-1.1h12.2c0.7,0,1.4,0.5,1.6,1.1l1.1,3.2c0.1,0.2,0.2,0.4,0.2,0.7c0,0.6-0.5,0.9-1.6,0.9h-2.5
			c-0.9,0-1.7,0.8-1.7,1.7v1c0,0.9,0.8,1.7,1.7,1.7h18.2c0.9,0,1.7-0.8,1.7-1.7V144C178.3,143.1,177.6,142.4,176.7,142.3
			 M156.9,131.7H150c-0.9,0-1.7-0.8-1.7-1.7c0-0.2,0-0.4,0.1-0.6l5.2-15.4l4.9,15.4c0.3,0.9-0.2,1.9-1.1,2.1
			C157.3,131.7,157.1,131.7,156.9,131.7"/>
		<path class="st0" d="M237.1,111.2c0.9-0.1,1.5-0.8,1.6-1.7v-1.1c0-0.9-0.8-1.7-1.7-1.7h-15.8c-0.8,0-1.4,0.5-1.6,1.2l-7.8,26.8
			l-7.8-26.8c-0.2-0.7-0.9-1.2-1.6-1.2h-16.7c-0.9,0-1.7,0.8-1.7,1.7c0,0,0,0,0,0v1.1c0,0.9,0.7,1.6,1.6,1.7c2.2,0.2,3.2,1,3.2,2.4
			v26.3c0,1.4-1.1,2.1-3.2,2.4c-0.9,0.1-1.6,0.8-1.6,1.7v1.1c0,0.9,0.8,1.7,1.7,1.7c0,0,0,0,0,0h11.9c0.9,0,1.7-0.8,1.7-1.7V144
			c0-0.9-0.7-1.6-1.6-1.7c-2.2-0.2-3.2-1-3.2-2.4v-25.8l9.7,31.5c0.2,0.7,0.9,1.2,1.6,1.2h6.3c0.7,0,1.4-0.5,1.6-1.2l9.7-31.5v25.8
			c0,1.4-1.1,2.1-3.2,2.4c-0.9,0.1-1.5,0.8-1.6,1.7v1.1c0,0.9,0.8,1.7,1.7,1.7h16.8c0.9,0,1.7-0.8,1.7-1.7V144
			c0-0.9-0.7-1.6-1.6-1.7c-0.7-0.1-1.4-0.2-2.1-0.5c-0.7-0.3-1.2-1-1.2-1.9v-26.3C233.8,112.2,234.9,111.4,237.1,111.2"/>
		<path class="st0" d="M43.4,12c1.8-0.2,3.2-1.7,3.2-3.5V5.3c0-1.9-1.6-3.5-3.5-3.5c0,0,0,0,0,0H3.5C1.6,1.8,0,3.4,0,5.3
			c0,0,0,0,0,0v3.1c0,1.8,1.4,3.4,3.2,3.6c5.2,0.5,7.8,2.3,7.8,5.5v59.3c0,3.2-2.6,5-7.8,5.5C1.4,82.5,0,84,0,85.8v3.1
			c0,1.9,1.6,3.5,3.5,3.5h39.5c1.9,0,3.5-1.6,3.5-3.5v-3.1c0-1.8-1.4-3.3-3.2-3.5c-1.7-0.1-3.4-0.6-4.9-1.3
			c-1.7-0.7-2.8-2.4-2.7-4.2V17.4C35.7,14.3,38.3,12.4,43.4,12"/>
		<path class="st0" d="M136.6,62.9l-4.4-1.1c-1.7-0.4-3.5,0.5-4.1,2.1c-1.7,4.5-4.6,8.5-8.4,11.5c-4.2,3.1-10.1,4.6-17.7,4.6
			c-3.1,0-6.2-0.6-9-1.9c-2.9-1.3-5.4-3.3-7.3-5.9c-2.3-3-3.9-6.5-4.9-10.2c-1.3-4.8-1.9-9.8-1.8-14.9c0-0.8,0-1.5,0-2.3l0,0
			c0.2-10,2.2-17.8,5.8-23.4c3.9-6,10.4-9.1,19.6-9.1c6.3,0,11.3,1.8,15,5.3c3.3,3.3,5.6,7.5,6.7,12c0.4,1.6,2,2.7,3.7,2.6l6.1-0.5
			c1.9-0.1,3.3-1.7,3.3-3.5v-23c0-1.9-1.6-3.5-3.5-3.5h-6.2c-1.4,0-2.6,0.8-3.2,2.1L126,4c-0.8,1.8-3,2.5-4.7,1.7
			c-0.1,0-0.2-0.1-0.3-0.2c-2.3-1.4-4.8-2.5-7.3-3.3C108.4,0.6,103-0.1,97.6,0c-5.8,0-11.5,1-16.9,2.9c-5.3,1.9-10.1,4.9-14.1,8.9
			c-4.3,4.2-7.6,9.4-9.7,15c-2.5,6.8-3.7,14.1-3.6,21.4c-0.1,7,1.1,14,3.7,20.5c2.2,5.5,5.6,10.4,9.9,14.4c4.3,3.9,9.3,6.8,14.8,8.5
			c5.8,1.9,12,2.9,18.1,2.8c5.6,0.1,11.2-0.7,16.5-2.5c4.3-1.5,8.3-3.8,11.7-6.8c3.1-2.8,5.7-6.1,7.7-9.7c1.4-2.6,2.5-5.2,3.4-8
			c0.6-1.8-0.4-3.8-2.2-4.4C136.8,62.9,136.7,62.9,136.6,62.9"/>
		<path class="st0" d="M212.7,43.1V50c0,1.4-1.1,2.5-2.4,2.5h-18.4c-2,0-3.9,0-5.7,0h-2.1c-3.5,0-6.1,0-6.7-0.1h-0.7h-0.4l-7.5-0.5
			c-0.2,0-0.3,0-0.5,0v-9.3c2.5-0.3,5.6-0.6,8-0.8h0.4l1.2-0.1c1-0.1,3.3-0.2,6.4-0.3h1h0.9l6-0.2h0.3c6.8-0.2,14-0.4,17.7-0.5
			C211.5,40.7,212.6,41.8,212.7,43.1c0,0.1,0,0.1,0,0.1"/>
		<path class="st0" d="M158.6,42.6v9.3c0,0.2-0.2,0.4-0.4,0.4c0,0,0,0,0,0c-1.3,0-2.5-0.1-3.4,0c-1.3,0-2.4-1-2.4-2.3c0,0,0,0,0-0.1
			v-5.1c0-1.3,1-2.4,2.4-2.4l3.6-0.3C158.4,42.2,158.6,42.3,158.6,42.6C158.6,42.6,158.6,42.6,158.6,42.6"/>
		<path class="st0" d="M153.7,45c0,0,0,8.4-0.4,9.1c-0.1,0.5-0.5,0.9-1,1.1c-0.2,0.1-0.5,0.2-0.7,0.2h-0.2l-14.3,0.4
			c-0.5,0-1-0.2-1.4-0.6c-0.2-0.2-0.3-0.5-0.3-0.8l-1.9-9c0-0.6,0.3-1.1,0.7-1.5c1.5-1.3,5.4-4.5,10.7-8.9l0.9-0.8
			c0,0,0.1-0.1,0.1-0.1l0.2-0.2c3.1-2.8,1.1-2.1,3.1-5.4c0.2-0.4,0.4-0.7,0.8-1.2l0.3-0.4c0.8-1.2,1.8-2.3,2.9-3.3l0,0
			c0.7-0.7,1.2-1.1,1.8-1.1h0.1h0.1c0.3,0.1,0.6,0.3,0.9,0.6c0.8,0.8-2.1,4.7-4.2,7.2l-0.3,0.4c-0.6,0.7-1.2,1.3-1.5,1.7
			c-1,1-2.9,2.5-2.9,2.5c1.9,1.5,3.5,3.2,4.9,5.2c0.2,0.4,0.5,0.8,0.7,1.2C153.4,42.5,153.7,43.7,153.7,45"/>
		<path class="st0" d="M235.4,61.3l-5.5-0.3c-1.8-0.1-3.5,1.2-3.7,3c-1.6,12.7-7.2,16-19.1,16H192c-1.9,0-3.5-1.6-3.5-3.5V17.8
			c0-1.9,1.6-3.5,3.5-3.5h19.4c7.7,0,13.3,4.2,14.7,12.6c0.3,1.7,1.9,3,3.6,2.9l5.5-0.3c1.9-0.1,3.4-1.6,3.4-3.5V5.3
			c0-1.9-1.6-3.5-3.5-3.5c0,0,0,0-0.1,0h-78.7c-1.9,0-3.5,1.6-3.5,3.5c0,0,0,0,0,0v3.1c0,1.8,1.4,3.3,3.2,3.5c0.4,0,0.7,0.1,1.1,0.1
			h0.1c0.6,0.1,1.1,0.2,1.6,0.3c0.8,0.2,1.5,0.4,2.2,0.8c0.9,0.4,1.6,1,2.1,1.8c0.4,0.7,0.7,1.5,0.6,2.4v59.4c0,3.2-2.6,5-7.6,5.5
			c-1.8,0.2-3.2,1.7-3.2,3.5v3.1c0,1.9,1.6,3.5,3.5,3.5h77.5c1.9,0,3.4-1.5,3.5-3.3l1.3-24C238.7,63.2,237.3,61.5,235.4,61.3"/>
		<rect x="122.6" y="44" class="st0" width="22.5" height="7.9"/>
		<path class="st0" d="M128.7,46.7c0,9.3-7.5,16.8-16.8,16.8c-9.3,0-16.8-7.5-16.8-16.8c0-9.3,7.5-16.8,16.8-16.8c0,0,0,0,0,0
			C121.2,29.9,128.7,37.4,128.7,46.7C128.7,46.7,128.7,46.7,128.7,46.7"/>
		<path class="st0" d="M43.6,166.3c0.9-0.1,1.6-0.8,1.6-1.7v-0.3c0-1-0.8-1.7-1.7-1.7c0,0,0,0,0,0H31c-0.8,0-1.5,0.5-1.7,1.3
			L23,185.6l-6.4-21.8c-0.2-0.7-0.9-1.2-1.6-1.3H1.8c-1,0-1.7,0.8-1.8,1.7v0.3c0,0.9,0.7,1.6,1.6,1.7c1.6,0.2,2.4,0.9,2.4,2V190
			c0,1.1-0.8,1.7-2.4,1.9C0.7,192,0,192.8,0,193.6v0.3c0,1,0.8,1.7,1.8,1.8h9.2c1,0,1.7-0.8,1.7-1.7c0,0,0,0,0,0v-0.3
			c0-0.9-0.7-1.6-1.6-1.7c-1.6-0.2-2.4-0.9-2.4-1.9v-21.2l7.9,25.7c0.2,0.7,0.9,1.2,1.7,1.2H23c0.8,0,1.4-0.5,1.7-1.2l2.3-7.6
			l5.6-18.1V190c0,1.1-0.8,1.7-2.4,1.9c-0.9,0.1-1.6,0.9-1.6,1.7v0.3c0,1,0.8,1.7,1.7,1.8h13.1c1,0,1.7-0.8,1.7-1.8v-0.3
			c0-0.9-0.7-1.6-1.6-1.7c-1.6-0.2-2.4-0.9-2.4-1.9v-21.8C41.2,167.2,42,166.5,43.6,166.3"/>
		<path class="st0" d="M83.5,162.5h-9.9c-1,0-1.7,0.8-1.8,1.7v0.2c0,0.9,0.7,1.6,1.6,1.7c0.7,0,1.4,0.2,2.1,0.5
			c0.6,0.2,1.1,0.8,1.1,1.5v13.9c0,1.4-0.1,2.8-0.4,4.2c-0.2,1-0.6,2-1.2,2.9c-0.6,0.7-1.4,1.3-2.3,1.6c-1.1,0.4-2.3,0.6-3.6,0.5
			c-1.2,0-2.4-0.2-3.5-0.5c-0.9-0.3-1.6-0.9-2.2-1.6c-0.6-0.9-1-1.9-1.1-2.9c-0.3-1.4-0.4-2.8-0.3-4.2v-13.9c0-0.7,0.4-1.3,1.1-1.5
			c0.7-0.3,1.4-0.4,2.1-0.5c0.9-0.1,1.5-0.8,1.5-1.7v-0.2c0-1-0.8-1.7-1.7-1.7c0,0,0,0,0,0H50.6c-1,0-1.7,0.8-1.7,1.7l0,0v0.3
			c0,0.9,0.7,1.6,1.6,1.7c1.6,0.2,2.4,0.9,2.4,2v13.9c0,2,0.2,4,0.8,5.9c0.5,1.7,1.4,3.2,2.6,4.5c1.3,1.3,2.8,2.2,4.5,2.8
			c2.2,0.7,4.5,1.1,6.8,1c2.2,0.1,4.5-0.3,6.6-1c1.6-0.6,3.1-1.5,4.2-2.8c1.1-1.3,1.9-2.8,2.3-4.5c0.5-1.9,0.7-3.9,0.7-5.9v-14
			c0-1.1,0.8-1.7,2.5-2c0.9-0.1,1.5-0.8,1.6-1.7v-0.3C85.3,163.3,84.5,162.5,83.5,162.5L83.5,162.5"/>
		<path class="st0" d="M115.6,179.6c-1.3-1.6-3-2.8-5-3.4c-1.1-0.4-2.3-0.7-3.5-1c-1.2-0.3-2.4-0.5-3.5-0.7s-2.2-0.4-3.3-0.6
			c-0.9-0.2-1.9-0.5-2.7-0.8c-0.7-0.2-1.3-0.6-1.8-1.1c-0.5-0.5-0.7-1.1-0.7-1.8c0-0.7,0.2-1.4,0.6-2c0.4-0.5,1-0.9,1.6-1.1
			c0.6-0.2,1.3-0.4,2-0.5c0.7-0.1,1.4-0.1,2-0.1c1.3,0,2.6,0.1,3.8,0.4c1.1,0.2,2.2,0.7,3.1,1.3c0.9,0.6,1.7,1.4,2.3,2.3
			c0.4,0.6,0.7,1.3,0.9,2c0.2,0.8,1,1.4,1.8,1.3l0.9-0.1c0.9-0.1,1.6-0.8,1.6-1.7v-7.8c0-1-0.8-1.7-1.7-1.7l0,0H113
			c-0.5,0-1.1,0.3-1.4,0.7c-0.2,0.2-0.3,0.4-0.5,0.6c-0.4,0.3-0.9,0.5-1.4,0.4c-0.3,0-0.5,0-0.8-0.1c-0.3-0.1-0.6-0.3-0.9-0.4
			c-1.1-0.5-2.2-1-3.4-1.3c-1.7-0.4-3.5-0.6-5.3-0.6c-1.8,0-3.5,0.2-5.2,0.8c-1.3,0.4-2.5,1.1-3.5,2.1c-0.9,0.8-1.6,1.9-2,3
			c-0.4,1.1-0.6,2.3-0.6,3.6c0,3,0.7,5.3,2.2,6.9c1.9,1.9,4.2,3.1,6.8,3.7c1.5,0.4,3.1,0.7,4.7,0.9c1.4,0.2,2.9,0.5,4.3,0.8
			c1.1,0.2,2.1,0.7,3.1,1.2c0.8,0.5,1.2,1.4,1.2,2.3c0,0.8-0.2,1.6-0.6,2.3c-0.4,0.6-0.9,1.1-1.5,1.4c-0.7,0.4-1.5,0.6-2.2,0.7
			c-0.9,0.1-1.8,0.2-2.7,0.2c-2.8,0.2-5.6-0.5-8-2c-1.6-1-2.7-2.6-3.1-4.5c-0.2-0.8-1-1.4-1.8-1.3l-0.8,0.1
			c-0.9,0.1-1.5,0.8-1.6,1.7v8.4c0,1,0.8,1.7,1.7,1.8H91c0.6,0,1.2-0.3,1.5-0.9c0.1-0.2,0.2-0.3,0.4-0.5c0.3-0.4,0.7-0.6,1.1-0.6
			c0.6,0,1.3,0.2,1.8,0.6c1.1,0.6,2.3,1.1,3.5,1.4c1.8,0.5,3.6,0.7,5.4,0.6c1.7,0,3.4-0.2,5.1-0.7c1.5-0.4,2.8-1.1,4-2
			c1.1-0.9,2-2,2.6-3.4c0.7-1.4,1-3,0.9-4.6C117.5,183.5,116.9,181.4,115.6,179.6"/>
		<path class="st0" d="M149.4,182.8l-1.1-0.1c-0.9-0.1-1.7,0.6-1.8,1.5c-0.7,4.6-3.1,6.9-7.4,6.9h-5c-1,0-1.7-0.8-1.7-1.7
			c0,0,0,0,0,0v-7.5c0-1,0.8-1.7,1.8-1.7h1.3c1,0,1.6,1.2,2,3.7c0.1,0.9,0.8,1.5,1.7,1.5h0.6c0.9,0,1.7-0.7,1.7-1.7l0.5-10.4
			c0.1-1-0.7-1.8-1.6-1.8c0,0-0.1,0-0.1,0h-0.6c-0.9,0-1.6,0.6-1.7,1.5c-0.4,2.3-1.1,3.5-2.3,3.5H134c-1,0-1.7-0.8-1.8-1.8v-5.8
			c0-1,0.8-1.7,1.8-1.7h6.6c2.7,0,4.3,1.4,4.8,4.1c0.2,0.9,0.9,1.5,1.8,1.5l1.2-0.1c0.9-0.1,1.7-0.8,1.6-1.8v-6.6
			c0-1-0.8-1.7-1.7-1.7c0,0,0,0,0,0H121c-1,0-1.7,0.8-1.7,1.7c0,0,0,0,0,0v0.3c0,0.9,0.7,1.6,1.6,1.7c1.6,0.2,2.4,0.9,2.4,2V190
			c0,1.1-0.8,1.7-2.4,1.9c-0.9,0.1-1.6,0.8-1.6,1.7v0.3c0,1,0.8,1.7,1.7,1.7c0,0,0,0,0,0h27.5c0.9,0,1.7-0.7,1.7-1.6l0.8-9.3
			C151.1,183.8,150.4,183,149.4,182.8C149.4,182.9,149.4,182.9,149.4,182.8"/>
		<path class="st0" d="M188.1,162.5h-9.9c-1,0-1.7,0.8-1.7,1.7c0,0,0,0,0,0v0.2c0,0.9,0.7,1.6,1.5,1.7c0.7,0,1.4,0.2,2.1,0.5
			c0.6,0.2,1.1,0.8,1.1,1.5v13.9c0,1.4-0.1,2.8-0.4,4.2c-0.2,1-0.6,2-1.3,2.9c-0.6,0.8-1.4,1.3-2.3,1.6c-1.1,0.4-2.3,0.6-3.6,0.5
			c-1.2,0-2.4-0.2-3.5-0.5c-0.9-0.3-1.6-0.9-2.2-1.6c-0.6-0.9-1-1.9-1.1-2.9c-0.2-1.4-0.3-2.8-0.3-4.2v-13.9c0-0.7,0.4-1.3,1.1-1.5
			c0.7-0.3,1.4-0.4,2.1-0.5c0.9-0.1,1.5-0.8,1.5-1.7v-0.2c0-1-0.8-1.7-1.7-1.7c0,0,0,0,0,0h-14.2c-1,0-1.7,0.8-1.8,1.7v0.3
			c0,0.9,0.7,1.6,1.6,1.7c1.6,0.2,2.4,0.9,2.4,2v13.9c0,2,0.2,4,0.8,5.9c0.5,1.7,1.4,3.2,2.5,4.5c1.3,1.3,2.8,2.3,4.6,2.8
			c2.2,0.7,4.5,1.1,6.8,1c2.2,0.1,4.5-0.3,6.6-1c1.6-0.6,3.1-1.5,4.2-2.8c1.1-1.3,1.9-2.8,2.2-4.5c0.5-1.9,0.7-3.9,0.7-5.9v-14
			c0-1.1,0.8-1.7,2.4-2c0.9-0.1,1.6-0.8,1.6-1.7v-0.3C189.9,163.3,189.1,162.5,188.1,162.5C188.1,162.5,188.1,162.5,188.1,162.5"/>
		<path class="st0" d="M237.1,166.3c0.9-0.1,1.6-0.8,1.6-1.7v-0.3c0-1-0.8-1.7-1.7-1.7c0,0,0,0,0,0h-12.4c-0.8,0-1.5,0.5-1.7,1.3
			l-6.4,21.8l-6.4-21.8c-0.2-0.7-0.9-1.3-1.7-1.3h-13.2c-1,0-1.7,0.8-1.7,1.7c0,0,0,0,0,0v0.3c0,0.9,0.7,1.6,1.6,1.7
			c1.6,0.2,2.4,0.9,2.4,2V190c0,1.1-0.8,1.7-2.4,1.9c-0.9,0.1-1.5,0.8-1.6,1.7v0.3c0,1,0.8,1.7,1.7,1.8c0,0,0,0,0,0h9.2
			c1,0,1.7-0.8,1.8-1.8v-0.3c0-0.9-0.7-1.6-1.6-1.7c-1.6-0.2-2.4-0.9-2.4-1.9v-21.3l7.9,25.7c0.2,0.7,0.9,1.2,1.7,1.2h4.7
			c0.8,0,1.4-0.5,1.7-1.2l2.3-7.6l5.6-18.1V190c0,1.1-0.8,1.7-2.4,1.9c-0.9,0.1-1.6,0.8-1.6,1.7v0.3c0,1,0.8,1.7,1.7,1.7
			c0,0,0,0,0,0h13.1c1,0,1.7-0.8,1.7-1.7c0,0,0,0,0,0v-0.3c0-0.9-0.7-1.6-1.6-1.7c-1.6-0.2-2.4-0.9-2.4-2v-21.7
			C234.6,167.2,235.5,166.5,237.1,166.3"/>
	</g>
</g>
</svg>
