<svg xmlns="http://www.w3.org/2000/svg" viewBox="0 0 238.65 196.37"><g id="Layer_2" data-name="Layer 2"><g id="Layer_1-2" data-name="Layer 1"><path d="M36.74,133.67l-1.69-.43a1.68,1.68,0,0,0-2,1,11.33,11.33,0,0,1-3.71,5q-2.76,2.06-7.86,2a9.43,9.43,0,0,1-3.95-.84,8.36,8.36,0,0,1-3.23-2.58,12.53,12.53,0,0,1-2.17-4.52,24.5,24.5,0,0,1-.79-6.6c0-4.9.84-8.68,2.56-11.37s4.6-4,8.67-4a9.22,9.22,0,0,1,6.68,2.35,11.14,11.14,0,0,1,3,5.23,1.68,1.68,0,0,0,1.76,1.2l2.43-.19A1.7,1.7,0,0,0,38,118.27v-9.9a1.71,1.71,0,0,0-1.7-1.7H34.66A3.58,3.58,0,0,0,32,108a1.57,1.57,0,0,1-2,.32,17.19,17.19,0,0,0-3.3-1.5,22.84,22.84,0,0,0-7.09-1,21.38,21.38,0,0,0-7.47,1.3,17.59,17.59,0,0,0-6.25,3.9,18.68,18.68,0,0,0-4.29,6.64A25.44,25.44,0,0,0,0,127.16a23.48,23.48,0,0,0,1.62,9.1,17.91,17.91,0,0,0,4.4,6.4,18.16,18.16,0,0,0,6.56,3.76,25.28,25.28,0,0,0,8,1.24,21.19,21.19,0,0,0,7.28-1.11,15,15,0,0,0,8.59-7.31,22.23,22.23,0,0,0,1.47-3.35,1.72,1.72,0,0,0-1.2-2.22"/><path d="M86.42,137.45a1.7,1.7,0,0,0-1.7,1.7v.9a2.64,2.64,0,0,1-.5,1.76,1.6,1.6,0,0,1-1.27.54,1.63,1.63,0,0,1-1.26-.54,2.83,2.83,0,0,1-.47-1.77V135.7a16.37,16.37,0,0,0-.42-3.87A8.18,8.18,0,0,0,79.63,129a7.54,7.54,0,0,0-1.9-1.88A9.23,9.23,0,0,0,75.15,126,11,11,0,0,0,78,125a8.66,8.66,0,0,0,2.41-1.85,8.46,8.46,0,0,0,1.69-2.73,9.53,9.53,0,0,0,.66-3.69,10,10,0,0,0-1.19-5.2,8.38,8.38,0,0,0-3.15-3.08A13.8,13.8,0,0,0,73.87,107a38.83,38.83,0,0,0-5.2-.33H44.73a1.7,1.7,0,0,0-1.71,1.7v1.1a1.74,1.74,0,0,0,1.56,1.7c2.16.24,3.24,1,3.24,2.41v26.36c0,1.36-1.08,2.16-3.24,2.41A1.73,1.73,0,0,0,43,144v1.06a1.7,1.7,0,0,0,1.71,1.7H63.08a1.7,1.7,0,0,0,1.7-1.7V144a1.72,1.72,0,0,0-1.61-1.7,9.45,9.45,0,0,1-2.88-.56,2,2,0,0,1-1.49-1.85V129.71A1.7,1.7,0,0,1,60.5,128h4.55a6.88,6.88,0,0,1,2.48.38,3.44,3.44,0,0,1,1.57,1.21,5.48,5.48,0,0,1,.84,2.26,19.9,19.9,0,0,1,.25,3.5v3.51a10,10,0,0,0,.52,3.24,7.22,7.22,0,0,0,1.7,2.65,8,8,0,0,0,2.93,1.78,12.9,12.9,0,0,0,4.43.65,11.4,11.4,0,0,0,3.8-.56,6.93,6.93,0,0,0,2.58-1.56,6.11,6.11,0,0,0,1.5-2.35,9,9,0,0,0,.47-2.93v-.63a1.7,1.7,0,0,0-1.7-1.7M70.11,122.14a6.22,6.22,0,0,1-4.4,1.32H60.5a1.7,1.7,0,0,1-1.7-1.7v-7.6a1.7,1.7,0,0,1,1.7-1.71h5.21c2.05,0,3.52.41,4.43,1.27a4.87,4.87,0,0,1,1.33,3.74c0,2.22-.45,3.79-1.36,4.68"/><path d="M129,131.29l-2.15-.15a1.71,1.71,0,0,0-1.8,1.46c-.77,5.81-3.78,8.69-9,8.69h-6.51a1.71,1.71,0,0,1-1.71-1.71v-9.87a1.71,1.71,0,0,1,1.71-1.71h2c1.24,0,2.08,1.59,2.53,4.79a1.71,1.71,0,0,0,1.69,1.48h1.52a1.72,1.72,0,0,0,1.71-1.63l.64-13.45a1.71,1.71,0,0,0-1.71-1.79H116.5a1.71,1.71,0,0,0-1.68,1.48,10.44,10.44,0,0,1-.84,3.06,2.29,2.29,0,0,1-2,1.52h-2.42a1.71,1.71,0,0,1-1.71-1.7v-7.89a1.71,1.71,0,0,1,1.71-1.7H118q5.06,0,5.9,5.38a1.72,1.72,0,0,0,1.77,1.46l2.18-.11a1.71,1.71,0,0,0,1.62-1.7v-8.83a1.7,1.7,0,0,0-1.7-1.7h-34a1.7,1.7,0,0,0-1.7,1.7v1.1a1.73,1.73,0,0,0,1.55,1.7c2.16.24,3.25,1,3.25,2.41v26.31c0,1.36-1.09,2.15-3.24,2.39A1.72,1.72,0,0,0,92.08,144v1.13a1.7,1.7,0,0,0,1.7,1.7h34.11a1.7,1.7,0,0,0,1.7-1.55l1-12.12a1.71,1.71,0,0,0-1.58-1.84"/><path d="M176.69,142.28c-1.61-.18-2.55-.69-2.83-1.54l-11.05-32.91a1.7,1.7,0,0,0-1.62-1.16H152.7a1.69,1.69,0,0,0-1.61,1.14l-11.7,33a2.17,2.17,0,0,1-1.32,1.17,6.86,6.86,0,0,1-1.75.32,1.73,1.73,0,0,0-1.61,1.73l0,1.11a1.7,1.7,0,0,0,1.7,1.67h11.91a1.7,1.7,0,0,0,1.71-1.7v-1a1.71,1.71,0,0,0-1.71-1.71H147c-1.63,0-2.43-.43-2.43-1.33a2,2,0,0,1,.15-.7l.95-2.74a1.7,1.7,0,0,1,1.62-1.14h12.17a1.69,1.69,0,0,1,1.61,1.14l1.1,3.16a2,2,0,0,1,.18.66c0,.65-.53.95-1.57.95h-2.46a1.71,1.71,0,0,0-1.7,1.71v1a1.7,1.7,0,0,0,1.7,1.7h18.25a1.71,1.71,0,0,0,1.71-1.7V144a1.71,1.71,0,0,0-1.55-1.67m-19.8-10.6H150a1.7,1.7,0,0,1-1.61-2.26l5.23-15.36,4.9,15.4a1.7,1.7,0,0,1-1.62,2.22"/><path d="M237.09,111.17a1.74,1.74,0,0,0,1.56-1.7v-1.1a1.71,1.71,0,0,0-1.71-1.7H221.18a1.72,1.72,0,0,0-1.64,1.22l-7.82,26.76-7.8-26.76a1.7,1.7,0,0,0-1.63-1.22H185.56a1.71,1.71,0,0,0-1.72,1.7v1.1a1.74,1.74,0,0,0,1.57,1.7c2.17.24,3.25,1,3.25,2.41v26.31c0,1.36-1.08,2.15-3.25,2.39a1.73,1.73,0,0,0-1.57,1.69v1.13a1.71,1.71,0,0,0,1.72,1.7H197.5a1.7,1.7,0,0,0,1.7-1.7V144a1.72,1.72,0,0,0-1.56-1.69c-2.17-.24-3.25-1-3.25-2.39V114.11l9.68,31.49a1.68,1.68,0,0,0,1.62,1.2H212a1.68,1.68,0,0,0,1.62-1.2l9.68-31.49v25.78c0,1.36-1.08,2.15-3.25,2.39a1.72,1.72,0,0,0-1.56,1.69v1.13a1.7,1.7,0,0,0,1.7,1.7h16.76a1.71,1.71,0,0,0,1.71-1.7V144a1.71,1.71,0,0,0-1.56-1.69,6.52,6.52,0,0,1-2.1-.54,2,2,0,0,1-1.21-1.85V113.58c0-1.37,1.1-2.17,3.31-2.41"/><path d="M43.39,12a3.53,3.53,0,0,0,3.21-3.5V5.34a3.52,3.52,0,0,0-3.53-3.52H3.53A3.52,3.52,0,0,0,0,5.34V8.45A3.53,3.53,0,0,0,3.21,12c5.19.5,7.77,2.33,7.77,5.47V76.82c0,3.16-2.58,5-7.77,5.47A3.55,3.55,0,0,0,0,85.8v3.11a3.53,3.53,0,0,0,3.53,3.53H43.07a3.53,3.53,0,0,0,3.53-3.53V85.8a3.55,3.55,0,0,0-3.21-3.51A13.6,13.6,0,0,1,38.46,81a4.51,4.51,0,0,1-2.72-4.22V17.43c0-3.14,2.56-5,7.65-5.47"/><path d="M136.56,62.87l-4.44-1.12A3.53,3.53,0,0,0,128,63.89a26.12,26.12,0,0,1-8.4,11.48c-4.2,3.07-10.11,4.63-17.74,4.63a21.61,21.61,0,0,1-9-1.89,19.19,19.19,0,0,1-7.31-5.86,28.54,28.54,0,0,1-4.88-10.19A54.72,54.72,0,0,1,78.91,47.2c0-.78,0-1.53,0-2.27v0q.36-15,5.76-23.4,5.79-9.06,19.58-9.08c6.34,0,11.35,1.78,15,5.3a25.49,25.49,0,0,1,6.73,12,3.53,3.53,0,0,0,3.67,2.6l6.06-.48A3.52,3.52,0,0,0,139,28.32v-23a3.53,3.53,0,0,0-3.53-3.53h-6.16a3.51,3.51,0,0,0-3.2,2.07l-.07.14A3.56,3.56,0,0,1,121,5.52a35.84,35.84,0,0,0-7.35-3.29A51.38,51.38,0,0,0,97.56,0,49.41,49.41,0,0,0,80.68,2.9,40.09,40.09,0,0,0,66.6,11.75a41.74,41.74,0,0,0-9.71,15A58.13,58.13,0,0,0,53.3,48.11,52.81,52.81,0,0,0,57,68.62a40.54,40.54,0,0,0,9.93,14.43,40.1,40.1,0,0,0,14.77,8.52,57.25,57.25,0,0,0,18.11,2.82,49,49,0,0,0,16.48-2.5,34.86,34.86,0,0,0,11.69-6.78,35.59,35.59,0,0,0,7.69-9.74,52.36,52.36,0,0,0,3.43-8,3.5,3.5,0,0,0-2.49-4.5"/><path d="M212.66,43.12V50a2.45,2.45,0,0,1-2.45,2.45H191.85c-2,0-3.93,0-5.7,0h-2.07c-3.52,0-6.09,0-6.67-.1l-.7,0-.43,0-7.53-.48a3.84,3.84,0,0,0-.48,0V42.59c2.48-.34,5.59-.62,8-.83l.43,0,1.18-.1c1-.08,3.34-.17,6.36-.28l1,0,.88,0,6-.17h.29c6.76-.2,14-.37,17.74-.45a2.47,2.47,0,0,1,2.52,2.46"/><path d="M158.58,42.61l0,9.33a.42.42,0,0,1-.43.41c-1.34-.05-2.51-.08-3.45-.05a2.38,2.38,0,0,1-2.43-2.38V44.87a2.37,2.37,0,0,1,2.35-2.38l3.56-.3a.41.41,0,0,1,.44.42"/><path d="M153.73,45s0,8.41-.43,9.11a1.59,1.59,0,0,1-1,1.08,2.21,2.21,0,0,1-.72.18h-.19l-14.26.4a1.7,1.7,0,0,1-1.39-.61,1.36,1.36,0,0,1-.3-.81l-1.89-9a2.1,2.1,0,0,1,.74-1.47c1.52-1.27,5.41-4.52,10.7-8.89l.89-.75a.9.9,0,0,0,.11-.1l.19-.17c3.06-2.8,1.07-2.08,3.06-5.39.2-.35.45-.73.76-1.18l.28-.38a18.85,18.85,0,0,1,2.85-3.33h0c.7-.7,1.25-1.11,1.81-1.08h.14l.14,0a2.1,2.1,0,0,1,.89.58c.83.79-2.05,4.69-4.17,7.25l-.31.37c-.62.74-1.16,1.34-1.49,1.66-1,1-2.85,2.53-2.85,2.53a23.89,23.89,0,0,1,4.89,5.15,11.87,11.87,0,0,1,.66,1.18,8.75,8.75,0,0,1,.85,3.65"/><path d="M235.36,61.34,229.82,61A3.51,3.51,0,0,0,226.08,64c-1.55,12.71-7.24,16-19.13,16H192a3.54,3.54,0,0,1-3.54-3.52V17.78A3.54,3.54,0,0,1,192,14.26h19.38c7.73,0,13.26,4.19,14.66,12.59a3.48,3.48,0,0,0,3.63,2.85l5.53-.28a3.52,3.52,0,0,0,3.35-3.52V5.34A3.51,3.51,0,0,0,235,1.82H156.34a3.52,3.52,0,0,0-3.53,3.52V8.46A3.57,3.57,0,0,0,156,12c.37,0,.72.08,1.06.13h.07c.58.09,1.12.2,1.63.33a9.09,9.09,0,0,1,2.16.79A4.77,4.77,0,0,1,163,15.08a4.23,4.23,0,0,1,.64,2.35V76.82c0,3.15-2.56,5-7.65,5.47a3.54,3.54,0,0,0-3.21,3.5v3.12a3.53,3.53,0,0,0,3.53,3.53h77.52a3.53,3.53,0,0,0,3.52-3.34l1.27-24a3.54,3.54,0,0,0-3.29-3.71"/><rect x="122.63" y="44.02" width="22.51" height="7.93"/><path d="M128.7,46.72a16.81,16.81,0,1,1-16.8-16.81,16.8,16.8,0,0,1,16.8,16.81"/><path d="M43.63,166.28a1.77,1.77,0,0,0,1.57-1.72v-.28a1.74,1.74,0,0,0-1.74-1.74H31a1.76,1.76,0,0,0-1.67,1.26L23,185.62,16.64,163.8A1.76,1.76,0,0,0,15,162.54H1.75A1.75,1.75,0,0,0,0,164.28v.28a1.79,1.79,0,0,0,1.56,1.73c1.6.24,2.42.89,2.42,2V190c0,1.06-.82,1.7-2.41,1.93A1.8,1.8,0,0,0,0,193.62v.28a1.76,1.76,0,0,0,1.75,1.75h9.18a1.73,1.73,0,0,0,1.73-1.75v-.28a1.78,1.78,0,0,0-1.56-1.74c-1.61-.23-2.4-.87-2.4-1.93V168.7l7.91,25.71a1.74,1.74,0,0,0,1.66,1.24H23a1.75,1.75,0,0,0,1.66-1.24L27,186.84l5.57-18.14V190c0,1.06-.8,1.7-2.4,1.93a1.79,1.79,0,0,0-1.57,1.74v.28a1.75,1.75,0,0,0,1.74,1.75H43.46a1.75,1.75,0,0,0,1.74-1.75v-.27a1.79,1.79,0,0,0-1.58-1.74c-1.63-.23-2.44-.88-2.44-1.94V168.24c0-1.07.81-1.72,2.45-2"/><path d="M83.52,162.54H73.59a1.75,1.75,0,0,0-1.75,1.74v.24a1.74,1.74,0,0,0,1.55,1.73,6.58,6.58,0,0,1,2.09.46,1.65,1.65,0,0,1,1.08,1.53v13.91a19.77,19.77,0,0,1-.38,4.21,7.11,7.11,0,0,1-1.24,2.88,5.36,5.36,0,0,1-2.35,1.64,10.4,10.4,0,0,1-3.55.54,9.76,9.76,0,0,1-3.47-.54,4.72,4.72,0,0,1-2.19-1.64,7.33,7.33,0,0,1-1.12-2.88,22.17,22.17,0,0,1-.35-4.21V168.24A1.65,1.65,0,0,1,63,166.71a6.37,6.37,0,0,1,2.07-.46,1.73,1.73,0,0,0,1.54-1.73v-.24a1.74,1.74,0,0,0-1.75-1.74H50.64a1.74,1.74,0,0,0-1.74,1.74v.28a1.77,1.77,0,0,0,1.57,1.73q2.4.36,2.4,2v13.91a20.49,20.49,0,0,0,.79,5.92,11,11,0,0,0,2.56,4.47,11.52,11.52,0,0,0,4.53,2.82,20.41,20.41,0,0,0,6.81,1,18.5,18.5,0,0,0,6.56-1,10.35,10.35,0,0,0,4.21-2.82,11.18,11.18,0,0,0,2.26-4.47,24.45,24.45,0,0,0,.65-5.92V168.24c0-1.07.83-1.72,2.46-2a1.77,1.77,0,0,0,1.56-1.73v-.28a1.74,1.74,0,0,0-1.74-1.74"/><path d="M115.57,179.61a10.84,10.84,0,0,0-5-3.39,34.54,34.54,0,0,0-3.5-1c-1.21-.27-2.37-.5-3.51-.7s-2.24-.39-3.28-.59a16.73,16.73,0,0,1-2.74-.8A5.13,5.13,0,0,1,95.69,172a2.41,2.41,0,0,1-.7-1.76,3.18,3.18,0,0,1,.61-2,4.37,4.37,0,0,1,1.57-1.12,8.2,8.2,0,0,1,2-.48c.71-.07,1.36-.1,2-.1a15.68,15.68,0,0,1,3.8.43,8.9,8.9,0,0,1,3.11,1.31,7.12,7.12,0,0,1,2.27,2.33,7.85,7.85,0,0,1,.87,2,1.72,1.72,0,0,0,1.84,1.28l.89-.08a1.74,1.74,0,0,0,1.56-1.74v-7.83a1.74,1.74,0,0,0-1.74-1.74H113a1.75,1.75,0,0,0-1.39.7,3.79,3.79,0,0,1-.52.58,2,2,0,0,1-1.4.43,2.23,2.23,0,0,1-.77-.14,7.28,7.28,0,0,1-.88-.41,18.44,18.44,0,0,0-3.41-1.28,19.85,19.85,0,0,0-5.27-.59,15,15,0,0,0-5.16.79,10.35,10.35,0,0,0-3.53,2.06,8,8,0,0,0-2,3,10.37,10.37,0,0,0-.61,3.56c0,3,.73,5.32,2.15,6.94A13.48,13.48,0,0,0,97,181.8a34.86,34.86,0,0,0,4.68.92,42.53,42.53,0,0,1,4.26.79,9.68,9.68,0,0,1,3.1,1.25,2.57,2.57,0,0,1,1.21,2.29,4.3,4.3,0,0,1-.57,2.33,3.79,3.79,0,0,1-1.5,1.36,6.84,6.84,0,0,1-2.24.68,18.84,18.84,0,0,1-2.65.17,13.73,13.73,0,0,1-8-2,7.25,7.25,0,0,1-3.13-4.49,1.74,1.74,0,0,0-1.8-1.34l-.8.06A1.74,1.74,0,0,0,88,185.51v8.39a1.75,1.75,0,0,0,1.74,1.75H91a1.79,1.79,0,0,0,1.5-.86,5.32,5.32,0,0,1,.36-.47,1.39,1.39,0,0,1,1.12-.58,3.58,3.58,0,0,1,1.82.58,18.62,18.62,0,0,0,3.54,1.41,18.88,18.88,0,0,0,5.38.64,18.36,18.36,0,0,0,5.09-.7,11.58,11.58,0,0,0,4-2,8.72,8.72,0,0,0,2.63-3.35,10.63,10.63,0,0,0,.93-4.61,9.42,9.42,0,0,0-1.78-6.07"/><path d="M149.44,182.83l-1.13-.07a1.74,1.74,0,0,0-1.84,1.47q-1,6.87-7.39,6.88h-5a1.74,1.74,0,0,1-1.75-1.74v-7.49a1.75,1.75,0,0,1,1.75-1.74h1.34c1,0,1.65,1.23,2,3.67a1.75,1.75,0,0,0,1.71,1.5h.64a1.74,1.74,0,0,0,1.74-1.67l.5-10.39a1.73,1.73,0,0,0-1.73-1.83h-.56A1.76,1.76,0,0,0,138,172.9c-.39,2.34-1.15,3.5-2.32,3.5H134a1.76,1.76,0,0,1-1.75-1.75v-5.81A1.75,1.75,0,0,1,134,167.1h6.64c2.68,0,4.29,1.38,4.81,4.14a1.79,1.79,0,0,0,1.8,1.47l1.18-.06a1.75,1.75,0,0,0,1.65-1.75v-6.62a1.74,1.74,0,0,0-1.74-1.74H121a1.73,1.73,0,0,0-1.74,1.74v.28a1.78,1.78,0,0,0,1.56,1.73c1.6.24,2.41.89,2.41,2V190c0,1.06-.81,1.71-2.4,1.94a1.77,1.77,0,0,0-1.57,1.73v.28a1.74,1.74,0,0,0,1.74,1.75h27.49a1.74,1.74,0,0,0,1.74-1.6l.79-9.33a1.74,1.74,0,0,0-1.61-1.89"/><path d="M188.13,162.54H178.2a1.74,1.74,0,0,0-1.74,1.74v.24a1.73,1.73,0,0,0,1.54,1.73,6.52,6.52,0,0,1,2.11.46,1.66,1.66,0,0,1,1.09,1.53v13.91a19.77,19.77,0,0,1-.38,4.21,6.88,6.88,0,0,1-1.28,2.88,5.13,5.13,0,0,1-2.33,1.64,10.56,10.56,0,0,1-3.55.54,10,10,0,0,1-3.48-.54,4.64,4.64,0,0,1-2.18-1.64,7.49,7.49,0,0,1-1.14-2.88,24.22,24.22,0,0,1-.32-4.21V168.24a1.68,1.68,0,0,1,1.05-1.53,6.45,6.45,0,0,1,2.1-.46,1.72,1.72,0,0,0,1.53-1.73v-.24a1.73,1.73,0,0,0-1.73-1.74H155.27a1.75,1.75,0,0,0-1.75,1.74v.28a1.78,1.78,0,0,0,1.57,1.73c1.6.24,2.41.89,2.41,2v13.91a20.49,20.49,0,0,0,.79,5.92,11.26,11.26,0,0,0,2.54,4.47,11.57,11.57,0,0,0,4.56,2.82,20.2,20.2,0,0,0,6.81,1,18.61,18.61,0,0,0,6.56-1,10.38,10.38,0,0,0,4.2-2.82,10.92,10.92,0,0,0,2.25-4.47,24.4,24.4,0,0,0,.67-5.92V168.24c0-1.07.8-1.72,2.42-2a1.77,1.77,0,0,0,1.57-1.73v-.28a1.74,1.74,0,0,0-1.74-1.74"/><path d="M237.08,166.28a1.76,1.76,0,0,0,1.57-1.72v-.28a1.73,1.73,0,0,0-1.74-1.74H224.5a1.75,1.75,0,0,0-1.67,1.26l-6.38,21.82-6.37-21.82a1.76,1.76,0,0,0-1.67-1.26H195.2a1.73,1.73,0,0,0-1.73,1.74v.28a1.76,1.76,0,0,0,1.55,1.73c1.61.24,2.42.89,2.42,2V190c0,1.06-.81,1.71-2.42,1.94a1.76,1.76,0,0,0-1.55,1.73v.28a1.74,1.74,0,0,0,1.73,1.75h9.18a1.76,1.76,0,0,0,1.75-1.75v-.28a1.77,1.77,0,0,0-1.57-1.73c-1.6-.23-2.4-.88-2.4-1.94V168.69l7.9,25.72a1.77,1.77,0,0,0,1.67,1.24h4.68a1.73,1.73,0,0,0,1.66-1.24l2.34-7.57L226,168.69V190c0,1.06-.8,1.71-2.4,1.94a1.77,1.77,0,0,0-1.57,1.73v.28a1.74,1.74,0,0,0,1.74,1.75h13.15a1.74,1.74,0,0,0,1.74-1.75v-.27a1.76,1.76,0,0,0-1.57-1.73c-1.63-.23-2.44-.89-2.44-2V168.24c0-1.07.81-1.72,2.44-2"/></g></g></svg>