<?xml version="1.0" encoding="utf-8"?>
<!-- Generator: Adobe Illustrator 24.1.3, SVG Export Plug-In . SVG Version: 6.00 Build 0)  -->
<svg version="1.1" id="Layer_1" xmlns="http://www.w3.org/2000/svg" xmlns:xlink="http://www.w3.org/1999/xlink" x="0px" y="0px"
	 viewBox="0 0 483.1 186.9" style="enable-background:new 0 0 483.1 186.9;" xml:space="preserve">
<style type="text/css">
	.st0{fill:#FFFFFF;}
	.st1{enable-background:new    ;}
</style>
<g id="Layer_2_1_">
	<g id="Layer_1-2">
		<path class="st0" d="M180.4,61.3c-4-11.4-10-21.9-17.9-31c-5.2-6-12.8-9.5-20.7-9.5c-0.8,0-1.5,0-2.3,0.1
			c-1.1,0.1-2.1,0.7-2.8,1.6s-0.9,2.1-0.6,3.2c0.2,0.9,0.5,1.8,0.7,2.6c0.4,1.2,0.8,2.5,1.2,3.8c0.5,1.7,2,2.8,3.7,2.8
			c3.9,0,7.5,1.7,10.1,4.6c3.3,3.8,6.3,8,8.9,12.4c2.5,4.4,4.7,9.1,6.4,13.9c1.5,4.2,0.7,9-2,12.5c-0.5,0.6-1,1.2-1.6,1.7l-0.6,0.6
			c-0.8,0.7-1.6,1.5-2.4,2.3c-1.5,1.4-3,2.9-4.4,4.4s-2.6,2.8-3.8,4.1c-0.7,0.8-1.4,1.6-2.2,2.6s-1.5,1.8-2.2,2.6
			c-9.8,12-17.7,25.4-23.5,39.7c-0.4,1-0.4,2.2,0.2,3.2c0.5,1,1.4,1.7,2.5,2l1.7,0.4c1.4,0.4,2.9,0.8,4.4,1.1
			c1.9,0.5,3.9-0.5,4.6-2.3c2.4-5.8,5.1-11.4,8.2-16.8c3.5-6.1,7.5-11.9,11.9-17.4c0.8-1,1.5-1.8,2.1-2.6s1.4-1.6,2.1-2.5
			c1.3-1.5,2.6-2.9,4-4.4s2.7-2.8,4-4c0.8-0.8,1.6-1.6,2.4-2.3l0.2-0.2l0.2-0.2C181,83.2,183.9,71.7,180.4,61.3L180.4,61.3z"/>
		<path class="st0" d="M125.9,164.7c-0.9-0.2-1.8-0.5-2.7-0.7c-1.2-0.3-2.5-0.6-3.7-0.9c-0.3-0.1-0.6-0.1-0.9-0.1
			c-1.4,0-2.8,0.8-3.5,2c-1.9,3.3-5.1,5.6-8.8,6.3c-5,1-10.2,1.5-15.3,1.5c-5.1,0-10.3-0.5-15.3-1.5c-4.4-0.8-8.1-3.8-9.8-8
			c-0.3-0.7-0.5-1.5-0.7-2.2l-0.2-0.8c-0.2-1-0.5-2.1-0.8-3.3c-0.5-2-1-4.1-1.6-6.1c-0.5-1.7-1.1-3.5-1.7-5.3
			c-0.3-1-0.7-2.1-1.1-3.2s-0.8-2.1-1.2-3.2c-2.9-7.7-6.5-15.2-10.6-22.3c-3.6-6.2-7.6-12.2-12-17.8c-1.3-1.7-3.7-2-5.4-0.7
			c-0.2,0.1-0.3,0.3-0.4,0.4l-1.3,1.3c-1,1.1-2.1,2.2-3.2,3.2c-1.4,1.4-1.5,3.6-0.3,5.1c3.8,4.9,7.3,10.1,10.4,15.5
			c3.5,6.1,6.6,12.4,9.1,19c0.5,1.2,0.8,2.2,1.2,3.1s0.7,2,1.1,3.1c0.7,1.8,1.2,3.7,1.8,5.7c0.5,1.8,1,3.7,1.5,5.5
			c0.3,1.1,0.5,2.2,0.8,3.2l0.1,0.2v0.2c0.2,1,0.5,1.9,0.8,2.9c3.1,9.4,11.1,16.3,20.8,18.1c11.9,2.3,24.1,2.3,36,0
			c8.5-1.7,15.7-7.3,19.4-15.1c0.9-1.9,0.1-4.2-1.8-5.2C126.3,164.9,126.1,164.8,125.9,164.7L125.9,164.7z"/>
		<path class="st0" d="M14.8,66c3.4-9.8,8.6-18.8,15.3-26.6c2.5-2.8,6.1-4.5,9.9-4.5c1.4,0,2.8,0.2,4.1,0.6l0.4,0.1l0.4,0.1
			c1.1,0.3,2.2,0.7,3.2,1c2,0.6,4,1.1,6.1,1.6c1.8,0.5,3.7,0.9,5.5,1.2c1.1,0.2,2.2,0.5,3.3,0.7s2.3,0.4,3.3,0.6
			c8.1,1.3,16.4,2,24.6,2c7.2,0,14.4-0.5,21.5-1.5c2.1-0.3,3.6-2.2,3.3-4.3c0-0.2-0.1-0.4-0.1-0.6c-0.2-0.6-0.3-1.1-0.5-1.7
			c-0.4-1.5-0.8-2.9-1.2-4.4c-0.4-1.7-2-2.9-3.8-2.9c-0.2,0-0.3,0-0.5,0c-6.2,0.8-12.4,1.2-18.7,1.2c-7,0-14-0.5-21-1.6
			c-1.2-0.2-2.2-0.4-3.3-0.5c-1.2-0.2-2.2-0.4-3.2-0.6c-1.9-0.4-3.8-0.8-5.8-1.3s-3.7-1-5.5-1.5c-1.2-0.3-2.2-0.6-3.2-1L48.5,22
			h-0.1c-0.9-0.3-1.9-0.6-2.8-0.8c-9.6-2-19.5,1.4-26,8.8c-7.9,9.1-14.1,19.7-18,31.2c-2.9,8.2-1.7,17.3,3.2,24.5
			c0.7,1,1.9,1.7,3.2,1.7c1,0,2-0.4,2.7-1.1c0.6-0.7,1.3-1.3,1.9-2c0.9-0.9,1.8-1.9,2.6-2.8c1.2-1.3,1.4-3.2,0.5-4.8
			C13.9,73.5,13.6,69.6,14.8,66z"/>
		<path class="st0" d="M178.2,122.5c-3.8,11.2-9.8,21.5-17.6,30.4c-4.7,5.4-11.6,8.5-18.8,8.5c-1.1,0-2.2-0.1-3.3-0.2
			c-1.5-0.2-3-0.5-4.4-1l-0.5-0.2c-1.1-0.4-2.2-0.7-3.2-1c-1.9-0.6-3.8-1.1-5.6-1.5s-4-0.9-5.9-1.3c-1-0.2-2.1-0.4-3.3-0.6
			s-2.1-0.4-3.3-0.6c-13.4-2-26.9-2.1-40.3-0.3h-0.2c-0.7,0-1.3-0.5-1.5-1.1c-0.4-1.4-0.8-2.9-1.2-4.4c-0.2-0.6-0.3-1.1-0.5-1.7
			c-0.1-0.4-0.1-0.9,0.2-1.2c0.2-0.4,0.6-0.6,1.1-0.7c15.1-2.1,30.4-2,45.4,0.5c1.1,0.2,2.1,0.4,3.3,0.6s2.2,0.4,3.3,0.6
			c1.8,0.4,3.6,0.8,5.4,1.2c2.1,0.5,4.1,1.1,6,1.6c1,0.3,2.1,0.6,3.2,1l0.8,0.2c1.5,0.5,3.2,0.7,4.8,0.8c4.5,0,8.7-1.9,11.7-5.3
			c7-8,12.3-17.3,15.8-27.3c1.5-4.3,1-9.1-1.3-13c-0.3-0.6-0.2-1.3,0.2-1.8c0.9-1,1.8-1.9,2.7-2.9c0.6-0.7,1.2-1.3,1.9-1.9
			c0.3-0.3,0.7-0.4,1.1-0.4c0.5,0,1,0.3,1.3,0.7C179.7,106.7,180.8,115,178.2,122.5z"/>
		<path class="st0" d="M55.4,47.4c-2.6,6.6-5.8,12.9-9.3,19.1c-4.1,7-8.7,13.7-13.8,20c-0.7,0.8-1.4,1.7-2.1,2.6s-1.4,1.7-2.2,2.5
			c-1.2,1.4-2.5,2.8-3.7,4c-1.4,1.5-2.9,3-4.4,4.4c-0.8,0.8-1.6,1.5-2.4,2.3l-0.6,0.6c-0.7,0.6-1.3,1.3-1.8,2
			c-3.3,4.2-4.2,9.7-2.4,14.7c3.5,9.9,8.8,19.1,15.7,27.1c3,3.5,7.3,5.5,11.8,5.5c0.7,0,1.3,0.5,1.5,1.1c0.4,1.2,0.8,2.5,1.1,3.7
			c0.3,0.9,0.5,1.7,0.7,2.6c0.1,0.4,0,0.9-0.2,1.3c-0.2,0.4-0.6,0.6-1.1,0.6c-0.7,0.1-1.4,0.1-2.1,0.1c-7.3,0-14.2-3.2-19-8.7
			c-7.7-8.9-13.6-19.1-17.4-30.2c-3-8.6-1.1-18.1,4.9-24.8c0.6-0.7,1.3-1.3,1.9-1.9l0.2-0.2l0.2-0.2c0.8-0.8,1.6-1.5,2.4-2.3
			c1.3-1.3,2.7-2.7,4.1-4.1s2.8-2.9,4.1-4.4c0.8-0.9,1.5-1.7,2.2-2.6s1.5-1.8,2.1-2.6c4.5-5.6,8.6-11.5,12.1-17.7
			c3.2-5.5,6-11.2,8.4-17.1c0.2-0.6,0.8-1,1.4-1c0.1,0,0.3,0,0.4,0c1.5,0.4,3,0.8,4.4,1.2l1.8,0.4c0.4,0.1,0.8,0.4,1,0.8
			C55.6,46.5,55.6,47,55.4,47.4z"/>
		<path class="st0" d="M154.4,79.6c-1.1,1.1-2.1,2.1-3.2,3.2c-0.4,0.4-0.8,0.9-1.2,1.3c-0.3,0.3-0.7,0.5-1.1,0.5
			c-0.5,0-0.9-0.2-1.2-0.6c-4.4-5.6-8.3-11.4-11.9-17.6c-4.1-7-7.6-14.4-10.4-22c-0.4-1-0.8-2-1.1-3.1s-0.8-2.2-1.1-3.2
			c-0.6-1.8-1.1-3.5-1.6-5.2c-0.6-2-1.1-4-1.6-6c-0.2-1-0.5-2-0.8-3.2c0-0.2-0.1-0.3-0.1-0.5l-0.1-0.3c-0.2-0.9-0.5-1.8-0.8-2.6
			c-2-4.9-6.3-8.4-11.5-9.4c-10.4-2-21.1-2-31.6,0c-4.4,0.9-8.2,3.6-10.4,7.6c-0.3,0.5-0.8,0.8-1.3,0.8c-0.1,0-0.2,0-0.3,0
			c-1.3-0.3-2.6-0.6-3.8-0.9c-0.9-0.2-1.8-0.4-2.6-0.7c-0.4-0.1-0.8-0.4-1-0.8s-0.2-0.9,0-1.3c3.4-7.2,10-12.3,17.7-13.8
			c11.6-2.2,23.5-2.2,35.1,0c9.8,1.9,17.6,9.5,19.7,19.3l0.1,0.2v0.2c0.2,1,0.5,2.1,0.8,3.3c0.5,1.9,1,3.8,1.5,5.6
			c0.6,2,1.2,3.9,1.8,5.8c0.4,1.1,0.7,2.1,1.1,3.2s0.8,2.1,1.2,3.2c2.6,6.7,5.7,13.1,9.3,19.3c3.2,5.5,6.7,10.8,10.6,15.8
			C154.9,78.2,154.9,79,154.4,79.6z"/>
		<g class="st1">
			<path class="st0" d="M229.5,11.8h3.2v14.1h-4c-1.3-6.1-4.9-10.5-11.5-10.5c-5.2,0-7.3,1.3-7.3,5c0,8.4,25,2.1,25,17.8
				c0,8.9-6.9,11.8-14.8,11.8c-4.2,0-8.4-1.8-11.6-4.4l-1.2,3.3h-3.8V33.8h4.1c0.8,7.5,5.4,11.5,13.3,11.5c4.9,0,7.3-2.3,7.3-5
				c0-9.6-25-2.4-25-18.4c0-7.9,7.1-11.3,13.9-11.3c4.3,0,7.8,2,10.6,3.9L229.5,11.8z"/>
		</g>
		<g class="st1">
			<path class="st0" d="M271,11.2h4v15.3h-4.1c-0.7-6.1-3.9-11.1-10.6-11.1c-8.2,0-10.3,7.5-10.3,14.8c0,7.2,2.2,14.9,10.3,14.9
				c6.4,0,9.5-4.5,10.1-10.4h4.8c-0.7,9.7-6.3,15.2-16.1,15.2c-11.8,0-17.9-8.3-17.9-20.2c0-10.5,6.9-19.2,18.6-19.2
				c3.6,0,7.7,1.7,10.2,4.1L271,11.2z"/>
		</g>
		<g class="st1">
			<path class="st0" d="M281.4,48.9v-4.1h2.8c2.3,0,3.2-0.6,3.2-2V18.5c0-1.4-0.7-2.5-2.9-2.5h-3.1v-4.1h19.8V16h-2.5
				c-1.8,0-3.5,0.6-3.5,2.7V42c0,1.8,0.8,2.7,2.7,2.7h3.2v4.1h-19.7V48.9z"/>
		</g>
		<g class="st1">
			<path class="st0" d="M307.1,48.9v-4.1h3.1c1.9,0,3-0.6,3-3.9V19.1c0-2.4-0.7-3.1-3.6-3.1h-2.5v-4.1h37v14.8H340
				c-0.8-7.6-1.5-10.6-9-10.6h-10v11.6h3c3.4,0,4.9-1.7,4.9-6.2v-0.7h4.1v18.7h-4.1V38c0-4.5-1.5-6.3-4.9-6.3h-3v13h11.2
				c5.2,0,7.2-3.2,7.7-11.5h4.1v15.7H307.1z"/>
		</g>
		<g class="st1">
			<path class="st0" d="M363.3,18.9h-0.1v23.7c0,1.3,0.8,2.2,2.3,2.2h4.2v4.1h-18.5v-4.1h3.9c1.7,0,2.3-0.9,2.3-2.2V18
				c0-1.5-0.6-2-2.3-2h-3.9v-4.1h16.5L384,38.6h0.1v-20c0-1.7-0.9-2.6-2.9-2.6h-3.4v-4.1H396V16h-3.3c-2,0-2.8,0.8-2.8,2v31h-8.3
				L363.3,18.9z"/>
		</g>
		<g class="st1">
			<path class="st0" d="M430,11.2h4v15.3h-4.1c-0.7-6.1-3.9-11.1-10.6-11.1C411,15.5,409,23,409,30.3c0,7.2,2.2,14.9,10.3,14.9
				c6.4,0,9.5-4.5,10.1-10.4h4.8c-0.7,9.7-6.3,15.2-16.1,15.2c-11.8,0-17.9-8.3-17.9-20.2c0-10.5,6.9-19.2,18.6-19.2
				c3.6,0,7.7,1.7,10.2,4.1L430,11.2z"/>
		</g>
		<g class="st1">
			<path class="st0" d="M440.4,48.9v-4.1h3.1c1.9,0,3-0.6,3-3.9V19.1c0-2.4-0.7-3.1-3.6-3.1h-2.5v-4.1h37v14.8h-4.1
				c-0.8-7.6-1.5-10.6-9-10.6h-9.9v11.6h3c3.4,0,4.9-1.7,4.9-6.2v-0.7h4.1v18.7h-4.1V38c0-4.5-1.5-6.3-4.9-6.3h-3v13h11.2
				c5.2,0,7.2-3.2,7.7-11.5h4.1v15.7H440.4z"/>
		</g>
		<g class="st1">
			<path class="st0" d="M202.8,106.9v-4.1h3.7c1.7,0,2.3-0.6,2.3-2V76c0-1.5-0.6-2-2.3-2h-3.7v-4.1h20.4V74h-4.3
				c-1.7,0-2.3,0.6-2.3,2v9.9H233V76c0-1.5-0.6-2-2.3-2h-4.3v-4.1h20.4V74h-3.7c-1.7,0-2.3,0.6-2.3,2v24.8c0,1.5,0.6,2,2.3,2h3.7
				v4.1h-20.4v-4.1h4.3c1.7,0,2.3-0.6,2.3-2V90h-16.4v10.8c0,1.5,0.6,2,2.3,2h4.3v4.1H202.8z"/>
		</g>
		<g class="st1">
			<path class="st0" d="M252.9,106.9v-4.1h2.8c2.3,0,3.2-0.6,3.2-2V76.5c0-1.4-0.7-2.5-2.9-2.5h-3.1v-4.1h19.8V74h-2.5
				c-1.8,0-3.5,0.6-3.5,2.7V100c0,1.8,0.8,2.7,2.7,2.7h3.2v4.1h-19.7L252.9,106.9L252.9,106.9z"/>
		</g>
		<g class="st1">
			<path class="st0" d="M305.1,69.8h3.2v14.1h-4c-1.3-6.1-4.9-10.5-11.5-10.5c-5.2,0-7.3,1.3-7.3,5c0,8.4,25,2.1,25,17.8
				c0,8.9-6.9,11.8-14.8,11.8c-4.2,0-8.4-1.8-11.6-4.4l-1.2,3.3H279V91.8h4.1c0.8,7.5,5.4,11.5,13.3,11.5c4.9,0,7.3-2.3,7.3-5
				c0-9.6-25-2.4-25-18.4c0-7.9,7.1-11.3,13.9-11.3c4.3,0,7.8,2,10.6,3.9L305.1,69.8z"/>
		</g>
		<g class="st1">
			<path class="st0" d="M350,69.8v15.3h-4.1v-2.5c0-5.9-3.1-8.6-9.3-8.6v26.8c0,1.5,0.6,2,2.3,2h4.3v4.1h-20.9v-4.1h4.3
				c1.7,0,2.3-0.6,2.3-2V73.9c-6.2,0-9.3,2.7-9.3,8.6V85h-4.1V69.8H350z"/>
		</g>
		<g class="st1">
			<path class="st0" d="M396.7,88.4c0,11.1-8.1,19.7-20.2,19.7s-20.2-8.5-20.2-19.7c0-11.1,8.1-19.7,20.2-19.7
				S396.7,77.3,396.7,88.4z M365,88.4c0,8,2.6,15.3,11.6,15.3c8.8,0,11.3-7.3,11.3-15.3s-2.4-15.3-11.4-15.3
				C367.6,73.1,365,80.4,365,88.4z"/>
		</g>
		<g class="st1">
			<path class="st0" d="M399.6,106.9v-4.1h3.9c1.7,0,2.3-0.6,2.3-2V76c0-1.5-0.6-2-2.3-2h-3.9v-4.1H424c8.1,0,11.9,3.2,11.9,9.3
				c0,5.8-4.9,8.6-10.5,9.1v0.1c5.9,0.7,7.2,3.3,7.2,7.7c0,5.9,1.3,6.8,2.3,6.8c1.3,0,1.9-1.2,1.9-4.5v-1.7h3.7v1.7
				c0,7.2-3.1,9.7-7.7,9.7c-5.5,0-7.2-3-7.2-7.6c0-9-2-10.9-8.6-10.9h-3.3v11.3c0,1.5,0.6,2,2.3,2h4.1v4.1L399.6,106.9L399.6,106.9z
				 M413.6,85.4h6.6c6,0,7.8-2,7.8-6.1c0-3.5-2.3-5.4-7.2-5.4h-7.2L413.6,85.4L413.6,85.4z"/>
		</g>
		<g class="st1">
			<path class="st0" d="M461.9,69.8v4.1h-4c-1,0-1.3,0.6-1.3,1.3c0,0.4,0.2,0.9,0.5,1.3l6.4,9.4l6.9-9.4c0.3-0.4,0.5-0.9,0.5-1.3
				c0-0.7-0.4-1.3-1.3-1.3h-4.1v-4.1h17.8v4.1h-1c-2,0-3.4,0.5-4.3,1.8l-11.7,15.9v8.8c0,1.2,0.6,2.3,2.2,2.3h4.8v4.1h-21.8v-4.1
				h4.6c1.7,0,2.3-0.6,2.3-2v-9.4l-11-15.5c-1-1.4-2.4-2-4.3-2h-0.9v-4.1L461.9,69.8L461.9,69.8z"/>
		</g>
		<g class="st1">
			<path class="st0" d="M214.2,158.9c0,1.3,1.3,1.9,2.5,1.9h3.5v4.1h-17.5v-4.1h3.3c1.8,0,2.4-0.6,2.4-1.9v-25
				c0-1.3-0.9-1.9-2.2-1.9h-3.5v-4.1h17.6l7.6,24.2h0.1l8.5-24.2h16.9v4.1h-3.8c-1.3,0-2.2,0.6-2.2,1.9v24.2c0,1.8,0.8,2.7,2.4,2.7
				h3.5v4.1h-19.4v-4.1h3.7c1.5,0,2.4-0.8,2.4-1.9v-25.5h-0.1l-10.7,31.5h-4.6l-10.2-31.5h-0.1L214.2,158.9L214.2,158.9z"/>
		</g>
		<g class="st1">
			<path class="st0" d="M258.3,127.8h19.9v4.1h-2.6c-2.9,0-3.4,0.7-3.4,2.2v20.7c0,3.9,2.9,5.9,7.7,5.9c4.7,0,8-2.1,8-7.6V135
				c0-2.2-0.8-3.1-3.4-3.1h-2.6v-4.1h17.8v4.1h-3.1c-2.4,0-2.9,0.7-2.9,3.1v18.6c0,9.9-7.3,12.4-14.6,12.4
				c-7.3,0-14.7-2.6-14.7-11.2v-20.6c0-1.7-1.3-2.3-3.8-2.3h-2.4v-4.1C258.2,127.8,258.3,127.8,258.3,127.8z"/>
		</g>
		<g class="st1">
			<path class="st0" d="M331,127.8h3.2v14.1h-4c-1.3-6.1-4.9-10.5-11.5-10.5c-5.2,0-7.3,1.3-7.3,5c0,8.4,25,2.1,25,17.8
				c0,8.9-6.9,11.8-14.8,11.8c-4.2,0-8.4-1.8-11.6-4.4l-1.2,3.3H305v-15.2h4.1c0.8,7.5,5.4,11.5,13.3,11.5c4.9,0,7.3-2.3,7.3-5
				c0-9.6-25-2.4-25-18.4c0-7.9,7.1-11.3,13.9-11.3c4.3,0,7.8,2,10.6,3.9L331,127.8z"/>
		</g>
		<g class="st1">
			<path class="st0" d="M341.5,164.9v-4.1h3.1c1.9,0,3-0.6,3-3.9v-21.8c0-2.4-0.7-3.1-3.6-3.1h-2.5v-4.1h37v14.8h-4.1
				c-0.8-7.6-1.5-10.6-9-10.6h-9.9v11.6h3c3.4,0,4.9-1.7,4.9-6.2v-0.7h4.1v18.7h-4.1V154c0-4.5-1.5-6.3-4.9-6.3h-3v13h11.2
				c5.2,0,7.2-3.2,7.7-11.5h4.1v15.7H341.5z"/>
		</g>
		<g class="st1">
			<path class="st0" d="M385,127.8h20v4.1h-2.6c-2.9,0-3.4,0.7-3.4,2.2v20.7c0,3.9,2.9,5.9,7.7,5.9c4.7,0,8-2.1,8-7.6V135
				c0-2.2-0.8-3.1-3.4-3.1h-2.6v-4.1h17.8v4.1h-3.1c-2.4,0-2.9,0.7-2.9,3.1v18.6c0,9.9-7.3,12.4-14.6,12.4
				c-7.3,0-14.7-2.6-14.7-11.2v-20.6c0-1.7-1.3-2.3-3.8-2.3H385V127.8z"/>
		</g>
		<g class="st1">
			<path class="st0" d="M443,158.9c0,1.3,1.3,1.9,2.5,1.9h3.5v4.1h-17.5v-4.1h3.3c1.8,0,2.4-0.6,2.4-1.9v-25c0-1.3-0.9-1.9-2.2-1.9
				h-3.5v-4.1h17.6l7.6,24.2h0.1l8.5-24.2h16.9v4.1h-3.8c-1.3,0-2.2,0.6-2.2,1.9v24.2c0,1.8,0.8,2.7,2.4,2.7h3.5v4.1h-19.4v-4.1h3.7
				c1.5,0,2.4-0.8,2.4-1.9v-25.5h-0.1L458,164.9h-4.6l-10.2-31.5H443V158.9z"/>
		</g>
	</g>
</g>
</svg>
