<svg width="64" height="64" viewBox="0 0 64 64" fill="none" xmlns="http://www.w3.org/2000/svg">
<mask id="mask0_2971_1623" style="mask-type:alpha" maskUnits="userSpaceOnUse" x="0" y="0" width="64" height="64">
<rect width="64" height="64" rx="8" fill="#C4C4C4"/>
</mask>
<g mask="url(#mask0_2971_1623)">
</g>
<path fill-rule="evenodd" clip-rule="evenodd" d="M34 13.5V38.4072H12V13.5H34ZM24.6546 26.1146C24.2158 26.5535 23.6206 26.8 23 26.8C22.3794 26.8 21.7842 26.5535 21.3454 26.1146C20.9065 25.6758 20.66 25.0806 20.66 24.46C20.66 23.8394 20.9065 23.2442 21.3454 22.8054C21.7842 22.3665 22.3794 22.12 23 22.12C23.6206 22.12 24.2158 22.3665 24.6546 22.8054C25.0935 23.2442 25.34 23.8394 25.34 24.46C25.34 25.0806 25.0935 25.6758 24.6546 26.1146ZM26.2951 27.7951C25.4212 28.669 24.2359 29.16 23 29.16C21.7641 29.16 20.5788 28.669 19.7049 27.7951C18.831 26.9212 18.34 25.7359 18.34 24.5C18.34 23.2641 18.831 22.0788 19.7049 21.2049C20.5788 20.331 21.7641 19.84 23 19.84C24.2359 19.84 25.4212 20.331 26.2951 21.2049C27.169 22.0788 27.66 23.2641 27.66 24.5C27.66 25.7359 27.169 26.9212 26.2951 27.7951ZM27.9497 29.4497C29.2625 28.137 30 26.3565 30 24.5C30 22.6435 29.2625 20.863 27.9497 19.5503C26.637 18.2375 24.8565 17.5 23 17.5C21.1435 17.5 19.363 18.2375 18.0503 19.5503C16.7375 20.863 16 22.6435 16 24.5C16 26.3565 16.7375 28.137 18.0503 29.4497C19.363 30.7625 21.1435 31.5 23 31.5C24.8565 31.5 26.637 30.7625 27.9497 29.4497Z" fill="#CC0000"/>
<path fill-rule="evenodd" clip-rule="evenodd" d="M12 52.5H25.7605V35.5H12V52.5Z" fill="#CC0000"/>
<path fill-rule="evenodd" clip-rule="evenodd" d="M26.5 52.5H20.5V35.5H51.5V52.5H45.5V42.5H40.5V52.5H38.5V42.5H33.5V52.5H31.5V42.5H26.5V52.5Z" fill="#720000"/>
</svg>
