<svg width="64" height="64" viewBox="0 0 64 64" fill="none" xmlns="http://www.w3.org/2000/svg">
<mask id="mask0_2971_1621" style="mask-type:alpha" maskUnits="userSpaceOnUse" x="0" y="0" width="64" height="64">
<rect width="64" height="64" rx="8" fill="#C4C4C4"/>
</mask>
<g mask="url(#mask0_2971_1621)">
</g>
<path fill-rule="evenodd" clip-rule="evenodd" d="M14.9004 44.7202C15.8004 45.5802 17.1204 45.9602 19.2404 45.9602H23.1004V50.6802C23.0204 51.6802 21.2204 52.5002 19.0004 52.5002C16.8004 52.5002 15.0004 51.7002 14.9204 50.7002L14.9004 50.6802V44.7202ZM49.1204 44.7202V50.6802H49.1004C49.0204 51.7002 47.2204 52.5002 45.0204 52.5002C42.8004 52.5002 41.0204 51.7002 40.9404 50.7002L40.9204 50.6802V45.9602H44.7804C46.9004 45.9602 48.2204 45.5602 49.1204 44.7202V44.7202Z" fill="#333333"/>
<path fill-rule="evenodd" clip-rule="evenodd" d="M46.6 19.52C40.2 15.96 23.8 15.96 17.4 19.52L15.4 26.2H10V27.72C10 29.24 11.24 30.48 12.78 30.48H13.44C11.14 35.96 12.16 44.72 14.9 46.56H49.1C51.58 44.72 52.88 35.98 50.58 30.48H51.24C52.76 30.48 54 29.24 54 27.72V26.2H48.6L46.6 19.52ZM47.3 15.12C40.46 11.32 23.56 11.32 16.7 15.12L17.06 15.74C17.3357 16.2413 17.7815 16.6276 18.3168 16.8293C18.8522 17.031 19.4421 17.0348 19.98 16.84C26.3 14.64 37.64 14.64 44.02 16.84C45.14 17.24 46.38 16.78 46.94 15.72L47.3 15.12ZM19.6592 42.5801C18.0992 36.8601 18.5192 27.4601 20.9992 21.9801H20.9792C25.0992 19.9201 38.7392 19.9801 43.0192 21.9801C45.3592 27.4601 46.1992 36.6401 44.3592 42.5801H19.6592Z" fill="#CC0000"/>
<path fill-rule="evenodd" clip-rule="evenodd" d="M16.0803 33.5602C16.5803 33.2602 17.2203 33.6402 17.1803 34.2202C17.0603 35.6002 16.9803 38.0202 17.3803 40.6202C17.3977 40.771 17.3783 40.9238 17.3237 41.0655C17.2692 41.2071 17.1812 41.3335 17.0672 41.4337C16.9532 41.534 16.8166 41.6051 16.6691 41.6411C16.5216 41.677 16.3676 41.6767 16.2203 41.6402C13.1803 40.8202 14.3403 34.6402 16.0803 33.5602V33.5602ZM46.8403 34.2202C46.8336 34.0908 46.862 33.9619 46.9225 33.8473C46.983 33.7326 47.0733 33.6364 47.1839 33.5688C47.2945 33.5012 47.4213 33.4648 47.5509 33.4632C47.6805 33.4617 47.8081 33.4952 47.9203 33.5602C49.6603 34.6402 50.8203 40.8202 47.7803 41.6402C47.6306 41.6831 47.4726 41.6872 47.3209 41.6524C47.1692 41.6175 47.0288 41.5447 46.9129 41.4408C46.797 41.3368 46.7094 41.2052 46.6582 41.0582C46.607 40.9112 46.594 40.7536 46.6203 40.6002C47.0203 38.0402 46.9403 35.6002 46.8203 34.2202H46.8403Z" fill="#7F0000"/>
<path fill-rule="evenodd" clip-rule="evenodd" d="M42.3598 25.1401C43.5998 30.0401 43.8598 35.7202 42.9998 40.8401H21.0198C20.1674 35.6175 20.3852 30.2761 21.6598 25.1401L23.3198 24.9201C23.3198 24.9201 24.1598 22.5201 26.8798 22.3201C29.8398 22.0801 30.7998 24.4001 30.7998 24.4001H33.1998C33.5969 23.7156 34.1793 23.1571 34.8799 22.7891C35.5805 22.4211 36.3708 22.2586 37.1598 22.3201C39.9198 22.5201 40.6798 24.9401 40.6798 24.9401C40.9892 24.9631 41.3052 25.0057 41.6278 25.0492C41.8682 25.0816 42.1122 25.1145 42.3598 25.1401ZM35.44 27.1401C34.411 26.4882 33.2182 26.1414 32 26.1401C30.7821 26.1436 29.5899 26.4902 28.56 27.1401L28.28 27.3001C27.1457 28.0918 26.2935 29.2246 25.8474 30.5339C25.4012 31.8432 25.3844 33.2607 25.7993 34.5802C26.2142 35.8997 27.0393 37.0525 28.1545 37.8708C29.2696 38.6891 30.6168 39.1304 32 39.1304C33.3832 39.1304 34.7304 38.6891 35.8455 37.8708C36.9607 37.0525 37.7857 35.8997 38.2007 34.5802C38.6156 33.2607 38.5988 31.8432 38.1526 30.5339C37.7065 29.2246 36.8543 28.0918 35.72 27.3001L35.44 27.1401ZM31.96 28.3201H32.04C33.1822 28.3307 34.2738 28.7932 35.0758 29.6065C35.8779 30.4198 36.3252 31.5177 36.32 32.66C36.3147 33.8022 35.8572 34.8959 35.0476 35.7017C34.238 36.5076 33.1423 36.96 32 36.96C30.8577 36.96 29.762 36.5076 28.9524 35.7017C28.1428 34.8959 27.6853 33.8022 27.68 32.66C27.6748 31.5177 28.1221 30.4198 28.9242 29.6065C29.7262 28.7932 30.8178 28.3307 31.96 28.3201ZM33.5839 31.0162C33.1638 30.5961 32.5941 30.3601 32 30.3601C31.4059 30.3601 30.8362 30.5961 30.4161 31.0162C29.996 31.4363 29.76 32.0061 29.76 32.6001C29.76 33.1942 29.996 33.764 30.4161 34.1841C30.8362 34.6041 31.4059 34.8401 32 34.8401C32.5941 34.8401 33.1638 34.6041 33.5839 34.1841C34.004 33.764 34.24 33.1942 34.24 32.6001C34.24 32.0061 34.004 31.4363 33.5839 31.0162Z" fill="#333333"/>
</svg>
