<svg width="64" height="64" viewBox="0 0 64 64" fill="none" xmlns="http://www.w3.org/2000/svg">
<path d="M34.666 23.9998L29.3327 23.9998L29.3327 18.6665L34.666 18.6665L34.666 23.9998ZM34.666 45.3332L29.3327 45.3332L29.3327 29.3332L34.666 29.3332L34.666 45.3332ZM32.026 58.6665C46.746 58.6665 58.666 46.7198 58.666 31.9998C58.666 17.2798 46.746 5.33317 32.026 5.33317C17.2794 5.33317 5.33268 17.2798 5.33268 31.9998C5.33268 46.7198 17.2793 58.6665 32.026 58.6665ZM31.9994 10.6665C43.786 10.6665 53.3327 20.2132 53.3327 31.9998C53.3327 43.7865 43.786 53.3332 31.9993 53.3332C20.2127 53.3332 10.666 43.7865 10.666 31.9998C10.666 20.2132 20.2127 10.6665 31.9994 10.6665Z" fill="black"/>
</svg>
