<svg width="64" height="64" viewBox="0 0 64 64" fill="none" xmlns="http://www.w3.org/2000/svg">
<g clip-path="url(#clip0_1133_48125)">
<path d="M29.334 48.0002H34.6673V42.6668H29.334V48.0002ZM32.0007 5.3335C17.2807 5.3335 5.33398 17.2802 5.33398 32.0002C5.33398 46.7202 17.2807 58.6668 32.0007 58.6668C46.7207 58.6668 58.6673 46.7202 58.6673 32.0002C58.6673 17.2802 46.7207 5.3335 32.0007 5.3335ZM32.0007 53.3335C20.2407 53.3335 10.6673 43.7602 10.6673 32.0002C10.6673 20.2402 20.2407 10.6668 32.0007 10.6668C43.7607 10.6668 53.334 20.2402 53.334 32.0002C53.334 43.7602 43.7607 53.3335 32.0007 53.3335ZM32.0007 16.0002C26.1073 16.0002 21.334 20.7735 21.334 26.6668H26.6673C26.6673 23.7335 29.0673 21.3335 32.0007 21.3335C34.934 21.3335 37.334 23.7335 37.334 26.6668C37.334 32.0002 29.334 31.3335 29.334 40.0002H34.6673C34.6673 34.0002 42.6673 33.3335 42.6673 26.6668C42.6673 20.7735 37.894 16.0002 32.0007 16.0002Z" fill="black"/>
</g>
<defs>
<clipPath id="clip0_1133_48125">
<rect width="64" height="64" fill="white"/>
</clipPath>
</defs>
</svg>
