<svg width="64" height="64" viewBox="0 0 64 64" fill="none" xmlns="http://www.w3.org/2000/svg">
<mask id="mask0_2971_1624" style="mask-type:alpha" maskUnits="userSpaceOnUse" x="0" y="0" width="64" height="64">
<rect width="64" height="64" rx="8" fill="#C4C4C4"/>
</mask>
<g mask="url(#mask0_2971_1624)">
</g>
<mask id="mask1_2971_1624" style="mask-type:alpha" maskUnits="userSpaceOnUse" x="16" y="9" width="32" height="44">
<path d="M36.0002 13H28.0002V16.5H24.5002V13L28.0002 9.5H36.0002L39.5002 13V16.5H47.7402V52.496H16.2402V16.5H36.0002V13Z" fill="white"/>
</mask>
<g mask="url(#mask1_2971_1624)">
<path fill-rule="evenodd" clip-rule="evenodd" d="M28.0002 13H36.0002V16.5H28.0002V13ZM24.5002 13V16.5H16.2402V52.496H47.7402V16.5H39.5002V13L36.0002 9.5H28.0002L24.5002 13ZM34.6514 19.8158C33.8009 19.4662 32.8899 19.2876 31.9704 19.2901H31.9684C30.1113 19.2954 28.3324 20.0382 27.0231 21.355C25.7137 22.6719 24.9811 24.455 24.9864 26.3121C24.9917 28.1691 25.7345 29.948 27.0513 31.2574C28.3682 32.5667 30.1513 33.2994 32.0084 33.2941C32.9279 33.2916 33.8379 33.108 34.6865 32.7538C35.535 32.3996 36.3055 31.8818 36.954 31.2298C37.6024 30.5778 38.1161 29.8045 38.4656 28.9541C38.8152 28.1036 38.9938 27.1926 38.9914 26.2731C38.9889 25.3535 38.8053 24.4435 38.4511 23.595C38.0969 22.7464 37.579 21.9759 36.9271 21.3275C36.2751 20.679 35.5018 20.1654 34.6514 19.8158ZM30.1883 21.9789C30.7542 21.7425 31.3611 21.6199 31.9744 21.6181C33.2129 21.6144 34.4022 22.1028 35.2806 22.976C36.1591 23.8491 36.6546 25.0355 36.6584 26.2741C36.6621 27.5126 36.1736 28.7019 35.3004 29.5804C34.4273 30.4588 33.2409 30.9544 32.0024 30.9581C31.3891 30.9599 30.7815 30.8409 30.2142 30.6079C29.6469 30.375 29.131 30.0325 28.6961 29.6002C28.2611 29.1678 27.9156 28.654 27.6792 28.0881C27.4428 27.5222 27.3202 26.9153 27.3184 26.3021C27.3165 25.6888 27.4355 25.0812 27.6685 24.5139C27.9015 23.9466 28.2439 23.4307 28.6763 22.9958C29.1086 22.5608 29.6224 22.2153 30.1883 21.9789ZM32.9373 24.0362C32.6321 23.9239 32.3072 23.8749 31.9824 23.8921C31.3466 23.8939 30.7377 24.1482 30.2895 24.5991C29.8413 25.0499 29.5905 25.6603 29.5924 26.2961C29.5942 26.9318 29.8485 27.5407 30.2994 27.9889C30.5226 28.2109 30.7874 28.3867 31.0785 28.5063C31.3697 28.6259 31.6816 28.687 31.9964 28.6861C32.3213 28.7013 32.6459 28.6504 32.9505 28.5364C33.2551 28.4224 33.5334 28.2476 33.7684 28.0228C34.0034 27.7979 34.1902 27.5276 34.3175 27.2283C34.4449 26.929 34.5101 26.607 34.5091 26.2817C34.5082 25.9565 34.4411 25.6348 34.312 25.3362C34.1829 25.0377 33.9945 24.7685 33.7582 24.545C33.5219 24.3215 33.2426 24.1484 32.9373 24.0362Z" fill="#CC0000"/>
<path fill-rule="evenodd" clip-rule="evenodd" d="M40.4902 42.7739V52.4999H32.9902V42.7739H40.4902ZM30.9902 42.7739V52.4999H23.4902V42.7739H30.9902ZM31.9922 37.4619C37.1482 37.4619 40.4622 39.4119 40.4902 39.4299V41.2539H23.4922L23.4942 39.4679C23.4942 39.4679 26.8562 37.4619 31.9922 37.4619V37.4619Z" fill="#D6D6D6"/>
<path fill-rule="evenodd" clip-rule="evenodd" d="M31.9882 36.0781C26.5042 36.0781 23.4902 38.0841 23.4902 38.0841V39.4681C23.4902 39.4681 26.5042 37.4621 31.9882 37.4621C37.4702 37.4621 40.4902 39.4321 40.4902 39.4321V38.0501C40.4902 38.0501 37.4702 36.0781 31.9882 36.0781" fill="#7F0000"/>
</g>
</svg>
