<svg width="64" height="64" viewBox="0 0 64 64" fill="none" xmlns="http://www.w3.org/2000/svg">
<mask id="mask0_2971_1622" style="mask-type:alpha" maskUnits="userSpaceOnUse" x="0" y="0" width="64" height="64">
<rect width="64" height="64" rx="8" fill="#C4C4C4"/>
</mask>
<g mask="url(#mask0_2971_1622)">
</g>
<path fill-rule="evenodd" clip-rule="evenodd" d="M18.7596 39.56C18.9507 39.5367 19.1445 39.5542 19.3283 39.6114C19.5121 39.6686 19.6817 39.7641 19.8258 39.8918C19.9699 40.0194 20.0853 40.1761 20.1643 40.3516C20.2434 40.5272 20.2842 40.7175 20.2842 40.91C20.2842 41.1025 20.2434 41.2928 20.1643 41.4683C20.0853 41.6438 19.9699 41.8006 19.8258 41.9282C19.6817 42.0558 19.5121 42.1513 19.3283 42.2085C19.1445 42.2657 18.9507 42.2833 18.7596 42.26H17.0996V39.56H18.7596ZM18.7596 34.14C19.0894 34.1802 19.393 34.3397 19.6132 34.5884C19.8334 34.8371 19.955 35.1578 19.955 35.49C19.955 35.8221 19.8334 36.1428 19.6132 36.3915C19.393 36.6402 19.0894 36.7998 18.7596 36.84H17.0996V34.14H18.7596ZM18.7596 28.72C18.9507 28.6967 19.1445 28.7142 19.3283 28.7714C19.5121 28.8286 19.6817 28.9241 19.8258 29.0518C19.9699 29.1794 20.0853 29.3361 20.1643 29.5116C20.2434 29.6872 20.2842 29.8775 20.2842 30.07C20.2842 30.2625 20.2434 30.4528 20.1643 30.6283C20.0853 30.8038 19.9699 30.9606 19.8258 31.0882C19.6817 31.2158 19.5121 31.3113 19.3283 31.3685C19.1445 31.4257 18.9507 31.4433 18.7596 31.42H17.0996V28.72H18.7596Z" fill="#840000"/>
<path fill-rule="evenodd" clip-rule="evenodd" d="M28.48 16.8398V13.0398H35.52V16.8398H28.48ZM38.78 12.4998L35.52 9.7998H28.48L25.24 12.4998V16.8398H17.1V25.9998H10.5L11.5 28.7198H17.1V31.4198H8.5L9.5 34.1398H17.1V36.8398H13.28L14.28 39.5598H17.1V52.4998H46.9V16.8398H38.78V12.4998ZM39.3016 34.0003C39.3016 29.9677 36.0323 26.6984 32.0003 26.6984C27.9677 26.6984 24.6984 29.9677 24.6984 33.9997C24.6984 38.0323 27.9677 41.3016 31.9997 41.3016C36.0323 41.3016 39.3016 38.0323 39.3016 34.0003ZM33.8399 38.4155C33.2557 38.6515 32.6304 38.7692 32.0003 38.7618H31.9997C30.7465 38.747 29.5497 38.2388 28.6687 37.3474C27.7878 36.456 27.2937 35.2533 27.2937 34C27.2937 32.7467 27.7878 31.544 28.6687 30.6526C29.5497 29.7612 30.7465 29.2529 31.9997 29.2382C32.6297 29.2307 33.255 29.3483 33.8393 29.5842C34.4236 29.8202 34.9552 30.1697 35.4034 30.6126C35.8516 31.0555 36.2075 31.5829 36.4504 32.1643C36.6933 32.7457 36.8184 33.3696 36.8184 33.9997C36.8184 34.6298 36.6934 35.2536 36.4506 35.8351C36.2078 36.4165 35.852 36.944 35.4039 37.387C34.9557 37.8299 34.4241 38.1795 33.8399 38.4155ZM30.3481 35.6526C30.7863 36.0908 31.3806 36.3369 32.0003 36.3369C32.62 36.3369 33.2144 36.0908 33.6526 35.6526C34.0908 35.2144 34.3369 34.62 34.3369 34.0003C34.3369 33.3806 34.0908 32.7863 33.6526 32.3481C33.2144 31.9099 32.62 31.6637 32.0003 31.6637C31.3806 31.6637 30.7863 31.9099 30.3481 32.3481C29.9099 32.7863 29.6637 33.3806 29.6637 34.0003C29.6637 34.62 29.9099 35.2144 30.3481 35.6526Z" fill="#CC0000"/>
</svg>
