<svg width="64" height="64" viewBox="0 0 64 64" fill="none" xmlns="http://www.w3.org/2000/svg">
<mask id="mask0_2971_1625" style="mask-type:alpha" maskUnits="userSpaceOnUse" x="0" y="0" width="64" height="64">
<rect width="64" height="64" rx="8" fill="#C4C4C4"/>
</mask>
<g mask="url(#mask0_2971_1625)">
</g>
<path fill-rule="evenodd" clip-rule="evenodd" d="M10.5 47H26.5V17H10.5V47Z" fill="#B5865E"/>
<path fill-rule="evenodd" clip-rule="evenodd" d="M26.5 47H53.5V17H26.5V47Z" fill="#CEA87F"/>
<path fill-rule="evenodd" clip-rule="evenodd" d="M39.962 34.414C39.3362 34.3886 38.7444 34.1221 38.3106 33.6703C37.8768 33.2185 37.6345 32.6164 37.6345 31.99C37.6345 31.3636 37.8768 30.7615 38.3106 30.3097C38.7444 29.8579 39.3362 29.5914 39.962 29.566C41.272 29.566 42.376 30.67 42.376 32C42.376 33.328 41.272 34.414 39.962 34.414V34.414ZM40.018 27.34C39.4042 27.3366 38.7959 27.4546 38.2279 27.6874C37.66 27.9201 37.1437 28.263 36.7089 28.6961C36.274 29.1293 35.9292 29.6442 35.6943 30.2113C35.4593 30.7783 35.3389 31.3862 35.34 32C35.3392 32.6139 35.4599 33.2218 35.695 33.7889C35.9302 34.3559 36.2752 34.8708 36.7102 35.304C37.1452 35.7371 37.6616 36.0799 38.2296 36.3127C38.7977 36.5454 39.4061 36.6634 40.02 36.66C40.6308 36.6592 41.2354 36.538 41.7993 36.3033C42.3632 36.0686 42.8753 35.725 43.3063 35.2921C43.7373 34.8593 44.0787 34.3458 44.3109 33.7809C44.5432 33.216 44.6618 32.6108 44.66 32C44.6621 31.3891 44.5437 30.7839 44.3115 30.2188C44.0793 29.6538 43.7379 29.1401 43.3069 28.7073C42.8759 28.2744 42.3637 27.9308 41.7997 27.6962C41.2356 27.4616 40.6309 27.3405 40.02 27.34H40.018ZM33 32C33 28.126 36.126 25 40.02 25C40.9381 25.0008 41.847 25.1825 42.6948 25.5348C43.5426 25.8871 44.3127 26.4031 44.9609 27.0532C45.6092 27.7033 46.1229 28.4749 46.4728 29.3237C46.8227 30.1725 47.0018 31.0819 47 32C47 35.874 43.874 39 40.02 39C39.0988 39.0034 38.1861 38.8249 37.3341 38.4745C36.4822 38.1242 35.7078 37.609 35.0556 36.9586C34.4033 36.3082 33.8859 35.5353 33.5331 34.6844C33.1804 33.8334 32.9992 32.9212 33 32" fill="#CC0000"/>
<path fill-rule="evenodd" clip-rule="evenodd" d="M21.5 23L20.75 22.6L20 23L19.25 22.6L18.5 23L17.75 22.6L17 23L16.25 22.6L15.5 23V17H21.5V23ZM15.5 41L16.25 41.4L17 41L17.75 41.4L18.5 41L19.25 41.4L20 41L20.75 41.4L21.5 41V47H15.5V41Z" fill="#CEA87F"/>
</svg>
