<svg width="32" height="32" viewBox="0 0 32 32" fill="none" xmlns="http://www.w3.org/2000/svg">
<path fill-rule="evenodd" clip-rule="evenodd" d="M15.9805 2L2 16.0195L4.67361 18.732L14.075 9.33059L14.075 14.3764L14.5226 14.3764C14.5233 14.4262 14.5293 14.4748 14.5401 14.5215C14.5058 14.5158 14.4706 14.5125 14.4347 14.5125C14.2924 14.5125 14.1612 14.5596 14.0556 14.6389L14.0556 15.65C14.1612 15.7294 14.2924 15.7764 14.4347 15.7764C14.4893 15.7764 14.5424 15.7694 14.593 15.7564C14.5787 15.8092 14.5708 15.8648 14.5708 15.9222C14.5708 16.0045 14.5867 16.083 14.6153 16.1551C14.5585 16.1366 14.4977 16.1264 14.4347 16.1264C14.2899 16.1264 14.1575 16.1793 14.0556 16.2666L14.0556 17.1528C14.1575 17.2401 14.2899 17.293 14.4347 17.293C14.5177 17.293 14.5966 17.2757 14.6681 17.2444C14.6369 17.3159 14.6194 17.3948 14.6194 17.4778C14.6194 17.6056 14.6606 17.7237 14.7303 17.8198C14.6456 17.7635 14.544 17.7305 14.4347 17.7305C14.2865 17.7306 14.1524 17.7909 14.0556 17.8882L14.0556 18.6423C14.1524 18.7397 14.2865 18.8 14.4347 18.8C14.73 18.8 14.9694 18.5606 14.9694 18.2653C14.9694 18.1512 14.9336 18.0456 14.8727 17.9588C14.9666 18.0233 15.0803 18.0611 15.2028 18.0611C15.3342 18.0611 15.4554 18.0177 15.5529 17.9443C15.4857 18.0337 15.4458 18.1448 15.4458 18.2653C15.4458 18.5606 15.6852 18.8 15.9805 18.8C16.2759 18.8 16.5153 18.5606 16.5153 18.2653C16.5153 18.1448 16.4754 18.0337 16.4083 17.9443C16.5058 18.0176 16.627 18.0611 16.7583 18.0611C16.8808 18.0611 16.9946 18.0233 17.0884 17.9588C17.0276 18.0456 16.9917 18.1512 16.9917 18.2653C16.9917 18.5606 17.2311 18.8 17.5264 18.8C17.6468 18.8 17.7579 18.7602 17.8472 18.6931L17.8472 17.8374C17.7579 17.7703 17.6468 17.7305 17.5264 17.7305C17.4171 17.7305 17.3155 17.7635 17.2308 17.8198C17.3005 17.7237 17.3416 17.6056 17.3416 17.4778C17.3416 17.3948 17.3243 17.3159 17.293 17.2444C17.3645 17.2757 17.4434 17.293 17.5264 17.293C17.6449 17.293 17.7552 17.2576 17.8472 17.1969L17.8472 16.2225C17.7552 16.1618 17.6449 16.1264 17.5264 16.1264C17.4634 16.1264 17.4027 16.1366 17.3458 16.1551C17.3744 16.0831 17.3903 16.0045 17.3903 15.9222C17.3903 15.8648 17.3825 15.8092 17.3681 15.7564C17.4187 15.7694 17.4718 15.7764 17.5264 15.7764C17.6435 15.7764 17.7532 15.7444 17.8472 15.6889L17.8472 14.6001C17.7532 14.5445 17.6435 14.5125 17.5264 14.5125C17.4905 14.5125 17.4553 14.5158 17.421 14.5215C17.4319 14.4748 17.438 14.4262 17.4387 14.3764L17.8861 14.3764L17.8861 9.33059L27.2875 18.732L30 16.0195L15.9805 2ZM15.4485 16.9488C15.3738 16.914 15.2906 16.8945 15.2028 16.8945C15.1198 16.8945 15.0409 16.9119 14.9694 16.9432C15.0006 16.8717 15.018 16.7927 15.018 16.7097C15.018 16.6417 15.0063 16.5764 14.9849 16.5156C15.0528 16.5406 15.1262 16.5542 15.2028 16.5542C15.2836 16.5542 15.3609 16.5388 15.432 16.5112C15.4095 16.5731 15.3972 16.64 15.3972 16.7097C15.3972 16.7949 15.4156 16.8758 15.4485 16.9488ZM15.3717 15.3134C15.3179 15.2985 15.2613 15.2903 15.2028 15.2903C15.1481 15.2903 15.0951 15.2974 15.0446 15.3104C15.0589 15.2575 15.0666 15.2019 15.0666 15.1445C15.0666 15.1058 15.063 15.068 15.0564 15.0313C15.1035 15.0416 15.1525 15.0472 15.2028 15.0472C15.2567 15.0472 15.3091 15.0408 15.3594 15.0289C15.3525 15.0664 15.3486 15.105 15.3486 15.1445C15.3486 15.203 15.3568 15.2596 15.3717 15.3134ZM16.2965 17.834C16.208 17.7691 16.0988 17.7305 15.9805 17.7305C15.8623 17.7305 15.7532 17.7691 15.6647 17.834C15.7408 17.7355 15.7861 17.6119 15.7861 17.4778C15.7861 17.3927 15.7677 17.3118 15.7349 17.2389C15.8096 17.2736 15.8928 17.293 15.9805 17.293C16.0683 17.293 16.1516 17.2736 16.2263 17.2389C16.1935 17.3119 16.175 17.3926 16.175 17.4778C16.175 17.612 16.2204 17.7355 16.2965 17.834ZM16.1723 16.1588C16.1122 16.1379 16.0477 16.1264 15.9805 16.1264C15.9134 16.1264 15.8489 16.1379 15.7888 16.1588C15.8184 16.0858 15.8347 16.0059 15.8347 15.9222C15.8347 15.8638 15.8266 15.8072 15.8117 15.7534C15.8655 15.7683 15.9221 15.7764 15.9805 15.7764C16.039 15.7764 16.0957 15.7683 16.1494 15.7534C16.1346 15.8072 16.1264 15.8638 16.1264 15.9222C16.1264 16.0059 16.1428 16.0857 16.1723 16.1588ZM16.0962 14.5233C16.0587 14.5164 16.02 14.5125 15.9805 14.5125C15.9411 14.5125 15.9025 14.5164 15.865 14.5233C15.8761 14.476 15.8824 14.4269 15.8831 14.3764L16.0781 14.3764C16.0789 14.4269 16.085 14.476 16.0962 14.5233ZM16.9918 16.9432C16.9203 16.9119 16.8413 16.8945 16.7583 16.8945C16.6705 16.8945 16.5874 16.914 16.5127 16.9488C16.5455 16.8758 16.5639 16.7949 16.5639 16.7097C16.5639 16.64 16.5516 16.5731 16.5292 16.5112C16.6003 16.5388 16.6775 16.5542 16.7583 16.5542C16.8349 16.5542 16.9084 16.5406 16.9763 16.5156C16.9549 16.5764 16.9431 16.6416 16.9431 16.7097C16.9431 16.7927 16.9605 16.8717 16.9918 16.9432ZM16.9166 15.3104C16.866 15.2974 16.813 15.2903 16.7583 15.2903C16.6998 15.2903 16.6433 15.2985 16.5895 15.3134C16.6044 15.2596 16.6125 15.203 16.6125 15.1445C16.6125 15.105 16.6087 15.0664 16.6018 15.0289C16.652 15.0408 16.7044 15.0472 16.7583 15.0472C16.8086 15.0472 16.8576 15.0416 16.9048 15.0313C16.8982 15.068 16.8945 15.1058 16.8945 15.1445C16.8945 15.2019 16.9022 15.2575 16.9166 15.3104Z" fill="black"/>
<path d="M14.8722 24.4875C14.8721 24.2459 14.6763 24.05 14.4347 24.05C14.2726 24.05 14.1311 24.1383 14.0556 24.2693L14.0556 24.7058C14.1311 24.8367 14.2726 24.925 14.4347 24.925C14.6763 24.925 14.8722 24.7291 14.8722 24.4875Z" fill="black"/>
<path d="M14.8722 22.9319C14.8721 22.6903 14.6763 22.4944 14.4347 22.4944C14.2726 22.4944 14.1311 22.5827 14.0556 22.7137L14.0556 23.1502C14.1311 23.2812 14.2726 23.3694 14.4347 23.3694C14.6763 23.3694 14.8722 23.1735 14.8722 22.9319Z" fill="black"/>
<path d="M14.9208 21.3764C14.9208 21.1079 14.7031 20.8903 14.4347 20.8903C14.2813 20.8903 14.1446 20.9614 14.0556 21.0724L14.0556 21.6805C14.1446 21.7914 14.2813 21.8625 14.4347 21.8625C14.7031 21.8625 14.9208 21.6448 14.9208 21.3764Z" fill="black"/>
<path d="M14.9694 19.8208C14.9694 19.5255 14.73 19.2861 14.4347 19.2861C14.2865 19.2861 14.1524 19.3464 14.0556 19.4438L14.0556 20.1978C14.1524 20.2952 14.2865 20.3555 14.4347 20.3555C14.73 20.3555 14.9694 20.1161 14.9694 19.8208Z" fill="black"/>
<path d="M14.7749 26.0334C14.7749 25.8454 14.6226 25.6931 14.4347 25.6931C14.2468 25.6931 14.0944 25.8454 14.0944 26.0334C14.0944 26.2213 14.2468 26.3736 14.4347 26.3736C14.6226 26.3736 14.7749 26.2213 14.7749 26.0334Z" fill="black"/>
<path d="M14.6777 27.5889C14.6777 27.4547 14.5689 27.3459 14.4347 27.3459C14.3005 27.3459 14.1916 27.4547 14.1916 27.5889C14.1916 27.7231 14.3005 27.8319 14.4347 27.832C14.5689 27.832 14.6777 27.7231 14.6777 27.5889Z" fill="black"/>
<path d="M14.5805 29.1445C14.5805 29.0639 14.5152 28.9986 14.4347 28.9986C14.3541 28.9987 14.2888 29.0639 14.2888 29.1445C14.2888 29.225 14.3541 29.2903 14.4347 29.2903C14.5152 29.2903 14.5805 29.225 14.5805 29.1445Z" fill="black"/>
<path d="M15.7375 20.5889C15.7375 20.2936 15.4981 20.0542 15.2028 20.0542C14.9074 20.0542 14.668 20.2936 14.668 20.5889C14.668 20.8842 14.9074 21.1236 15.2028 21.1236C15.4981 21.1236 15.7375 20.8842 15.7375 20.5889Z" fill="black"/>
<path d="M15.7375 19.0334C15.7375 18.738 15.4981 18.4986 15.2028 18.4986C14.9074 18.4986 14.668 18.738 14.668 19.0334C14.668 19.3287 14.9074 19.5681 15.2028 19.5681C15.4981 19.5681 15.7375 19.3287 15.7375 19.0334Z" fill="black"/>
<path d="M15.6889 22.1541C15.6888 21.8857 15.4712 21.668 15.2028 21.668C14.9343 21.668 14.7167 21.8857 14.7166 22.1541C14.7166 22.4226 14.9343 22.6402 15.2028 22.6403C15.4712 22.6403 15.6889 22.4226 15.6889 22.1541Z" fill="black"/>
<path d="M15.6403 23.7097C15.6402 23.4681 15.4444 23.2722 15.2028 23.2722C14.9612 23.2722 14.7653 23.4681 14.7653 23.7097C14.7653 23.9513 14.9611 24.1472 15.2028 24.1472C15.4444 24.1472 15.6403 23.9513 15.6403 23.7097Z" fill="black"/>
<path d="M15.5916 25.2653C15.5916 25.0505 15.4175 24.8764 15.2028 24.8764C14.988 24.8764 14.8139 25.0505 14.8139 25.2653C14.8139 25.48 14.988 25.6541 15.2028 25.6541C15.4175 25.6541 15.5916 25.48 15.5916 25.2653Z" fill="black"/>
<path d="M15.4944 26.8111C15.4944 26.65 15.3638 26.5195 15.2028 26.5195C15.0417 26.5195 14.9111 26.6501 14.9111 26.8111C14.9111 26.9722 15.0417 27.1028 15.2028 27.1028C15.3638 27.1028 15.4944 26.9722 15.4944 26.8111Z" fill="black"/>
<path d="M15.3972 28.3667C15.3972 28.2593 15.3101 28.1722 15.2028 28.1722C15.0954 28.1722 15.0083 28.2593 15.0083 28.3667C15.0083 28.4741 15.0954 28.5611 15.2028 28.5611C15.3101 28.5611 15.3972 28.4741 15.3972 28.3667Z" fill="black"/>
<path d="M15.3 29.9222C15.3 29.8685 15.2565 29.825 15.2028 29.825C15.1491 29.825 15.1055 29.8686 15.1055 29.9222C15.1055 29.9759 15.1491 30.0195 15.2028 30.0195C15.2565 30.0195 15.3 29.9759 15.3 29.9222Z" fill="black"/>
<path d="M16.5153 19.8208C16.5152 19.5255 16.2758 19.2861 15.9805 19.2861C15.6852 19.2861 15.4458 19.5255 15.4458 19.8208C15.4458 20.1161 15.6852 20.3555 15.9805 20.3555C16.2759 20.3555 16.5153 20.1161 16.5153 19.8208Z" fill="black"/>
<path d="M16.4666 21.3764C16.4666 21.1079 16.249 20.8903 15.9805 20.8903C15.7121 20.8903 15.4944 21.1079 15.4944 21.3764C15.4944 21.6448 15.7121 21.8625 15.9805 21.8625C16.249 21.8625 16.4666 21.6448 16.4666 21.3764Z" fill="black"/>
<path d="M16.418 24.4875C16.418 24.2459 16.2221 24.05 15.9805 24.05C15.7389 24.05 15.5431 24.2459 15.543 24.4875C15.543 24.7291 15.7389 24.925 15.9805 24.925C16.2222 24.925 16.418 24.7291 16.418 24.4875Z" fill="black"/>
<path d="M16.418 22.9319C16.418 22.6903 16.2221 22.4944 15.9805 22.4944C15.7389 22.4944 15.5431 22.6903 15.543 22.9319C15.543 23.1735 15.7389 23.3694 15.9805 23.3694C16.2222 23.3694 16.418 23.1735 16.418 22.9319Z" fill="black"/>
<path d="M16.3208 26.0334C16.3208 25.8454 16.1685 25.6931 15.9805 25.6931C15.7926 25.6931 15.6403 25.8454 15.6403 26.0334C15.6403 26.2213 15.7926 26.3736 15.9805 26.3736C16.1685 26.3736 16.3208 26.2213 16.3208 26.0334Z" fill="black"/>
<path d="M16.2236 27.5889C16.2236 27.4547 16.1148 27.3459 15.9805 27.3459C15.8463 27.3459 15.7375 27.4547 15.7375 27.5889C15.7375 27.7231 15.8463 27.832 15.9805 27.832C16.1148 27.832 16.2236 27.7231 16.2236 27.5889Z" fill="black"/>
<path d="M16.1264 29.1445C16.1264 29.0639 16.0611 28.9986 15.9805 28.9986C15.9 28.9986 15.8347 29.0639 15.8347 29.1445C15.8347 29.225 15.9 29.2903 15.9805 29.2903C16.0611 29.2903 16.1264 29.225 16.1264 29.1445Z" fill="black"/>
<path d="M17.293 20.5889C17.293 20.2936 17.0536 20.0542 16.7583 20.0542C16.463 20.0542 16.2236 20.2936 16.2236 20.5889C16.2236 20.8842 16.463 21.1236 16.7583 21.1236C17.0536 21.1236 17.293 20.8842 17.293 20.5889Z" fill="black"/>
<path d="M17.293 19.0334C17.293 18.738 17.0536 18.4986 16.7583 18.4986C16.463 18.4986 16.2236 18.738 16.2236 19.0334C16.2236 19.3287 16.463 19.5681 16.7583 19.5681C17.0536 19.5681 17.293 19.3287 17.293 19.0334Z" fill="black"/>
<path d="M17.2444 22.1541C17.2444 21.8857 17.0268 21.668 16.7583 21.668C16.4899 21.668 16.2722 21.8857 16.2722 22.1541C16.2722 22.4226 16.4899 22.6402 16.7583 22.6403C17.0268 22.6403 17.2444 22.4226 17.2444 22.1541Z" fill="black"/>
<path d="M17.1958 23.7097C17.1958 23.4681 16.9999 23.2722 16.7583 23.2722C16.5167 23.2722 16.3208 23.4681 16.3208 23.7097C16.3208 23.9513 16.5167 24.1472 16.7583 24.1472C16.9999 24.1472 17.1958 23.9513 17.1958 23.7097Z" fill="black"/>
<path d="M17.1472 25.2653C17.1472 25.0505 16.9731 24.8764 16.7583 24.8764C16.5436 24.8764 16.3694 25.0505 16.3694 25.2653C16.3694 25.48 16.5435 25.6541 16.7583 25.6541C16.9731 25.6541 17.1472 25.48 17.1472 25.2653Z" fill="black"/>
<path d="M17.05 26.8111C17.05 26.65 16.9194 26.5195 16.7583 26.5195C16.5972 26.5195 16.4666 26.6501 16.4666 26.8111C16.4666 26.9722 16.5972 27.1028 16.7583 27.1028C16.9194 27.1028 17.05 26.9722 17.05 26.8111Z" fill="black"/>
<path d="M16.9528 28.3667C16.9528 28.2593 16.8657 28.1722 16.7583 28.1722C16.6509 28.1722 16.5639 28.2593 16.5639 28.3667C16.5639 28.4741 16.6509 28.5611 16.7583 28.5611C16.8657 28.5611 16.9528 28.4741 16.9528 28.3667Z" fill="black"/>
<path d="M16.8555 29.9222C16.8555 29.8685 16.812 29.825 16.7583 29.825C16.7046 29.825 16.6611 29.8686 16.6611 29.9222C16.6611 29.9759 16.7046 30.0195 16.7583 30.0195C16.812 30.0195 16.8555 29.9759 16.8555 29.9222Z" fill="black"/>
<path d="M17.8472 19.393C17.7579 19.3259 17.6468 19.2861 17.5264 19.2861C17.2311 19.2861 16.9917 19.5255 16.9917 19.8208C16.9917 20.1161 17.2311 20.3555 17.5264 20.3555C17.6468 20.3555 17.7579 20.3157 17.8472 20.2486L17.8472 19.393Z" fill="black"/>
<path d="M17.8472 21.0113C17.7616 20.936 17.6494 20.8903 17.5264 20.8903C17.258 20.8903 17.0403 21.1079 17.0403 21.3764C17.0403 21.6448 17.2579 21.8625 17.5264 21.8625C17.6494 21.8625 17.7616 21.8167 17.8472 21.7414L17.8472 21.0113Z" fill="black"/>
<path d="M17.8472 24.1902C17.7673 24.104 17.6532 24.05 17.5264 24.05C17.2848 24.05 17.0889 24.2459 17.0889 24.4875C17.0889 24.7291 17.2848 24.925 17.5264 24.925C17.6532 24.925 17.7673 24.8709 17.8472 24.7847L17.8472 24.1902Z" fill="black"/>
<path d="M17.8472 22.6347C17.7673 22.5485 17.6532 22.4944 17.5264 22.4944C17.2848 22.4944 17.0889 22.6903 17.0889 22.9319C17.0889 23.1735 17.2848 23.3694 17.5264 23.3694C17.6532 23.3694 17.7673 23.3154 17.8472 23.2292L17.8472 22.6347Z" fill="black"/>
<path d="M17.8472 25.9198C17.8005 25.7877 17.6745 25.6931 17.5264 25.6931C17.3385 25.6931 17.1861 25.8454 17.1861 26.0334C17.1861 26.2213 17.3385 26.3736 17.5264 26.3736C17.6745 26.3736 17.8005 26.279 17.8472 26.1469L17.8472 25.9198Z" fill="black"/>
<path d="M17.7695 27.5889C17.7695 27.4547 17.6606 27.3459 17.5264 27.3459C17.3922 27.3459 17.2834 27.4547 17.2834 27.5889C17.2834 27.7231 17.3922 27.832 17.5264 27.832C17.6606 27.8319 17.7695 27.7231 17.7695 27.5889Z" fill="black"/>
<path d="M17.6722 29.1445C17.6722 29.0639 17.6069 28.9986 17.5264 28.9986C17.4459 28.9986 17.3806 29.0639 17.3806 29.1445C17.3806 29.225 17.4459 29.2903 17.5264 29.2903C17.6069 29.2903 17.6722 29.225 17.6722 29.1445Z" fill="black"/>
</svg>
