<?xml version="1.0" encoding="UTF-8"?>
<svg id="Layer_1" xmlns="http://www.w3.org/2000/svg" version="1.1" viewBox="0 0 400 400">
  <!-- Generator: Adobe Illustrator 29.7.1, SVG Export Plug-In . SVG Version: 2.1.1 Build 8)  -->
  <defs>
    <style>
      .st0 {
        fill: none;
      }
    </style>
  </defs>
  <polygon points="200 55.8 172.1 83.7 268.8 180.4 268.8 219.6 172.1 316.3 200 343.8 344.2 200 200 55.8"/>
  <rect x="216.9" y="180.4" width="51.9" height="39.2"/>
  <g>
    <path class="st0" d="M194.9,189.7c-.6.2-1.3.4-2,.4s-1.7-.2-2.4-.5c.3.7.5,1.5.5,2.4s-.2,1.8-.6,2.5c.8-.3,1.6-.5,2.5-.5s1.4.1,2.1.4c-.3-.7-.5-1.5-.5-2.4s.1-1.5.4-2.3Z"/>
    <path class="st0" d="M192.9,206c-.9,0-1.7-.2-2.5-.5.4.8.6,1.6.6,2.5s-.2,1.7-.5,2.4c.7-.3,1.5-.5,2.4-.5s1.4.1,2,.4c-.3-.7-.4-1.5-.4-2.3s.2-1.6.5-2.4c-.6.2-1.3.4-2.1.4Z"/>
    <path class="st0" d="M209,206.5c-.6,0-1.2,0-1.7-.2.2.6.2,1.1.2,1.7s0,1.1-.2,1.6c.5-.1,1.1-.2,1.7-.2s.8,0,1.2.1c-.1-.5-.2-1-.2-1.5s0-1.1.2-1.6c-.4,0-.8.1-1.2.1Z"/>
    <path class="st0" d="M201,198.5c-.9,0-1.7-.2-2.4-.5.2.6.3,1.3.3,2s-.1,1.4-.3,2c.8-.3,1.6-.5,2.4-.5s1.2,0,1.7.2c-.2-.6-.2-1.1-.2-1.7s0-1.2.2-1.7c-.6.2-1.1.2-1.7.2Z"/>
    <path class="st0" d="M215.5,200c0,.4,0,.8-.1,1.2.5-.1,1.1-.2,1.6-.2v-2c-.6,0-1.1,0-1.6-.2,0,.4.1.8.1,1.2Z"/>
    <path class="st0" d="M181.5,187.2c1-.7,2.2-1.2,3.5-1.2s1.7.2,2.4.5c-.3-.7-.5-1.5-.5-2.4,0-1.4.5-2.7,1.3-3.7h-7.2c.9,1,1.4,2.3,1.4,3.7s-.3,2.2-.9,3.1Z"/>
    <path class="st0" d="M198.6,186c.7-.3,1.6-.5,2.4-.5s1.2,0,1.7.2c-.1-.5-.2-1.1-.2-1.6,0-1.4.4-2.6,1.2-3.7h-6c.8,1,1.3,2.3,1.3,3.7s-.1,1.3-.3,1.9Z"/>
    <path class="st0" d="M215.4,185.2c.5-.1,1-.2,1.6-.2v-4.6h-2.7c.7,1.1,1.2,2.3,1.2,3.7s0,.7,0,1.1Z"/>
    <path class="st0" d="M176.9,210.4c1.2,0,2.3.4,3.2,1-.7-1-1.1-2.1-1.1-3.4s.5-2.6,1.2-3.6c-.9.7-2.1,1.1-3.3,1.1-3,0-5.5-2.5-5.5-5.5s2.5-5.5,5.5-5.5,2.4.4,3.3,1.1c-.8-1-1.2-2.3-1.2-3.6s.4-2.4,1.1-3.4c-.9.6-2,1-3.2,1-3,0-5.5-2.5-5.5-5.5s.5-2.7,1.4-3.7h-7.9c.9,1,1.4,2.3,1.4,3.7,0,3-2.5,5.5-5.5,5.5s-5.5-2.5-5.5-5.5.5-2.7,1.4-3.7h-8.6c1,.9,1.7,2.2,1.7,3.7,0,2.8-2.2,5-5,5s-5-2.2-5-5,.6-2.8,1.7-3.7h-10.1c1.2.8,1.9,2.2,1.9,3.7,0,2.5-2,4.5-4.5,4.5s-4.5-2-4.5-4.5.8-2.9,1.9-3.7h-10.9c1.2.8,1.9,2.2,1.9,3.7,0,2.5-2,4.5-4.5,4.5s-4.5-2-4.5-4.5.8-2.9,1.9-3.7h-54.3v11.6c0-.6.4-1,1-1s1,.4,1,1-.4,1-1,1-1-.4-1-1v16c0-.6.4-1,1-1s1,.4,1,1-.4,1-1,1-1-.4-1-1v11.6h54.3c-1.2-.8-1.9-2.2-1.9-3.7,0-2.5,2-4.5,4.5-4.5s4.5,2,4.5,4.5-.8,2.9-1.9,3.7h10.9c-1.2-.8-1.9-2.2-1.9-3.7,0-2.5,2-4.5,4.5-4.5s4.5,2,4.5,4.5-.8,2.9-1.9,3.7h10.1c-1-.9-1.7-2.2-1.7-3.7,0-2.8,2.2-5,5-5s5,2.2,5,5-.6,2.8-1.7,3.7h8.6c-.9-1-1.4-2.3-1.4-3.7,0-3,2.5-5.5,5.5-5.5s5.5,2.5,5.5,5.5-.5,2.7-1.4,3.7h7.9c-.9-1-1.4-2.3-1.4-3.7,0-3,2.5-5.5,5.5-5.5ZM169,186.5c3,0,5.5,2.5,5.5,5.5s-2.5,5.5-5.5,5.5-5.5-2.5-5.5-5.5,2.5-5.5,5.5-5.5ZM153,186.5c3,0,5.5,2.5,5.5,5.5s-2.5,5.5-5.5,5.5-5.5-2.5-5.5-5.5,2.5-5.5,5.5-5.5ZM136.9,187c2.8,0,5,2.2,5,5s-2.2,5-5,5-5-2.2-5-5,2.2-5,5-5ZM120.9,187.5c2.5,0,4.5,2,4.5,4.5s-2,4.5-4.5,4.5-4.5-2-4.5-4.5,2-4.5,4.5-4.5ZM104.9,188c2.2,0,4,1.8,4,4s-1.8,4-4,4-4-1.8-4-4,1.8-4,4-4ZM65,217.4c-.8,0-1.5-.7-1.5-1.5s.7-1.5,1.5-1.5,1.5.7,1.5,1.5-.7,1.5-1.5,1.5ZM65,201.5c-.8,0-1.5-.7-1.5-1.5s.7-1.5,1.5-1.5,1.5.7,1.5,1.5-.7,1.5-1.5,1.5ZM65,185.6c-.8,0-1.5-.7-1.5-1.5s.7-1.5,1.5-1.5,1.5.7,1.5,1.5-.7,1.5-1.5,1.5ZM73,210c-1.1,0-2-.9-2-2s.9-2,2-2,2,.9,2,2-.9,2-2,2ZM73,194c-1.1,0-2-.9-2-2s.9-2,2-2,2,.9,2,2-.9,2-2,2ZM81,218.4c-1.4,0-2.5-1.1-2.5-2.5s1.1-2.5,2.5-2.5,2.5,1.1,2.5,2.5-1.1,2.5-2.5,2.5ZM81,202.5c-1.4,0-2.5-1.1-2.5-2.5s1.1-2.5,2.5-2.5,2.5,1.1,2.5,2.5-1.1,2.5-2.5,2.5ZM81,186.6c-1.4,0-2.5-1.1-2.5-2.5s1.1-2.5,2.5-2.5,2.5,1.1,2.5,2.5-1.1,2.5-2.5,2.5ZM89,211c-1.7,0-3-1.3-3-3s1.3-3,3-3,3,1.3,3,3-1.3,3-3,3ZM89,195c-1.7,0-3-1.3-3-3s1.3-3,3-3,3,1.3,3,3-1.3,3-3,3ZM97,219.4c-1.9,0-3.5-1.6-3.5-3.5s1.6-3.5,3.5-3.5,3.5,1.6,3.5,3.5-1.6,3.5-3.5,3.5ZM97,203.5c-1.9,0-3.5-1.6-3.5-3.5s1.6-3.5,3.5-3.5,3.5,1.6,3.5,3.5-1.6,3.5-3.5,3.5ZM97,187.6c-1.9,0-3.5-1.6-3.5-3.5s1.6-3.5,3.5-3.5,3.5,1.6,3.5,3.5-1.6,3.5-3.5,3.5ZM104.9,212c-2.2,0-4-1.8-4-4s1.8-4,4-4,4,1.8,4,4-1.8,4-4,4ZM112.9,204.5c-2.5,0-4.5-2-4.5-4.5s2-4.5,4.5-4.5,4.5,2,4.5,4.5-2,4.5-4.5,4.5ZM120.9,212.5c-2.5,0-4.5-2-4.5-4.5s2-4.5,4.5-4.5,4.5,2,4.5,4.5-2,4.5-4.5,4.5ZM124.4,200c0-2.5,2-4.5,4.5-4.5s4.5,2,4.5,4.5-2,4.5-4.5,4.5-4.5-2-4.5-4.5ZM136.9,213c-2.8,0-5-2.2-5-5s2.2-5,5-5,5,2.2,5,5-2.2,5-5,5ZM139.9,200c0-2.8,2.2-5,5-5s5,2.2,5,5-2.2,5-5,5-5-2.2-5-5ZM153,213.5c-3,0-5.5-2.5-5.5-5.5s2.5-5.5,5.5-5.5,5.5,2.5,5.5,5.5-2.5,5.5-5.5,5.5ZM155.4,200c0-3,2.5-5.5,5.5-5.5s5.5,2.5,5.5,5.5-2.5,5.5-5.5,5.5-5.5-2.5-5.5-5.5ZM163.5,208c0-3,2.5-5.5,5.5-5.5s5.5,2.5,5.5,5.5-2.5,5.5-5.5,5.5-5.5-2.5-5.5-5.5Z"/>
    <path class="st0" d="M202.7,214.3c-.5.1-1.1.2-1.7.2-.8,0-1.7-.2-2.4-.5.2.6.3,1.2.3,1.9,0,1.4-.5,2.7-1.3,3.7h6c-.7-1.1-1.2-2.3-1.2-3.7s0-1.1.2-1.6Z"/>
    <path class="st0" d="M215.5,215.9c0,1.4-.4,2.6-1.2,3.7h2.7v-4.6c-.6,0-1.1,0-1.6-.2,0,.4,0,.7,0,1.1Z"/>
    <path class="st0" d="M187.4,213.5c-.7.3-1.5.5-2.4.5-1.3,0-2.5-.4-3.5-1.2.6.9.9,1.9.9,3.1s-.5,2.7-1.4,3.7h7.2c-.8-1-1.3-2.3-1.3-3.7s.2-1.7.5-2.4Z"/>
    <path class="st0" d="M185,198c-1.4,0-2.7-.5-3.7-1.3.7.9,1.1,2,1.1,3.3s-.4,2.4-1.1,3.3c1-.8,2.3-1.3,3.7-1.3s1.7.2,2.5.5c-.4-.8-.6-1.6-.6-2.5s.2-1.8.6-2.5c-.8.3-1.6.5-2.5.5Z"/>
    <path class="st0" d="M210.2,190.5c-.4,0-.8.1-1.2.1-.6,0-1.2,0-1.7-.2.1.5.2,1.1.2,1.6s0,1.2-.2,1.7c.6-.2,1.1-.2,1.7-.2s.8,0,1.2.1c-.1-.5-.2-1.1-.2-1.6s0-1,.2-1.5Z"/>
    <circle cx="57" cy="192" r="1"/>
    <circle cx="81" cy="184.1" r="2.5"/>
    <circle cx="65" cy="184.1" r="1.5"/>
    <circle cx="73" cy="192" r="2"/>
    <circle cx="89" cy="192" r="3"/>
    <path d="M108.4,184.1c0,2.5,2,4.5,4.5,4.5s4.5-2,4.5-4.5-.8-2.9-1.9-3.7h-5.1c-1.2.8-1.9,2.2-1.9,3.7Z"/>
    <path d="M124.4,184.1c0,2.5,2,4.5,4.5,4.5s4.5-2,4.5-4.5-.8-2.9-1.9-3.7h-5.1c-1.2.8-1.9,2.2-1.9,3.7Z"/>
    <path d="M139.9,184.1c0,2.8,2.2,5,5,5s5-2.2,5-5-.6-2.8-1.7-3.7h-6.7c-1,.9-1.7,2.2-1.7,3.7Z"/>
    <path d="M160.9,189.6c3,0,5.5-2.5,5.5-5.5s-.5-2.7-1.4-3.7h-8.1c-.9,1-1.4,2.3-1.4,3.7,0,3,2.5,5.5,5.5,5.5Z"/>
    <circle cx="97" cy="184.1" r="3.5"/>
    <circle cx="104.9" cy="192" r="4"/>
    <circle cx="120.9" cy="192" r="4.5"/>
    <circle cx="136.9" cy="192" r="5"/>
    <circle cx="153" cy="192" r="5.5"/>
    <circle cx="169" cy="192" r="5.5"/>
    <circle cx="57" cy="208" r="1"/>
    <circle cx="81" cy="200" r="2.5"/>
    <circle cx="65" cy="200" r="1.5"/>
    <circle cx="73" cy="208" r="2"/>
    <circle cx="89" cy="208" r="3"/>
    <circle cx="112.9" cy="200" r="4.5"/>
    <circle cx="128.9" cy="200" r="4.5"/>
    <circle cx="144.9" cy="200" r="5"/>
    <circle cx="160.9" cy="200" r="5.5"/>
    <circle cx="97" cy="200" r="3.5"/>
    <circle cx="104.9" cy="208" r="4"/>
    <circle cx="120.9" cy="208" r="4.5"/>
    <circle cx="136.9" cy="208" r="5"/>
    <circle cx="153" cy="208" r="5.5"/>
    <circle cx="169" cy="208" r="5.5"/>
    <path d="M215.4,201.2c0-.4.1-.8.1-1.2s0-.8-.1-1.2c.5.1,1.1.2,1.6.2v-14c-.6,0-1.1,0-1.6.2,0-.4,0-.7,0-1.1,0-1.4-.4-2.6-1.2-3.7h-10.7c-.7,1.1-1.2,2.3-1.2,3.7s0,1.1.2,1.6c-.5-.1-1.1-.2-1.7-.2-.8,0-1.7.2-2.4.5.2-.6.3-1.2.3-1.9,0-1.4-.5-2.7-1.3-3.7h-9.4c-.8,1-1.3,2.3-1.3,3.7s.2,1.7.5,2.4c-.7-.3-1.5-.5-2.4-.5-1.3,0-2.5.4-3.5,1.2.6-.9.9-1.9.9-3.1s-.5-2.7-1.4-3.7h-8.1c-.9,1-1.4,2.3-1.4,3.7,0,3,2.5,5.5,5.5,5.5s2.3-.4,3.2-1c-.7,1-1.1,2.1-1.1,3.4s.5,2.6,1.2,3.6c-.9-.7-2.1-1.1-3.3-1.1-3,0-5.5,2.5-5.5,5.5s2.5,5.5,5.5,5.5,2.4-.4,3.3-1.1c-.8,1-1.2,2.3-1.2,3.6s.4,2.4,1.1,3.4c-.9-.6-2-1-3.2-1-3,0-5.5,2.5-5.5,5.5s.5,2.7,1.4,3.7h8.1c.9-1,1.4-2.3,1.4-3.7s-.3-2.2-.9-3.1c1,.7,2.2,1.2,3.5,1.2s1.7-.2,2.4-.5c-.3.7-.5,1.5-.5,2.4,0,1.4.5,2.7,1.3,3.7h9.4c.8-1,1.3-2.3,1.3-3.7s-.1-1.3-.3-1.9c.7.3,1.6.5,2.4.5s1.2,0,1.7-.2c-.1.5-.2,1.1-.2,1.6,0,1.4.4,2.6,1.2,3.7h10.7c.7-1.1,1.2-2.3,1.2-3.7s0-.7,0-1.1c.5.1,1,.2,1.6.2v-14c-.6,0-1.1,0-1.6.2ZM187.5,202.5c-.8-.3-1.6-.5-2.5-.5-1.4,0-2.7.5-3.7,1.3.7-.9,1.1-2,1.1-3.3s-.4-2.4-1.1-3.3c1,.8,2.3,1.3,3.7,1.3s1.7-.2,2.5-.5c-.4.8-.6,1.6-.6,2.5s.2,1.8.6,2.5ZM194.9,210.3c-.6-.2-1.3-.4-2-.4s-1.7.2-2.4.5c.3-.7.5-1.5.5-2.4s-.2-1.8-.6-2.5c.8.3,1.6.5,2.5.5s1.4-.1,2.1-.4c-.3.7-.5,1.5-.5,2.4s.1,1.5.4,2.3ZM192.9,194c-.9,0-1.7.2-2.5.5.4-.8.6-1.6.6-2.5s-.2-1.7-.5-2.4c.7.3,1.5.5,2.4.5s1.4-.1,2-.4c-.3.7-.4,1.5-.4,2.3s.2,1.6.5,2.4c-.6-.2-1.3-.4-2.1-.4ZM202.7,201.7c-.6-.2-1.1-.2-1.7-.2-.9,0-1.7.2-2.4.5.2-.6.3-1.3.3-2s-.1-1.4-.3-2c.8.3,1.6.5,2.4.5s1.2,0,1.7-.2c-.2.6-.2,1.1-.2,1.7s0,1.2.2,1.7ZM210.2,209.5c-.4,0-.8-.1-1.2-.1-.6,0-1.2,0-1.7.2.1-.5.2-1.1.2-1.6s0-1.2-.2-1.7c.6.2,1.1.2,1.7.2s.8,0,1.2-.1c-.1.5-.2,1.1-.2,1.6s0,1,.2,1.5ZM209,193.5c-.6,0-1.2,0-1.7.2.2-.6.2-1.1.2-1.7s0-1.1-.2-1.6c.5.1,1.1.2,1.7.2s.8,0,1.2-.1c-.1.5-.2,1-.2,1.5s0,1.1.2,1.6c-.4,0-.8-.1-1.2-.1Z"/>
    <circle cx="81" cy="215.9" r="2.5"/>
    <circle cx="65" cy="215.9" r="1.5"/>
    <path d="M117.4,215.9c0-2.5-2-4.5-4.5-4.5s-4.5,2-4.5,4.5.8,2.9,1.9,3.7h5.1c1.2-.8,1.9-2.2,1.9-3.7Z"/>
    <path d="M133.4,215.9c0-2.5-2-4.5-4.5-4.5s-4.5,2-4.5,4.5.8,2.9,1.9,3.7h5.1c1.2-.8,1.9-2.2,1.9-3.7Z"/>
    <path d="M149.9,215.9c0-2.8-2.2-5-5-5s-5,2.2-5,5,.6,2.8,1.7,3.7h6.7c1-.9,1.7-2.2,1.7-3.7Z"/>
    <path d="M160.9,210.4c-3,0-5.5,2.5-5.5,5.5s.5,2.7,1.4,3.7h8.1c.9-1,1.4-2.3,1.4-3.7,0-3-2.5-5.5-5.5-5.5Z"/>
    <circle cx="97" cy="215.9" r="3.5"/>
  </g>
</svg>