<svg width="32" height="32" viewBox="0 0 32 32" fill="none" xmlns="http://www.w3.org/2000/svg">
<path fill-rule="evenodd" clip-rule="evenodd" d="M15.9805 30.0195L2 16L4.67361 13.2875L14.075 22.6889L14.075 17.6431L14.5226 17.6431C14.5233 17.5932 14.5293 17.5447 14.5401 17.4979C14.5058 17.5037 14.4706 17.5069 14.4347 17.5069C14.2924 17.5069 14.1612 17.4599 14.0556 17.3806L14.0556 16.3694C14.1612 16.2901 14.2924 16.2431 14.4347 16.2431C14.4893 16.2431 14.5424 16.25 14.593 16.2631C14.5787 16.2102 14.5708 16.1546 14.5708 16.0972C14.5708 16.0149 14.5867 15.9364 14.6153 15.8643C14.5585 15.8828 14.4977 15.8931 14.4347 15.8931C14.2899 15.8931 14.1575 15.8402 14.0556 15.7529L14.0556 14.8667C14.1575 14.7793 14.2899 14.7264 14.4347 14.7264C14.5177 14.7264 14.5966 14.7438 14.6681 14.775C14.6369 14.7036 14.6194 14.6247 14.6194 14.5417C14.6194 14.4139 14.6606 14.2958 14.7303 14.1997C14.6456 14.256 14.544 14.2889 14.4347 14.2889C14.2865 14.2889 14.1524 14.2286 14.0556 14.1312L14.0556 13.3772C14.1524 13.2798 14.2865 13.2195 14.4347 13.2195C14.73 13.2195 14.9694 13.4589 14.9694 13.7542C14.9694 13.8683 14.9336 13.9739 14.8727 14.0607C14.9666 13.9962 15.0803 13.9583 15.2028 13.9583C15.3342 13.9583 15.4554 14.0018 15.5529 14.0751C15.4857 13.9857 15.4458 13.8746 15.4458 13.7542C15.4458 13.4589 15.6852 13.2195 15.9805 13.2195C16.2759 13.2195 16.5153 13.4589 16.5153 13.7542C16.5153 13.8746 16.4754 13.9857 16.4083 14.0751C16.5058 14.0018 16.627 13.9583 16.7583 13.9583C16.8808 13.9583 16.9946 13.9961 17.0884 14.0607C17.0276 13.9739 16.9917 13.8683 16.9917 13.7542C16.9917 13.4589 17.2311 13.2195 17.5264 13.2195C17.6468 13.2195 17.7579 13.2593 17.8472 13.3264L17.8472 14.182C17.7579 14.2491 17.6468 14.2889 17.5264 14.2889C17.4171 14.2889 17.3155 14.256 17.2308 14.1997C17.3005 14.2958 17.3416 14.4139 17.3416 14.5417C17.3416 14.6247 17.3243 14.7036 17.293 14.775C17.3645 14.7438 17.4434 14.7264 17.5264 14.7264C17.6449 14.7264 17.7552 14.7619 17.8472 14.8226L17.8472 15.7969C17.7552 15.8577 17.6449 15.8931 17.5264 15.8931C17.4634 15.8931 17.4027 15.8828 17.3458 15.8643C17.3744 15.9364 17.3903 16.015 17.3903 16.0972C17.3903 16.1546 17.3825 16.2102 17.3681 16.2631C17.4187 16.25 17.4718 16.2431 17.5264 16.2431C17.6435 16.2431 17.7532 16.2751 17.8472 16.3306L17.8472 17.4194C17.7532 17.4749 17.6435 17.5069 17.5264 17.5069C17.4905 17.5069 17.4553 17.5037 17.421 17.4979C17.4319 17.5447 17.438 17.5932 17.4387 17.6431L17.8861 17.6431L17.8861 22.6889L27.2875 13.2875L30 16L15.9805 30.0195ZM15.4485 15.0707C15.3738 15.1054 15.2906 15.125 15.2028 15.125C15.1198 15.125 15.0409 15.1075 14.9694 15.0763C15.0006 15.1478 15.018 15.2268 15.018 15.3098C15.018 15.3778 15.0063 15.4431 14.9849 15.5038C15.0528 15.4789 15.1262 15.4653 15.2028 15.4653C15.2836 15.4653 15.3609 15.4806 15.432 15.5083C15.4095 15.4463 15.3972 15.3795 15.3972 15.3098C15.3972 15.2246 15.4156 15.1437 15.4485 15.0707ZM15.3717 16.7061C15.3179 16.721 15.2613 16.7292 15.2028 16.7292C15.1481 16.7292 15.0951 16.7221 15.0446 16.709C15.0589 16.7619 15.0666 16.8176 15.0666 16.875C15.0666 16.9136 15.063 16.9514 15.0564 16.9882C15.1035 16.9778 15.1525 16.9722 15.2028 16.9722C15.2567 16.9722 15.3091 16.9787 15.3594 16.9905C15.3525 16.9531 15.3486 16.9145 15.3486 16.875C15.3486 16.8165 15.3568 16.7599 15.3717 16.7061ZM16.2965 14.1854C16.208 14.2504 16.0988 14.2889 15.9805 14.2889C15.8623 14.2889 15.7532 14.2504 15.6647 14.1854C15.7408 14.284 15.7861 14.4075 15.7861 14.5417C15.7861 14.6268 15.7677 14.7076 15.7349 14.7805C15.8096 14.7458 15.8928 14.7264 15.9805 14.7264C16.0683 14.7264 16.1516 14.7458 16.2263 14.7805C16.1935 14.7076 16.175 14.6268 16.175 14.5417C16.175 14.4075 16.2204 14.284 16.2965 14.1854ZM16.1723 15.8606C16.1122 15.8815 16.0477 15.8931 15.9805 15.8931C15.9134 15.8931 15.8489 15.8815 15.7888 15.8606C15.8184 15.9337 15.8347 16.0136 15.8347 16.0972C15.8347 16.1557 15.8266 16.2123 15.8117 16.266C15.8655 16.2512 15.9221 16.2431 15.9805 16.2431C16.039 16.2431 16.0957 16.2512 16.1494 16.266C16.1346 16.2123 16.1264 16.1557 16.1264 16.0972C16.1264 16.0135 16.1428 15.9337 16.1723 15.8606ZM16.0962 17.4961C16.0587 17.5031 16.02 17.5069 15.9805 17.5069C15.9411 17.5069 15.9025 17.503 15.865 17.4961C15.8761 17.5434 15.8824 17.5926 15.8831 17.6431L16.0781 17.6431C16.0789 17.5926 16.085 17.5434 16.0962 17.4961ZM16.9918 15.0763C16.9203 15.1076 16.8413 15.125 16.7583 15.125C16.6705 15.125 16.5874 15.1054 16.5127 15.0707C16.5455 15.1437 16.5639 15.2246 16.5639 15.3098C16.5639 15.3795 16.5516 15.4463 16.5292 15.5083C16.6003 15.4806 16.6775 15.4653 16.7583 15.4653C16.8349 15.4653 16.9084 15.4789 16.9763 15.5038C16.9549 15.4431 16.9431 15.3778 16.9431 15.3098C16.9431 15.2267 16.9605 15.1478 16.9918 15.0763ZM16.9166 16.709C16.866 16.7221 16.813 16.7292 16.7583 16.7292C16.6998 16.7292 16.6433 16.721 16.5895 16.7061C16.6044 16.7599 16.6125 16.8165 16.6125 16.875C16.6125 16.9145 16.6087 16.9531 16.6018 16.9905C16.652 16.9787 16.7044 16.9722 16.7583 16.9722C16.8086 16.9722 16.8576 16.9778 16.9048 16.9882C16.8982 16.9514 16.8945 16.9136 16.8945 16.875C16.8945 16.8176 16.9022 16.7619 16.9166 16.709Z" fill="black"/>
<path d="M14.8722 7.53198C14.8721 7.77359 14.6763 7.96948 14.4347 7.96948C14.2726 7.96946 14.1311 7.88119 14.0556 7.75016L14.0556 7.31371C14.1311 7.18272 14.2726 7.0945 14.4347 7.09448C14.6763 7.09448 14.8722 7.29036 14.8722 7.53198Z" fill="black"/>
<path d="M14.8722 9.08754C14.8721 9.32914 14.6763 9.52504 14.4347 9.52504C14.2726 9.52502 14.1311 9.43675 14.0556 9.30572L14.0556 8.86926C14.1311 8.73827 14.2726 8.65006 14.4347 8.65004C14.6763 8.65004 14.8722 8.84591 14.8722 9.08754Z" fill="black"/>
<path d="M14.9208 10.6431C14.9208 10.9115 14.7031 11.1292 14.4347 11.1292C14.2813 11.1292 14.1446 11.0581 14.0556 10.9471L14.0556 10.339C14.1446 10.2281 14.2813 10.157 14.4347 10.157C14.7031 10.157 14.9208 10.3746 14.9208 10.6431Z" fill="black"/>
<path d="M14.9694 12.1986C14.9694 12.494 14.73 12.7334 14.4347 12.7334C14.2865 12.7334 14.1524 12.6731 14.0556 12.5757L14.0556 11.8216C14.1524 11.7242 14.2865 11.6639 14.4347 11.6639C14.73 11.6639 14.9694 11.9033 14.9694 12.1986Z" fill="black"/>
<path d="M14.7749 5.98611C14.7749 6.17404 14.6226 6.32639 14.4347 6.32639C14.2468 6.32636 14.0944 6.17402 14.0944 5.98611C14.0944 5.7982 14.2468 5.64586 14.4347 5.64583C14.6226 5.64583 14.7749 5.79818 14.7749 5.98611Z" fill="black"/>
<path d="M14.6777 4.43056C14.6777 4.56479 14.5689 4.67361 14.4347 4.67361C14.3005 4.67358 14.1916 4.56477 14.1916 4.43056C14.1916 4.29634 14.3005 4.18753 14.4347 4.1875C14.5689 4.1875 14.6777 4.29632 14.6777 4.43056Z" fill="black"/>
<path d="M14.5805 2.875C14.5805 2.95554 14.5152 3.02083 14.4347 3.02083C14.3541 3.0208 14.2888 2.95552 14.2888 2.875C14.2888 2.79448 14.3541 2.7292 14.4347 2.72917C14.5152 2.72917 14.5805 2.79446 14.5805 2.875Z" fill="black"/>
<path d="M15.7375 11.4306C15.7375 11.7259 15.4981 11.9653 15.2028 11.9653C14.9074 11.9653 14.668 11.7259 14.668 11.4306C14.668 11.1352 14.9074 10.8958 15.2028 10.8958C15.4981 10.8958 15.7375 11.1352 15.7375 11.4306Z" fill="black"/>
<path d="M15.7375 12.9861C15.7375 13.2814 15.4981 13.5208 15.2028 13.5208C14.9074 13.5208 14.668 13.2814 14.668 12.9861C14.668 12.6908 14.9074 12.4514 15.2028 12.4514C15.4981 12.4514 15.7375 12.6908 15.7375 12.9861Z" fill="black"/>
<path d="M15.6889 9.86532C15.6888 10.1338 15.4712 10.3514 15.2028 10.3514C14.9343 10.3514 14.7167 10.1338 14.7166 9.86532C14.7166 9.59685 14.9343 9.37921 15.2028 9.3792C15.4712 9.3792 15.6889 9.59684 15.6889 9.86532Z" fill="black"/>
<path d="M15.6403 8.30976C15.6402 8.55137 15.4444 8.74726 15.2028 8.74726C14.9612 8.74725 14.7653 8.55136 14.7653 8.30976C14.7653 8.06814 14.9611 7.87227 15.2028 7.87226C15.4444 7.87226 15.6403 8.06814 15.6403 8.30976Z" fill="black"/>
<path d="M15.5916 6.7542C15.5916 6.96896 15.4175 7.14309 15.2028 7.14309C14.988 7.14308 14.8139 6.96896 14.8139 6.7542C14.8139 6.53943 14.988 6.36533 15.2028 6.36532C15.4175 6.36532 15.5916 6.53943 15.5916 6.7542Z" fill="black"/>
<path d="M15.4944 5.20833C15.4944 5.36942 15.3638 5.5 15.2028 5.5C15.0417 5.49999 14.9111 5.36941 14.9111 5.20833C14.9111 5.04726 15.0417 4.91668 15.2028 4.91667C15.3638 4.91667 15.4944 5.04725 15.4944 5.20833Z" fill="black"/>
<path d="M15.3972 3.65278C15.3972 3.76017 15.3101 3.84722 15.2028 3.84722C15.0954 3.84721 15.0083 3.76016 15.0083 3.65278C15.0083 3.54539 15.0954 3.45834 15.2028 3.45833C15.3101 3.45833 15.3972 3.54539 15.3972 3.65278Z" fill="black"/>
<path d="M15.3 2.09722C15.3 2.15092 15.2565 2.19444 15.2028 2.19444C15.1491 2.19443 15.1055 2.15091 15.1055 2.09722C15.1055 2.04353 15.1491 2.00001 15.2028 2C15.2565 2 15.3 2.04353 15.3 2.09722Z" fill="black"/>
<path d="M16.5153 12.1986C16.5152 12.494 16.2758 12.7334 15.9805 12.7334C15.6852 12.7334 15.4458 12.4939 15.4458 12.1986C15.4458 11.9033 15.6852 11.6639 15.9805 11.6639C16.2759 11.6639 16.5153 11.9033 16.5153 12.1986Z" fill="black"/>
<path d="M16.4666 10.6431C16.4666 10.9115 16.249 11.1292 15.9805 11.1292C15.7121 11.1292 15.4944 10.9115 15.4944 10.6431C15.4944 10.3746 15.7121 10.157 15.9805 10.157C16.249 10.157 16.4666 10.3746 16.4666 10.6431Z" fill="black"/>
<path d="M16.418 7.53198C16.418 7.77359 16.2221 7.96948 15.9805 7.96948C15.7389 7.96947 15.5431 7.77358 15.543 7.53198C15.543 7.29036 15.7389 7.09449 15.9805 7.09448C16.2222 7.09448 16.418 7.29036 16.418 7.53198Z" fill="black"/>
<path d="M16.418 9.08754C16.418 9.32914 16.2221 9.52504 15.9805 9.52504C15.7389 9.52503 15.5431 9.32914 15.543 9.08754C15.543 8.84592 15.7389 8.65005 15.9805 8.65004C16.2222 8.65004 16.418 8.84591 16.418 9.08754Z" fill="black"/>
<path d="M16.3208 5.98611C16.3208 6.17404 16.1685 6.32639 15.9805 6.32639C15.7926 6.32638 15.6403 6.17404 15.6403 5.98611C15.6403 5.79819 15.7926 5.64584 15.9805 5.64583C16.1685 5.64583 16.3208 5.79818 16.3208 5.98611Z" fill="black"/>
<path d="M16.2236 4.43056C16.2236 4.56479 16.1148 4.67361 15.9805 4.67361C15.8463 4.6736 15.7375 4.56479 15.7375 4.43056C15.7375 4.29633 15.8463 4.18751 15.9805 4.1875C16.1148 4.1875 16.2236 4.29632 16.2236 4.43056Z" fill="black"/>
<path d="M16.1264 2.875C16.1264 2.95554 16.0611 3.02083 15.9805 3.02083C15.9 3.02082 15.8347 2.95554 15.8347 2.875C15.8347 2.79446 15.9 2.72918 15.9805 2.72917C16.0611 2.72917 16.1264 2.79446 16.1264 2.875Z" fill="black"/>
<path d="M17.293 11.4306C17.293 11.7259 17.0536 11.9653 16.7583 11.9653C16.463 11.9653 16.2236 11.7259 16.2236 11.4306C16.2236 11.1352 16.463 10.8958 16.7583 10.8958C17.0536 10.8958 17.293 11.1352 17.293 11.4306Z" fill="black"/>
<path d="M17.293 12.9861C17.293 13.2814 17.0536 13.5208 16.7583 13.5208C16.463 13.5208 16.2236 13.2814 16.2236 12.9861C16.2236 12.6908 16.463 12.4514 16.7583 12.4514C17.0536 12.4514 17.293 12.6908 17.293 12.9861Z" fill="black"/>
<path d="M17.2444 9.86532C17.2444 10.1338 17.0268 10.3514 16.7583 10.3514C16.4899 10.3514 16.2722 10.1338 16.2722 9.86532C16.2722 9.59685 16.4899 9.37921 16.7583 9.3792C17.0268 9.3792 17.2444 9.59684 17.2444 9.86532Z" fill="black"/>
<path d="M17.1958 8.30976C17.1958 8.55137 16.9999 8.74726 16.7583 8.74726C16.5167 8.74725 16.3208 8.55136 16.3208 8.30976C16.3208 8.06814 16.5167 7.87227 16.7583 7.87226C16.9999 7.87226 17.1958 8.06814 17.1958 8.30976Z" fill="black"/>
<path d="M17.1472 6.7542C17.1472 6.96896 16.9731 7.14309 16.7583 7.14309C16.5436 7.14308 16.3694 6.96896 16.3694 6.7542C16.3694 6.53943 16.5435 6.36533 16.7583 6.36532C16.9731 6.36532 17.1472 6.53943 17.1472 6.7542Z" fill="black"/>
<path d="M17.05 5.20833C17.05 5.36942 16.9194 5.5 16.7583 5.5C16.5972 5.49999 16.4666 5.36941 16.4666 5.20833C16.4666 5.04726 16.5972 4.91668 16.7583 4.91667C16.9194 4.91667 17.05 5.04725 17.05 5.20833Z" fill="black"/>
<path d="M16.9528 3.65278C16.9528 3.76017 16.8657 3.84722 16.7583 3.84722C16.6509 3.84721 16.5639 3.76016 16.5639 3.65278C16.5639 3.54539 16.6509 3.45834 16.7583 3.45833C16.8657 3.45833 16.9528 3.54539 16.9528 3.65278Z" fill="black"/>
<path d="M16.8555 2.09722C16.8555 2.15092 16.812 2.19444 16.7583 2.19444C16.7046 2.19443 16.6611 2.15091 16.6611 2.09722C16.6611 2.04353 16.7046 2.00001 16.7583 2C16.812 2 16.8555 2.04353 16.8555 2.09722Z" fill="black"/>
<path d="M17.8472 12.6265C17.7579 12.6936 17.6468 12.7334 17.5264 12.7334C17.2311 12.7334 16.9917 12.4939 16.9917 12.1986C16.9917 11.9033 17.2311 11.6639 17.5264 11.6639C17.6468 11.6639 17.7579 11.7037 17.8472 11.7708L17.8472 12.6265Z" fill="black"/>
<path d="M17.8472 11.0082C17.7616 11.0834 17.6494 11.1292 17.5264 11.1292C17.258 11.1292 17.0403 10.9115 17.0403 10.6431C17.0403 10.3746 17.2579 10.157 17.5264 10.157C17.6494 10.157 17.7616 10.2027 17.8472 10.278L17.8472 11.0082Z" fill="black"/>
<path d="M17.8472 7.82925C17.7673 7.91544 17.6532 7.96947 17.5264 7.96948C17.2848 7.96947 17.0889 7.77358 17.0889 7.53198C17.0889 7.29036 17.2848 7.09449 17.5264 7.09448C17.6532 7.09449 17.7673 7.14853 17.8472 7.23471L17.8472 7.82925Z" fill="black"/>
<path d="M17.8472 9.38481C17.7673 9.47099 17.6532 9.52503 17.5264 9.52504C17.2848 9.52503 17.0889 9.32914 17.0889 9.08754C17.0889 8.84592 17.2848 8.65005 17.5264 8.65004C17.6532 8.65005 17.7673 8.70408 17.8472 8.79027L17.8472 9.38481Z" fill="black"/>
<path d="M17.8472 6.09966C17.8005 6.23174 17.6745 6.32637 17.5264 6.32639C17.3385 6.32638 17.1861 6.17404 17.1861 5.98611C17.1861 5.79819 17.3385 5.64584 17.5264 5.64583C17.6745 5.64585 17.8005 5.74048 17.8472 5.87256L17.8472 6.09966Z" fill="black"/>
<path d="M17.7695 4.43056C17.7695 4.56478 17.6606 4.67359 17.5264 4.67361C17.3922 4.6736 17.2834 4.56479 17.2834 4.43056C17.2834 4.29633 17.3922 4.18751 17.5264 4.1875C17.6606 4.18752 17.7695 4.29633 17.7695 4.43056Z" fill="black"/>
<path d="M17.6722 2.875C17.6722 2.95553 17.6069 3.02081 17.5264 3.02083C17.4459 3.02082 17.3806 2.95554 17.3806 2.875C17.3806 2.79446 17.4459 2.72918 17.5264 2.72917C17.6069 2.72919 17.6722 2.79447 17.6722 2.875Z" fill="black"/>
</svg>
