<svg width="32" height="32" viewBox="0 0 32 32" fill="none" xmlns="http://www.w3.org/2000/svg">
<path fill-rule="evenodd" clip-rule="evenodd" d="M2.00001 16.0195L16.0195 30L18.732 27.3264L9.3306 17.925H14.3764V17.4774C14.4263 17.4767 14.4748 17.4707 14.5215 17.4599C14.5158 17.4942 14.5125 17.5294 14.5125 17.5653C14.5125 17.7076 14.5596 17.8388 14.6389 17.9444H15.65C15.7294 17.8388 15.7764 17.7076 15.7764 17.5653C15.7764 17.5107 15.7694 17.4576 15.7564 17.407C15.8093 17.4213 15.8648 17.4292 15.9222 17.4292C16.0045 17.4292 16.0831 17.4133 16.1551 17.3847C16.1366 17.4415 16.1264 17.5023 16.1264 17.5653C16.1264 17.7101 16.1793 17.8425 16.2666 17.9444H17.1528C17.2401 17.8425 17.293 17.7101 17.293 17.5653C17.293 17.4823 17.2757 17.4034 17.2444 17.3319C17.3159 17.3631 17.3948 17.3806 17.4778 17.3806C17.6056 17.3806 17.7237 17.3394 17.8198 17.2697C17.7635 17.3544 17.7305 17.456 17.7305 17.5653C17.7306 17.7135 17.7909 17.8476 17.8882 17.9444H18.6423C18.7397 17.8476 18.8 17.7135 18.8 17.5653C18.8 17.27 18.5606 17.0306 18.2653 17.0306C18.1512 17.0306 18.0456 17.0664 17.9588 17.1273C18.0233 17.0334 18.0611 16.9197 18.0611 16.7972C18.0611 16.6658 18.0177 16.5446 17.9444 16.4471C18.0337 16.5143 18.1448 16.5542 18.2653 16.5542C18.5606 16.5542 18.8 16.3148 18.8 16.0195C18.8 15.7241 18.5606 15.4847 18.2653 15.4847C18.1448 15.4847 18.0337 15.5246 17.9444 15.5917C18.0176 15.4942 18.0611 15.373 18.0611 15.2417C18.0611 15.1192 18.0233 15.0054 17.9588 14.9116C18.0456 14.9724 18.1512 15.0083 18.2653 15.0083C18.5606 15.0083 18.8 14.7689 18.8 14.4736C18.8 14.3532 18.7602 14.2421 18.6931 14.1528H17.8374C17.7703 14.2421 17.7306 14.3532 17.7305 14.4736C17.7305 14.5829 17.7635 14.6845 17.8198 14.7692C17.7237 14.6995 17.6056 14.6584 17.4778 14.6584C17.3948 14.6584 17.3159 14.6757 17.2444 14.707C17.2757 14.6355 17.293 14.5566 17.293 14.4736C17.293 14.3551 17.2576 14.2448 17.1969 14.1528H16.2226C16.1618 14.2448 16.1264 14.3551 16.1264 14.4736C16.1264 14.5366 16.1366 14.5973 16.1551 14.6542C16.0831 14.6256 16.0045 14.6097 15.9222 14.6097C15.8648 14.6097 15.8092 14.6175 15.7564 14.6319C15.7694 14.5813 15.7764 14.5282 15.7764 14.4736C15.7764 14.3565 15.7444 14.2468 15.6889 14.1528H14.6001C14.5445 14.2468 14.5125 14.3565 14.5125 14.4736C14.5125 14.5095 14.5158 14.5447 14.5215 14.579C14.4748 14.5681 14.4263 14.562 14.3764 14.5613V14.1139H9.3306L18.732 4.71254L16.0195 2L2.00001 16.0195ZM16.9488 16.5515C16.914 16.6262 16.8945 16.7094 16.8945 16.7972C16.8945 16.8802 16.9119 16.9591 16.9432 17.0306C16.8717 16.9994 16.7927 16.982 16.7097 16.982C16.6417 16.982 16.5764 16.9937 16.5156 17.0151C16.5406 16.9472 16.5542 16.8738 16.5542 16.7972C16.5542 16.7164 16.5389 16.6391 16.5112 16.568C16.5732 16.5905 16.64 16.6028 16.7097 16.6028C16.7949 16.6028 16.8758 16.5844 16.9488 16.5515ZM15.3134 16.6283C15.2985 16.6821 15.2903 16.7387 15.2903 16.7972C15.2903 16.8519 15.2974 16.9049 15.3104 16.9554C15.2575 16.9411 15.2019 16.9334 15.1445 16.9334C15.1058 16.9334 15.068 16.937 15.0313 16.9436C15.0416 16.8965 15.0472 16.8475 15.0472 16.7972C15.0472 16.7433 15.0408 16.6909 15.0289 16.6406C15.0664 16.6475 15.105 16.6514 15.1445 16.6514C15.203 16.6514 15.2596 16.6432 15.3134 16.6283ZM17.834 15.7035C17.7691 15.792 17.7305 15.9012 17.7305 16.0195C17.7305 16.1377 17.7691 16.2468 17.834 16.3353C17.7355 16.2592 17.6119 16.2139 17.4778 16.2139C17.3927 16.2139 17.3119 16.2323 17.2389 16.2651C17.2736 16.1904 17.293 16.1072 17.293 16.0195C17.293 15.9317 17.2737 15.8484 17.2389 15.7737C17.3119 15.8065 17.3927 15.825 17.4778 15.825C17.612 15.825 17.7355 15.7796 17.834 15.7035ZM16.1588 15.8277C16.1379 15.8878 16.1264 15.9523 16.1264 16.0195C16.1264 16.0866 16.138 16.1511 16.1588 16.2112C16.0858 16.1816 16.0059 16.1653 15.9222 16.1653C15.8638 16.1653 15.8072 16.1734 15.7534 16.1883C15.7683 16.1345 15.7764 16.0779 15.7764 16.0195C15.7764 15.961 15.7683 15.9043 15.7534 15.8506C15.8072 15.8654 15.8638 15.8736 15.9222 15.8736C16.0059 15.8736 16.0858 15.8572 16.1588 15.8277ZM14.5233 15.9038C14.5164 15.9413 14.5125 15.98 14.5125 16.0195C14.5125 16.0589 14.5164 16.0975 14.5233 16.135C14.4761 16.1239 14.4269 16.1176 14.3764 16.1169V15.9219C14.4269 15.9211 14.4761 15.915 14.5233 15.9038ZM16.9432 15.0082C16.9119 15.0797 16.8945 15.1587 16.8945 15.2417C16.8945 15.3295 16.9141 15.4126 16.9488 15.4873C16.8758 15.4545 16.7949 15.4361 16.7097 15.4361C16.64 15.4361 16.5731 15.4484 16.5112 15.4708C16.5388 15.3997 16.5542 15.3225 16.5542 15.2417C16.5542 15.1651 16.5406 15.0916 16.5156 15.0237C16.5764 15.0451 16.6417 15.0569 16.7097 15.0569C16.7927 15.0569 16.8717 15.0395 16.9432 15.0082ZM15.3104 15.0834C15.2974 15.134 15.2903 15.187 15.2903 15.2417C15.2903 15.3002 15.2985 15.3567 15.3134 15.4105C15.2596 15.3956 15.203 15.3875 15.1445 15.3875C15.105 15.3875 15.0664 15.3913 15.0289 15.3982C15.0408 15.348 15.0472 15.2956 15.0472 15.2417C15.0472 15.1914 15.0417 15.1424 15.0313 15.0952C15.068 15.1018 15.1058 15.1055 15.1445 15.1055C15.2019 15.1055 15.2575 15.0978 15.3104 15.0834Z" fill="black"/>
<path d="M24.4875 17.1278C24.2459 17.1279 24.05 17.3237 24.05 17.5653C24.05 17.7274 24.1383 17.8689 24.2693 17.9444H24.7058C24.8368 17.8689 24.925 17.7274 24.925 17.5653C24.925 17.3237 24.7291 17.1278 24.4875 17.1278Z" fill="black"/>
<path d="M22.9319 17.1278C22.6903 17.1279 22.4944 17.3237 22.4944 17.5653C22.4945 17.7274 22.5827 17.8689 22.7138 17.9444H23.1502C23.2812 17.8689 23.3694 17.7274 23.3694 17.5653C23.3694 17.3237 23.1736 17.1278 22.9319 17.1278Z" fill="black"/>
<path d="M21.3764 17.0792C21.1079 17.0792 20.8903 17.2969 20.8903 17.5653C20.8903 17.7187 20.9614 17.8554 21.0724 17.9444H21.6805C21.7914 17.8554 21.8625 17.7187 21.8625 17.5653C21.8625 17.2969 21.6448 17.0792 21.3764 17.0792Z" fill="black"/>
<path d="M19.8208 17.0306C19.5255 17.0306 19.2861 17.27 19.2861 17.5653C19.2861 17.7135 19.3464 17.8476 19.4438 17.9444H20.1978C20.2952 17.8476 20.3555 17.7135 20.3555 17.5653C20.3555 17.27 20.1161 17.0306 19.8208 17.0306Z" fill="black"/>
<path d="M26.0334 17.2251C25.8454 17.2251 25.6931 17.3774 25.6931 17.5653C25.6931 17.7532 25.8454 17.9056 26.0334 17.9056C26.2213 17.9056 26.3736 17.7532 26.3736 17.5653C26.3736 17.3774 26.2213 17.2251 26.0334 17.2251Z" fill="black"/>
<path d="M27.5889 17.3223C27.4547 17.3223 27.3459 17.4311 27.3459 17.5653C27.3459 17.6995 27.4547 17.8084 27.5889 17.8084C27.7231 17.8084 27.8319 17.6995 27.832 17.5653C27.832 17.4311 27.7232 17.3223 27.5889 17.3223Z" fill="black"/>
<path d="M29.1445 17.4195C29.0639 17.4195 28.9986 17.4848 28.9986 17.5653C28.9987 17.6459 29.0639 17.7112 29.1445 17.7112C29.225 17.7112 29.2903 17.6459 29.2903 17.5653C29.2903 17.4848 29.225 17.4195 29.1445 17.4195Z" fill="black"/>
<path d="M20.5889 16.2625C20.2936 16.2625 20.0542 16.5019 20.0542 16.7972C20.0542 17.0926 20.2936 17.332 20.5889 17.332C20.8842 17.332 21.1236 17.0926 21.1236 16.7972C21.1236 16.5019 20.8842 16.2625 20.5889 16.2625Z" fill="black"/>
<path d="M19.0334 16.2625C18.738 16.2625 18.4986 16.5019 18.4986 16.7972C18.4986 17.0926 18.738 17.332 19.0334 17.332C19.3287 17.332 19.5681 17.0926 19.5681 16.7972C19.5681 16.5019 19.3287 16.2625 19.0334 16.2625Z" fill="black"/>
<path d="M22.1542 16.3111C21.8857 16.3112 21.668 16.5288 21.668 16.7972C21.6681 17.0657 21.8857 17.2833 22.1542 17.2834C22.4226 17.2834 22.6403 17.0657 22.6403 16.7972C22.6403 16.5288 22.4226 16.3111 22.1542 16.3111Z" fill="black"/>
<path d="M23.7097 16.3597C23.4681 16.3598 23.2722 16.5556 23.2722 16.7972C23.2722 17.0388 23.4681 17.2347 23.7097 17.2347C23.9513 17.2347 24.1472 17.0389 24.1472 16.7972C24.1472 16.5556 23.9513 16.3597 23.7097 16.3597Z" fill="black"/>
<path d="M25.2653 16.4084C25.0505 16.4084 24.8764 16.5825 24.8764 16.7972C24.8764 17.012 25.0505 17.1861 25.2653 17.1861C25.48 17.1861 25.6541 17.012 25.6542 16.7972C25.6542 16.5825 25.48 16.4084 25.2653 16.4084Z" fill="black"/>
<path d="M26.8111 16.5056C26.6501 16.5056 26.5195 16.6362 26.5195 16.7972C26.5195 16.9583 26.6501 17.0889 26.8111 17.0889C26.9722 17.0889 27.1028 16.9583 27.1028 16.7972C27.1028 16.6362 26.9722 16.5056 26.8111 16.5056Z" fill="black"/>
<path d="M28.3667 16.6028C28.2593 16.6028 28.1722 16.6899 28.1722 16.7972C28.1723 16.9046 28.2593 16.9917 28.3667 16.9917C28.4741 16.9917 28.5611 16.9046 28.5611 16.7972C28.5611 16.6899 28.4741 16.6028 28.3667 16.6028Z" fill="black"/>
<path d="M29.9222 16.7C29.8686 16.7 29.825 16.7435 29.825 16.7972C29.825 16.8509 29.8686 16.8945 29.9222 16.8945C29.9759 16.8945 30.0195 16.8509 30.0195 16.7972C30.0195 16.7435 29.9759 16.7 29.9222 16.7Z" fill="black"/>
<path d="M19.8208 15.4847C19.5255 15.4848 19.2861 15.7242 19.2861 16.0195C19.2861 16.3148 19.5255 16.5542 19.8208 16.5542C20.1161 16.5542 20.3555 16.3148 20.3555 16.0195C20.3555 15.7241 20.1161 15.4847 19.8208 15.4847Z" fill="black"/>
<path d="M21.3764 15.5334C21.1079 15.5334 20.8903 15.751 20.8903 16.0195C20.8903 16.2879 21.1079 16.5056 21.3764 16.5056C21.6448 16.5056 21.8625 16.2879 21.8625 16.0195C21.8625 15.751 21.6448 15.5334 21.3764 15.5334Z" fill="black"/>
<path d="M24.4875 15.582C24.2459 15.582 24.05 15.7779 24.05 16.0195C24.05 16.2611 24.2459 16.4569 24.4875 16.457C24.7291 16.457 24.925 16.2611 24.925 16.0195C24.925 15.7778 24.7291 15.582 24.4875 15.582Z" fill="black"/>
<path d="M22.9319 15.582C22.6903 15.582 22.4944 15.7779 22.4944 16.0195C22.4944 16.2611 22.6903 16.4569 22.9319 16.457C23.1736 16.457 23.3694 16.2611 23.3694 16.0195C23.3694 15.7778 23.1736 15.582 22.9319 15.582Z" fill="black"/>
<path d="M26.0334 15.6792C25.8454 15.6792 25.6931 15.8315 25.6931 16.0195C25.6931 16.2074 25.8454 16.3597 26.0334 16.3597C26.2213 16.3597 26.3736 16.2074 26.3736 16.0195C26.3736 15.8315 26.2213 15.6792 26.0334 15.6792Z" fill="black"/>
<path d="M27.5889 15.7764C27.4547 15.7764 27.3459 15.8852 27.3459 16.0195C27.3459 16.1537 27.4547 16.2625 27.5889 16.2625C27.7231 16.2625 27.832 16.1537 27.832 16.0195C27.832 15.8852 27.7232 15.7764 27.5889 15.7764Z" fill="black"/>
<path d="M29.1445 15.8736C29.0639 15.8736 28.9986 15.9389 28.9986 16.0195C28.9986 16.1 29.0639 16.1653 29.1445 16.1653C29.225 16.1653 29.2903 16.1 29.2903 16.0195C29.2903 15.9389 29.225 15.8736 29.1445 15.8736Z" fill="black"/>
<path d="M20.5889 14.707C20.2936 14.707 20.0542 14.9464 20.0542 15.2417C20.0542 15.537 20.2936 15.7764 20.5889 15.7764C20.8842 15.7764 21.1236 15.537 21.1236 15.2417C21.1236 14.9464 20.8842 14.707 20.5889 14.707Z" fill="black"/>
<path d="M19.0334 14.707C18.738 14.707 18.4986 14.9464 18.4986 15.2417C18.4986 15.537 18.738 15.7764 19.0334 15.7764C19.3287 15.7764 19.5681 15.537 19.5681 15.2417C19.5681 14.9464 19.3287 14.707 19.0334 14.707Z" fill="black"/>
<path d="M22.1542 14.7556C21.8857 14.7556 21.668 14.9732 21.668 15.2417C21.6681 15.5101 21.8857 15.7278 22.1542 15.7278C22.4226 15.7278 22.6403 15.5101 22.6403 15.2417C22.6403 14.9732 22.4226 14.7556 22.1542 14.7556Z" fill="black"/>
<path d="M23.7097 14.8042C23.4681 14.8042 23.2722 15.0001 23.2722 15.2417C23.2722 15.4833 23.4681 15.6792 23.7097 15.6792C23.9513 15.6792 24.1472 15.4833 24.1472 15.2417C24.1472 15.0001 23.9513 14.8042 23.7097 14.8042Z" fill="black"/>
<path d="M25.2653 14.8528C25.0505 14.8528 24.8764 15.0269 24.8764 15.2417C24.8764 15.4564 25.0505 15.6306 25.2653 15.6306C25.48 15.6306 25.6541 15.4565 25.6542 15.2417C25.6542 15.0269 25.48 14.8528 25.2653 14.8528Z" fill="black"/>
<path d="M26.8111 14.95C26.6501 14.95 26.5195 15.0806 26.5195 15.2417C26.5195 15.4028 26.6501 15.5334 26.8111 15.5334C26.9722 15.5334 27.1028 15.4028 27.1028 15.2417C27.1028 15.0806 26.9722 14.95 26.8111 14.95Z" fill="black"/>
<path d="M28.3667 15.0472C28.2593 15.0472 28.1722 15.1343 28.1722 15.2417C28.1723 15.3491 28.2593 15.4361 28.3667 15.4361C28.4741 15.4361 28.5611 15.3491 28.5611 15.2417C28.5611 15.1343 28.4741 15.0472 28.3667 15.0472Z" fill="black"/>
<path d="M29.9222 15.1445C29.8686 15.1445 29.825 15.188 29.825 15.2417C29.825 15.2954 29.8686 15.3389 29.9222 15.3389C29.9759 15.3389 30.0195 15.2954 30.0195 15.2417C30.0195 15.188 29.9759 15.1445 29.9222 15.1445Z" fill="black"/>
<path d="M19.393 14.1528C19.3259 14.2421 19.2861 14.3532 19.2861 14.4736C19.2861 14.7689 19.5255 15.0083 19.8208 15.0083C20.1161 15.0083 20.3555 14.7689 20.3555 14.4736C20.3555 14.3532 20.3158 14.2421 20.2486 14.1528H19.393Z" fill="black"/>
<path d="M21.0113 14.1528C20.936 14.2384 20.8903 14.3506 20.8903 14.4736C20.8903 14.742 21.1079 14.9597 21.3764 14.9597C21.6448 14.9597 21.8625 14.7421 21.8625 14.4736C21.8625 14.3506 21.8167 14.2384 21.7414 14.1528H21.0113Z" fill="black"/>
<path d="M24.1902 14.1528C24.104 14.2327 24.05 14.3468 24.05 14.4736C24.05 14.7152 24.2459 14.9111 24.4875 14.9111C24.7291 14.9111 24.925 14.7152 24.925 14.4736C24.925 14.3468 24.8709 14.2327 24.7848 14.1528H24.1902Z" fill="black"/>
<path d="M22.6347 14.1528C22.5485 14.2327 22.4944 14.3468 22.4944 14.4736C22.4944 14.7152 22.6903 14.9111 22.9319 14.9111C23.1736 14.9111 23.3694 14.7152 23.3694 14.4736C23.3694 14.3468 23.3154 14.2327 23.2292 14.1528H22.6347Z" fill="black"/>
<path d="M25.9198 14.1528C25.7877 14.1995 25.6931 14.3255 25.6931 14.4736C25.6931 14.6615 25.8454 14.8139 26.0334 14.8139C26.2213 14.8139 26.3736 14.6615 26.3736 14.4736C26.3736 14.3255 26.279 14.1995 26.1469 14.1528H25.9198Z" fill="black"/>
<path d="M27.5889 14.2305C27.4547 14.2305 27.3459 14.3394 27.3459 14.4736C27.3459 14.6078 27.4547 14.7166 27.5889 14.7166C27.7231 14.7166 27.832 14.6078 27.832 14.4736C27.8319 14.3394 27.7231 14.2305 27.5889 14.2305Z" fill="black"/>
<path d="M29.1445 14.3278C29.0639 14.3278 28.9987 14.3931 28.9986 14.4736C28.9986 14.5541 29.0639 14.6194 29.1445 14.6194C29.225 14.6194 29.2903 14.5541 29.2903 14.4736C29.2903 14.3931 29.225 14.3278 29.1445 14.3278Z" fill="black"/>
</svg>
