<svg xmlns="http://www.w3.org/2000/svg" viewBox="0 0 189.23 209.39"><defs><style>.cls-1,.cls-3{fill:#fff;}.cls-1{opacity:0.5;}.cls-2{fill:#cb1d32;}</style></defs><title>Triumph_JerryCan</title><g id="Layer_2" data-name="Layer 2"><g id="pageTwo"><g id="fuelGauge"><path class="cls-1" d="M120,11.58V161.81a9.59,9.59,0,0,1-9.59,9.59H11.58A9.58,9.58,0,0,1,2,161.82V42.12a9.57,9.57,0,0,1,6.07-8.91l7.11-2.81,12.9-5.08L37,21.83a9.65,9.65,0,0,1,3.52-.67H77.22c6.67,0,11.62-5.45,11.67-12.11A7.1,7.1,0,0,1,96,2h14.45A9.58,9.58,0,0,1,120,11.58Z"/><path class="cls-2" d="M15.51,30.27l-.32.13L8.07,33.21A9.57,9.57,0,0,0,2,42.12V161.81a9.58,9.58,0,0,0,9.58,9.59h98.87a9.59,9.59,0,0,0,9.59-9.59V30.27Z"/><polygon class="cls-1" points="25.48 24.2 22.77 25.27 16.3 27.81 10.04 12.15 19.22 8.54 25.48 24.2"/><path class="cls-3" d="M42.55,188.42v3H33.34v5.94h8.31v3H33.34v8.73H29.87v-20.7Z"/><path class="cls-3" d="M61.09,188.42v12.3c0,6.12-3.15,8.67-7.74,8.67s-7.73-2.55-7.73-8.64V188.42h3.47v12.33c0,4,1.42,5.61,4.26,5.61s4.26-1.65,4.26-5.61V188.42Z"/><path class="cls-3" d="M78.34,188.42v3H69.13v5.46h8.31v3H69.13v6.21h9.21v3H65.66v-20.7Z"/><path class="cls-3" d="M85.12,206.12h9.21v3H81.64v-20.7h3.48Z"/><path class="cls-3" d="M125.35,88.7a2,2,0,0,0,0-4H122V46.35h3.31a2,2,0,0,0,0-4H122V11.59A11.59,11.59,0,0,0,110.45,0H62.2A16,16,0,0,0,50.84,4.78l-15,15.34L29.2,22.73,23.06,7.37l9.78.31a2,2,0,0,0,.13-4L22,3.33a2.14,2.14,0,0,0-.8.14l-12.63,5h0l-1.84.73L4.84,9.9h0l.71,1.78.76,1.93h0l6.26,15.66L7.34,31.34A11.53,11.53,0,0,0,0,42.12v119.7A11.58,11.58,0,0,0,11.58,173.4h98.87A11.63,11.63,0,0,0,122,161.81V131.05h3.31a2,2,0,0,0,0-4H122V88.7ZM53.7,7.58A11.93,11.93,0,0,1,62.2,4H88.46a9,9,0,0,0-1.57,5.31,9.92,9.92,0,0,1-10.07,9.85H42.36ZM10,12.15l9.18-3.61L25.48,24.2l-2.71,1.07L16.3,27.81Zm108,114.9H97.94a2,2,0,0,0,0,4H118v30.77a7.58,7.58,0,0,1-7.58,7.58H11.58A7.58,7.58,0,0,1,4,161.82V42.12a7.53,7.53,0,0,1,4.8-7L21,30.27l2.54-1,7.18-2.82,7-2.76a7.6,7.6,0,0,1,2.79-.53H76.84a14.07,14.07,0,0,0,14-14.06A5.12,5.12,0,0,1,96,4h14.45A7.59,7.59,0,0,1,118,11.59V42.35H97.94a2,2,0,0,0,0,4H118V84.7H97.94a2,2,0,0,0,0,4H118Z"/><path class="cls-3" d="M140.45,28.28a5.15,5.15,0,0,1-2.82-4.53c0-3.57,3.06-5.7,6.39-5.7s6.39,2.13,6.39,5.7a5.15,5.15,0,0,1-2.82,4.53,5.41,5.41,0,0,1,3.12,4.95c0,3.78-3.12,6.06-6.69,6.06s-6.69-2.28-6.69-6.06A5.51,5.51,0,0,1,140.45,28.28Zm3.57,8a3.26,3.26,0,0,0,0-6.51,3.26,3.26,0,0,0,0,6.51ZM144,27A3,3,0,0,0,147,24,2.94,2.94,0,1,0,144,27Z"/><path class="cls-3" d="M157.16,29.54H154V18.32h11.22v3.27H157.4V26a4.24,4.24,0,0,1,3.18-1.2c3.45,0,5.46,2.67,5.46,7.47,0,4.53-2.16,7-6.3,7-3.36,0-6-2.1-6.3-5.4h3.42a2.76,2.76,0,0,0,2.82,2.37c1.77,0,2.88-1.17,2.88-3.9S161.72,28,159.68,28A2.8,2.8,0,0,0,157.16,29.54Z"/><path class="cls-3" d="M177.08,24.17c0,2.7-1.29,4.59-4.47,4.59-2.85,0-4.41-1.68-4.41-4.59V22.61c0-2.91,1.62-4.56,4.41-4.56s4.47,1.62,4.47,4.56Zm-2.58,0V22.67c0-1.59-.63-2.34-1.89-2.34s-1.8.78-1.8,2.34v1.47c0,1.47.48,2.37,1.8,2.37S174.5,25.58,174.5,24.14ZM186,18.32,174.44,39h-3.21l11.58-20.7Zm3.24,16.38c0,2.7-1.29,4.59-4.47,4.59-2.82,0-4.38-1.68-4.38-4.59V33.14c0-2.91,1.62-4.56,4.38-4.56s4.47,1.62,4.47,4.56Zm-2.55,0V33.2c0-1.59-.66-2.34-1.89-2.34S183,31.64,183,33.2v1.47c0,1.47.48,2.37,1.83,2.37S186.68,36.11,186.68,34.67Z"/></g></g></g></svg>